<svg width="18px" height="13px" viewBox="0 0 18 13" version="1.1" xmlns="http://www.w3.org/2000/svg" xmlns:xlink="http://www.w3.org/1999/xlink"> <g id="Page-1" stroke="none" stroke-width="1" fill="none" fill-rule="evenodd"> <g id="Front" transform="translate(-1172.000000, -2430.000000)" fill="#1E201D" fill-rule="nonzero"> <g id="Questions" transform="translate(0.000000, 2337.000000)"> <g id="right-arrow-(12)" transform="translate(1172.000000, 93.000000)"> <path fill="#FFF" d="M12.1209908,0.184573127 C11.8757701,-0.0615243757 11.4676405,-0.0615243757 11.2138457,0.184573127 C10.968625,0.422356525 10.968625,0.818107915 11.2138457,1.05533704 L15.8135916,5.51557714 L0.635058749,5.51557714 C0.281232137,5.51613142 0,5.78883405 0,6.13192945 C0,6.47502484 0.281232137,6.75659586 0.635058749,6.75659586 L15.8135916,6.75659586 L11.2138457,11.2085219 C10.968625,11.4546194 10.968625,11.850925 11.2138457,12.0881541 C11.4676405,12.3342516 11.8763417,12.3342516 12.1209908,12.0881541 L17.8096539,6.57202273 C18.0634487,6.33423933 18.0634487,5.93848794 17.8096539,5.70125882 L12.1209908,0.184573127 Z" id="Path"></path> </g> </g> </g> </g></svg>
