<svg id="Layer_1" enable-background="new 0 0 52 52" height="512" viewBox="0 0 52 52" width="512" xmlns="http://www.w3.org/2000/svg"><g id="_x33_5"><g><g><g><g><path d="m40.5946808 11.6761007c0 .6000366-.4200439 1.3300171-.9500122 1.6400146l-7.0999756 4.0900278c-.2800293.1699829-.5300293.1699829-.7000122.0499878-.0100098 0-.0200195-.0100098-.0200195-.0100098l-.7600098-.4400024c-.1699829-.0999756-.2799683-.3099976-.2799683-.6099854l-.0100098-4.9000254c0-.5999756.4199829-1.3399658.9400024-1.6399536l7.0999756-4.1000361c.2600098-.1499634.5-.1699829.6799927-.0700073l.7700195.460022c.2000122.0899658.3200073.3099976.3200073.6300049z" fill="#f9a83d"/></g></g></g></g><g><g><g><path d="m31.873724 17.4770908c-.1697941-.0986671-.2747478-.3090916-.2755928-.6088448l-.0138874-4.9006968c-.0017357-.6034498.418972-1.3377514.9441147-1.6409779l7.0979195-4.0979881c.2642365-.152575.5039825-.1665564.6772041-.0658717l-.8126564-.4722691c-.1732178-.1006846-.4129639-.0867033-.6772041.0658717l-7.0979156 4.0979881c-.5251446.3032265-.9458523 1.037528-.9441147 1.6409779l.0138874 4.9006968c.000843.2998009.1057968.5101776.2755451.6088448z" fill="#f9a83d"/></g><g><g><path d="m39.6262589 6.2285905c.5251465-.3031931.9535141-.0590601.9552231.5443721l.0138931 4.9007006c.0017128.6034317-.4238892 1.3349342-.9490356 1.6381273l-7.0979271 4.0979919c-.5251465.3031921-.9485893.0618858-.9503002-.5415478l-.0138932-4.9006986c-.0017109-.6034327.4189663-1.3377609.9441128-1.640954z" fill="#ffd06c"/></g></g></g></g><g><g><g><g><g><g><g><g><g><path d="m28.6546783 36.5261383.0100098 2.1300049c0 .7099609-.5 1.5799561-1.1199951 1.9400024l-16 9.2399902c-.3500366.2000122-.6500244.2000122-.8600464.0299683.0200195.0200195.0400391.0400391.0599976.0500488l-2.7199707-1.5599976c-.2000122-.1200562-.3300171-.3700562-.3300171-.7200317v-2.1400146h-.0100098l-.079956-30.0199594v-2.1400146c-.0100098-.710022.4899902-1.5800171 1.1199951-1.9400024l15.9899902-9.2299805c.3200073-.1800536.5999756-.2000121.7999878-.0800171l2.6599731 1.5200195c.0200195.0099487.0500488.0299683.0700073.039978.2000122.1099854.3200073.3599856.3300171.7199709v2.1400146l.0100098 3.4700313.039978 14.7299814.0400391 11.8099976h-.0100098z" fill="#1d2943"/></g></g></g></g></g></g></g></g><g><g><g><g><g><g><g><path d="m28.6595249 36.5169296-18.2448749 10.5334893-.0824433-30.011673 18.2441979-10.5341549z" fill="#638dff"/></g></g><g><g><g><path d="m10.7484846 49.9123611-2.7256489-1.5579987c-.2013826-.116909-.3264093-.366272-.327086-.7203827l-.0060716-2.1408844 2.7249718 1.5573235.006072 2.1415596c.0013524.3541146.125703.6027985.3277627.7203827z" fill="#1d2943"/></g></g><g><g><path d="m28.6592827 36.5167923.0060711 2.1413918c.0020218.7127228-.4989605 1.5806885-1.1194172 1.9389114l-15.9984226 9.2366943c-.6204643.358223-1.1247158.0706291-1.1267366-.6420937l-.0060701-2.1413918z" fill="#4c5c75"/></g></g><g><g><path d="m10.4147072 47.0503044-2.7253575-1.5574989-.0827847-30.0118599 2.7253566 1.557497z" fill="#1d2943"/></g></g><g><g><path d="m9.6279945 46.5931129.7867194.4571915-.0827942-30.0118656-.7039252-.4090767z" fill="#497bfe"/></g></g><g><g><path d="m28.6598816 36.5152969-18.2456141 10.5355072-.0810661-30.0114154 18.2435846-10.5355087.0101319 3.4719777.0405407 14.7270117z" fill="#57b3fe"/></g></g><g><g><path d="m28.2425537 3.6433148c-.2040901-.1189391-.4865627-.1020443-.798769.0783852l-15.9985609 9.2366581c-.6203671.3581533-1.1211348 1.2258682-1.1191053 1.9388266l.0060883 2.1415615-2.7256489-1.5579834-.0060883-2.1409028c-.0020289-.7129574.4987221-1.5806561 1.1197824-1.9395027l15.9978857-9.2366486c.3122044-.1797615.5953712-.1966561.7994423-.0783935z" fill="#1d2943"/></g></g><g><g><path d="m27.4436913 3.7214456c.6204586-.3582215 1.1247158-.0706315 1.1267376.6420913l.0060692 2.1413937-18.2445765 10.533512-.0060701-2.1413946c-.0020208-.7127218.4989548-1.5806837 1.1194181-1.9389086z" fill="#4c5c75"/></g></g><g><g><path d="m20.787138 42.0857162c.4122353-.2380028.7475986-.0473518.7489414.4263382.0013447.4739189-.3318462 1.0505676-.7440796 1.2885704l-2.4994678 1.4430695c-.4120331.2378883-.7472019.0471153-.7485447-.4265709-.0013428-.4739227.3316498-1.0504494.7436829-1.2883377z" fill="#9ea9c9"/></g></g><g><g><g><path d="m22.6920109 7.7824254c.2699699-.1558676.4896488-.0309291.49053.2795434.0008812.310729-.2173729.6887655-.4873447.8446331-.2701931.1559973-.4901047.0309362-.4909859-.2797928-.0008812-.3104734.2176056-.6883864.4878006-.8443837z" fill="#9ea9c9"/></g></g><g><g><path d="m21.3769665 8.7470989c.1715508-.0990448.3111305-.0195074.3116894.1776218.0005589.1971302-.1381149.4373159-.3096657.5363607l-5.3474998 3.0873804c-.1715555.0990486-.3111296.0195084-.3116884-.1776218s.1381083-.4373121.3096647-.5363607z" fill="#9ea9c9"/></g></g></g><g><g><path d="m12.7777033 10.7033129c-.4693413-.2664137-1.2431889-.2664137-1.7125301 0-.4185514.2410202-.4693413.6088591-.1522141.8752728.0380917-.0380917.0888042-.076107.1522141-.1141996.4693413-.2663364 1.2431889-.2663364 1.7125301 0 .0507126.0380926.1014252.076108.152215.1141996.304429-.2664138.2537165-.6342526-.152215-.8752728z" fill="#fff"/></g><g><path d="m11.0651731 11.464386c-.0634098.0380926-.1141224.076108-.1522141.1141996.0380917.0380154.0888042.076108.1522141.1141224.4820385.2791119 1.2431889.2791119 1.7125301 0 .0507126-.0253172.1014252-.0634098.152215-.1014252v-.0126972c-.0507898-.0380917-.1015024-.076107-.152215-.1141996-.4693412-.2663365-1.2431888-.2663365-1.7125301 0z" fill="#4c5c75"/></g></g></g></g></g></g></g></g><g><g><g><g><path d="m27.7546539 27.9261017-15.4299926 8.9100342-.6900025-.4000244-.0499878-17.7199708 15.4299927-8.9100351.6900024.4000244z" fill="#f3f1fc"/></g></g></g></g><g><g><g enable-background="new"><g><g><path d="m12.3259315 36.8381844-.6875867-.3995781-.0502406-17.7215348.6875868.3995819z" fill="#dedffb"/></g></g><g><g><path d="m12.275691 19.1166534-.6875868-.3995819 15.4286423-8.9077301.6875859.399581z" fill="#f3f1fc"/></g></g><g><g><path d="m27.7043324 10.2089224.0502414 17.7215338-15.4286423 8.9077282-.0502405-17.721531z" fill="#fff"/></g></g></g></g><g><g><g><path d="m20.8037777 19.1154346.808506-.3379192.0027275.9621487-.8077755.5952568c-.07131.6463089-.2741909 1.3237553-.5843964 1.9791183l.4889622.4685173-.5871486 1.0225735-.6539459-.1883621c-.4127884.5857182-.8989449 1.107336-1.4244595 1.5003929l-.1093502.9932518-.8373241.483429-.1146145-.8639469c-.5308647.2168446-1.0135288.2545776-1.428299.1466503l-.6507282.9416142-.5910187-.3423576.4847126-1.0306683c-.3031788-.3012257-.5140963-.7341614-.5888166-1.2905579l-.8133926.3295193-.0027275-.9621487.8125992-.6092319c.0762215-.6435585.2839584-1.3181896.579587-1.9651356l-.4889622-.4685326.5871639-1.016964.6539164.1827755c.4079485-.5829239.8941202-1.0989628 1.4147406-1.4891777l.1190701-1.004467.8373241-.483429.1243801.8639107c.5211277-.2112389 1.0037918-.2489548 1.4185333-.1466141l.6507568-.9360275.5910034.3367462-.4847126 1.0306854c.3031654.3012333.5189533.7369614.5936889 1.2989502zm-3.2965279 5.0746232c1.2316494-.7110939 2.2263737-2.4340382 2.2223606-3.8493156-.0039959-1.4096813-1.0052052-1.9746704-2.2368565-1.2635765-1.2316895.7111168-2.2166796 2.4228382-2.2126827 3.8325214.0040122 1.4152755.9954873 1.9914874 2.2271786 1.2803707z" fill="#b28afd"/></g></g><g><g><path d="m21.3127384 26.6379528.5844288-.2477837.0019817.6992455-.5839043.4323711c-.0523129.4672642-.2020741.9571533-.4250298 1.4332714l.3569069.3374424-.4270096.7396107-.4733639-.1357327c-.2962608.423172-.651165.8017883-1.0306835 1.0881252l-.0808697.7190819-.6036339.3485088-.0846767-.6235027c-.3847809.1549301-.7357864.1838703-1.0334759.1036167l-.4710464.6809883-.4298019-.2449303.3538303-.7477875c-.2249222-.217535-.3720951-.5303879-.4268837-.9358006l-.5893412.2393856-.0019827-.6992474.5887871-.4351902c.0571957-.4700489.2021141-.9571438.4201908-1.4248409l-.3569069-.3374443.4270096-.7396088.4733467.1301212c.2914085-.4203682.6463165-.7877808 1.0258179-1.0797119l.0857525-.7218857.6036339-.3485069.0895329.6206837c.3799419-.146534.7309303-.1810684 1.0286045-.1064072l.4710617-.6753788.4298019.2449303-.3538303.7477875c.2200108.2147677.3769665.5331614.4317532.9385893zm-2.3838005 3.6735725c.8860188-.5115433 1.6090221-1.7638359 1.6061211-2.7875328-.0028877-1.0181046-.7306023-1.4272213-1.616621-.915678-.8957539.5171642-1.6090374 1.7582417-1.6061516 2.7763462.0029011 1.0236969.7208957 1.4440308 1.6166515.9268646z" fill="#dba660"/></g></g><g><g><path d="m17.5001812 19.9805737c.7886581-.4553337 1.4333687-.0823402 1.4359379.8238831s-.6379375 2.0156326-1.4265976 2.4709644c-.7935104.4581337-1.4333515.0879345-1.4359207-.8182888s.63307-2.018425 1.4265804-2.4765587z" fill="#b28afd"/></g></g><g enable-background="new"><g><g><path d="m23.6566925 20.9534359c.5696049-.3288612 1.0384865-.0616703 1.0403423.5928268.0018711.6600914-.4639645 1.4669399-1.0335693 1.7958031-.5793114.334465-1.0433064.0644531-1.0451775-.5956402-.0018558-.6544952.4590931-1.4585247 1.0384045-1.7929897z" fill="#f45170"/></g></g><g><g><path d="m26.0491219 20.3230019.5844707-.2421913.0019817.6992455-.583931.4323864c-.0523148.4672489-.2020874.9571457-.4250584 1.4276695l.3569622.3430138-.4270363.7396259-.4782314-.1329212c-.2962494.4231796-.6462708.7989616-1.025816 1.0853291l-.0808601.7134571-.6085281.3513355-.0846481-.6179028c-.3799267.152113-.7309036.1810532-1.0285931.1007843l-.4710483.6809863-.4298267-.2449131.348959-.7505779c-.2200241-.2147598-.367197-.5276127-.4268398-.9302216l-.5844879.2365971-.0019817-.6992474.5839157-.4379807c.057169-.4700508.2069454-.9543457.4201794-1.4192486l-.352066-.3458405.4270515-.7340298.4733467.1301365c.2913666-.4203606.6462727-.793375 1.0258179-1.0797272l.0808411-.7246532.60853-.3513336.0895462.6262779c.3799267-.1521282.7260494-.1782646 1.0237103-.1035671l.4759312-.6782036.4298115.2393208-.3538532.7534046c.2200505.2147428.3769624.5275613.431751.9329893zm-2.3886567 3.6763744c.890873-.5143452 1.6138935-1.7610455 1.6109905-2.7847424-.0029011-1.0236969-.7306156-1.4328156-1.6214905-.9184685-.890873.5143452-1.6041565 1.7554226-1.6012535 2.7791214.0029012 1.023697.7208787 1.4384366 1.6117535.9240895z" fill="#f45170"/></g></g></g><g><g><ellipse cx="18.924" cy="28.46" fill="#dba660" rx="1.462" ry=".847" transform="matrix(.502 -.865 .865 .502 -15.191 30.522)"/></g></g></g></g></g><g><g><g><g><path d="m12.7247839 40.2909851c.6294222-.3633957 1.1420279-.0729713 1.144084.6519928.0020504.7232666-.5072317 1.6053772-1.1366539 1.9687729-.6294422.3634109-1.1420536.0712891-1.144104-.6519775-.0020552-.7249642.5072317-1.6053772 1.1366739-1.9687882z" fill="#fff"/></g></g><g><g><path d="m17.7607002 37.2886429c.084425-.0487442.1534443-.0093842.1537189.087616.0002766.0969963-.0682945.2157822-.1527214.2645264l-3.1297159 1.806942c-.0844011.0487289-.1525249.0088654-.1527996-.0881348-.0002747-.0969963.0674-.2152786.1518011-.2640076z" fill="#fff"/></g></g><g><g><path d="m17.7677269 39.7673569c.084425-.0487442.1534443-.0093956.1537209.0876007.0002747.0969963-.0682964.2157974-.1527233.2645378l-3.129715 1.8069458c-.0844011.0487289-.1525249.0088501-.1528006-.08815-.0002747-.0969963.0674009-.2152634.1518021-.2639923z" fill="#fff"/></g></g><g><g><path d="m19.3194523 37.6306038c.0844021-.0487289.1534424-.0104408.1537209.087616.0002747.0969963-.068325.2147522-.1527252.2634811l-4.6849537 2.7048607c-.0844011.0487289-.1525221.0099068-.1527967-.0870895-.0002785-.0980568.0674-.2152786.1518011-.2640076z" fill="#fff"/></g></g></g><g><g><g><path d="m21.0371227 35.4918556c.6294231-.3633995 1.1420288-.0729752 1.144083.651989.0020504.7232666-.5072308 1.6053772-1.1366539 1.9687729-.6294422.3634109-1.1420517.0712891-1.1441021-.6519775-.0020561-.7249604.5072308-1.6053772 1.136673-1.9687844z" fill="#fff"/></g></g><g><g><path d="m26.0730381 32.4895096c.0844269-.0487404.1534462-.0093803.1537209.087616.0002747.0970001-.0682964.2157822-.1527233.2645264l-3.129715 1.806942c-.0844021.0487289-.1525249.0088654-.1527996-.088131-.0002747-.0970001.0674-.2152824.1518021-.2640114z" fill="#fff"/></g></g><g><g><path d="m26.0800648 34.9682236c.0844269-.0487442.1534462-.0093956.1537209.0876007.0002747.0970001-.0682964.2157974-.1527214.2645416l-3.1297169 1.806942c-.0844002.0487289-.1525249.0088501-.1527996-.0881462-.0002747-.0970001.0674-.2152672.1518021-.2639961z" fill="#fff"/></g></g><g><g><path d="m27.6317902 32.8314743c.0844021-.0487328.1534443-.0104446.1537209.0876122.0002766.0970001-.0683231.2147522-.1527252.2634811l-4.6849537 2.7048607c-.0844002.0487289-.1525211.0099106-.1527958-.0870895-.0002785-.098053.0674-.2152786.1518021-.2640076z" fill="#fff"/></g></g></g></g><g><g><g><g><g enable-background="new"><g><path d="m44.3946686 35.666153c.0100098 1.0499878-.7399902 2.3499756-1.6600342 2.8799438l-12.9499512 7.4700317c-.5.289978-.9500122.2999878-1.25.0700073.0100098.0100098.0100098.0100098.0100098.0200195l-1.3300171-.7700195c-.2999878-.1799927-.4899902-.5499878-.4899902-1.0700073l-.0400391-14.460022v-.9299927c-.0100098-1.0599976.7399902-2.3499756 1.6600342-2.8900146l12.9500122-7.4699707c.4599609-.2700195.8799438-.289978 1.1899414-.1099854l1.3100586.7600098.0499878.0299683c.0100098 0 .0100098.0100098.0199585.0100098.3000488.1799927.4800415.5499878.4900513 1.0700073v.9299927z" fill="#dedffb"/></g></g></g><g><g enable-background="new"><g><g><path d="m28.5933075 46.138031-1.3835468-.8046379c-.2943649-.1766205-.4808064-.5495033-.4808064-1.0695381l-.0491104-14.4685879 1.383606.8045788.0490494 14.468647c-.0000001.5200386.1864414.8929176.4808082 1.0695381z" fill="#dedffb"/></g></g><g><g><path d="m28.0655499 30.6031857 16.2889957-9.3972435.0449829 14.4583607c.0029793 1.0510445-.7463608 2.3489532-1.6673241 2.8806725l-12.94347 7.4729156c-.9272194.5353317-1.6752033.101902-1.6781826-.9491425z" fill="#f3f1fc"/></g><g><path d="m43.6914253 35.6677513c0 .8026543-.6054916 1.8587646-1.3095627 2.2670937l-12.9408703 7.4772568c-.2111702.1126747-.3379421.12677-.4083309.12677-.1971607 0-.211256-.3239326-.211256-.4788094l-.0562954-14.0532722 14.8841171-8.5897446z" fill="#fff"/></g></g><g><path d="m44.3546906 20.2761383v.9299927l-16.2900391 9.4000244-1.3800049-.8000488v-.9299927c-.0100098-1.0599976.7399902-2.3499756 1.6600342-2.8900146l12.9500122-7.4699707c.4599609-.2700195.8799438-.289978 1.1899414-.1099854l1.3100586.7600098.0499878.0299683c.0100098 0 .0100098.0100098.0199585.0100098.3000488.1799926.4800415.5499877.4900513 1.0700072z" fill="#df3260"/></g><g><g><path d="m42.6737099 19.3209229c.9209633-.5317173 1.6752014-.1018887 1.6782036.956356l.0026321.9286633-16.2889748 9.4044437-.002634-.9286613c-.0029984-1.0582447.7400856-2.3525543 1.667305-2.887886z" fill="#f45170"/></g></g><g><path d="m42.4797363 18.4024067c-.3044853-.1769791-.7257614-.1529026-1.1891975.1146908l-12.9434452 7.4729233c-.9272346.5353088-1.6703053 1.8296165-1.6673107 2.8878937l.002636.9286728 1.3831272.8038006-.002636-.9286728c-.0029945-1.058279.7401352-2.3525867 1.6673107-2.8878937l12.9435043-7.4729233c.4634361-.2675343.8846512-.2916107 1.1891975-.1146927z" fill="#df3260"/></g></g></g><g><g><g><path d="m34.0603561 32.699791v.5623359l-2.6051769 1.5034142v-.562336z" fill="#4c5c75"/></g><g><path d="m32.3044243 31.9537945-1.7214661 2.6855221-.3213043-.2410317 1.2853565-2.0083771-1.2968445-.527874.3213044-.6082859z" fill="#4c5c75"/></g></g></g><g><g><g><g><g><path d="m31.2598171 40.5914841.0058422 1.8997726-1.7951984.9556656-.0058403-1.8997765z" fill="#b28afd"/></g></g><g><g><path d="m33.9251442 39.1726112.0016441.5348015-1.1953849.6363564-.0016442-.5348015z" fill="#dedffb"/></g></g><g><g><path d="m42.7553825 34.4718742.0016442.5348015-5.1363602 2.7343178-.0016441-.5348015z" fill="#c9cee2"/></g></g><g><g><path d="m37.0318832 37.5187492.0016442.5348053-2.3696556 1.2614746-.001648-.5348014z" fill="#dedffb"/></g></g><g><g><path d="m33.9292831 40.5196838.0016442.5348015-1.195385.6363564-.0016441-.5348015z" fill="#dedffb"/></g></g><g><g><path d="m41.0826035 36.711647.0016441.5348015-6.4162369 3.4156532-.0016441-.5348014z" fill="#dedffb"/></g></g></g></g><g><g><g><g><path d="m31.2598171 37.016243.0058422 1.8997726-1.7951984.9556656-.0058403-1.8997764z" fill="#f45170"/></g></g><g><g><path d="m33.9251442 35.5973701.0016441.5348015-1.1953849.6363564-.0016442-.5348015z" fill="#dedffb"/></g></g><g><g><path d="m42.7553825 30.8966351.0016442.5348014-5.1363602 2.7343159-.0016441-.5348015z" fill="#ffd06c"/></g></g><g><g><path d="m37.0318832 33.943512.0016442.5348014-2.3696556 1.2614747-.001648-.5348015z" fill="#dedffb"/></g></g><g><g><path d="m33.9292831 36.9444427.0016442.5348015-1.195385.6363564-.0016441-.5348015z" fill="#dedffb"/></g></g><g><g><path d="m41.0826035 33.1364059.0016441.5348053-6.4162369 3.4156495-.0016441-.5348015z" fill="#dedffb"/></g></g></g></g></g></g><g><g><g><path d="m29.848772 27.5325298c.3720741-.214817.6707134-.0446415.6718941.3722076.0011826.416851-.295517.9307461-.6675911 1.1455631-.3627701.209444-.6613922.039259-.6625748-.3775902-.0011806-.4168509.2955018-.9307364.6582718-1.1401805z" fill="#fff"/></g></g><g><g><path d="m31.7835655 26.4154758c.3720741-.214817.6613922-.039259.6625748.3775902.0011826.416851-.2861977.9253635-.6582718 1.1401806-.3627701.209446-.6614094.0392685-.66259-.3775806-.0011826-.4168511.2955169-.9307442.658287-1.1401902z" fill="#fff"/></g></g><g><g><path d="m33.7183418 25.2984314c.3627701-.209444.6614075-.0392685.66259.3775826.0011826.4168491-.295517.9307442-.658287 1.1401882-.3720741.214817-.6613922.0392609-.6625748-.3775902-.0011825-.4168492.2861977-.9253636.6582718-1.1401806z" fill="#fff"/></g></g><g><g><path d="m42.5643997 20.1911583c.3627701-.209446.6613922-.0392609.6625748.3775902.0011826.4168491-.2955017.9307346-.6582718 1.1401806l-5.0695038 2.926878c-.3627701.209446-.6614075.0392704-.66259-.3775806-.0011826-.4168491.295517-.9307442.658287-1.1401901z" fill="#fff"/></g></g></g></g><g><g><g><g><g><path d="m42.7553825 27.6484604.0016442.5348015-5.1363602 2.7343158-.0016441-.5348014z" fill="#dba660"/></g></g><g><g><path d="m37.0318832 30.6953354.0016442.5348015-2.3696556 1.2614784-.001648-.5348034z" fill="#dedffb"/></g></g><g><g><path d="m41.0826035 29.8882332.0016441.5348015-6.4162369 3.4156532-.0016441-.5348015z" fill="#dedffb"/></g></g></g></g><g><g><g><g><path d="m42.7553825 24.0732193.0016442.5348015-5.1363602 2.7343178-.0016441-.5348034z" fill="#78e75a"/></g></g><g><g><path d="m37.0318832 27.1200962.0016442.5348015-2.3696556 1.2614746-.001648-.5348015z" fill="#dedffb"/></g></g><g><g><path d="m41.0826035 26.3129921.0016441.5348015-6.4162369 3.4156532-.0016441-.5348015z" fill="#dedffb"/></g></g></g></g></g></g><g><g><g><g><path d="m35.0491371 11.177742c.0599823-.0346317.1197205-.0398874.16222-.0059605.0779076.0577736.0705986.2183361-.0222931.3613014l-.8127327 1.2777195.8211784.3299294c.0895157.0376816.101593.1870518.0242805.3388653-.0425301.0826244-.1045532.1452436-.1666412.1810904-.0465736.0268888-.0970802.0381756-.1398849.0226898l-1.0079994-.4141245c-.046711-.0221663-.0740738-.0733747-.074276-.1447496-.0002174-.0757904.0267677-.1583786.0732155-.2298765l1.0023613-1.5748062c.0404549-.0639802.0906029-.1132298.1405716-.1420785z" fill="#1d2943"/></g></g><g><g><path d="m36.805542 9.3569479c.0306358-.0176878.061821-.0281792.0915947-.0294952.1088257-.0047588.1558151.1155176.1057129.2695227l-1.4335403 4.4279757c-.0385437.1160402-.116024.2099075-.1975212.2569609l-.0893288.0292473c-.1088257.0092115-.1558266-.11551-.1057129-.2650394l1.4335289-4.4324207c.0364074-.1118987.1138878-.2097657.1952667-.2567513z" fill="#1d2943"/></g></g><g><g><path d="m37.1217308 9.9811296c.0508614-.0293655.1019135-.0385437.1426125-.0214195l1.0079994.4141254c.0466995.0177202.0740509.0689363.0742683.1447268.0002022.0713739-.0267715.1539545-.073204.2298985l-1.0062447 1.5770483c-.0387077.0625467-.0890999.1095123-.1395531.1386433-.0621033.0358543-.1203842.0426941-.1632538.0093727-.077919-.0621891-.0667152-.2250004.0222969-.3657551l.8127289-1.2732658-.817295-.3366242c-.0895157-.0376511-.1016045-.1870136-.0242767-.3344116.0421676-.0828123.102909-.1471148.1639213-.1823388z" fill="#1d2943"/></g></g></g></g></g></svg>