<svg width="512" height="512" viewBox="0 0 512 512" fill="none" xmlns="http://www.w3.org/2000/svg">
<path d="M500.185 266.437H11.8154C6.00614 266.437 1.31281 261.743 1.31281 255.934C1.31281 250.125 6.00614 245.432 11.8154 245.432H474.814L411.077 181.694C406.974 177.592 406.974 170.929 411.077 166.826C415.179 162.724 421.842 162.724 425.945 166.826L507.635 248.517C510.654 251.536 511.541 256.033 509.899 259.971C508.258 263.877 504.418 266.437 500.185 266.437Z" fill="white"/>
<path d="M418.396 348.225C415.705 348.225 413.013 347.208 410.978 345.14C406.876 341.038 406.876 334.375 410.978 330.272L492.767 248.484C496.87 244.381 503.532 244.381 507.635 248.484C511.737 252.586 511.737 259.249 507.635 263.351L425.846 345.14C423.778 347.208 421.087 348.225 418.396 348.225Z" fill="white"/>
</svg>
