<?xml version="1.0" encoding="UTF-8"?>
<svg xmlns="http://www.w3.org/2000/svg" id="Layer_1" data-name="Layer 1" viewBox="0 0 512 512" width="512" height="512"><path d="M167.965,0H46.393A46.446,46.446,0,0,0,0,46.393V167.965a46.446,46.446,0,0,0,46.393,46.393H167.965a46.446,46.446,0,0,0,46.393-46.393V46.393A46.446,46.446,0,0,0,167.965,0Zm14.393,167.965a14.408,14.408,0,0,1-14.393,14.393H46.393A14.409,14.409,0,0,1,32,167.965V46.393A14.41,14.41,0,0,1,46.393,32H167.965a14.409,14.409,0,0,1,14.393,14.393ZM465.607,0H344.035a46.446,46.446,0,0,0-46.393,46.393V167.965a46.446,46.446,0,0,0,46.393,46.393H465.607A46.446,46.446,0,0,0,512,167.965V46.393A46.446,46.446,0,0,0,465.607,0ZM480,167.965a14.409,14.409,0,0,1-14.393,14.393H344.035a14.408,14.408,0,0,1-14.393-14.393V46.393A14.409,14.409,0,0,1,344.035,32H465.607A14.41,14.41,0,0,1,480,46.393ZM167.965,297.642H46.393A46.446,46.446,0,0,0,0,344.035V465.607A46.446,46.446,0,0,0,46.393,512H167.965a46.446,46.446,0,0,0,46.393-46.393V344.035A46.446,46.446,0,0,0,167.965,297.642Zm14.393,167.965A14.409,14.409,0,0,1,167.965,480H46.393A14.41,14.41,0,0,1,32,465.607V344.035a14.409,14.409,0,0,1,14.393-14.393H167.965a14.408,14.408,0,0,1,14.393,14.393ZM404.821,297.642A107.179,107.179,0,1,0,512,404.821,107.3,107.3,0,0,0,404.821,297.642Zm0,182.358A75.179,75.179,0,1,1,480,404.821,75.265,75.265,0,0,1,404.821,480Z"/></svg>
