<svg xmlns="http://www.w3.org/2000/svg" version="1.1" xmlns:xlink="http://www.w3.org/1999/xlink" width="512" height="512" x="0" y="0" viewBox="0 0 60 60" style="enable-background:new 0 0 512 512" xml:space="preserve" class=""><g><path d="M57.905 8.553a.97.97 0 0 0-.56-.498.965.965 0 0 0-.746.037c-4.545 2.171-7.887 4.018-10.836 5.989a112.9 112.9 0 0 0-15.279 12.088 1 1 0 0 1-1.581-.284 41.108 41.108 0 0 1-3.434-9.922c-.291-1.601-1.524-2.116-2.606-1.926-1.093.189-2.079 1.089-1.817 2.67a43.894 43.894 0 0 0 5.035 12.775.998.998 0 0 1-.139 1.199 120.838 120.838 0 0 0-7.448 8.578c-.929 1.307-.42 2.587.511 3.259.936.679 2.321.765 3.298-.569a84.466 84.466 0 0 1 3.531-4.788 175.06 175.06 0 0 1 2.145-2.639c.19-.229.473-.362.771-.362h.01a1 1 0 0 1 .773.379 45.13 45.13 0 0 0 3.004 3.403c2.125 2.099 4.691 4.048 7.612 5.777.88.534 1.997.283 2.553-.566.28-.433.367-.952.241-1.46a1.916 1.916 0 0 0-.922-1.21c-2.08-1.357-4.204-2.807-6.016-4.703-.312-.261-.996-.972-1.336-1.394a34.462 34.462 0 0 1-2.639-3.303 1 1 0 0 1 .086-1.255c4.801-5.167 9.891-9.737 15.13-13.585 3.533-2.646 7.292-4.795 10.17-6.371l.033-.018a.99.99 0 0 0 .456-1.303z" fill="#000000" opacity="1" data-original="#000000" class=""></path><path d="M56.145 20.946a1.016 1.016 0 0 0-.854.026.981.981 0 0 0-.507 1.178c1.007 3.139 1.393 6.438 1.145 9.809-.964 13.133-12.05 23.688-25.236 24.032a26.092 26.092 0 0 1-19.643-8.203 26.087 26.087 0 0 1-6.943-20.16C5.223 15.093 15.533 4.964 28.089 4.068c4.631-.329 9.225.558 13.303 2.566a1 1 0 0 0 1.315-.395c.145-.253.176-.539.093-.812a.97.97 0 0 0-.5-.59C38.458 2.953 34.32 1.998 30 1.998c-7.811 0-15.058 3.135-20.407 8.825-5.346 5.69-8.023 13.133-7.537 20.963.87 14.043 12.115 25.288 26.157 26.158 7.823.484 15.273-2.19 20.962-7.537C54.865 45.057 58 37.81 58 30c0-2.888-.438-5.731-1.305-8.454a.968.968 0 0 0-.551-.6z" fill="#000000" opacity="1" data-original="#000000" class=""></path></g></svg>