<svg id="Layer_1" viewBox="0 0 512 512" xmlns="http://www.w3.org/2000/svg" xmlns:xlink="http://www.w3.org/1999/xlink" data-name="Layer 1"><linearGradient id="New_Gradient_Swatch" gradientUnits="userSpaceOnUse" x1=".014" x2="511.986" y1="256" y2="256"><stop offset="0" stop-color="#0053cc"/><stop offset=".274" stop-color="#0077da"/><stop offset=".765" stop-color="#00b3f0"/><stop offset="1" stop-color="#00caf9"/></linearGradient><path d="m256 81.011a174.972 174.972 0 1 0 123.727 51.248 174.417 174.417 0 0 0 -123.727-51.248zm112.417 287.389a158.93 158.93 0 1 1 46.572-112.417 158.48 158.48 0 0 1 -46.572 112.417zm1.134-56.152a121.574 121.574 0 1 1 -144.221-174.632 5.71 5.71 0 0 1 7.2 7.257c-28.83 85.489 43.964 170.727 131.239 158.927a5.715 5.715 0 0 1 5.782 8.451zm-121.544-266.187v-38.039a7.993 7.993 0 1 1 15.986 0v38.039a7.993 7.993 0 1 1 -15.986 0zm106.068 24.093 19.019-32.909a7.976 7.976 0 1 1 13.8 7.994l-19.015 32.909a7.976 7.976 0 1 1 -13.8-7.994zm76.844 84.866a8 8 0 0 1 2.919-10.913l32.937-19.02a7.988 7.988 0 0 1 7.994 13.833l-32.938 18.991a8 8 0 0 1 -10.912-2.891zm-305.819-109.781a7.976 7.976 0 1 1 13.8-7.994l19.02 32.909a7.976 7.976 0 1 1 -13.8 7.994zm386.886 210.747a8.008 8.008 0 0 1 -7.993 8.021h-38.04a8.007 8.007 0 1 1 0-16.014h38.04a8 8 0 0 1 7.993 7.993zm-125.086 210.775a7.976 7.976 0 1 1 -13.8 7.993l-19.019-32.908a7.983 7.983 0 0 1 13.8-8.022zm-352.56-338.725a7.947 7.947 0 0 1 10.86-2.949l32.937 19.02a7.962 7.962 0 1 1 -7.937 13.8l-32.94-18.987a7.969 7.969 0 0 1 -2.92-10.884zm443.32 255.957a7.936 7.936 0 0 1 -10.885 2.891l-32.937-18.991a7.976 7.976 0 1 1 7.993-13.8l32.938 18.991a7.994 7.994 0 0 1 2.891 10.909zm-213.667 81.946v38.039a7.993 7.993 0 1 1 -15.986 0v-38.039a7.993 7.993 0 1 1 15.986 0zm-217.918-201.932h-38.068a8.007 8.007 0 0 1 0-16.014h38.068a8.007 8.007 0 0 1 0 16.014zm111.851 177.839-19.02 32.908a7.976 7.976 0 1 1 -13.8-7.993l19.02-32.937a7.983 7.983 0 0 1 13.8 8.022zm-76.845-84.838a7.979 7.979 0 0 1 -2.947 10.885l-32.934 18.991a7.962 7.962 0 0 1 -7.937-13.8l32.937-18.995a7.969 7.969 0 0 1 10.881 2.919z" fill="url(#New_Gradient_Swatch)"/></svg>