<svg fill="none" height="48" viewBox="0 0 48 48" width="48" xmlns="http://www.w3.org/2000/svg"><g clip-rule="evenodd" fill="rgb(0,0,0)" fill-rule="evenodd"><path d="m9 10c-1.65685 0-3 1.3431-3 3v22c0 1.6569 1.34315 3 3 3h19c.5523 0 1 .4477 1 1s-.4477 1-1 1h-19c-2.76142 0-5-2.2386-5-5v-22c0-2.7614 2.23858-5 5-5h30c2.7614 0 5 2.2386 5 5v12c0 .5523-.4477 1-1 1s-1-.4477-1-1v-12c0-1.6569-1.3431-3-3-3z"/><path d="m13.2929 16.2929c.3905-.3905 1.0237-.3905 1.4142 0l8.5858 8.5858c.3905.3905 1.0237.3905 1.4142 0l8.5858-8.5858c.3905-.3905 1.0237-.3905 1.4142 0s.3905 1.0237 0 1.4142l-8.5858 8.5858c-1.1716 1.1716-3.071 1.1716-4.2426 0l-8.5858-8.5858c-.3905-.3905-.3905-1.0237 0-1.4142z"/><path d="m33 35c0 .5523.4477 1 1 1h6.5858l-2.2929 2.2929c-.3905.3905-.3905 1.0237 0 1.4142s1.0237.3905 1.4142 0l4-4c.3905-.3905.3905-1.0237 0-1.4142l-4-4c-.3905-.3905-1.0237-.3905-1.4142 0s-.3905 1.0237 0 1.4142l2.2929 2.2929h-6.5858c-.5523 0-1 .4477-1 1z"/></g></svg>