<svg width="24px" height="18px" viewBox="0 0 24 18" version="1.1" xmlns="http://www.w3.org/2000/svg" xmlns:xlink="http://www.w3.org/1999/xlink"> <g id="Page-1" stroke="none" stroke-width="1" fill="none" fill-rule="evenodd"> <g id="Index-page" transform="translate(-341.000000, -3516.000000)" fill="#FFFFFF" fill-rule="nonzero"> <g id="Group-22" transform="translate(112.000000, 3509.000000)"> <g id="Group-14" transform="translate(229.000000, 4.000000)"> <g id="mail-black-envelope-symbol" transform="translate(0.000000, 3.000000)"> <path d="M24,14.9999176 C24,15.526056 23.8520067,16.0138112 23.6149304,16.4429526 L16.0371467,7.96449103 L23.5327723,1.40648186 C23.8243568,1.8692087 24,2.41275817 24,3.0001319 L24,14.9999176 Z M12.0000247,9.50392956 L22.4299449,0.377996637 C22.0019414,0.143690163 21.5199738,0 21.000068,0 L2.99998145,0 C2.47943266,0 1.99731663,0.143690163 1.57104435,0.377996637 L12.0000247,9.50392956 Z M14.9078071,8.95182299 L12.4935667,11.065577 C12.3523498,11.1885916 12.1765088,11.2500247 12.0000247,11.2500247 C11.8234418,11.2500247 11.6476007,11.1885916 11.5063838,11.065577 L9.09159932,8.95172406 L1.41795631,17.5385592 C1.87791291,17.8271266 2.41696087,18 2.99993199,18 L21.000068,18 C21.5829402,18 22.1222355,17.8271266 22.5820437,17.5385592 L14.9078071,8.95182299 Z M0.467326586,1.4064324 C0.175791563,1.86915924 0,2.41270871 0,3.0001319 L0,14.999967 C0,15.5261055 0.147300865,16.0138606 0.38526744,16.4430021 L7.96216079,7.9630566 L0.467326586,1.4064324 Z" id="Shape"></path> </g> </g> </g> </g> </g></svg>
