<svg width="512" height="512" viewBox="0 0 512 512" fill="none" xmlns="http://www.w3.org/2000/svg">
<path d="M275.661 333.414H226.714C222.64 333.414 218.733 331.796 215.852 328.916C212.972 326.035 211.354 322.128 211.354 318.054C211.354 313.981 212.972 310.074 215.852 307.193C218.733 304.313 222.64 302.694 226.714 302.694H275.661C288.652 302.681 301.107 297.514 310.293 288.328C319.479 279.142 324.646 266.687 324.659 253.696V175.718C324.646 162.727 319.479 150.272 310.293 141.086C301.107 131.9 288.652 126.734 275.661 126.72H107.776C94.785 126.734 82.3299 131.9 73.1439 141.086C63.9578 150.272 58.7912 162.727 58.7776 175.718V253.696C58.8047 266.683 63.9757 279.13 73.1588 288.313C82.3419 297.496 94.7891 302.667 107.776 302.694C111.85 302.694 115.757 304.313 118.637 307.193C121.518 310.074 123.136 313.981 123.136 318.054C123.136 322.128 121.518 326.035 118.637 328.916C115.757 331.796 111.85 333.414 107.776 333.414C86.6417 333.387 66.3808 324.98 51.4365 310.035C36.4923 295.091 28.0847 274.83 28.0576 253.696V175.718C28.0847 154.584 36.4923 134.323 51.4365 119.379C66.3808 104.435 86.6417 96.0271 107.776 96H275.661C296.795 96.0271 317.056 104.435 332 119.379C346.945 134.323 355.352 154.584 355.379 175.718V253.696C355.352 274.83 346.945 295.091 332 310.035C317.056 324.98 296.795 333.387 275.661 333.414Z" fill="#0078FF"/>
<path d="M404.173 416.051H236.288C215.15 416.038 194.881 407.634 179.934 392.687C164.986 377.74 156.583 357.471 156.57 336.333V258.406C156.583 237.268 164.986 216.999 179.934 202.052C194.881 187.105 215.15 178.702 236.288 178.688H283.904C287.978 178.688 291.885 180.306 294.765 183.187C297.646 186.067 299.264 189.974 299.264 194.048C299.264 198.122 297.646 202.029 294.765 204.909C291.885 207.79 287.978 209.408 283.904 209.408H236.288C223.297 209.422 210.842 214.588 201.656 223.774C192.47 232.96 187.303 245.415 187.29 258.406V336.333C187.303 349.324 192.47 361.779 201.656 370.965C210.842 380.151 223.297 385.318 236.288 385.331H404.173C417.164 385.318 429.619 380.151 438.805 370.965C447.991 361.779 453.158 349.324 453.171 336.333V258.406C453.158 245.415 447.991 232.96 438.805 223.774C429.619 214.588 417.164 209.422 404.173 209.408C400.099 209.408 396.192 207.79 393.312 204.909C390.431 202.029 388.813 198.122 388.813 194.048C388.813 189.974 390.431 186.067 393.312 183.187C396.192 180.306 400.099 178.688 404.173 178.688C425.307 178.715 445.568 187.123 460.512 202.067C475.456 217.011 483.864 237.272 483.891 258.406V336.333C483.864 357.467 475.456 377.728 460.512 392.672C445.568 407.617 425.307 416.024 404.173 416.051Z" fill="#0078FF"/>
</svg>
