<svg width="456" height="456" viewBox="0 0 456 456" fill="none" xmlns="http://www.w3.org/2000/svg">
<g clip-path="url(#clip0_72_2)">
<path d="M316.244 149.903L149.082 253.579C146.139 255.404 144.8 258.988 145.827 262.296L168.25 334.549C168.721 336.067 170.933 335.858 171.111 334.278L176.561 285.83C176.771 283.958 177.669 282.231 179.08 280.983L320.636 155.806C324.025 152.81 320.089 147.518 316.244 149.903Z" fill="#0088CC"/>
<path d="M0 0V455.731H455.731V0H0ZM379.882 118.418L327.851 367.178C325.409 378.851 311.718 384.094 302.104 377.037L223.545 319.372L183.506 360.253C176.479 367.428 164.34 364.524 161.321 354.945L132.42 263.239L54.979 240.371C44.819 237.371 44.22 223.206 54.091 219.359L358.844 100.6C370.444 96.08 382.431 106.232 379.882 118.418Z" fill="#0088CC"/>
</g>
<defs>
<clipPath id="clip0_72_2">
<rect width="455.731" height="455.731" fill="white"/>
</clipPath>
</defs>
</svg>
