<svg height="512" viewBox="0 0 152 152" width="512" xmlns="http://www.w3.org/2000/svg"><g id="Layer_2" data-name="Layer 2"><g id="Color_Icon" data-name="Color Icon"><g id="_09.Viber" data-name="09.Viber"><rect id="Background" fill="#665cac" height="152" rx="12" width="152"/><path id="Icon" d="m84 36h-16a28 28 0 0 0 -28 28v12a28 28 0 0 0 16 25.31v13.37a1.34 1.34 0 0 0 2.27.94l11.62-11.62h14.11a28 28 0 0 0 28-28v-12a28 28 0 0 0 -28-28zm10.48 52.48-4 4c-4.26 4.17-15.38-.59-25.18-10.6s-14.1-21.24-10-25.41l4-4a4.21 4.21 0 0 1 5.69.06l5.84 6a3.93 3.93 0 0 1 -1.6 6.47 3.82 3.82 0 0 0 -2.58 4.6c1 4.44 6.64 10 10.84 11.09a4 4 0 0 0 4.67-2.48 3.92 3.92 0 0 1 6.55-1.4l5.83 6a4.2 4.2 0 0 1 -.06 5.67zm-14.84-33.48a9.39 9.39 0 0 0 -1.19.07 1.33 1.33 0 1 1 -.29-2.65 12.23 12.23 0 0 1 1.48-.08 13.35 13.35 0 0 1 13.36 13.33 12.23 12.23 0 0 1 -.08 1.48 1.33 1.33 0 0 1 -2.65-.29 11.7 11.7 0 0 0 .07-1.19 10.69 10.69 0 0 0 -10.7-10.67zm8 10.67a1.34 1.34 0 0 1 -2.67 0 5.33 5.33 0 0 0 -5.33-5.33 1.34 1.34 0 1 1 0-2.67 8 8 0 0 1 8 8zm10.17 4.33a1.34 1.34 0 1 1 -2.6-.62 15.71 15.71 0 0 0 .43-3.69 16 16 0 0 0 -16-16c-.41 0-.83 0-1.24 0a1.33 1.33 0 0 1 -.2-2.66q.72-.06 1.44-.06a18.7 18.7 0 0 1 18.67 18.7 18.94 18.94 0 0 1 -.5 4.33z" fill="#fff"/></g></g></g></svg>