<svg width="37px" height="37px" viewBox="0 0 37 37" version="1.1" xmlns="http://www.w3.org/2000/svg" xmlns:xlink="http://www.w3.org/1999/xlink"> <g id="Page-1" stroke="none" stroke-width="1" fill="none" fill-rule="evenodd"> <g id="Front" transform="translate(-1131.000000, -42.000000)" fill-rule="nonzero"> <g id="Section-1" transform="translate(0.000000, -97.000000)"> <g id="Gift" transform="translate(1131.000000, 139.000000)"> <g id="Group"> <path d="M31.6568909,37 L3.34283247,37 C2.6011196,37 2,36.3987218 2,35.6568131 L2,14 L33,14 L33,35.6568131 C33,36.3987218 32.3986037,37 31.6568909,37 Z" id="Path" fill="#FFC73B"></path> <polygon id="Path" fill="#EFB025" points="2 14 33 14 33 19 2 19"></polygon> <path d="M37,8.25477367 L37,14.7452263 C37,15.4384252 36.5065613,16 35.8985138,16 L1.10063936,16 C0.49259184,16 0,15.4384252 0,14.7452263 L0,8.25477367 C0,7.56157475 0.49259184,7 1.10063936,7 L35.8985138,7 C36.5065613,7 37,7.56157475 37,8.25477367 Z" id="Path" fill="#FFC73B"></path> <path d="M17,9.53934683 C16.7639509,9.82882515 16.5323398,10.1223929 16.3062763,10.4191739 C15.4638778,11.5230473 14.6927654,12.679792 13.9957132,13.8803528 C13.7812996,14.2495764 13.5743752,14.6225973 13.3735532,15 L6,15 C6.43076883,13.9706139 6.90314447,12.960215 7.41490782,11.9726003 C8.34301639,10.1808144 9.40204755,8.46147108 10.5853443,6.83092831 C10.867993,6.44154935 11.1572988,6.05684411 11.4538164,5.67798093 C11.6313387,5.44955309 11.8119121,5.22433838 11.994982,5 C12.6679023,5.61050421 13.3402678,6.22042417 14.0134654,6.83092831 C14.1177598,6.92498681 14.2220541,7.02021381 14.3260711,7.11456448 C15.1204831,7.83490095 15.9148952,8.5549454 16.7090299,9.27615821 C16.8063898,9.36320613 16.9029175,9.45171465 17,9.53934683 Z" id="Path" fill="#EFB025"></path> <path d="M28,15 L20.6270076,15 C20.4270479,14.6225973 20.2193228,14.2495764 20.0049416,13.8803528 C19.3079948,12.679792 18.5361672,11.5230473 17.6947281,10.4191739 C17.4678668,10.1223929 17.2362907,9.82882515 17,9.53934683 C17.0973452,9.45171465 17.1938583,9.36379039 17.2912034,9.27615821 C18.08605,8.5549454 18.8803419,7.83402461 19.6743565,7.11456448 C19.778635,7.02021381 19.8829136,6.92498681 19.9871921,6.83092831 C20.6600106,6.22042417 21.3331064,5.61050421 22.0053702,5 C22.1884124,5.22375412 22.3689585,5.44955309 22.5464539,5.67739676 C22.8434814,6.05684411 23.1330207,6.44154935 23.4147946,6.83092831 C24.5979124,8.46147108 25.6567834,10.1808144 26.5853062,11.9726003 C27.0969922,12.960215 27.5692963,13.9706139 28,15 L28,15 Z" id="Path" fill="#EFB025"></path> <g transform="translate(5.000000, 6.000000)" fill="#FF4440" id="Path"> <path d="M13.9994391,4.45026673 C13.7604968,4.73323171 13.5263221,5.02048398 13.2977564,5.31088032 C12.4463141,6.3910061 11.6663862,7.52286585 10.9616186,8.69788493 C8.72419872,12.4253049 7.23810094,16.5891768 6.61129811,20.9474085 C5.66927085,19.6740663 4.79987983,18.2963986 4.01770837,16.823266 C2.64182692,17.7379002 1.2970753,18.784013 0.00224358974,19.9610328 C0.667187518,15.3381288 2.13225162,10.8947218 4.30825317,6.83088798 C5.47043266,4.65920349 6.83621795,2.595846 8.3915865,0.671684488 C8.57107368,0.448170732 8.75364582,0.228086927 8.93874197,0.00828885366 C9.72455931,0.697980146 10.5098157,1.38767151 11.2959135,2.0773628 C12.0988381,2.78220278 12.9020433,3.48675688 13.7052484,4.19245427 C13.8034055,4.27762961 13.9010016,4.36423398 13.9994391,4.45026673 Z"></path> <path d="M27.9971955,19.9610328 C26.7023638,18.784013 25.3576121,17.7379002 23.9817308,16.823266 C23.1995593,18.2963986 22.3301683,19.6740663 21.388141,20.9474085 C20.7613381,16.5891768 19.2755209,12.4253049 17.0378205,8.69788493 C16.3330529,7.52286585 15.5525641,6.3910061 14.7016827,5.31088032 C14.4722756,5.02048398 14.2381009,4.73323171 13.9994391,4.45026673 C14.0975962,4.36423398 14.1951923,4.27820122 14.2936298,4.19245427 C15.0973958,3.48675688 15.9006009,2.78134529 16.7038061,2.0773628 C17.4896234,1.38681402 18.2757212,0.697980146 19.0606971,0.00828885366 C19.2457933,0.227229439 19.4283654,0.448170732 19.6078526,0.671112805 C21.1635016,2.59527439 22.5292868,4.65863188 23.6920273,6.83088798 C25.8674679,10.8947218 27.3322516,15.3381288 27.9971955,19.9610328 L27.9971955,19.9610328 Z"></path> <polygon points="11.0732372 4.45026673 16.9264824 4.45026673 16.9264824 9.79287351 11.0732372 9.79287351"></polygon> </g> <path d="M28,12.9066339 L21.1347472,15 C20.4076271,13.6825125 19.6023842,12.4134174 18.7245161,11.2023288 L18.3035213,9.94829611 L18,9.0439056 L20.7901391,7.57675462 L23.7862909,6 C25.3912792,8.1574618 26.8003819,10.4709967 28,12.9066339 L28,12.9066339 Z" id="Path" fill="#EA2F2F"></path> <path d="M19,9.04348136 L18.6964347,9.9479363 L18.2759578,11.2020583 C17.3973839,12.4132331 16.5926033,13.6824187 15.865378,15 L9,12.9064848 C10.1992129,10.4713151 11.6085195,8.15761539 13.2134506,6 L16.2103253,7.57622588 L19,9.04348136 Z" id="Path" fill="#EA2F2F"></path> <path d="M28.4105648,0.235820713 L18,4.91246363 L19.9998005,10 L31.1116977,7.10684242 C32.5649484,6.7284564 33.3633291,5.25314109 32.8379484,3.91669731 L31.9208004,1.58396714 C31.3956947,0.247523356 29.7722657,-0.375838312 28.4105648,0.235820713 Z" id="Path" fill="#FF4440"></path> <path d="M8.58924436,0.235820713 L19,4.91246363 L17.0001627,10 L5.88833689,7.10684242 C4.43505956,6.7284564 3.63666427,5.25314109 4.16205451,3.91669731 L5.07894443,1.58396714 C5.60433473,0.247523356 7.22751854,-0.375838312 8.58924436,0.235820713 Z" id="Path" fill="#FF4440"></path> <path d="M21.5400656,8 C21.3622225,8 21.1877398,7.9080202 21.085118,7.73948074 C20.9245939,7.47679725 20.9977474,7.12781511 21.2487441,6.95981674 C21.3229316,6.91030995 23.0858536,5.73621491 25.1098535,4.87945015 C28.0277221,3.64421564 29.976242,3.71049518 30.9006128,5.07639513 C31.0730277,5.33096279 31.0153837,5.68346178 30.7721419,5.863634 C30.5289,6.04380615 30.1923421,5.98374879 30.0201858,5.7291812 C28.767012,3.87768195 23.5565692,6.75664959 21.8300948,7.91126655 C21.7401392,7.97132398 21.6395854,8 21.5400656,8 Z" id="Path" fill="#EA2F2F"></path> <path d="M15.4598707,8 C15.3603518,8 15.2597988,7.97132398 15.169844,7.91126655 C13.4433839,6.75664959 8.23298468,3.87768195 6.97982124,5.7291812 C6.80740793,5.98374879 6.47085286,6.04380615 6.22761303,5.863634 C5.98463167,5.68319126 5.9269882,5.33096279 6.09940159,5.07639513 C7.02376472,3.71049518 8.97200991,3.64421564 11.8901126,4.87945015 C13.9140957,5.7359444 15.677003,6.91030995 15.7511899,6.95981674 C16.0021844,7.12781511 16.0753373,7.47679725 15.915073,7.73948074 C15.8119351,7.9080202 15.6377124,8 15.4598707,8 Z" id="Path" fill="#EA2F2F"></path> <path d="M20.5067241,2 L17.4932758,2 C16.668612,2 16,2.81705421 16,3.82511624 L16,9.17488368 C16,10.1829457 16.668612,11 17.4932758,11 L20.5067241,11 C21.331388,11 22,10.1829457 22,9.17488368 L22,3.82511624 C22,2.81705421 21.331388,2 20.5067241,2 Z" id="Path" fill="#EA2F2F"></path> <polygon id="Path" fill="#FF4440" points="15 16 21 16 21 37 15 37"></polygon> <polygon id="Path" fill="#EA2F2F" points="15 16 21 16 21 18 15 18"></polygon> </g> </g> </g> </g> </g></svg>
