<svg width="640" height="640" viewBox="0 0 640 640" fill="none" xmlns="http://www.w3.org/2000/svg">
<g clip-path="url(#clip0_10312_240)">
<path d="M624.017 149.25C624.069 99.1423 585.533 57.4417 535.577 53.5533C485.626 49.6596 441.099 84.8899 433.389 134.399C359.905 97.8878 273.687 97.3152 199.719 132.842C204.664 121.125 207.548 108.642 208.25 95.9462C208.25 42.9551 165.29 0 112.304 0C59.313 0 16.3579 42.9551 16.3579 95.9462C16.3319 96.9196 16.3735 97.8982 16.4724 98.8664C17.5396 118.928 30.3293 150.91 54.5292 193.959C63.8157 210.335 73.8829 227.008 83.2631 241.635C22.24 348.83 42.7494 483.895 132.845 568.145C222.935 652.394 359.067 663.815 461.941 595.754C564.811 527.693 607.537 397.938 565.232 282.071C592.67 237.731 624.017 180.243 624.017 149.25ZM550.563 305.245C555.857 323.891 558.923 343.099 559.688 362.463H474.606C473.908 328.529 469.057 294.803 460.161 262.051C465.221 260.104 470.218 258.001 475.147 255.752C496.843 293.242 519.05 325.526 519.294 325.874C521.283 328.758 524.562 330.481 528.071 330.481C531.574 330.481 534.853 328.758 536.842 325.874C537.014 325.63 538.674 323.209 541.397 319.17L541.501 319.008L544.327 314.745L544.634 314.277C545.701 312.689 546.769 310.971 548.049 309.108L548.929 307.744L550.563 305.245ZM502.866 530.275C501.195 532.279 499.509 534.273 497.77 536.22C496.286 537.875 494.777 539.484 493.262 541.092C491.492 542.961 489.722 544.814 487.932 546.626C486.355 548.203 484.73 549.738 483.112 551.264C481.269 553.013 479.4 554.741 477.505 556.412C475.829 557.895 474.137 559.342 472.43 560.784C470.488 562.403 468.542 563.98 466.558 565.547C464.799 566.968 463.024 568.332 461.228 569.633C459.214 571.127 457.178 572.59 455.117 574.027C453.285 575.302 451.437 576.562 449.573 577.801C447.444 579.175 445.362 580.497 443.233 581.809C441.333 582.98 439.423 584.141 437.497 585.26C435.362 586.509 433.124 587.712 430.927 588.899C428.965 589.961 427.008 591.028 425.014 592.011C422.77 593.141 420.501 594.203 418.231 595.26C416.217 596.197 414.213 597.149 412.177 598.034C409.851 599.034 407.508 599.971 405.161 600.902C403.115 601.709 401.079 602.542 399.008 603.297C397.217 603.958 395.385 604.536 393.584 605.155C423.806 574.553 445.659 536.699 457.048 495.222C475.303 502.4 492.606 511.812 508.55 523.248C508.056 523.888 507.587 524.549 507.088 525.179C505.682 526.902 504.282 528.589 502.866 530.275ZM224.621 600.902C222.268 599.971 219.921 599.034 217.599 598.034C215.559 597.149 213.57 596.207 211.55 595.27C209.27 594.203 207.001 593.141 204.752 592.011C202.769 591.007 200.817 589.95 198.854 588.909C196.647 587.712 194.44 586.509 192.27 585.25C190.349 584.183 188.449 582.991 186.554 581.819C184.42 580.508 182.291 579.165 180.157 577.79C178.303 576.557 176.466 575.307 174.644 574.037C172.578 572.595 170.521 571.112 168.497 569.613C166.727 568.29 164.967 566.947 163.229 565.584C161.225 564.001 159.241 562.382 157.279 560.743C155.608 559.322 153.947 557.9 152.302 556.479C150.361 554.762 148.461 553.013 146.577 551.232C144.999 549.738 143.375 548.234 141.876 546.688C140.007 544.845 138.185 542.94 136.384 541.03C134.911 539.463 133.443 537.896 132.001 536.298C130.211 534.294 128.472 532.233 126.749 530.166C125.39 528.547 124.027 526.97 122.704 525.273C122.194 524.612 121.705 523.93 121.195 523.269C137.134 511.833 154.437 502.421 172.692 495.243C184.087 536.72 205.944 574.573 236.167 605.176C234.355 604.567 232.523 603.979 230.732 603.318C228.65 602.542 226.615 601.709 224.58 600.902H224.621ZM99.124 266.049L100.129 267.543L101.196 269.099L102.091 270.421L102.856 271.561L103.122 271.952L103.538 272.561C105.527 275.444 108.801 277.173 112.304 277.178C115.807 277.178 119.087 275.455 121.075 272.571C121.393 272.102 128.103 262.379 137.576 247.554C147.93 253.061 158.611 257.923 169.558 262.113C160.668 294.85 155.816 328.55 155.103 362.463H69.9789C71.4832 327.446 80.4886 293.158 96.3859 261.921C97.375 263.467 98.3067 264.81 99.124 266.049ZM358.041 378.454L358.124 378.584C364.72 389.865 368.186 402.701 368.16 415.767C366.864 430.259 362.747 444.35 356.037 457.259C342.612 486.373 327.22 514.539 309.964 541.561C308.605 543.695 307.262 545.829 305.846 547.958C301.167 555.423 296.935 561.883 293.525 567.15C284.15 552.929 268.727 528.823 254.313 503.27C246.187 488.835 239.337 475.551 233.908 463.61C226.251 449.237 221.196 433.621 218.984 417.484C218.984 417.261 218.921 415.98 218.901 415.756C218.869 402.639 222.362 389.755 229.004 378.444C242.294 355.363 266.9 341.142 293.536 341.142C299.829 341.152 306.096 341.933 312.202 343.463C331.566 348.487 348.088 361.099 358.041 378.454ZM304.196 320.534C268.664 316.791 233.955 332.907 213.888 362.463H176.414C177.075 330.934 181.432 299.587 189.401 269.078C226.599 280.634 265.244 286.881 304.196 287.625V320.534ZM203.289 383.785C199.573 394.039 197.642 404.856 197.59 415.767C197.569 416.756 197.605 417.745 197.704 418.729C199.385 433.304 203.362 447.52 209.494 460.851C201.988 462.772 194.586 464.901 187.288 467.248C180.807 439.863 177.231 411.873 176.627 383.743L203.289 383.785ZM218.213 480.433C219.431 482.984 220.879 485.764 222.222 488.387C223.174 490.287 224.08 492.12 225.079 494.072C228.374 500.401 231.862 506.924 235.74 513.748C258.842 554.741 284.504 592.022 284.78 592.391C286.769 595.27 290.038 596.993 293.536 596.998C297.049 596.993 300.334 595.26 302.317 592.36L304.196 589.612V617.528C257.478 610.985 215.09 561.831 192.717 487.867C201.103 485.061 209.604 482.547 218.25 480.433H218.213ZM325.518 556.839C326.356 555.516 327.21 554.215 328.053 552.862C329.812 550.061 331.645 547.084 333.534 543.992C333.982 543.268 334.45 542.482 334.898 541.732C336.376 539.312 337.86 536.871 339.385 534.273C339.984 533.268 340.577 532.233 341.186 531.223C342.571 528.875 343.961 526.522 345.376 524.091L347.511 520.276C348.807 518.001 350.108 515.721 351.42 513.389C352.211 511.978 352.976 510.573 353.768 509.121C355.001 506.893 356.23 504.649 357.443 502.395C358.265 500.87 359.067 499.366 359.873 497.846C361.05 495.628 362.2 493.421 363.33 491.203C364.131 489.657 364.917 488.111 365.683 486.565C366.75 484.358 367.817 482.172 368.884 479.975C369.618 478.44 370.352 476.925 371.013 475.405C371.388 474.603 371.804 473.781 372.169 472.995C394.13 475.941 415.774 480.897 436.835 487.799C414.629 561.82 372.231 610.985 325.518 617.528V556.839ZM442.431 467.29C422.328 460.809 401.725 455.999 380.836 452.918C385.843 441.127 388.769 428.556 389.482 415.767C389.425 404.856 387.493 394.039 383.777 383.785H453.071C452.467 411.904 448.902 439.883 442.431 467.259V467.29ZM373.116 362.463C361.659 345.285 344.965 332.256 325.518 325.323V287.625C364.465 286.886 403.11 280.639 440.307 269.078C448.277 299.587 452.634 330.934 453.295 362.463H373.116ZM325.518 266.304V128.782C371.783 135.039 411.751 181.627 434.191 248.694C398.977 259.662 362.388 265.591 325.518 266.304ZM304.196 128.782V266.304C267.316 265.57 230.732 259.625 195.518 248.652C217.958 181.575 257.925 134.987 304.196 128.73V128.782ZM155.275 383.785C155.905 414.382 159.871 444.823 167.107 474.562C146.493 482.531 126.978 493.098 109.04 506.008C85.3348 469.492 71.8736 427.281 70.0622 383.785H155.275ZM520.669 506.008C502.731 493.098 483.216 482.531 462.602 474.562C469.838 444.823 473.804 414.382 474.434 383.785H559.647C557.835 427.281 544.374 469.492 520.669 506.008ZM528.071 74.6248C569.261 74.6716 602.649 108.054 602.696 149.25C602.696 169.962 581.489 215.816 544.509 275.044C538.195 285.163 532.469 294.002 528.071 300.633C518.717 286.423 503.272 262.306 488.858 236.742C460.801 186.744 454.159 162.503 453.529 150.978C453.529 150.733 453.477 149.442 453.446 149.208C453.514 108.028 486.891 74.6716 528.071 74.6248ZM432.859 158.161C432.921 158.557 433.03 159.005 433.093 159.4C433.244 160.306 433.457 161.274 433.634 162.221C433.868 163.429 434.061 164.59 434.363 165.86C434.519 166.542 434.743 167.286 434.925 167.989C435.191 169.056 435.482 170.123 435.789 171.19C436.096 172.257 436.357 173.319 436.685 174.387C437.018 175.454 437.398 176.573 437.752 177.671C438.1 178.769 438.434 179.805 438.819 180.945C439.136 181.861 439.469 182.788 439.808 183.735C440.307 185.11 440.875 186.562 441.416 187.999C441.567 188.363 441.697 188.717 441.833 189.066C442.155 189.878 442.421 190.643 442.749 191.476C443.082 192.309 443.446 193.105 443.816 193.917C444.446 195.432 445.117 196.988 445.789 198.555C446.46 200.122 446.996 201.392 447.652 202.871C448.017 203.693 448.433 204.557 448.808 205.39C449.49 206.879 450.213 208.404 450.937 209.939C451.759 211.699 452.603 213.469 453.488 215.27L455.013 218.403C455.617 219.622 456.267 220.881 456.897 222.125C457.964 224.26 459.135 226.498 460.296 228.736C460.937 229.949 461.525 231.115 462.175 232.349C462.654 233.255 463.175 234.207 463.68 235.123C464.049 235.826 464.383 236.487 464.742 237.252C461.171 238.84 457.465 240.131 453.816 241.515C441.942 203.537 421.1 168.973 393.053 140.744C406.816 145.346 420.137 151.176 432.859 158.161ZM175.862 241.583C166.695 238.064 157.732 234.046 149.007 229.548C150.84 226.602 152.505 223.791 154.26 220.902C155.629 218.648 157.076 216.337 158.398 214.119L159.028 213.052C161.084 209.612 162.974 206.306 164.9 202.959C166.18 200.742 167.534 198.472 168.762 196.296L169.09 195.718L169.241 195.474C171.203 191.996 172.973 188.696 174.785 185.349C175.732 183.61 176.757 181.783 177.663 180.081L178.225 179.014C179.209 177.161 180.053 175.433 180.989 173.621C182.504 170.675 184.092 167.672 185.477 164.845C201.535 154.861 218.708 146.793 236.646 140.806C208.594 169.035 187.746 203.599 175.862 241.583ZM37.7626 97.716C37.7626 97.4713 37.7626 96.1804 37.6793 95.9462C37.6793 54.7297 71.0876 21.3214 112.304 21.3214C153.515 21.3214 186.929 54.7297 186.929 95.9462C184.232 115.971 177.679 135.283 167.632 152.81C155.889 176.453 142.922 199.461 128.774 221.74C127.535 223.703 126.301 225.665 124.912 227.752C120.138 235.378 115.807 242.072 112.314 247.392C110.076 243.983 107.494 240.006 104.657 235.561V235.493C94.6786 220.184 83.185 201.241 73.1438 183.543C45.0345 133.482 38.3924 109.241 37.7626 97.716Z" fill="#0078FF"/>
<path d="M528.071 191.892C551.62 191.892 570.713 172.799 570.713 149.25C570.713 125.7 551.62 106.607 528.071 106.607C504.516 106.607 485.428 125.7 485.428 149.25C485.428 172.799 504.516 191.892 528.071 191.892ZM528.071 127.928C539.845 127.928 549.392 137.475 549.392 149.25C549.392 161.024 539.845 170.571 528.071 170.571C516.291 170.571 506.749 161.024 506.749 149.25C506.749 137.475 516.291 127.928 528.071 127.928Z" fill="#0078FF"/>
<path d="M293.536 373.124C269.981 373.124 250.893 392.217 250.893 415.767C250.893 439.316 269.981 458.409 293.536 458.409C317.085 458.409 336.179 439.316 336.179 415.767C336.179 392.217 317.085 373.124 293.536 373.124ZM307.7 431.638C303.816 435.152 298.767 437.093 293.536 437.088C283.994 437.119 275.593 430.81 272.964 421.638C270.34 412.467 274.125 402.665 282.235 397.642C290.35 392.618 300.808 393.592 307.851 400.031C312.338 404.07 314.883 409.833 314.857 415.871C314.826 421.904 312.223 427.64 307.7 431.638Z" fill="#0078FF"/>
<path d="M154.947 95.9462C154.947 72.3969 135.853 53.3035 112.304 53.3035C88.7496 53.3035 69.6614 72.3969 69.6614 95.9462C69.6614 119.495 88.7496 138.589 112.304 138.589C135.853 138.589 154.947 119.495 154.947 95.9462ZM90.9827 95.9462C90.9827 84.1716 100.524 74.6248 112.304 74.6248C124.079 74.6248 133.625 84.1716 133.625 95.9462C133.625 107.721 124.079 117.268 112.304 117.268C100.524 117.268 90.9827 107.721 90.9827 95.9462Z" fill="#0078FF"/>
</g>
<defs>
<clipPath id="clip0_10312_240">
<rect width="640" height="640" fill="white"/>
</clipPath>
</defs>
</svg>
