<svg id="svg8" height="512" viewBox="0 0 32 32" width="512" xmlns="http://www.w3.org/2000/svg" xmlns:svg="http://www.w3.org/2000/svg"><g id="layer1" transform="translate(-33.022 -30.617)"><g id="g23880" transform="translate(-918.213 -110.683)"><path id="rect23620-2" d="m957.233 144.3c-1.645 0-2.997 1.36-2.997 3.004v5.256c0 1.645 1.352 2.997 2.997 2.997h5.256c1.645 0 3.004-1.353 3.004-2.997v-5.256c0-1.645-1.359-3.004-3.004-3.004zm0 2.001h5.256c.571 0 1.004.433 1.004 1.004v5.256c0 .571-.433.997-1.004.997h-5.256c-.571 0-1.004-.425-1.004-.997v-5.256c0-.572.432-1.004 1.004-1.004z"/><path id="rect23625-4" d="m975.784 145.181c-1.17-1.17-3.094-1.176-4.264-.004l-3.57 3.57c-1.17 1.17-1.17 3.1 0 4.27l3.57 3.57c1.17 1.17 3.094 1.165 4.264-.004l3.57-3.57c1.17-1.17 1.17-3.089 0-4.259zm-1.414 1.414 3.57 3.57c.411.411.416 1.024.004 1.436l-3.57 3.57c-.411.411-1.029.411-1.441 0l-3.57-3.57c-.41-.411-.41-1.029 0-1.44l3.57-3.57c.412-.411 1.025-.406 1.436.004z"/><path id="path23627-1" d="m957.233 158.038c-1.645 0-2.997 1.353-2.997 2.997v6.267c0 1.646 1.352 2.998 2.997 2.998h5.256c1.645 0 3.004-1.353 3.004-2.998v-6.267c0-1.645-1.359-2.997-3.004-2.997zm0 2h5.256c.571 0 1.004.426 1.004.997v6.267c0 .572-.433.997-1.004.997h-5.256c-.571 0-1.004-.425-1.004-.997v-6.267c0-.571.432-.997 1.004-.997z"/><path id="path23629-6" d="m970.934 159.02c-1.645 0-3.005 1.36-3.005 3.005v5.277c0 1.646 1.36 2.998 3.005 2.998h6.297c1.645 0 3.005-1.353 3.005-2.998v-5.277c0-1.645-1.36-3.005-3.005-3.005zm0 2.001h6.297c.571 0 1.004.433 1.004 1.004v5.277c0 .572-.433.997-1.004.997h-6.297c-.571 0-1.004-.425-1.004-.997v-5.277c0-.572.432-1.004 1.004-1.004z"/></g></g></svg>