<svg width="574" height="562" viewBox="0 0 574 562" fill="none" xmlns="http://www.w3.org/2000/svg">
<path d="M390.22 77.2387C441.272 78.0403 483.962 97.7104 517.547 137.051C518.625 138.241 519.455 139.641 519.985 141.165C520.516 142.689 520.736 144.307 520.634 145.92C520.532 147.534 520.109 149.109 519.39 150.552C518.672 151.995 517.673 153.275 516.453 154.316C515.269 155.339 513.895 156.112 512.411 156.587C510.928 157.063 509.366 157.232 507.817 157.085C506.268 156.938 504.764 156.477 503.393 155.731C502.022 154.984 500.813 153.966 499.837 152.737C487.85 138.37 473.275 126.45 456.892 117.615C431.708 104.04 403.084 98.4568 374.734 101.588C346.384 104.72 319.615 116.421 297.9 135.176C291.725 140.467 286.231 146.62 280.664 152.602C275.801 157.794 268.739 158.62 263.646 154.168C258.553 149.716 258.237 142.279 262.832 136.903C290.959 103.811 326.364 84.264 369.045 78.2622C372.388 77.7936 375.755 77.436 379.134 77.2756C382.817 77.103 386.525 77.2387 390.22 77.2387Z" fill="#0AC03D"/>
<path d="M394.438 125.31C426.735 126.161 457.111 140.109 480.996 168.177C485.712 173.702 485.165 180.83 479.927 185.443C474.955 189.784 467.771 189.204 463.14 183.802C450.669 169.152 435.559 158.41 417.132 153.366C379.584 143.081 347.117 152.454 319.889 180.658C318.88 181.706 317.944 182.828 316.984 183.926C314.934 186.326 312.027 187.803 308.904 188.029C305.781 188.256 302.697 187.215 300.331 185.134C297.965 183.054 296.51 180.105 296.287 176.937C296.063 173.768 297.089 170.64 299.14 168.239C309.645 155.592 322.61 145.281 337.223 137.951C353.985 129.478 371.695 125.396 394.438 125.31Z" fill="#0AC03D"/>
<path d="M447.581 207.308C447.588 209.732 446.87 212.101 445.522 214.102C444.174 216.103 442.26 217.643 440.033 218.518C437.768 219.424 435.281 219.587 432.92 218.985C430.559 218.384 428.443 217.047 426.868 215.164C421.946 209.314 415.778 204.675 408.83 201.598C389.381 193.262 368.049 198.441 353.62 214.966C350.205 218.888 345.938 220.306 341.003 218.789C339.121 218.208 337.412 217.159 336.031 215.738C334.651 214.316 333.642 212.567 333.098 210.649C332.553 208.732 332.489 206.706 332.912 204.757C333.336 202.808 334.232 200.997 335.521 199.489C360.221 169.275 405.657 164.959 435.377 190.191C438.775 193.061 441.904 196.244 444.725 199.699C446.366 201.721 447.071 204.521 448.201 206.975L447.581 207.308Z" fill="#0AC03D"/>
<path d="M390.171 270.252C385.471 270.267 380.873 268.864 376.96 266.222C373.047 263.58 369.996 259.818 368.195 255.413C366.393 251.009 365.923 246.161 366.842 241.484C367.762 236.808 370.031 232.514 373.36 229.148C376.69 225.782 380.93 223.496 385.543 222.58C390.155 221.664 394.932 222.159 399.267 224.002C403.602 225.846 407.299 228.955 409.889 232.934C412.479 236.913 413.845 241.584 413.814 246.352C413.801 252.702 411.303 258.786 406.87 263.268C402.436 267.75 396.43 270.262 390.171 270.252Z" fill="#0AC03D"/>
<path d="M248.037 385.455C259.073 374.258 259.073 356.103 248.037 344.906C237 333.708 219.106 333.708 208.069 344.906C197.033 356.103 197.033 374.258 208.069 385.455C219.106 396.653 237 396.653 248.037 385.455Z" stroke="#0094FF" stroke-width="2" stroke-linecap="round" stroke-linejoin="round"/>
<path d="M228.055 393.859C235.775 393.859 242.034 381.022 242.034 365.187C242.034 349.351 235.775 336.514 228.055 336.514C220.335 336.514 214.077 349.351 214.077 365.187C214.077 381.022 220.335 393.859 228.055 393.859Z" stroke="#0094FF" stroke-width="2" stroke-linecap="round" stroke-linejoin="round"/>
<path d="M208.607 344.9C213.904 349.998 220.94 352.818 228.24 352.77C235.541 352.721 242.54 349.808 247.771 344.641" stroke="#0094FF" stroke-width="2" stroke-linecap="round" stroke-linejoin="round"/>
<path d="M247.577 385.548C242.271 380.397 235.198 377.545 227.855 377.596C220.512 377.647 213.478 380.596 208.242 385.819" stroke="#0094FF" stroke-width="2" stroke-linecap="round" stroke-linejoin="round"/>
<path d="M199.794 365.187H256.316" stroke="#0094FF" stroke-width="2" stroke-linecap="round" stroke-linejoin="round"/>
<path d="M228.055 336.514V393.859" stroke="#0094FF" stroke-width="2" stroke-linecap="round" stroke-linejoin="round"/>
<path d="M228.189 327.45V324.367" stroke="#0094FF" stroke-linecap="round" stroke-linejoin="round"/>
<path d="M228.189 318.102V8.3501" stroke="#0094FF" stroke-linecap="round" stroke-linejoin="round" stroke-dasharray="5.07 5.07"/>
<path d="M228.189 5.23006V2.14697" stroke="#0094FF" stroke-linecap="round" stroke-linejoin="round"/>
<path d="M182.594 160.309C177.94 160.316 173.479 162.196 170.19 165.537C166.901 168.879 165.054 173.408 165.054 178.13C165.054 187.995 182.619 208.085 182.619 208.085C182.619 208.085 200.171 187.971 200.171 178.13C200.172 175.788 199.719 173.469 198.836 171.305C197.953 169.142 196.658 167.176 195.026 165.521C193.393 163.866 191.455 162.553 189.321 161.659C187.188 160.765 184.902 160.306 182.594 160.309V160.309ZM182.594 186.207C181.014 186.21 179.468 185.736 178.153 184.847C176.838 183.958 175.812 182.692 175.206 181.211C174.6 179.73 174.441 178.1 174.749 176.527C175.057 174.954 175.817 173.51 176.935 172.376C178.053 171.242 179.477 170.47 181.027 170.158C182.577 169.845 184.184 170.007 185.644 170.622C187.104 171.236 188.351 172.277 189.227 173.611C190.104 174.946 190.571 176.514 190.568 178.117C190.568 180.264 189.728 182.323 188.233 183.842C186.738 185.361 184.71 186.216 182.594 186.22V186.207Z" fill="#0088FF" stroke="#0088FF" stroke-linecap="round" stroke-linejoin="round"/>
<path d="M182.594 160.309V157.226" stroke="#0094FF" stroke-linecap="round" stroke-linejoin="round"/>
<path d="M182.594 151.146V8.26367" stroke="#0094FF" stroke-linecap="round" stroke-linejoin="round" stroke-dasharray="4.93 4.93"/>
<path d="M182.594 5.23006V2.14697" stroke="#0094FF" stroke-linecap="round" stroke-linejoin="round"/>
<path d="M141.072 306.485H106.271C103.55 306.485 100.94 307.581 99.0164 309.533C97.0925 311.485 96.0116 314.133 96.0116 316.893V332.925C96.0116 335.686 97.0925 338.333 99.0164 340.285C100.94 342.237 103.55 343.334 106.271 343.334L106.623 359.489L117.563 343.334H141.096C143.817 343.334 146.426 342.237 148.35 340.285C150.274 338.333 151.355 335.686 151.355 332.925V316.893C151.355 315.524 151.089 314.169 150.572 312.905C150.055 311.64 149.297 310.492 148.342 309.525C147.386 308.558 146.253 307.792 145.005 307.27C143.758 306.748 142.421 306.482 141.072 306.485Z" fill="white" stroke="#0094FF" stroke-linecap="round" stroke-linejoin="round"/>
<path d="M127.944 315.155H156.545C158.779 315.171 160.917 316.077 162.497 317.678C164.078 319.28 164.974 321.447 164.993 323.713V336.933C164.974 339.2 164.078 341.367 162.497 342.968C160.917 344.57 158.779 345.476 156.545 345.492L156.266 358.762L147.295 345.492H127.944C125.706 345.492 123.561 344.59 121.979 342.985C120.397 341.38 119.508 339.203 119.508 336.933V323.713C119.508 321.443 120.397 319.266 121.979 317.661C123.561 316.056 125.706 315.155 127.944 315.155Z" fill="#0094FF" stroke="#0094FF" stroke-linecap="round" stroke-linejoin="round"/>
<path d="M136.489 330.311C136.489 329.679 136.304 329.061 135.957 328.535C135.611 328.01 135.119 327.6 134.543 327.359C133.967 327.118 133.333 327.055 132.722 327.179C132.111 327.304 131.55 327.609 131.11 328.057C130.67 328.505 130.372 329.075 130.251 329.696C130.131 330.316 130.195 330.959 130.436 331.542C130.676 332.125 131.081 332.623 131.6 332.973C132.12 333.322 132.73 333.508 133.353 333.505C134.186 333.502 134.983 333.164 135.571 332.565C136.159 331.967 136.489 331.156 136.489 330.311Z" fill="#1405CB"/>
<path d="M143.089 333.505C144.828 333.505 146.238 332.075 146.238 330.311C146.238 328.547 144.828 327.117 143.089 327.117C141.351 327.117 139.941 328.547 139.941 330.311C139.941 332.075 141.351 333.505 143.089 333.505Z" fill="#1405CB"/>
<path d="M152.826 333.505C154.565 333.505 155.974 332.075 155.974 330.311C155.974 328.547 154.565 327.117 152.826 327.117C151.087 327.117 149.678 328.547 149.678 330.311C149.678 332.075 151.087 333.505 152.826 333.505Z" fill="#1405CB"/>
<path d="M134.07 295.201V292.118" stroke="#0094FF" stroke-linecap="round" stroke-linejoin="round"/>
<path d="M134.07 286.038V9.37378" stroke="#0094FF" stroke-linecap="round" stroke-linejoin="round" stroke-dasharray="4.93 4.93"/>
<path d="M134.07 6.32772V3.24463" stroke="#0094FF" stroke-linecap="round" stroke-linejoin="round"/>
<path d="M121.088 204.607H59.6307V241.05H121.088V204.607Z" fill="white" stroke="#0094FF" stroke-linecap="round" stroke-linejoin="round"/>
<path d="M59.6307 241.049L89.8854 212.71L121.1 241.049H59.6307Z" fill="white" stroke="#0094FF" stroke-linecap="round" stroke-linejoin="round"/>
<path d="M59.6307 204.607L90.3716 222.835L121.1 204.607H59.6307Z" fill="white" stroke="#0094FF" stroke-linecap="round" stroke-linejoin="round"/>
<path d="M89.8245 202.942V199.859" stroke="#0094FF" stroke-linecap="round" stroke-linejoin="round"/>
<path d="M89.8245 194.076V150.653" stroke="#0094FF" stroke-linecap="round" stroke-linejoin="round" stroke-dasharray="4.69 4.69"/>
<path d="M89.8245 147.767V144.684" stroke="#0094FF" stroke-linecap="round" stroke-linejoin="round"/>
<path d="M106.259 92.0497C103.253 85.9309 98.4881 80.8814 92.5936 77.5686C86.6991 74.2558 79.9526 72.8356 73.2456 73.4958C66.5387 74.1559 60.187 76.8653 55.0301 81.2659C49.8732 85.6664 46.1538 91.551 44.3635 98.1419C43.8287 98.1419 43.2939 98.0556 42.759 98.0556C37.5765 97.9463 32.5518 99.8672 28.7291 103.419C24.9063 106.971 22.5794 111.881 22.232 117.128C21.8846 122.375 23.5434 127.556 26.8636 131.595C30.1838 135.634 34.9102 138.219 40.0605 138.814V139.061H102.235C108.153 139.202 113.901 137.051 118.311 133.045C122.72 129.039 125.46 123.479 125.973 117.496C126.485 111.513 124.732 105.557 121.07 100.839C117.408 96.121 112.111 92.9958 106.259 92.099V92.0497Z" fill="white" stroke="#0094FF" stroke-linecap="round" stroke-linejoin="round"/>
<path d="M76.4172 73.3416V70.2585" stroke="#0094FF" stroke-linecap="round" stroke-linejoin="round"/>
<path d="M76.4172 64.2404V7.09229" stroke="#0094FF" stroke-linecap="round" stroke-linejoin="round" stroke-dasharray="4.88 4.88"/>
<path d="M76.4172 4.08309V1" stroke="#0094FF" stroke-linecap="round" stroke-linejoin="round"/>
<path d="M36.9121 293.339C35.5189 293.344 34.1656 293.812 33.0589 294.67L17.7553 283.016C18.0398 282.282 18.1842 281.499 18.1807 280.71C18.1945 279.245 17.7187 277.818 16.831 276.662C15.9432 275.506 14.6958 274.689 13.2919 274.344C11.888 273.999 10.4103 274.147 9.09968 274.763C7.78903 275.379 6.72259 276.427 6.07412 277.736C5.42564 279.046 5.23332 280.539 5.52851 281.974C5.8237 283.409 6.58898 284.7 7.6997 285.636C8.81042 286.573 10.2011 287.101 11.6452 287.134C13.0893 287.166 14.5018 286.702 15.6524 285.816L30.956 297.458C30.6784 298.198 30.5343 298.984 30.5306 299.776C30.5333 300.565 30.6775 301.346 30.956 302.082L15.6524 313.724C14.5057 312.843 13.099 312.38 11.6608 312.412C10.2225 312.444 8.83695 312.967 7.72894 313.898C6.62093 314.829 5.85546 316.113 5.55672 317.54C5.25797 318.968 5.44349 320.456 6.08316 321.764C6.72284 323.071 7.77914 324.121 9.08069 324.743C10.3822 325.364 11.8527 325.522 13.2534 325.189C14.6542 324.856 15.9031 324.053 16.7975 322.91C17.6919 321.767 18.1793 320.351 18.1807 318.891C18.1828 318.098 18.0385 317.312 17.7553 316.573L33.0589 304.931C33.8663 305.549 34.8071 305.964 35.8036 306.141C36.8001 306.318 37.8239 306.252 38.7903 305.949C39.7568 305.645 40.6383 305.113 41.3622 304.396C42.086 303.679 42.6315 302.798 42.9536 301.825C43.2756 300.852 43.365 299.815 43.2144 298.8C43.0639 297.785 42.6776 296.821 42.0875 295.987C41.4974 295.153 40.7204 294.474 39.8205 294.005C38.9207 293.536 37.9238 293.291 36.9121 293.289V293.339Z" fill="#0094FF"/>
<path d="M27.504 80.8272V77.7441" stroke="#0094FF" stroke-linecap="round" stroke-linejoin="round"/>
<path d="M27.504 71.1218V8.22681" stroke="#0094FF" stroke-linecap="round" stroke-linejoin="round" stroke-dasharray="5.37 5.37"/>
<path d="M27.504 4.92171V1.83862" stroke="#0094FF" stroke-linecap="round" stroke-linejoin="round"/>
<path d="M27.504 279.625V276.542" stroke="#0094FF" stroke-linecap="round" stroke-linejoin="round"/>
<path d="M27.504 270.363V149.716" stroke="#0094FF" stroke-linecap="round" stroke-linejoin="round" stroke-dasharray="5.02 5.02"/>
<path d="M27.504 146.62V143.537" stroke="#0094FF" stroke-linecap="round" stroke-linejoin="round"/>
<path d="M92.596 471.035C101.108 471.035 108.009 452.671 108.009 430.018C108.009 407.365 101.108 389.001 92.596 389.001C84.0836 389.001 77.183 407.365 77.183 430.018C77.183 452.671 84.0836 471.035 92.596 471.035Z" fill="#0088FF" stroke="#0094FF" stroke-miterlimit="10"/>
<path d="M140.485 404.745C145.304 389.361 143.858 375.165 137.255 373.036C130.652 370.907 121.394 381.652 116.575 397.036C111.756 412.42 113.202 426.617 119.805 428.746C126.408 430.874 135.666 420.129 140.485 404.745Z" fill="#0088FF" stroke="#0094FF" stroke-miterlimit="10"/>
<path d="M27.3945 497.501C11.7019 494.8 -0.0766097 486.994 1.07815 480.075C2.23291 473.157 15.8955 469.716 31.5759 472.404C47.2564 475.093 59.0471 482.912 57.8923 489.83C56.7375 496.748 43.0749 500.189 27.3945 497.501Z" fill="#0088FF" stroke="#0094FF" stroke-miterlimit="10"/>
<path d="M155.002 459.579C141.898 472.762 126.412 478.484 120.42 472.343C114.427 466.201 120.189 450.551 133.292 437.368C146.396 424.185 161.881 418.463 167.874 424.604C173.867 430.746 168.105 446.395 155.002 459.579Z" fill="#0088FF" stroke="#0094FF" stroke-miterlimit="10"/>
<path d="M64.6995 423.408C77.3775 442.067 81.1821 461.724 73.1353 467.323C65.0884 472.922 48.3627 462.353 35.6846 443.67C23.0066 424.986 19.1898 405.44 27.2488 399.779C35.3078 394.118 52.0093 404.761 64.6995 423.408Z" fill="#0088FF" stroke="#0094FF" stroke-miterlimit="10"/>
<path d="M93.6777 468.988L94.869 525.384" stroke="#0094FF" stroke-miterlimit="10" stroke-linecap="round"/>
<path d="M92.2435 414.763L93.6778 468.988" stroke="#0094FF" stroke-miterlimit="10" stroke-linecap="round"/>
<path d="M92.3405 405.921L92.2435 410.077" stroke="#0094FF" stroke-miterlimit="10" stroke-linecap="round"/>
<path d="M73.0745 464.635C81.918 483.166 87.0926 503.278 88.3051 523.83" stroke="#0094FF" stroke-miterlimit="10" stroke-linecap="round"/>
<path d="M46.6001 423.568C57.1763 436.009 66.0788 449.818 73.0745 464.635" stroke="#0094FF" stroke-miterlimit="10" stroke-linecap="round"/>
<path d="M38.2736 414.627C38.2736 414.627 39.8659 416.119 42.4915 418.944" stroke="#0094FF" stroke-miterlimit="10" stroke-linecap="round"/>
<path d="M121.38 470.456C110.568 485.832 102.14 502.796 96.3884 520.759" stroke="#0094FF" stroke-miterlimit="10" stroke-linecap="round"/>
<path d="M139.102 449.836C132.577 456.154 126.644 463.074 121.38 470.505" stroke="#0094FF" stroke-miterlimit="10" stroke-linecap="round"/>
<path d="M158.04 435.136C153.221 437.914 148.696 441.187 144.536 444.903" stroke="#0094FF" stroke-miterlimit="10" stroke-linecap="round"/>
<path d="M120.724 424.912C112.215 452.179 100.728 492.457 95.3796 527.431" stroke="#0094FF" stroke-miterlimit="10" stroke-linecap="round"/>
<path d="M125.926 408.745C124.406 413.345 122.644 418.796 120.723 424.912" stroke="#0094FF" stroke-miterlimit="10" stroke-linecap="round"/>
<path d="M131.262 393.107C131.262 393.107 129.767 397.288 127.36 404.441" stroke="#0094FF" stroke-miterlimit="10" stroke-linecap="round"/>
<path d="M57.1023 486.056C67.7747 490.163 78.1797 498.08 83.2485 513.076" stroke="#0094FF" stroke-miterlimit="10" stroke-linecap="round"/>
<path d="M37.4227 481.987C44.1542 482.337 50.7959 483.709 57.1265 486.056" stroke="#0094FF" stroke-miterlimit="10" stroke-linecap="round"/>
<path d="M24.6232 482.308C24.6232 482.308 26.5194 482.036 29.6555 481.913" stroke="#0094FF" stroke-miterlimit="10" stroke-linecap="round"/>
<path d="M161.651 497.501C177.343 494.8 189.122 486.994 187.967 480.075C186.812 473.157 173.15 469.716 157.457 472.404C141.764 475.093 129.998 482.912 131.153 489.83C132.308 496.748 145.958 500.189 161.651 497.501Z" fill="#0088FF" stroke="#0094FF" stroke-miterlimit="10"/>
<path d="M132.235 485.933C121.441 489.99 110.865 497.92 105.748 513.064" stroke="#0094FF" stroke-miterlimit="10" stroke-linecap="round"/>
<path d="M153.3 481.9C146.112 482.107 139.002 483.468 132.235 485.933" stroke="#0094FF" stroke-miterlimit="10" stroke-linecap="round"/>
<path d="M164.41 482.308C164.41 482.308 163.194 482.135 161.018 481.999" stroke="#0094FF" stroke-miterlimit="10" stroke-linecap="round"/>
<path d="M132.052 561C136.799 550.915 139.289 539.89 139.345 528.714C139.353 522.025 138.369 515.374 136.428 508.982H54.3308C52.3838 515.373 51.4002 522.025 51.4135 528.714C51.4755 539.889 53.9657 550.913 58.7067 561H132.052Z" fill="#191A1A"/>
<path d="M52.2158 518.207C51.9849 519.724 51.8026 521.253 51.6688 522.819H139.078C138.944 521.253 138.762 519.724 138.531 518.207H52.2158Z" fill="#7A7A7A"/>
<path d="M138.154 541.786C138.422 540.257 138.665 538.715 138.847 537.174H51.912C52.0943 538.715 52.3253 540.257 52.6048 541.786H138.154Z" fill="#7A7A7A"/>
<path d="M62.0253 528.973C62.0253 529.683 61.8178 530.376 61.4291 530.967C61.0405 531.557 60.488 532.017 59.8417 532.288C59.1953 532.56 58.4841 532.631 57.798 532.493C57.1118 532.354 56.4816 532.012 55.9869 531.51C55.4922 531.009 55.1553 530.369 55.0188 529.673C54.8823 528.977 54.9524 528.255 55.2201 527.6C55.4878 526.944 55.9412 526.383 56.5229 525.989C57.1046 525.595 57.7885 525.384 58.4881 525.384C59.4252 525.387 60.323 525.767 60.9857 526.439C61.6484 527.111 62.0221 528.022 62.0253 528.973Z" fill="#8C8C8C"/>
<path d="M79.7112 528.973C79.7112 529.683 79.5038 530.376 79.1151 530.967C78.7264 531.557 78.174 532.017 77.5277 532.288C76.8813 532.56 76.1701 532.631 75.484 532.493C74.7978 532.354 74.1675 532.012 73.6728 531.51C73.1782 531.009 72.8413 530.369 72.7048 529.673C72.5683 528.977 72.6384 528.255 72.9061 527.6C73.1738 526.944 73.6272 526.383 74.2089 525.989C74.7905 525.595 75.4744 525.384 76.174 525.384C77.1122 525.384 78.0119 525.762 78.6752 526.435C79.3386 527.108 79.7112 528.021 79.7112 528.973Z" fill="#8C8C8C"/>
<path d="M97.3972 528.973C97.3972 529.683 97.1898 530.376 96.8011 530.967C96.4124 531.557 95.86 532.017 95.2136 532.288C94.5673 532.56 93.8561 532.631 93.1699 532.493C92.4838 532.354 91.8535 532.012 91.3588 531.51C90.8641 531.009 90.5273 530.369 90.3908 529.673C90.2543 528.977 90.3243 528.255 90.5921 527.6C90.8598 526.944 91.3132 526.383 91.8948 525.989C92.4765 525.595 93.1604 525.384 93.86 525.384C94.7981 525.384 95.6978 525.762 96.3612 526.435C97.0246 527.108 97.3972 528.021 97.3972 528.973Z" fill="#8C8C8C"/>
<path d="M111.546 532.562C113.5 532.562 115.083 530.955 115.083 528.973C115.083 526.991 113.5 525.384 111.546 525.384C109.593 525.384 108.009 526.991 108.009 528.973C108.009 530.955 109.593 532.562 111.546 532.562Z" fill="#8C8C8C"/>
<path d="M132.769 528.973C132.769 529.683 132.562 530.376 132.173 530.967C131.785 531.557 131.232 532.017 130.586 532.288C129.94 532.56 129.228 532.631 128.542 532.493C127.856 532.354 127.226 532.012 126.731 531.51C126.236 531.009 125.899 530.369 125.763 529.673C125.626 528.977 125.697 528.255 125.964 527.6C126.232 526.944 126.685 526.383 127.267 525.989C127.849 525.595 128.533 525.384 129.232 525.384C130.17 525.384 131.07 525.762 131.733 526.435C132.397 527.108 132.769 528.021 132.769 528.973Z" fill="#8C8C8C"/>
<path d="M518.35 279.748C517.123 279.605 515.89 279.959 514.918 280.732C513.946 281.506 513.314 282.636 513.159 283.879L489.602 468.544L504.942 470.295L522.507 284.952C522.623 283.706 522.253 282.462 521.476 281.489C520.698 280.516 519.576 279.891 518.35 279.748Z" fill="#0094FF" stroke="#0094FF" stroke-linecap="round" stroke-linejoin="round"/>
<path d="M281.466 279.748C282.693 279.605 283.926 279.959 284.897 280.732C285.869 281.506 286.501 282.636 286.656 283.879L310.238 468.544L294.897 470.295L277.309 284.952C277.192 283.706 277.563 282.462 278.34 281.489C279.117 280.516 280.239 279.891 281.466 279.748Z" fill="#0094FF" stroke="#0094FF" stroke-linecap="round" stroke-linejoin="round"/>
<path d="M545.444 464.82H305.655C302.574 464.82 300.076 467.354 300.076 470.48V555.327C300.076 558.453 302.574 560.988 305.655 560.988H545.444C548.525 560.988 551.023 558.453 551.023 555.327V470.48C551.023 467.354 548.525 464.82 545.444 464.82Z" fill="white" stroke="#0094FF" stroke-linecap="round" stroke-linejoin="round"/>
<path d="M551.266 476.684H299.833C297.033 476.684 294.764 478.986 294.764 481.826V544.006C294.764 546.846 297.033 549.149 299.833 549.149H551.266C554.066 549.149 556.335 546.846 556.335 544.006V481.826C556.335 478.986 554.066 476.684 551.266 476.684Z" fill="white" stroke="#0094FF" stroke-linecap="round" stroke-linejoin="round"/>
<path d="M413.838 464.82H174.049C170.968 464.82 168.47 467.354 168.47 470.48V555.327C168.47 558.453 170.968 560.988 174.049 560.988H413.838C416.919 560.988 419.417 558.453 419.417 555.327V470.48C419.417 467.354 416.919 464.82 413.838 464.82Z" fill="white" stroke="#0094FF" stroke-linecap="round" stroke-linejoin="round"/>
<path d="M419.66 476.684H168.227C165.427 476.684 163.158 478.986 163.158 481.826V544.006C163.158 546.846 165.427 549.149 168.227 549.149H419.66C422.46 549.149 424.729 546.846 424.729 544.006V481.826C424.729 478.986 422.46 476.684 419.66 476.684Z" fill="white" stroke="#0094FF" stroke-linecap="round" stroke-linejoin="round"/>
<path d="M398.887 492.568H191.249C187.885 492.568 185.159 495.334 185.159 498.746V525.335C185.159 528.747 187.885 531.513 191.249 531.513H398.887C402.25 531.513 404.977 528.747 404.977 525.335V498.746C404.977 495.334 402.25 492.568 398.887 492.568Z" fill="#0088FF" stroke="#0094FF" stroke-linecap="round" stroke-linejoin="round"/>
<path d="M197.375 502.002C195.182 502.892 193.362 504.527 192.225 506.627C191.088 508.727 190.705 511.163 191.141 513.518C191.577 515.873 192.805 518.001 194.615 519.54C196.426 521.079 198.706 521.932 201.068 521.955C203.43 521.977 205.726 521.167 207.565 519.664C209.403 518.16 210.67 516.055 211.15 513.709C211.629 511.362 211.291 508.92 210.193 506.799C209.096 504.677 207.306 503.008 205.13 502.076" stroke="white" stroke-width="3" stroke-miterlimit="10" stroke-linecap="round"/>
<path d="M201.265 497.994V505.652" stroke="white" stroke-width="3" stroke-miterlimit="10" stroke-linecap="round"/>
<path d="M320.241 522.881C320.241 522.881 310.311 526.05 308.208 526.457C306.105 526.864 299.699 525.224 299.444 527.69C299.188 530.157 303.163 532.537 309.399 535.09C315.635 537.642 322.478 539.727 327.121 539.517C331.765 539.307 330.877 530.021 331.133 528.418C331.388 526.815 320.241 522.881 320.241 522.881Z" fill="white" stroke="#0094FF" stroke-linecap="round" stroke-linejoin="round"/>
<path d="M312.657 532.845C304.889 529.589 301.267 527.912 299.687 527.111C299.543 527.289 299.458 527.509 299.444 527.74C299.249 530.317 303.163 532.586 309.399 535.139C315.635 537.692 322.478 539.776 327.121 539.566C328.86 539.48 329.82 538.136 330.355 536.397C324.279 536.442 318.258 535.234 312.657 532.845Z" fill="white" stroke="#0094FF" stroke-linecap="round" stroke-linejoin="round"/>
<path d="M380.593 428.316L377.992 429.759V433.594C377.992 433.594 323.742 442.77 323.037 447.567C322.332 452.364 320.181 523.732 320.181 523.732C320.181 523.732 328.933 533.289 330.817 531.131C332.701 528.973 333.187 522.054 333.187 522.054L342.182 458.839C342.182 458.839 403.287 464.536 412.513 461.65C421.739 458.765 426.224 446.309 426.455 440.55C426.686 434.791 426.698 432.151 426.698 432.151L385.066 426.405L380.593 428.316Z" fill="#1405CB" stroke="#0094FF" stroke-linecap="round" stroke-linejoin="round"/>
<path d="M362.153 525.458L361.764 526.112C359.802 529.291 357.56 532.283 355.067 535.053C351.043 539.369 344.431 542.97 344.662 544.401C344.893 545.831 349.39 546.806 364.755 542.008C371.671 539.85 376.813 539.85 377.518 537.445C378.223 535.04 372.558 524.743 372.558 524.743L362.153 525.458Z" fill="white" stroke="#0094FF" stroke-linecap="round" stroke-linejoin="round"/>
<path d="M377.518 537.396C377.606 536.235 377.397 535.071 376.91 534.017C371.715 536.523 366.303 538.538 360.743 540.035C355.717 541.447 350.593 542.474 345.415 543.106C344.905 543.611 344.613 544.043 344.662 544.339C344.893 545.782 349.39 546.744 364.754 541.946C371.695 539.862 376.813 539.862 377.518 537.396Z" fill="white" stroke="#0094FF" stroke-linecap="round" stroke-linejoin="round"/>
<path d="M395.495 438.626C395.495 438.626 389.819 433.594 389.345 436.468C388.871 439.341 387.923 440.069 387.923 440.069C387.923 440.069 348.211 444.903 343.738 447.74C339.265 450.576 337.83 454.461 340.432 460.22C343.033 465.979 360.524 529.059 360.524 529.059C362.346 529.894 364.249 530.534 366.201 530.971C368.802 531.452 374.236 528.812 374.236 528.812C374.236 528.812 373.579 517.06 371.926 513.224C370.273 509.389 363.503 465.128 363.503 465.128C363.503 465.128 392.201 465.239 401.901 465.239C411.601 465.239 422.225 457.087 424.352 450.366C426.479 443.645 425.568 442.215 425.568 442.215" fill="#1405CB"/>
<path d="M395.495 438.626C395.495 438.626 389.819 433.594 389.345 436.468C388.871 439.341 387.923 440.069 387.923 440.069C387.923 440.069 348.211 444.903 343.738 447.74C339.265 450.576 337.83 454.461 340.432 460.22C343.033 465.979 360.524 529.059 360.524 529.059C362.346 529.894 364.249 530.534 366.201 530.971C368.802 531.452 374.236 528.812 374.236 528.812C374.236 528.812 373.579 517.06 371.926 513.224C370.273 509.389 363.503 465.128 363.503 465.128C363.503 465.128 392.201 465.239 401.901 465.239C411.601 465.239 422.225 457.087 424.352 450.366C426.479 443.645 425.568 442.215 425.568 442.215" stroke="#0094FF" stroke-linecap="round" stroke-linejoin="round"/>
<path d="M363.478 465.141L362.105 457.593" stroke="#0094FF" stroke-linecap="round" stroke-linejoin="round"/>
<path d="M408.611 449.232C409.372 450.308 409.989 451.481 410.446 452.722" stroke="#0094FF" stroke-linecap="round" stroke-linejoin="round"/>
<path d="M397.805 440.907C401.303 442.372 404.465 444.556 407.092 447.32" stroke="#0094FF" stroke-linecap="round" stroke-linejoin="round"/>
<path d="M406.788 442.264C410.444 443.963 413.474 446.796 415.442 450.354" stroke="#0094FF" stroke-linecap="round" stroke-linejoin="round"/>
<path d="M381.176 369.454C381.176 369.454 381.176 369.799 381.115 370.391C380.909 373.782 377.201 378.826 379.414 385.19C384.434 399.545 383.413 410.089 382.963 407.018C383.668 411.815 379.414 422.125 379.414 425.517C379.414 428.908 370.662 429.377 390.524 435.383C410.386 441.388 417.266 441.117 422.201 439.193C427.136 437.269 430.709 435.592 431.183 431.522C431.657 427.453 427.403 420.251 427.172 414.011C426.941 407.77 426.09 388.248 420.183 375.78C414.275 363.312 398.668 354.667 398.668 354.667L381.176 369.454Z" fill="white" stroke="#0094FF" stroke-linecap="round" stroke-linejoin="round"/>
<path d="M412.294 416.539C413.327 415.737 414.288 414.923 415.175 414.072" stroke="#0094FF" stroke-linecap="round" stroke-linejoin="round"/>
<path d="M387.376 430.647C394.698 427.382 401.764 423.556 408.514 419.203" stroke="#0094FF" stroke-linecap="round" stroke-linejoin="round"/>
<path d="M394.997 429.266C392.188 430.691 389.249 431.836 386.221 432.682" stroke="#0094FF" stroke-linecap="round" stroke-linejoin="round"/>
<path d="M398.838 427.157C398.838 427.157 398.17 427.576 397.051 428.193" stroke="#0094FF" stroke-linecap="round" stroke-linejoin="round"/>
<path d="M402.108 395.45L408.489 387.545" stroke="#0094FF" stroke-linecap="round" stroke-linejoin="round"/>
<path d="M378.988 316.264C377.389 317.959 375.963 319.814 374.734 321.802C373.701 323.873 373.519 325.378 371.756 326.734C369.993 328.091 366.347 327.215 366.444 329.349C366.541 331.482 368.729 333.517 368.729 333.517C368.729 333.517 366.955 346.54 367.623 348.612C368.292 350.684 377.481 351.079 377.481 351.079L382.161 366.543L398.68 355.185L399.118 350.684C399.531 348.859 402.497 343.21 404.952 338.968C407.408 334.726 406.314 323.553 400.382 318.743C394.45 313.933 386.598 314.427 384.179 314.254C381.76 314.081 378.988 316.264 378.988 316.264Z" fill="white" stroke="#0094FF" stroke-linecap="round" stroke-linejoin="round"/>
<path d="M369.799 336.033C370.579 336.824 371.563 337.375 372.638 337.624C373.713 337.873 374.836 337.809 375.877 337.439" stroke="#0094FF" stroke-linecap="round" stroke-linejoin="round"/>
<path d="M376.825 328.202C376.424 329.152 375.792 329.781 375.415 329.62C375.038 329.46 375.062 328.547 375.476 327.598C375.889 326.648 376.509 326.019 376.873 326.179C377.238 326.34 377.226 327.252 376.825 328.202Z" fill="#0094FF"/>
<path d="M376.181 323.491C376.181 323.491 379.742 322.776 380.277 326.352" stroke="#0094FF" stroke-linecap="round" stroke-linejoin="round"/>
<path d="M377.42 351.017L383.146 350.795L379.219 355.654L377.42 351.017Z" fill="#0094FF" stroke="#0094FF" stroke-linecap="round" stroke-linejoin="round"/>
<path d="M390.487 344.999L388.008 344.246L386.537 346.589" stroke="#0094FF" stroke-linecap="round" stroke-linejoin="round"/>
<path d="M389.102 310.542C389.102 310.542 392.675 306.374 388.385 304.376C384.094 302.378 369.495 305.991 371.063 312.491C372.631 318.99 386.257 319.816 387.558 319.89C388.859 319.964 384.957 321.395 386.026 323.368C387.096 325.341 389.673 326.327 389.807 328.461C389.94 330.594 387.376 333.456 388.591 334.701C389.807 335.947 391.752 334.085 392.991 333.604C394.231 333.123 397.623 336.588 394.948 341.003C392.274 345.418 390.475 344.962 390.475 344.962C390.161 345.774 390.109 346.668 390.328 347.512C390.546 348.357 391.023 349.109 391.691 349.66C394.122 351.744 398.984 351.128 400.2 349.105C401.415 347.083 403.518 345.258 407.894 340.892C412.27 336.526 414.348 325.501 411.322 317.892C408.295 310.283 394.572 307.188 389.102 310.542Z" fill="#0094FF" stroke="#0094FF" stroke-linecap="round" stroke-linejoin="round"/>
<path d="M398.619 351.042L376.095 367.875L377.384 375.139L402.74 356.184L398.619 351.042Z" fill="white" stroke="#0094FF" stroke-linecap="round" stroke-linejoin="round"/>
<path d="M342.389 449.195L382.064 440.377L372.789 434.791L335.144 443.312L342.389 449.195Z" fill="white" stroke="#0094FF" stroke-linecap="round" stroke-linejoin="round"/>
<path d="M324.727 411.001L342.389 449.195L335.144 443.312L317.191 407.474L324.727 411.001Z" fill="#0094FF" stroke="#0094FF" stroke-linecap="round" stroke-linejoin="round"/>
<path d="M356.635 432.953L347.494 435.346L341.829 443.67C342.057 443.894 342.328 444.066 342.625 444.177C342.923 444.287 343.24 444.333 343.556 444.311C344.504 444.151 347.02 441.906 347.02 441.906L353.645 440.143C353.645 440.143 350.18 442.227 350.18 442.708C350.18 443.189 350.812 443.349 352.38 443.189C353.948 443.029 357.741 439.489 357.741 439.489L360.269 436.283L356.635 432.953Z" fill="white" stroke="#0094FF" stroke-linecap="round" stroke-linejoin="round"/>
<path d="M381.334 391.307L376.654 412.962L356.635 432.953L361.363 437.43L377.992 429.759L379.146 426.713L383.158 408.572L381.334 391.307Z" fill="white" stroke="#0094FF" stroke-linecap="round" stroke-linejoin="round"/>
<path d="M351.092 428.587C351.092 428.587 344.71 429.549 342.352 429.549C339.994 429.549 334.317 430.03 333.369 430.511C332.421 430.992 327.924 433.866 328.167 436.024C328.41 438.182 332.421 436.27 332.421 436.27C333.255 438.211 334.286 440.059 335.497 441.783C337.381 444.422 338.329 443.46 342.109 442.03C345.889 440.599 351.566 436.27 351.566 436.27L354.884 433.15L351.092 428.587Z" fill="white" stroke="#0094FF" stroke-linecap="round" stroke-linejoin="round"/>
<path d="M406.605 361.154C406.605 361.154 396.881 359.711 393.368 364.509C389.333 370.295 386.663 376.944 385.564 383.944C384.847 390.172 380.362 402.652 380.362 402.652L350.302 428.045L355.504 435.95C355.504 435.95 391.97 418.685 392.894 417.525C393.818 416.366 405.888 384.66 405.888 384.66" fill="white"/>
<path d="M406.605 361.154C406.605 361.154 396.881 359.711 393.368 364.509C389.333 370.295 386.663 376.944 385.564 383.944C384.847 390.172 380.362 402.652 380.362 402.652L350.302 428.045L355.504 435.95C355.504 435.95 391.97 418.685 392.894 417.525C393.818 416.366 405.888 384.66 405.888 384.66" stroke="#0094FF" stroke-linecap="round" stroke-linejoin="round"/>
<path d="M13.7199 561H573" stroke="#0094FF" stroke-linecap="round" stroke-linejoin="round"/>
</svg>
