<svg id="Layer_1" height="512" viewBox="0 0 512 512" width="512" xmlns="http://www.w3.org/2000/svg" data-name="Layer 1"><path d="m239.707 264.751h32.519l3.7-20.646a8.094 8.094 0 0 1 5.737-6.287 95.308 95.308 0 0 0 21.653-8.93 8.117 8.117 0 0 1 8.508.357l17.181 11.931 22.989-22.932-11.938-17.217a7.958 7.958 0 0 1 -.393-8.5 94.43 94.43 0 0 0 8.973-21.646 7.85 7.85 0 0 1 6.294-5.715l20.581-3.714v-32.5l-20.581-3.715a8.039 8.039 0 0 1 -6.294-5.786 97.162 97.162 0 0 0 -8.973-21.651 7.965 7.965 0 0 1 .393-8.5l11.938-17.145-22.989-23-17.181 11.925a7.97 7.97 0 0 1 -8.508.428 92.533 92.533 0 0 0 -21.653-9 8.094 8.094 0 0 1 -5.737-6.286l-3.7-20.575h-32.519l-3.7 20.575a8.1 8.1 0 0 1 -5.744 6.286 92.782 92.782 0 0 0 -21.653 9 7.97 7.97 0 0 1 -8.508-.428l-17.181-11.93-22.989 23 11.945 17.15a7.976 7.976 0 0 1 .385 8.5 97.23 97.23 0 0 0 -8.965 21.646 8.048 8.048 0 0 1 -6.3 5.786l-20.581 3.715v32.5l20.584 3.718a7.859 7.859 0 0 1 6.3 5.715 96.9 96.9 0 0 0 8.965 21.646 7.97 7.97 0 0 1 -.385 8.5l-11.945 17.217 22.989 22.932 17.176-11.93a8.117 8.117 0 0 1 8.508-.357 95.177 95.177 0 0 0 21.653 8.93 8.1 8.1 0 0 1 5.744 6.287l3.7 20.646zm-239.747 165.236a72.478 72.478 0 0 1 64.273-71.938v-43.792a7.925 7.925 0 0 1 2.336-5.643 8.033 8.033 0 0 1 5.666-2.358l175.723.071v-25.574h-8.494a15.675 15.675 0 0 1 -15.459-12.931l-2.886-16a107.439 107.439 0 0 1 -15.9-6.644l-13.352 9.287a15.639 15.639 0 0 1 -20.088-1.786l-23.332-23.288a15.809 15.809 0 0 1 -1.793-20.146l9.28-13.288a114.157 114.157 0 0 1 -6.587-15.93l-16-2.858a15.728 15.728 0 0 1 -12.931-15.5v-33a15.709 15.709 0 0 1 12.931-15.431l16-2.929a109.822 109.822 0 0 1 6.587-15.859l-9.28-13.359a15.7 15.7 0 0 1 1.793-20.075l23.332-23.36a15.727 15.727 0 0 1 20.088-1.786l13.352 9.287a115.26 115.26 0 0 1 15.9-6.572l2.886-16a15.675 15.675 0 0 1 15.459-12.93h33a15.681 15.681 0 0 1 15.46 12.93l2.879 16a115.434 115.434 0 0 1 15.916 6.572l13.345-9.287a15.736 15.736 0 0 1 20.1 1.786l23.325 23.36a15.7 15.7 0 0 1 1.793 20.075l-9.28 13.359a109.822 109.822 0 0 1 6.587 15.859l16 2.929a15.708 15.708 0 0 1 12.93 15.431v33a15.727 15.727 0 0 1 -12.93 15.5l-16 2.858a114.157 114.157 0 0 1 -6.587 15.93l9.28 13.288a15.81 15.81 0 0 1 -1.793 20.146l-23.325 23.288a15.648 15.648 0 0 1 -20.1 1.786l-13.345-9.287a107.6 107.6 0 0 1 -15.919 6.642l-2.879 16a15.681 15.681 0 0 1 -15.46 12.931h-8.5v25.574l175.6.072a8 8 0 0 1 8 8v43.577a72.41 72.41 0 1 1 -16 0v-35.574l-167.6-.071v35.647a72.409 72.409 0 1 1 -16 0v-35.646l-167.722-.072v35.719a72.4 72.4 0 1 1 -80.279 72.01zm256-219.315a65.509 65.509 0 1 1 65.523-65.509 65.58 65.58 0 0 1 -65.523 65.509zm148.013 220.1 23.175 23.218a8.138 8.138 0 0 0 11.308 0l36.677-36.72a7.991 7.991 0 0 0 -11.316-11.287l-31.011 31-17.51-17.5a7.994 7.994 0 0 0 -11.323 11.287zm-123.746-24.788-31.019 31-17.5-17.5a7.994 7.994 0 0 0 -11.323 11.287l23.168 23.218a8.155 8.155 0 0 0 11.322 0l36.67-36.72a7.991 7.991 0 0 0 -11.316-11.287zm-243.433 24.789 23.167 23.218a8.156 8.156 0 0 0 11.323 0l36.67-36.72a7.994 7.994 0 0 0 -11.323-11.287l-31 31-17.516-17.5a7.991 7.991 0 0 0 -11.316 11.287z" fill="#0291f7" fill-rule="evenodd"/></svg>