<svg id="Flat_Flaticon" height="512" viewBox="0 0 64 64" width="512" xmlns="http://www.w3.org/2000/svg" xmlns:xlink="http://www.w3.org/1999/xlink" data-name="Flat Flaticon"><linearGradient id="linear-gradient" gradientUnits="userSpaceOnUse" x1="4" x2="60" y1="31.99" y2="31.99"><stop offset="0" stop-color="#00c0ff"/><stop offset="1" stop-color="#5558ff"/></linearGradient><path d="m56.28 13.99c-.84362.96248-2.519 2.86069-3.37 3.83h2.09a1.00291 1.00291 0 0 1 1 1v22.66a1.003 1.003 0 0 1 -1 1h-46a1.003 1.003 0 0 1 -1-1v-22.66a1.00291 1.00291 0 0 1 1-1h28.45c1.08955-.98877 3.28469-3.00525 4.37-4h-32.82a5.00181 5.00181 0 0 0 -5 5v25.02a5.00181 5.00181 0 0 0 5 5c6.31113.00025 46 0 46 0a5.00181 5.00181 0 0 0 5-5v-25.02a4.99251 4.99251 0 0 0 -3.72-4.83zm-23.77 32.85a1.24862 1.24862 0 0 1 -1.41-2 1.24862 1.24862 0 1 1 1.41 2zm6.9328 9.37h-3.47271c-2.3506 0-9.16435 0-11.41283 0-1.10527-.00462-1.09537-2.00305-.00007-2h2.62981v-3.37c1.12433.00024 9.626 0 9.626 0v3.37h2.62982c1.10395-.001 1.0969 1.995-.00001 2zm-29.4428-36.39h25.26a3.01219 3.01219 0 0 0 -.96 1.96c-2.34341 1.20456-3.41808 3.48985-3.34 6.47a2.49653 2.49653 0 0 1 -1.04 2.19.98826.98826 0 0 0 -.94.88994 1.03111 1.03111 0 0 0 1.21 1.1l6.38.01a6.00545 6.00545 0 0 0 5.24-3.19 2.97564 2.97564 0 0 0 1.91-.99l7.43-8.44h2.85v20.66006h-44zm25.15 4.31 4.17 4.25a5.6952 5.6952 0 0 0 .45.38995 4.00973 4.00973 0 0 1 -3.2 1.67005h-4.08a4.7972 4.7972 0 0 0 .47-2.24 5.11478 5.11478 0 0 1 1.22-3.89c.36878-.33682.65894-.74259.97-.18zm15.3999-15.56991c2.77023-2.48878 6.55421 1.45326 4.1601 4.17991-.5784.66822-2.12077 2.39607-2.71 3.08-2.421 2.7621-7.32174 8.29724-9.79 11.12a1.09157 1.09157 0 0 1 -1.74-.25l-3.56992-3.63c-.28274-.278-.65192-.62909-.61-1.06a1.3143 1.3143 0 0 1 .59-.95c.00924.0136 1.34708-1.2301 1.34994-1.23 3.90112-3.56354 8.40483-7.68267 12.31988-11.25991z" fill="url(#linear-gradient)"/></svg>