<svg id="svg178" height="512" viewBox="0 0 512 512" width="512" xmlns="http://www.w3.org/2000/svg" xmlns:dc="http://purl.org/dc/elements/1.1/" xmlns:cc="http://creativecommons.org/ns#" xmlns:rdf="http://www.w3.org/1999/02/22-rdf-syntax-ns#" xmlns:svg="http://www.w3.org/2000/svg" xmlns:sodipodi="http://sodipodi.sourceforge.net/DTD/sodipodi-0.dtd" xmlns:inkscape="http://www.inkscape.org/namespaces/inkscape" inkscape:version="1.0.1 (3bc2e813f5, 2020-09-07)" sodipodi:docname="setting.svg"><g id="g1626" fill-rule="evenodd" stroke-width=".862" inkscape:label="g"><path id="rect959" d="m206.82031 0c-6.648 0-12 7.1368109-12 16.001953v55.591797c0 6.627417-5.0834 13.760368-11.16946 16.380803-13.1217 5.649715-25.53674 12.817227-36.9907 21.355657-5.31255 3.96028-14.03171 4.79602-19.77123 1.48234l-48.142826-27.794972c-7.677437-4.43257-16.533422-3.366712-19.857422 2.390625l-49.1816408 85.183597c-3.3239997 5.75733.1799857 13.96 7.8574218 18.39258l48.144839 27.79681c5.739492 3.31374 9.375271 11.28263 8.601814 17.86356-.832645 7.08453-1.250611 14.21511-1.250559 21.35525.000361 7.1402.418747 14.27081 1.251815 21.35536.773844 6.58088-2.861663 14.54964-8.601203 17.8633l-48.146706 27.79696c-7.6774448 4.43258-11.1814217 12.63525-7.8574218 18.39258l49.1816408 85.1836c3.324 5.75733 12.179977 6.8232 19.857422 2.39062l48.144836-27.79681c5.73949-3.31374 14.45859-2.47801 19.7711 1.48232 11.45341 8.5382 23.86784 15.70561 36.9889 21.35535 6.08602 2.62055 11.16938 9.7536 11.16938 16.38102v55.59375c0 8.86514 5.352 16.00195 12 16.00195h98.35938c6.648 0 12-7.13681 12-16.00195v-55.5918c0-6.62742 5.0834-13.76037 11.16946-16.3808 13.1217-5.64972 25.53674-12.81723 36.9907-21.35566 5.31255-3.96028 14.03171-4.79602 19.77123-1.48234l48.14283 27.79497c7.67743 4.43257 16.53342 3.36671 19.85742-2.39062l49.18164-85.1836c3.324-5.75733-.17999-13.95999-7.85742-18.39258l-48.14484-27.79681c-5.73949-3.31374-9.37527-11.28263-8.60182-17.86356.83265-7.08453 1.25061-14.21511 1.25056-21.35525-.00036-7.1402-.41875-14.27081-1.25182-21.35536-.77384-6.58088 2.86167-14.54964 8.60121-17.8633l48.14671-27.79696c7.67744-4.43259 11.18142-12.63525 7.85742-18.39258l-49.18164-85.183597c-3.324-5.757337-12.17998-6.8232-19.85742-2.390625l-48.14484 27.796812c-5.73949 3.31374-14.45859 2.47801-19.7711-1.48232-11.45341-8.5382-23.86784-15.705607-36.9889-21.355348-6.08602-2.620553-11.16938-9.753602-11.16938-16.381019v-55.59375c0-8.8651421-5.352-16.001953-12-16.001953zm49.17969 153.83789c56.42242.00038 102.16173 45.73969 102.16211 102.16211-.00038 56.42242-45.73969 102.16173-102.16211 102.16211-56.42242-.00038-102.16173-45.73969-102.16211-102.16211.00038-56.42242 45.73969-102.16173 102.16211-102.16211z" fill="#1e90ff" inkscape:label="path1"/><path id="path1616" d="m256 0v153.83789c56.42242.00038 102.16173 45.73969 102.16211 102.16211-.00038 56.42242-45.73969 102.16173-102.16211 102.16211v153.83789h49.17969c6.648 0 12-7.13681 12-16.00195v-55.5918c0-6.62742 5.08386-13.76043 11.16992-16.38086 13.1217-5.64972 25.53627-12.81704 36.99023-21.35547 5.31255-3.96028 14.03197-4.7961 19.77149-1.48242l48.14258 27.79492c7.67743 4.43257 16.53342 3.36671 19.85742-2.39062l49.18164-85.1836c3.324-5.75733-.17999-13.95998-7.85742-18.39258l-48.14453-27.79687c-5.73949-3.31374-9.37502-11.28235-8.60157-17.86328.83265-7.08453 1.25005-14.21533 1.25-21.35547-.00036-7.1402-.41888-14.27092-1.25195-21.35547-.77384-6.58088 2.86202-14.54962 8.60156-17.86328l48.14649-27.79687c7.67744-4.4326 11.18142-12.63525 7.85742-18.39258l-49.18164-85.183597c-3.324-5.757337-12.17998-6.8232-19.85742-2.390625l-48.14453 27.796872c-5.73949 3.31374-14.45898 2.47791-19.77149-1.48242-11.45341-8.5382-23.86722-15.705727-36.98828-21.355468-6.08602-2.620553-11.16992-9.753442-11.16992-16.380859v-55.59375c0-8.865142-5.352-16.001953-12-16.001953z" fill="#0a87ff" inkscape:label="path1"/></g></svg>