<?xml version="1.0" encoding="UTF-8"?>
<svg xmlns="http://www.w3.org/2000/svg" id="COLOR" viewBox="0 0 128 128" width="512" height="512"><defs><style>.cls-1{fill:#6288cc;}.cls-2{fill:#a8b7ee;}.cls-3{fill:#3b579f;}.cls-4{fill:#228ee8;}.cls-5{fill:#dbdfee;}.cls-6{fill:#fa77c8;}.cls-7{fill:#6faf45;}.cls-8{fill:#ffdc41;}.cls-9{fill:#ff9102;}.cls-10{fill:#e10459;}.cls-11{fill:#bdcbf5;}.cls-12{fill:#49b2f7;}</style></defs><rect class="cls-1" x="50.84" y="103.35" width="26.44" height="17.81"/><rect class="cls-2" x="7.3" y="32.88" width="113.39" height="73.78" rx="5.59"/><path class="cls-3" d="M120.7,38.47V91.68H7.3V38.47a5.59,5.59,0,0,1,5.59-5.59H115.11A5.59,5.59,0,0,1,120.7,38.47Z"/><path class="cls-1" d="M68.79,100.87H59.21a1.5,1.5,0,0,1,0-3h9.58a1.5,1.5,0,1,1,0,3Z"/><path class="cls-2" d="M86.87,122.66H41.25a1.5,1.5,0,0,1,0-3H86.87a1.5,1.5,0,0,1,0,3Z"/><path class="cls-4" d="M93.33,55.88H67.11L81.49,37.81a1.51,1.51,0,0,0-.24-2.11,1.5,1.5,0,0,0-2.11.24L64,55,47.24,33.9a1.5,1.5,0,0,0-2.11-.24,1.51,1.51,0,0,0-.24,2.11l16,20.11H35.77a1.5,1.5,0,0,0,0,3H62.51l.1,9.19a1.49,1.49,0,0,0,1.5,1.49h0A1.51,1.51,0,0,0,65.61,68l-.1-9.16H93.33a1.5,1.5,0,0,0,0-3Z"/><circle class="cls-1" cx="84.03" cy="24.65" r="17.34"/><path class="cls-5" d="M89,23.36H83.31a1.23,1.23,0,0,1-1.16-1.61l1.07-3.25a2.48,2.48,0,0,0-2.36-3.26h0a2.47,2.47,0,0,0-2.35,1.7L77,21.63a11.28,11.28,0,0,0-.58,3.55v6.76a2.12,2.12,0,0,0,2.12,2.12H89a2.71,2.71,0,0,0,2.71-2.71V26.07A2.71,2.71,0,0,0,89,23.36Z"/><circle class="cls-6" cx="44.07" cy="24.65" r="17.34"/><rect class="cls-5" x="35.77" y="16.35" width="16.59" height="16.59" rx="2.97"/><path class="cls-7" d="M52.36,28.58V30a3,3,0,0,1-3,3H38.73a3,3,0,0,1-3-3v-1.4L41,24.15l4,4.19,3.61-2.9Z"/><path class="cls-8" d="M77.16,63.52V82.91H70.09l-4.82,3.9A.79.79,0,0,1,64,86.14V82.91H50.84V63.52Z"/><path class="cls-9" d="M59.56,71.76H57.91a1.5,1.5,0,0,1,0-3h1.65a1.5,1.5,0,0,1,0,3Z"/><path class="cls-9" d="M70.09,71.76H64a1.5,1.5,0,0,1,0-3h6.14a1.5,1.5,0,0,1,0,3Z"/><path class="cls-9" d="M70.09,78.14H68.44a1.5,1.5,0,0,1,0-3h1.65a1.5,1.5,0,0,1,0,3Z"/><path class="cls-9" d="M64.05,78.14H57.91a1.5,1.5,0,0,1,0-3h6.14a1.5,1.5,0,0,1,0,3Z"/><circle class="cls-10" cx="103.4" cy="60.48" r="17.34"/><path class="cls-11" d="M112.49,56.52v7.91a.8.8,0,0,1-1.18.7l-4.51-2.51v-4.3l4.51-2.5A.8.8,0,0,1,112.49,56.52Z"/><rect class="cls-5" x="94.31" y="54.23" width="12.49" height="12.49" rx="1.52"/><circle class="cls-12" cx="24.6" cy="60.48" r="17.34"/><path class="cls-5" d="M31.06,52.58H18.14a2.66,2.66,0,0,0-2.66,2.66v7.17a2.67,2.67,0,0,0,2.66,2.67h2.54l4.59,3.06A1.39,1.39,0,0,0,27.43,67l0-1.9h3.65a2.67,2.67,0,0,0,2.66-2.67V55.24A2.66,2.66,0,0,0,31.06,52.58Z"/></svg>
