<svg id="svg8" height="512" viewBox="0 0 135.46666 135.46667" width="512" xmlns="http://www.w3.org/2000/svg" xmlns:svg="http://www.w3.org/2000/svg"><g id="layer1" transform="translate(0 -161.533)"><path id="path21512" d="m119.60742 212.13281v258.86719c0 19.38973 15.60989 35 35 35h252.43946c19.38973 0 35-15.61027 35-35v-274.86719z" fill="#0060ff" transform="matrix(.265 0 0 .265 0 161.533)" paint-order="markers fill stroke"/><path id="path27173" d="m119.60742 212.13281v258.86719c0 1.01186.0514 2.0104.13477 3h241.58008c19.38974 0 35-15.61027 35-35v-149.82812l45.72461-45.72461v-47.31446z" fill="#0043e0" transform="matrix(.265 0 0 .265 0 161.533)" paint-order="markers fill stroke"/><path id="path21301" d="m5.1913813 198.05253v72.22454c0 5.1302 4.1301164 9.26042 9.2604167 9.26042h73.210517c5.1302 0 9.260417-4.13022 9.260417-9.26042v-97.89584c0-5.13027-4.130217-9.26041-9.260417-9.26041h-47.539216z" fill="#52c7ff" paint-order="markers fill stroke"/><path id="path21830" d="m40.123099 163.12082-34.9317177 34.93171h25.6713007c5.1303 0 9.260417-4.13014 9.260417-9.26041z" fill="#009fff" paint-order="markers fill stroke"/><g stroke-linecap="round" stroke-linejoin="round"><path id="path10395" d="m116.84739 183.78852c-2.28005-2.28006-5.95118-2.28005-8.23123 0l-51.970918 51.97096 19.957813 19.95782 51.970985-51.97095c2.28002-2.28002 2.28001-5.95116 0-8.23117z" fill="#009fff" stroke-width="1.33" paint-order="markers fill stroke"/><path id="path10397" d="m124.58303 191.52406c2.28007 2.28003 2.28007 5.95123 0 8.23126l-51.970983 51.97099 3.991071 3.99107 51.970982-51.97098c2.28007-2.28004 2.28007-5.95124 0-8.23127z" fill="#2979ff" stroke-width="1.33" paint-order="markers fill stroke"/><path id="path10399" d="m101.07285 191.33189-8.096782 8.09677 19.957812 19.95783 8.09678-8.09677z" fill="#e7edfb" stroke-width="1.33" paint-order="markers fill stroke"/><path id="path10401" d="m117.03972 207.29867-8.09685 8.09679 3.99107 3.99108 8.09685-8.0968z" fill="#aac9fb" stroke-width="1.33" paint-order="markers fill stroke"/><path id="path10403" d="m116.84739 183.78852c-2.28005-2.28006-5.95118-2.28006-8.23123 0l-9.289446 9.28946 19.957866 19.95783 9.28946-9.28946c2.28002-2.28002 2.28001-5.95116 0-8.23117z" fill="#009fff" stroke-width="1.33" paint-order="markers fill stroke"/><path id="path10405" d="m66.007041 236.53459h-5.281792c-1.338109.00003-2.537568-.57269-3.367836-1.4873l-4.324312 4.32435c-1.387381 1.38739-1.837779 2.51582-1.894031 4.26096l.05845 13.69925c0 1.23679.338455 2.16726 1.010527 2.82257.65529.67208 1.585807 1.01051 2.8226 1.01051l13.699247.0586c1.745136-.0562 2.873573-.50664 4.260957-1.89404l4.32431-4.32436c-.914553-.83024-1.487317-2.02971-1.487255-3.36779v-5.28182l-5.282294-.0005c-1.25722-.00001-2.392004-.50546-3.213222-1.32493-.819459-.82124-1.324974-1.95602-1.324974-3.21323z" fill="#0060ff" stroke-width="1.33" paint-order="markers fill stroke"/><path id="path10407" d="m62.016283 236.5347v1.29106c0 2.69589.919804 4.50847 4.02099 4.50847-.01886-.16982-.03017-.34231-.03017-.51739l-.000314-5.28214zm9.82049 9.82048s-.410517 2.93584 1.48757 4.65885l-4.324626 4.32432c-1.387447 1.38739-2.515884 1.83794-4.26102 1.8942l-13.541615-.0581.000628.15752c0 1.2368.338393 2.16716 1.010465 2.82246.65529.67209 1.585618 1.01044 2.822411 1.01044l13.699184.0588c1.745136-.0562 2.873572-.50681 4.26102-1.8942l4.324625-4.32431c-.914616-.83025-1.487632-2.02972-1.487569-3.3678v-5.2818z" fill="#0043e0" stroke-width="1.33" paint-order="markers fill stroke"/><path id="path10409" d="m51.151892 246.61731.04588 10.71454c0 1.23679.338456 2.16726 1.010527 2.82257.655291.67208 1.585808 1.01051 2.8226 1.01051l10.71449.0457z" fill="#e7edfb" stroke-width="1.33" paint-order="markers fill stroke"/><path id="path10415" d="m470.86719 113.35352c8.61562 8.61758 8.61498 22.49064-.002 31.10742l-35.10937 35.10937 15.08398 15.08399 35.10938-35.10938c8.61732-8.61743 8.61732-22.49194 0-31.10937z" fill="#0082ff" stroke-width="5.028" transform="matrix(.265 0 0 .265 0 161.533)" paint-order="markers fill stroke"/><path id="path10423" d="m193.50195 361.53516.00196.53711c0 4.67448 1.27824 8.1912 3.81836 10.66796 2.47669 2.54015 5.99347 3.82032 10.66796 3.82032l40.4961.17187-15.08399-15.08398z" fill="#aac9fb" stroke-width="5.028" transform="matrix(.265 0 0 .265 0 161.533)" paint-order="markers fill stroke"/></g><path id="path21518" d="m22.568493 210.16824h5.8209c3.6645 0 6.6146 2.9502 6.6146 6.6146v5.8209c0 3.6644-2.9501 6.6145-6.6146 6.6145h-5.8209c-3.6644 0-6.6145-2.9501-6.6145-6.6145v-5.8209c0-3.6644 2.9501-6.6146 6.6145-6.6146z" fill="#e7edfb" stroke-dashoffset="4.8" stroke-linecap="square" stroke-width="2.674" paint-order="markers fill stroke"/><path id="path21560" d="m22.568493 242.05324h5.8209c3.6645 0 6.6146 2.9502 6.6146 6.6146v5.8209c0 3.6644-2.9501 6.6145-6.6146 6.6145h-5.8209c-3.6644 0-6.6145-2.9501-6.6145-6.6145v-5.8209c0-3.6644 2.9501-6.6146 6.6145-6.6146z" fill="#e7edfb" stroke-dashoffset="4.8" stroke-linecap="square" stroke-width="2.674" paint-order="markers fill stroke"/><path id="path24167" d="m43.449275 173.83303v1.05859h2.115234v-1.05859zm5.291015 0v1.05859h2.117188v-1.05859zm5.291016 0v1.05859h2.117187v-1.05859zm5.292969 0v1.05859h2.115234v-1.05859zm5.291015 0v1.05859h2.117188v-1.05859zm5.291016 0v1.05859h2.117187v-1.05859zm5.292969 0v1.05859h2.115234v-1.05859zm5.291015 0v1.05859h2.117188v-1.05859zm5.291016 0v1.05859h2.117187v-1.05859zm5.292969 0v1.05859h2.115234v-1.05859z" fill="#e7edfb" font-variant-ligatures="normal" font-variant-position="normal" font-variant-caps="normal" font-variant-numeric="normal" font-variant-alternates="normal" font-variant-east-asian="normal" font-feature-settings="normal" font-variation-settings="normal" text-indent="0" text-align="start" text-decoration-line="none" text-decoration-style="solid" text-decoration-color="#000000" text-transform="none" text-orientation="mixed" white-space="normal" shape-padding="0" shape-margin="0" inline-size="0" isolation="auto" mix-blend-mode="normal" solid-color="#000000" solid-opacity="1" vector-effect="none" paint-order="markers fill stroke"/><path id="path24167-9" d="m9.5262988 269.44407v1.05859h2.1152332v-1.05859zm5.2910142 0v1.05859h2.117188v-1.05859zm5.291016 0v1.05859h2.117187v-1.05859zm5.292969 0v1.05859h2.115234v-1.05859zm5.291015 0v1.05859h2.117188v-1.05859zm5.291016 0v1.05859h2.117187v-1.05859zm5.292969 0v1.05859h2.115234v-1.05859zm5.291015 0v1.05859h2.117188v-1.05859zm5.291016 0v1.05859h2.117187v-1.05859zm5.292969 0v1.05859h2.115234v-1.05859zm5.291015 0v1.05859h2.117188v-1.05859zm5.291016 0v1.05859h2.117187v-1.05859zm5.292969 0v1.05859h2.115234v-1.05859zm5.291015 0v1.05859h2.117188v-1.05859zm5.291016 0v1.05859h2.117187v-1.05859zm5.292969 0v1.05859h2.115234v-1.05859z" fill="#e7edfb" font-variant-ligatures="normal" font-variant-position="normal" font-variant-caps="normal" font-variant-numeric="normal" font-variant-alternates="normal" font-variant-east-asian="normal" font-feature-settings="normal" font-variation-settings="normal" text-indent="0" text-align="start" text-decoration-line="none" text-decoration-style="solid" text-decoration-color="#000000" text-transform="none" text-orientation="mixed" white-space="normal" shape-padding="0" shape-margin="0" inline-size="0" isolation="auto" mix-blend-mode="normal" solid-color="#000000" solid-opacity="1" vector-effect="none" paint-order="markers fill stroke"/><path id="path41137" d="m154.60547 510h252.43945zm37.61133-415.933594c-2.20685.000001-3.99676 1.787292-4 3.994141-.001 2.209903 1.7901 4.001953 4 4.001953h53.02343c2.21067.001 4.00304-1.79129 4.00196-4.001953-.003-2.207615-1.79434-3.995222-4.00196-3.994141zm0 35.847654c-2.20914 0-4 1.79086-4 4-.001 2.2099 1.7901 4.00196 4 4.00196h126.96093c2.21067.001 4.00304-1.79129 4.00196-4.00196 0-2.2099-1.79206-4.00108-4.00196-4zm-25.64453 65.37305c-2.20761.003-3.99523 1.79433-3.99415 4.00195 0 2.20686 1.7873 3.99677 3.99415 4h56.0664c2.20609-.004 3.99219-1.79391 3.99219-4 .001-2.20685-1.78534-3.99764-3.99219-4.00195zm-61.57227 14.19531-12.179688 12.17969-5.226562-5.22461c-1.561806-1.56039-4.092491-1.56039-5.654297 0-1.560392 1.56181-1.560392 4.09249 0 5.6543l8.052735 8.06054c1.564948 1.56323 4.101479 1.55973 5.662109-.008l15.000003-15c1.5656-1.5627 1.5656-4.09941 0-5.66211-1.45028-1.45028-4.01726-1.63281-5.6543 0zm302.04492 292.51563h-252.43945c-17.24328 0 269.6823 0 252.43945 0zm-240.47265-268.82032c-2.20762.003-3.99523 1.79434-3.99415 4.00196.003 2.20457 1.78958 3.99091 3.99415 3.99414h32.19335c2.20685 0 3.99676-1.78729 4-3.99414.001-2.2099-1.7901-4.00196-4-4.00196zm-61.57227 96.82227-12.179688 12.17188-5.226562-5.22657c-1.561806-1.56039-4.092491-1.56039-5.654297 0-1.560392 1.56181-1.560392 4.09249 0 5.6543l8.052735 8.0625c1.56279 1.56538 4.099319 1.56538 5.662109 0l15.000003-15.00781c1.56039-1.56181 1.56039-4.09249 0-5.6543-1.78069-1.78069-4.33361-1.32483-5.6543 0z" fill="#0060ff" transform="matrix(.265 0 0 .265 0 161.533)" font-variant-ligatures="normal" font-variant-position="normal" font-variant-caps="normal" font-variant-numeric="normal" font-variant-alternates="normal" font-variant-east-asian="normal" font-feature-settings="normal" font-variation-settings="normal" text-indent="0" text-align="start" text-decoration-line="none" text-decoration-style="solid" text-decoration-color="#000000" text-transform="none" text-orientation="mixed" white-space="normal" shape-padding="0" shape-margin="0" inline-size="0" isolation="auto" mix-blend-mode="normal" solid-color="#000000" solid-opacity="1" vector-effect="none" paint-order="markers fill stroke"/></g></svg>