<svg class="hr" width="42px" height="30px" viewBox="0 0 42 30" version="1.1" xmlns="http://www.w3.org/2000/svg" xmlns:xlink="http://www.w3.org/1999/xlink"> <g id="Page-1" stroke="none" stroke-width="1" fill="none" fill-rule="evenodd"> <g id="Index-page" transform="translate(-943.000000, -2871.000000)" fill="#1D1D1B" fill-rule="nonzero"> <g id="Social-networks" transform="translate(112.000000, 2814.000000)"> <g id="share-(1)" transform="translate(852.878906, 72.687500) rotate(13.000000) translate(-852.878906, -72.687500) translate(834.878906, 54.687500)"> <path d="M35.6550355,9.1085747 L35.6561605,9.1074497 C35.6572855,9.1057622 35.6584105,9.1040747 35.6595355,9.1018247 C35.7562864,8.99213725 35.8271621,8.85994981 35.8839751,8.72044988 C35.9019753,8.6776999 35.9137879,8.63719991 35.9267255,8.59388743 C35.9593509,8.48644998 35.979601,8.37507503 35.9863511,8.25863759 C35.9897261,8.21588761 35.9964762,8.17538762 35.9953512,8.13151264 C35.9953512,8.10901265 36.0009762,8.08876266 35.9998512,8.06682517 C35.9919762,7.93238773 35.9649759,7.80245029 35.9233505,7.68038785 C35.9199755,7.66745035 35.9109754,7.65732536 35.9064753,7.64438786 C35.8569749,7.50995043 35.7860992,7.39070048 35.7022859,7.28157553 C35.6904733,7.26638804 35.6865358,7.24613805 35.6741606,7.23095055 L29.8741679,0.398828652 C29.4303511,-0.124296111 28.7019067,-0.134421106 28.2462773,0.378016161 C27.791773,0.889890929 27.7833354,1.72914055 28.2282772,2.25339031 L31.354682,5.93720114 C26.7865759,5.33195141 22.2960956,6.29326348 22.0840311,6.34051346 C8.22052398,8.85319982 -1.59013203,21.655694 0.213822664,34.8795005 C0.303261017,35.5342502 0.792078175,36 1.34952099,36 C1.40914656,36 1.46877212,35.9949375 1.5295227,35.9848125 C2.15727869,35.8706251 2.58590777,35.1922504 2.48803184,34.4683132 C0.880954023,22.6895685 9.83210184,11.2471987 22.4777849,8.95444977 C22.5357229,8.94094978 27.1752671,7.94532523 31.5436838,8.63157492 L26.7190753,11.4963861 C26.1537574,11.832761 25.9326928,12.6326356 26.2235081,13.2834478 C26.5137608,13.935385 27.2067674,14.1879474 27.7737728,13.85551 L35.3788453,9.3397621 C35.4817838,9.27732462 35.5740347,9.19913716 35.6550355,9.1085747 Z" id="Path"></path> </g> </g> </g> </g></svg>
