<svg width="512" height="512" viewBox="0 0 512 512" fill="none" xmlns="http://www.w3.org/2000/svg">
<g clip-path="url(#clip0_10312_263)">
<path d="M344.28 187.072C343.641 186.221 342.839 185.507 341.921 184.97C341.002 184.433 339.986 184.085 338.932 183.945C337.877 183.806 336.805 183.878 335.779 184.158C334.752 184.438 333.792 184.919 332.954 185.575C332.116 186.23 331.417 187.046 330.899 187.975C330.38 188.904 330.052 189.927 329.933 190.984C329.814 192.041 329.908 193.111 330.208 194.132C330.508 195.153 331.008 196.103 331.68 196.928C344.917 213.766 352.077 234.582 352 256C351.997 277.317 344.899 298.027 331.824 314.864C318.75 331.701 300.444 343.707 279.792 348.99C259.14 354.273 237.317 352.533 217.764 344.042C198.211 335.552 182.04 320.795 171.8 302.098C161.561 283.401 157.836 261.828 161.212 240.78C164.588 219.732 174.874 200.407 190.448 185.851C206.021 171.295 225.997 162.336 247.224 160.387C268.452 158.439 289.725 163.611 307.688 175.088C309.477 176.232 311.646 176.618 313.72 176.162C315.793 175.706 317.6 174.445 318.744 172.656C319.888 170.868 320.274 168.698 319.818 166.624C319.362 164.551 318.101 162.744 316.312 161.6C292.647 146.487 264.17 140.808 236.518 145.687C208.866 150.566 184.052 165.648 166.988 187.948C149.924 210.247 141.853 238.14 144.371 266.106C146.89 294.073 159.815 320.075 180.589 338.967C201.362 357.859 228.471 368.265 256.55 368.125C284.629 367.985 311.633 357.31 332.217 338.211C352.802 319.113 365.467 292.984 367.707 264.994C369.946 237.004 361.597 209.193 344.312 187.064L344.28 187.072Z" fill="#0078FF"/>
<path d="M377.952 344C376.652 342.67 375.851 340.931 375.684 339.079C375.518 337.226 375.997 335.372 377.04 333.832C385.586 320.608 391.89 306.063 395.696 290.784L416.296 301.088C416.208 302.056 416 303 416 303.992C415.977 311.673 418.71 319.107 423.701 324.945C428.693 330.783 435.612 334.638 443.203 335.808C450.795 336.979 458.554 335.389 465.072 331.326C471.591 327.264 476.436 320.998 478.729 313.667C481.021 306.336 480.609 298.426 477.566 291.374C474.524 284.321 469.053 278.593 462.147 275.231C455.242 271.868 447.359 271.093 439.931 273.047C432.502 275.001 426.021 279.555 421.664 285.88L398.784 274.44C400.301 262.648 400.374 250.714 399 238.904C396.419 217.286 388.882 196.556 376.976 178.328L395.112 160.192C409.524 171.713 427.801 177.277 446.188 175.742C464.575 174.208 481.676 165.69 493.979 151.939C506.282 138.189 512.852 120.249 512.34 101.805C511.828 83.3612 504.272 65.8136 491.225 52.7668C478.178 39.72 460.631 32.1645 442.187 31.6524C423.743 31.1403 405.803 37.7104 392.053 50.0131C378.302 62.3158 369.784 79.4171 368.25 97.8041C366.715 116.191 372.279 134.468 383.8 148.88L367.472 165.208C344.311 136.585 311.042 117.951 274.536 113.152C271.016 112.712 267.504 112.448 264 112.256V94.8641C271.541 92.9169 278.114 88.2862 282.485 81.84C286.856 75.3938 288.726 67.5746 287.745 59.848C286.764 52.1215 282.998 45.0182 277.154 39.8695C271.31 34.7208 263.789 31.8802 256 31.8802C248.211 31.8802 240.69 34.7208 234.846 39.8695C229.002 45.0182 225.236 52.1215 224.255 59.848C223.274 67.5746 225.144 75.3938 229.515 81.84C233.886 88.2862 240.459 92.9169 248 94.8641V112.264C215.369 114 184.315 126.85 160 148.68L128.208 116.888C139.729 102.476 145.293 84.1991 143.758 65.8121C142.224 47.4251 133.706 30.3238 119.955 18.0211C106.205 5.71836 88.2648 -0.851722 69.821 -0.339593C51.3771 0.172537 33.8295 7.72799 20.7827 20.7748C7.73594 33.8216 0.18048 51.3692 -0.331649 69.813C-0.843779 88.2569 5.72631 106.197 18.029 119.947C30.3317 133.698 47.433 142.216 65.82 143.75C84.2071 145.285 102.484 139.721 116.896 128.2L148.68 160C126.854 184.318 114.001 215.37 112.256 248H94.864C92.9168 240.459 88.2862 233.887 81.8399 229.515C75.3937 225.144 67.5745 223.274 59.848 224.255C52.1215 225.236 45.0181 229.002 39.8694 234.846C34.7207 240.69 31.8801 248.211 31.8801 256C31.8801 263.789 34.7207 271.31 39.8694 277.154C45.0181 282.998 52.1215 286.764 59.848 287.745C67.5745 288.726 75.3937 286.856 81.8399 282.485C88.2862 278.114 92.9168 271.541 94.864 264H112.264C112.448 267.504 112.72 271.016 113.16 274.536C116.378 299.506 126.195 323.167 141.6 343.08L116.88 367.8C102.468 356.279 84.1911 350.715 65.804 352.25C47.417 353.785 30.3157 362.302 18.013 376.053C5.71031 389.803 -0.859779 407.743 -0.347649 426.187C0.16448 444.631 7.71994 462.179 20.7667 475.225C33.8135 488.272 51.3611 495.828 69.805 496.34C88.2488 496.852 106.189 490.282 119.939 477.979C133.69 465.676 142.208 448.575 143.742 430.188C145.277 411.801 139.713 393.524 128.192 379.112L152.048 355.256C175.026 379.502 205.743 394.972 238.904 399C247.783 400.029 256.738 400.246 265.656 399.648L270.992 420.992C264.517 425.118 259.749 431.442 257.564 438.802C255.379 446.162 255.924 454.063 259.1 461.054C262.275 468.044 267.867 473.653 274.847 476.85C281.828 480.046 289.727 480.616 297.094 478.454C304.461 476.292 310.8 471.543 314.945 465.08C319.09 458.618 320.764 450.877 319.657 443.279C318.551 435.682 314.74 428.739 308.923 423.727C303.107 418.716 295.678 415.972 288 416C287.416 416 286.872 416.144 286.288 416.176L281.648 397.624C300.238 394.292 317.98 387.295 333.84 377.04C335.379 375.996 337.231 375.517 339.083 375.683C340.935 375.849 342.672 376.651 344 377.952L471.032 504.968C473.259 507.199 475.903 508.968 478.815 510.175C481.727 511.382 484.848 512.002 488 512C488.648 512 489.296 512 489.944 511.92C493.427 511.633 496.806 510.59 499.846 508.864C502.885 507.139 505.512 504.772 507.544 501.928C510.793 497.136 512.253 491.354 511.667 485.595C511.082 479.835 508.49 474.465 504.344 470.424L377.952 344ZM448 288C451.165 288 454.258 288.938 456.889 290.697C459.52 292.455 461.571 294.954 462.782 297.877C463.993 300.801 464.31 304.018 463.693 307.122C463.075 310.225 461.551 313.076 459.314 315.314C457.076 317.551 454.225 319.075 451.121 319.693C448.018 320.31 444.801 319.993 441.877 318.782C438.953 317.571 436.455 315.52 434.696 312.889C432.938 310.258 432 307.165 432 304C432 299.757 433.686 295.687 436.686 292.686C439.687 289.686 443.757 288 448 288ZM440 48C451.076 48 461.903 51.2844 471.112 57.4378C480.321 63.5911 487.499 72.3371 491.737 82.5698C495.976 92.8024 497.085 104.062 494.924 114.925C492.763 125.788 487.43 135.766 479.598 143.598C471.766 151.43 461.788 156.763 450.925 158.924C440.062 161.085 428.802 159.976 418.57 155.737C408.337 151.499 399.591 144.321 393.438 135.112C387.284 125.903 384 115.076 384 104C384.017 89.1531 389.922 74.9192 400.421 64.4208C410.919 53.9224 425.153 48.017 440 48ZM72 480C60.9242 480 50.0972 476.716 40.8881 470.562C31.6789 464.409 24.5012 455.663 20.2627 445.43C16.0242 435.198 14.9152 423.938 17.076 413.075C19.2368 402.212 24.5703 392.234 32.402 384.402C40.2338 376.57 50.212 371.237 61.0749 369.076C71.9379 366.915 83.1976 368.024 93.4303 372.263C103.663 376.501 112.409 383.679 118.562 392.888C124.716 402.097 128 412.924 128 424C127.983 438.847 122.078 453.081 111.579 463.579C101.081 474.078 86.8469 479.983 72 480ZM304 448C304 451.165 303.062 454.258 301.304 456.889C299.545 459.52 297.047 461.571 294.123 462.782C291.199 463.993 287.982 464.31 284.879 463.693C281.775 463.075 278.924 461.551 276.686 459.314C274.449 457.076 272.925 454.225 272.307 451.122C271.69 448.018 272.007 444.801 273.218 441.877C274.429 438.954 276.48 436.455 279.111 434.697C281.742 432.938 284.835 432 288 432C292.243 432 296.313 433.686 299.314 436.686C302.314 439.687 304 443.757 304 448ZM240 64.0001C240 60.8356 240.938 57.7421 242.696 55.1109C244.455 52.4797 246.953 50.429 249.877 49.218C252.801 48.007 256.018 47.6901 259.121 48.3075C262.225 48.9248 265.076 50.4487 267.314 52.6863C269.551 54.924 271.075 57.7749 271.693 60.8786C272.31 63.9823 271.993 67.1994 270.782 70.123C269.571 73.0466 267.52 75.5455 264.889 77.3036C262.258 79.0617 259.165 80.0001 256 80.0001C251.757 80.0001 247.687 78.3143 244.686 75.3138C241.686 72.3132 240 68.2435 240 64.0001ZM72 128C60.9242 128 50.0972 124.716 40.8881 118.562C31.6789 112.409 24.5012 103.663 20.2627 93.4303C16.0242 83.1977 14.9152 71.9379 17.076 61.075C19.2368 50.2121 24.5703 40.2338 32.402 32.4021C40.2338 24.5703 50.212 19.2368 61.0749 17.0761C71.9379 14.9153 83.1976 16.0243 93.4303 20.2628C103.663 24.5013 112.409 31.679 118.562 40.8881C124.716 50.0973 128 60.9243 128 72.0001C127.983 86.847 122.078 101.081 111.579 111.579C101.081 122.078 86.8469 127.983 72 128ZM64 272C60.8355 272 57.7421 271.062 55.1109 269.304C52.4797 267.545 50.4289 265.047 49.2179 262.123C48.0069 259.199 47.6901 255.982 48.3074 252.879C48.9248 249.775 50.4486 246.924 52.6863 244.686C54.9239 242.449 57.7749 240.925 60.8785 240.307C63.9822 239.69 67.1993 240.007 70.1229 241.218C73.0465 242.429 75.5454 244.48 77.3035 247.111C79.0616 249.742 80 252.836 80 256C80 260.244 78.3143 264.313 75.3137 267.314C72.3131 270.314 68.2435 272 64 272ZM494.568 492.584C493.893 493.55 493.013 494.355 491.991 494.941C490.969 495.528 489.83 495.881 488.656 495.976C487.498 496.081 486.331 495.928 485.239 495.526C484.147 495.125 483.158 494.486 482.344 493.656L355.328 366.64C353.12 364.417 350.494 362.653 347.601 361.45C344.708 360.247 341.605 359.629 338.472 359.632C333.744 359.654 329.124 361.043 325.168 363.632C300.199 379.816 270.337 386.711 240.8 383.112C216.952 380.256 194.389 370.748 175.69 355.675C156.991 340.602 142.909 320.571 135.056 297.873C127.203 275.176 125.894 250.726 131.279 227.319C136.665 203.913 148.527 182.494 165.51 165.51C182.494 148.527 203.913 136.665 227.319 131.279C250.726 125.894 275.175 127.203 297.873 135.056C320.571 142.909 340.602 156.991 355.675 175.69C370.748 194.389 380.256 216.952 383.112 240.8C386.706 270.341 379.799 300.205 363.6 325.168C360.551 329.775 359.188 335.294 359.742 340.79C360.296 346.287 362.733 351.423 366.64 355.328L493.04 481.728C494.506 483.085 495.459 484.906 495.737 486.884C496.015 488.862 495.603 490.875 494.568 492.584Z" fill="#0078FF"/>
<path d="M192 288V302.288C192.025 306.851 193.334 311.315 195.777 315.169C198.221 319.023 201.7 322.111 205.816 324.08C221.385 331.907 238.57 335.984 255.996 335.984C273.422 335.984 290.607 331.907 306.176 324.08C310.295 322.113 313.776 319.025 316.221 315.171C318.665 311.317 319.975 306.852 320 302.288V288C319.977 275.292 316.176 262.878 309.079 252.336C301.982 241.795 291.91 233.602 280.144 228.8C285.188 223.042 287.978 215.654 288 208C288 199.513 284.629 191.374 278.627 185.373C272.626 179.371 264.487 176 256 176C247.513 176 239.374 179.371 233.373 185.373C227.371 191.374 224 199.513 224 208C224.022 215.654 226.812 223.042 231.856 228.8C220.09 233.602 210.018 241.795 202.921 252.336C195.824 262.878 192.023 275.292 192 288ZM240 208C240 204.835 240.938 201.742 242.696 199.111C244.455 196.48 246.953 194.429 249.877 193.218C252.801 192.007 256.018 191.69 259.121 192.307C262.225 192.925 265.076 194.449 267.314 196.686C269.551 198.924 271.075 201.775 271.693 204.879C272.31 207.982 271.993 211.199 270.782 214.123C269.571 217.047 267.52 219.545 264.889 221.304C262.258 223.062 259.165 224 256 224C251.757 224 247.687 222.314 244.686 219.314C241.686 216.313 240 212.243 240 208ZM256 240C268.726 240.013 280.928 245.074 289.927 254.073C298.926 263.072 303.987 275.274 304 288V302.288C303.984 303.83 303.535 305.337 302.703 306.636C301.871 307.934 300.69 308.973 299.296 309.632C285.892 316.482 271.053 320.054 256 320.054C240.947 320.054 226.108 316.482 212.704 309.632C211.31 308.973 210.129 307.934 209.297 306.636C208.465 305.337 208.016 303.83 208 302.288V288C208.013 275.274 213.074 263.072 222.073 254.073C231.072 245.074 243.274 240.013 256 240Z" fill="#0078FF"/>
<path d="M413.088 146.952C430.401 153.669 449.599 153.669 466.912 146.952C470.754 145.486 474.061 142.891 476.398 139.507C478.734 136.124 479.99 132.112 480 128C479.976 120.981 478.1 114.092 474.56 108.03C471.02 101.969 465.942 96.9495 459.84 93.4799C462.295 89.8727 463.721 85.6643 463.963 81.3074C464.205 76.9505 463.255 72.61 461.215 68.7528C459.174 64.8957 456.121 61.6678 452.383 59.4164C448.645 57.165 444.364 55.9753 440 55.9753C435.636 55.9753 431.355 57.165 427.617 59.4164C423.879 61.6678 420.826 64.8957 418.785 68.7528C416.745 72.61 415.795 76.9505 416.037 81.3074C416.279 85.6643 417.705 89.8727 420.16 93.4799C414.058 96.9495 408.98 101.969 405.44 108.03C401.9 114.092 400.024 120.981 400 128C400.01 132.112 401.266 136.124 403.602 139.507C405.939 142.891 409.246 145.486 413.088 146.952ZM432 79.9999C432 78.4177 432.469 76.871 433.348 75.5554C434.227 74.2398 435.477 73.2144 436.939 72.6089C438.4 72.0034 440.009 71.845 441.561 72.1537C443.113 72.4623 444.538 73.2243 445.657 74.3431C446.776 75.4619 447.538 76.8874 447.846 78.4392C448.155 79.9911 447.997 81.5996 447.391 83.0614C446.786 84.5232 445.76 85.7727 444.445 86.6517C443.129 87.5308 441.582 87.9999 440 87.9999C437.878 87.9999 435.843 87.1571 434.343 85.6568C432.843 84.1565 432 82.1217 432 79.9999ZM440 104C446.365 104 452.47 106.529 456.971 111.029C461.471 115.53 464 121.635 464 128C464.006 128.864 463.749 129.709 463.264 130.424C462.778 131.138 462.086 131.688 461.28 132C447.608 137.392 432.4 137.392 418.728 132C417.921 131.689 417.227 131.14 416.74 130.426C416.252 129.711 415.994 128.865 416 128C416 121.635 418.529 115.53 423.029 111.029C427.53 106.529 433.635 104 440 104Z" fill="#0078FF"/>
<path d="M91.84 413.48C94.2954 409.873 95.7208 405.665 95.963 401.308C96.2052 396.951 95.255 392.61 93.2145 388.753C91.1741 384.896 88.1206 381.668 84.3826 379.417C80.6447 377.165 76.3636 375.976 72 375.976C67.6364 375.976 63.3553 377.165 59.6174 379.417C55.8794 381.668 52.8259 384.896 50.7855 388.753C48.745 392.61 47.7948 396.951 48.037 401.308C48.2792 405.665 49.7046 409.873 52.16 413.48C46.0579 416.95 40.9802 421.969 37.4402 428.031C33.9003 434.092 32.0236 440.981 32 448C32.0098 452.112 33.2658 456.124 35.6024 459.508C37.9389 462.891 41.2462 465.487 45.088 466.952C62.4006 473.669 81.5994 473.669 98.912 466.952C102.754 465.487 106.061 462.891 108.398 459.508C110.734 456.124 111.99 452.112 112 448C111.976 440.981 110.1 434.092 106.56 428.031C103.02 421.969 97.9421 416.95 91.84 413.48ZM64 400C64 398.418 64.4692 396.871 65.3482 395.556C66.2273 394.24 67.4767 393.215 68.9385 392.609C70.4003 392.004 72.0089 391.845 73.5607 392.154C75.1126 392.463 76.538 393.225 77.6569 394.343C78.7757 395.462 79.5376 396.888 79.8463 398.439C80.155 399.991 79.9965 401.6 79.391 403.062C78.7855 404.523 77.7602 405.773 76.4446 406.652C75.129 407.531 73.5823 408 72 408C69.8783 408 67.8434 407.157 66.3431 405.657C64.8429 404.157 64 402.122 64 400ZM93.28 452C79.6084 457.392 64.3996 457.392 50.728 452C49.9207 451.69 49.2271 451.141 48.7398 450.426C48.2524 449.711 47.9944 448.865 48 448C48 441.635 50.5286 435.531 55.0294 431.03C59.5303 426.529 65.6348 424 72 424C78.3652 424 84.4697 426.529 88.9706 431.03C93.4714 435.531 96 441.635 96 448C96.0063 448.864 95.7494 449.71 95.2635 450.424C94.7776 451.139 94.0858 451.688 93.28 452Z" fill="#0078FF"/>
<path d="M91.84 61.4799C94.2954 57.8727 95.7208 53.6643 95.963 49.3074C96.2052 44.9505 95.255 40.61 93.2145 36.7528C91.1741 32.8957 88.1206 29.6678 84.3826 27.4164C80.6447 25.165 76.3636 23.9753 72 23.9753C67.6364 23.9753 63.3553 25.165 59.6174 27.4164C55.8794 29.6678 52.8259 32.8957 50.7855 36.7528C48.745 40.61 47.7948 44.9505 48.037 49.3074C48.2792 53.6643 49.7046 57.8727 52.16 61.4799C46.0579 64.9495 40.9802 69.9688 37.4402 76.0303C33.9003 82.0918 32.0236 88.9805 32 95.9999C32.0098 100.112 33.2658 104.124 35.6024 107.507C37.9389 110.891 41.2462 113.486 45.088 114.952C62.4006 121.669 81.5994 121.669 98.912 114.952C102.754 113.486 106.061 110.891 108.398 107.507C110.734 104.124 111.99 100.112 112 95.9999C111.976 88.9805 110.1 82.0918 106.56 76.0303C103.02 69.9688 97.9421 64.9495 91.84 61.4799ZM64 47.9999C64 46.4177 64.4692 44.871 65.3482 43.5554C66.2273 42.2398 67.4767 41.2144 68.9385 40.6089C70.4003 40.0034 72.0089 39.845 73.5607 40.1537C75.1126 40.4623 76.538 41.2243 77.6569 42.3431C78.7757 43.4619 79.5376 44.8874 79.8463 46.4392C80.155 47.9911 79.9965 49.5996 79.391 51.0614C78.7855 52.5232 77.7602 53.7727 76.4446 54.6517C75.129 55.5308 73.5823 55.9999 72 55.9999C69.8783 55.9999 67.8434 55.1571 66.3431 53.6568C64.8429 52.1565 64 50.1217 64 47.9999ZM93.28 99.9999C79.6084 105.392 64.3996 105.392 50.728 99.9999C49.9207 99.6894 49.2271 99.1403 48.7398 98.4257C48.2524 97.711 47.9944 96.8649 48 95.9999C48 89.6348 50.5286 83.5303 55.0294 79.0294C59.5303 74.5285 65.6348 71.9999 72 71.9999C78.3652 71.9999 84.4697 74.5285 88.9706 79.0294C93.4714 83.5303 96 89.6348 96 95.9999C96.0063 96.864 95.7494 97.7094 95.2635 98.4239C94.7776 99.1384 94.0858 99.6881 93.28 99.9999Z" fill="#0078FF"/>
</g>
<defs>
<clipPath id="clip0_10312_263">
<rect width="512" height="512" fill="white"/>
</clipPath>
</defs>
</svg>
