<svg xmlns="http://www.w3.org/2000/svg" version="1.1" xmlns:xlink="http://www.w3.org/1999/xlink" width="512" height="512" x="0" y="0" viewBox="0 0 512 512" style="enable-background:new 0 0 512 512" xml:space="preserve" class=""><g><path d="M138.71 137h-6.42l-11.997 60h30.414zM381.374 257c6.477 17.399 15.092 31.483 24.626 43.467 9.534-11.984 19.149-26.069 25.626-43.467h-50.252z" fill="#fe7524" opacity="1" data-original="#000000" class=""></path><path d="M467 91H280.717l38.842 311.679c.687 12.748-2.798 24.75-11.118 34.146L242.663 512H467c24.814 0 45-20.186 45-45V137c0-24.814-20.186-46-45-46zm0 166h-4.006c-8.535 27.383-22.07 48.81-36.136 65.702 11.019 10.074 22.802 18.338 34.517 27.594 6.46 5.171 7.515 14.604 2.329 21.079-5.162 6.465-14.632 7.513-21.079 2.329-12.729-10.047-24.677-18.457-36.625-29.421-11.948 10.964-22.896 19.374-35.625 29.421-6.447 5.184-15.917 4.136-21.079-2.329-5.186-6.475-4.131-15.908 2.329-21.079 11.715-9.256 22.498-17.52 33.517-27.594-14.066-16.891-26.602-38.318-35.136-65.702H346c-8.291 0-15-6.709-15-15s6.709-15 15-15h45v-15c0-8.291 6.709-15 15-15s15 6.709 15 15v15h46c8.291 0 15 6.709 15 15s-6.709 15-15 15z" fill="#fe7524" opacity="1" data-original="#000000" class=""></path><path d="M244.164 39.419C241.366 16.948 222.162 0 199.516 0H45C20.186 0 0 20.186 0 45v332c0 24.814 20.186 45 45 45h236.551c4.376-5.002 8.044-8.134 8.199-14.663.038-1.637-45.383-366.294-45.586-367.918zm-60.22 247.288c-7.954 1.637-16.011-3.527-17.651-11.763L156.706 227h-42.411l-9.587 47.944c-1.611 8.115-9.434 13.447-17.651 11.763-8.115-1.626-13.389-9.521-11.763-17.651l29.999-150C106.699 112.054 112.852 107 120 107h31c7.148 0 13.301 5.054 14.707 12.056l30 150c1.626 8.13-3.647 16.025-11.763 17.651zM175.261 452l2.574 20.581c1.716 13.783 10.874 27.838 25.938 34.856L254.132 452h-78.871z" fill="#fe7524" opacity="1" data-original="#000000" class=""></path></g></svg>