<?xml version="1.0"?>
<svg xmlns="http://www.w3.org/2000/svg" id="Layer_1" data-name="Layer 1" viewBox="0 0 512 512"><path d="M256,81.011a174.972,174.972,0,1,0,123.727,51.248A174.417,174.417,0,0,0,256,81.011ZM368.417,368.4a158.93,158.93,0,1,1,46.572-112.417A158.48,158.48,0,0,1,368.417,368.4Zm1.134-56.152A121.574,121.574,0,1,1,225.33,137.616a5.71,5.71,0,0,1,7.2,7.257C203.7,230.362,276.494,315.6,363.769,303.8A5.715,5.715,0,0,1,369.551,312.251ZM248.007,46.061V8.022a7.993,7.993,0,1,1,15.986,0V46.061a7.993,7.993,0,1,1-15.986,0ZM354.075,70.154l19.019-32.909a7.976,7.976,0,1,1,13.8,7.994L367.879,78.148a7.976,7.976,0,1,1-13.8-7.994Zm76.844,84.866a8,8,0,0,1,2.919-10.913l32.937-19.02a7.988,7.988,0,0,1,7.994,13.833l-32.938,18.991A8,8,0,0,1,430.919,155.02ZM125.1,45.239a7.976,7.976,0,1,1,13.8-7.994l19.02,32.909a7.976,7.976,0,1,1-13.8,7.994ZM511.986,255.986a8.008,8.008,0,0,1-7.993,8.021h-38.04a8.007,8.007,0,1,1,0-16.014h38.04A8,8,0,0,1,511.986,255.986ZM386.9,466.761a7.976,7.976,0,1,1-13.8,7.993l-19.019-32.908a7.983,7.983,0,0,1,13.8-8.022ZM34.34,128.036A7.947,7.947,0,0,1,45.2,125.087l32.937,19.02a7.962,7.962,0,1,1-7.937,13.8L37.26,138.92A7.969,7.969,0,0,1,34.34,128.036ZM477.66,383.993a7.936,7.936,0,0,1-10.885,2.891l-32.937-18.991a7.976,7.976,0,1,1,7.993-13.8l32.938,18.991A7.994,7.994,0,0,1,477.66,383.993ZM263.993,465.939v38.039a7.993,7.993,0,1,1-15.986,0V465.939a7.993,7.993,0,1,1,15.986,0ZM46.075,264.007H8.007a8.007,8.007,0,0,1,0-16.014H46.075a8.007,8.007,0,0,1,0,16.014ZM157.926,441.846l-19.02,32.908a7.976,7.976,0,1,1-13.8-7.993l19.02-32.937a7.983,7.983,0,0,1,13.8,8.022ZM81.081,357.008a7.979,7.979,0,0,1-2.947,10.885L45.2,386.884a7.962,7.962,0,0,1-7.937-13.8L70.2,354.089A7.969,7.969,0,0,1,81.081,357.008Z"/></svg>
