<svg width="285" height="72" viewBox="0 0 285 72" fill="none" xmlns="http://www.w3.org/2000/svg">
<path d="M37.2782 16.3887L25.4838 26.5634V32.0003L37.2782 44.078V16.3887Z" fill="url(#paint0_linear_2754_396)"/>
<path d="M37.2782 72L0 36H19.3351L37.2782 54.4078V72Z" fill="url(#paint1_linear_2754_396)"/>
<path d="M37.2782 0L0 36L9.86092 45.7087L37.2782 17.5922V0Z" fill="#3980FF"/>
<path d="M47.5645 55.6112L59.3589 45.4364V39.9995L47.5645 27.9219V55.6112Z" fill="url(#paint2_linear_2754_396)"/>
<path d="M47.5645 0L84.8426 36H65.5461L47.5645 17.5922V0Z" fill="url(#paint3_linear_2754_396)"/>
<path d="M47.5645 71.9998L84.8426 35.9998L75.0204 26.291L47.5645 54.4075V71.9998Z" fill="#3980FF"/>
<path d="M89.0082 9.92L91.6082 19.66L94.8082 9.92H97.9282L101.128 19.66L103.728 9.92H107.828L103.328 25H99.3282L96.3682 16.26L93.4082 25H89.4082L84.9082 9.92H89.0082ZM117.998 13.24H113.338V15.76H117.738V19.08H113.338V21.68H117.998V25H109.418V9.92H117.998V13.24ZM124.744 21.96H125.604C126.591 21.96 127.297 21.8333 127.724 21.58C128.151 21.3267 128.364 20.92 128.364 20.36C128.364 19.8 128.151 19.3933 127.724 19.14C127.297 18.8867 126.591 18.76 125.604 18.76H124.744V21.96ZM124.744 15.84H125.464C126.691 15.84 127.304 15.3533 127.304 14.38C127.304 13.4067 126.691 12.92 125.464 12.92H124.744V15.84ZM120.824 9.92H126.664C128.051 9.92 129.104 10.2533 129.824 10.92C130.544 11.5867 130.904 12.5467 130.904 13.8C130.904 14.56 130.764 15.1933 130.484 15.7C130.217 16.1933 129.804 16.6133 129.244 16.96C129.804 17.0667 130.277 17.2333 130.664 17.46C131.064 17.6733 131.384 17.94 131.624 18.26C131.877 18.58 132.057 18.94 132.164 19.34C132.271 19.74 132.324 20.1667 132.324 20.62C132.324 21.3267 132.197 21.9533 131.944 22.5C131.704 23.0467 131.357 23.5067 130.904 23.88C130.464 24.2533 129.924 24.5333 129.284 24.72C128.644 24.9067 127.924 25 127.124 25H120.824V9.92Z" fill="#3980FF"/>
<path d="M90.5742 29.92V45H86.6542V29.92H90.5742ZM93.0445 45L95.6045 29.92H99.4845L102.505 37.96L105.505 29.92H109.385L111.945 45H108.045L106.745 36.32L103.185 45H101.625L98.2445 36.32L96.9445 45H93.0445ZM118.348 36.84H119.648C121.088 36.84 121.808 36.2133 121.808 34.96C121.808 33.7067 121.088 33.08 119.648 33.08H118.348V36.84ZM118.348 45H114.428V29.92H120.668C122.361 29.92 123.654 30.36 124.548 31.24C125.454 32.12 125.908 33.36 125.908 34.96C125.908 36.56 125.454 37.8 124.548 38.68C123.654 39.56 122.361 40 120.668 40H118.348V45ZM131.902 29.92V38.12C131.902 38.56 131.916 39.0133 131.942 39.48C131.982 39.9333 132.082 40.3467 132.242 40.72C132.416 41.0933 132.682 41.4 133.042 41.64C133.402 41.8667 133.909 41.98 134.562 41.98C135.216 41.98 135.716 41.8667 136.062 41.64C136.422 41.4 136.689 41.0933 136.862 40.72C137.036 40.3467 137.136 39.9333 137.162 39.48C137.202 39.0133 137.222 38.56 137.222 38.12V29.92H141.122V38.66C141.122 41.0067 140.582 42.72 139.502 43.8C138.436 44.88 136.789 45.42 134.562 45.42C132.336 45.42 130.682 44.88 129.602 43.8C128.522 42.72 127.982 41.0067 127.982 38.66V29.92H131.902ZM148.211 29.92V41.68H152.911V45H144.291V29.92H148.211ZM163.45 33.78C163.023 33.4333 162.597 33.18 162.17 33.02C161.743 32.8467 161.33 32.76 160.93 32.76C160.423 32.76 160.01 32.88 159.69 33.12C159.37 33.36 159.21 33.6733 159.21 34.06C159.21 34.3267 159.29 34.5467 159.45 34.72C159.61 34.8933 159.817 35.0467 160.07 35.18C160.337 35.3 160.63 35.4067 160.95 35.5C161.283 35.5933 161.61 35.6933 161.93 35.8C163.21 36.2267 164.143 36.8 164.73 37.52C165.33 38.2267 165.63 39.1533 165.63 40.3C165.63 41.0733 165.497 41.7733 165.23 42.4C164.977 43.0267 164.597 43.5667 164.09 44.02C163.597 44.46 162.983 44.8 162.25 45.04C161.53 45.2933 160.71 45.42 159.79 45.42C157.883 45.42 156.117 44.8533 154.49 43.72L156.17 40.56C156.757 41.08 157.337 41.4667 157.91 41.72C158.483 41.9733 159.05 42.1 159.61 42.1C160.25 42.1 160.723 41.9533 161.03 41.66C161.35 41.3667 161.51 41.0333 161.51 40.66C161.51 40.4333 161.47 40.24 161.39 40.08C161.31 39.9067 161.177 39.7533 160.99 39.62C160.803 39.4733 160.557 39.34 160.25 39.22C159.957 39.1 159.597 38.9667 159.17 38.82C158.663 38.66 158.163 38.4867 157.67 38.3C157.19 38.1 156.757 37.84 156.37 37.52C155.997 37.2 155.69 36.8 155.45 36.32C155.223 35.8267 155.11 35.2067 155.11 34.46C155.11 33.7133 155.23 33.04 155.47 32.44C155.723 31.8267 156.07 31.3067 156.51 30.88C156.963 30.44 157.51 30.1 158.15 29.86C158.803 29.62 159.53 29.5 160.33 29.5C161.077 29.5 161.857 29.6067 162.67 29.82C163.483 30.02 164.263 30.32 165.01 30.72L163.45 33.78ZM176.68 33.24H172.02V35.76H176.42V39.08H172.02V41.68H176.68V45H168.1V29.92H176.68V33.24Z" fill="black"/>
<path d="M93.3516 53.568V60H92.4036V55.896C92.4036 55.728 92.4076 55.552 92.4156 55.368C92.4316 55.184 92.4476 55.004 92.4636 54.828H92.4276L90.3276 60H89.4396L87.3996 54.828H87.3636C87.3796 55.004 87.3876 55.184 87.3876 55.368C87.3956 55.552 87.3996 55.74 87.3996 55.932V60H86.4516V53.568H87.8556L89.8836 58.74L91.9476 53.568H93.3516ZM96.4008 57.492C96.4008 57.564 96.3968 57.668 96.3888 57.804C96.3888 57.932 96.3848 58.072 96.3768 58.224C96.3688 58.368 96.3608 58.508 96.3528 58.644C96.3448 58.772 96.3368 58.876 96.3288 58.956L99.7728 53.568H101.069V60H100.085V56.208C100.085 56.08 100.085 55.912 100.085 55.704C100.093 55.496 100.101 55.292 100.109 55.092C100.117 54.884 100.125 54.728 100.133 54.624L96.7128 60H95.4048V53.568H96.4008V57.492ZM112.255 53.568V60H111.199V54.468H107.875V60H106.819V53.568H112.255ZM115.303 57.492C115.303 57.564 115.299 57.668 115.291 57.804C115.291 57.932 115.287 58.072 115.279 58.224C115.271 58.368 115.263 58.508 115.255 58.644C115.247 58.772 115.239 58.876 115.231 58.956L118.675 53.568H119.971V60H118.987V56.208C118.987 56.08 118.987 55.912 118.987 55.704C118.995 55.496 119.003 55.292 119.011 55.092C119.019 54.884 119.027 54.728 119.035 54.624L115.615 60H114.307V53.568H115.303V57.492ZM130.742 53.568V60H122.018V53.568H123.074V59.112H125.846V53.568H126.902V59.112H129.686V53.568H130.742ZM135.283 53.448C135.835 53.448 136.307 53.568 136.699 53.808C137.099 54.048 137.403 54.388 137.611 54.828C137.827 55.26 137.935 55.768 137.935 56.352V56.988H133.531C133.547 57.716 133.731 58.272 134.083 58.656C134.443 59.032 134.943 59.22 135.583 59.22C135.991 59.22 136.351 59.184 136.663 59.112C136.983 59.032 137.311 58.92 137.647 58.776V59.7C137.319 59.844 136.995 59.948 136.675 60.012C136.355 60.084 135.975 60.12 135.535 60.12C134.927 60.12 134.387 59.996 133.915 59.748C133.451 59.5 133.087 59.132 132.823 58.644C132.567 58.148 132.439 57.544 132.439 56.832C132.439 56.128 132.555 55.524 132.787 55.02C133.027 54.516 133.359 54.128 133.783 53.856C134.215 53.584 134.715 53.448 135.283 53.448ZM135.271 54.312C134.767 54.312 134.367 54.476 134.071 54.804C133.783 55.124 133.611 55.572 133.555 56.148H136.831C136.831 55.78 136.775 55.46 136.663 55.188C136.551 54.916 136.379 54.704 136.147 54.552C135.923 54.392 135.631 54.312 135.271 54.312ZM146.473 53.568V60H145.525V55.896C145.525 55.728 145.529 55.552 145.537 55.368C145.553 55.184 145.569 55.004 145.585 54.828H145.549L143.449 60H142.561L140.521 54.828H140.485C140.501 55.004 140.509 55.184 140.509 55.368C140.517 55.552 140.521 55.74 140.521 55.932V60H139.573V53.568H140.977L143.005 58.74L145.069 53.568H146.473ZM154.118 56.772C154.118 57.308 154.046 57.784 153.902 58.2C153.766 58.608 153.566 58.956 153.302 59.244C153.046 59.532 152.73 59.752 152.354 59.904C151.986 60.048 151.574 60.12 151.118 60.12C150.694 60.12 150.302 60.048 149.942 59.904C149.582 59.752 149.27 59.532 149.006 59.244C148.742 58.956 148.534 58.608 148.382 58.2C148.238 57.784 148.166 57.308 148.166 56.772C148.166 56.06 148.286 55.46 148.526 54.972C148.766 54.476 149.11 54.1 149.558 53.844C150.006 53.58 150.538 53.448 151.154 53.448C151.738 53.448 152.25 53.58 152.69 53.844C153.138 54.1 153.486 54.476 153.734 54.972C153.99 55.46 154.118 56.06 154.118 56.772ZM149.258 56.772C149.258 57.276 149.322 57.716 149.45 58.092C149.586 58.46 149.794 58.744 150.074 58.944C150.354 59.144 150.71 59.244 151.142 59.244C151.574 59.244 151.93 59.144 152.21 58.944C152.49 58.744 152.694 58.46 152.822 58.092C152.958 57.716 153.026 57.276 153.026 56.772C153.026 56.26 152.958 55.824 152.822 55.464C152.686 55.104 152.478 54.828 152.198 54.636C151.926 54.436 151.57 54.336 151.13 54.336C150.474 54.336 149.998 54.552 149.702 54.984C149.406 55.416 149.258 56.012 149.258 56.772ZM163.299 53.568H164.451L161.703 56.664L164.679 60H163.455L160.551 56.736V60H159.495V53.568H160.551V56.688L163.299 53.568ZM171.204 56.772C171.204 57.308 171.132 57.784 170.988 58.2C170.852 58.608 170.652 58.956 170.388 59.244C170.132 59.532 169.816 59.752 169.44 59.904C169.072 60.048 168.66 60.12 168.204 60.12C167.78 60.12 167.388 60.048 167.028 59.904C166.668 59.752 166.356 59.532 166.092 59.244C165.828 58.956 165.62 58.608 165.468 58.2C165.324 57.784 165.252 57.308 165.252 56.772C165.252 56.06 165.372 55.46 165.612 54.972C165.852 54.476 166.196 54.1 166.644 53.844C167.092 53.58 167.624 53.448 168.24 53.448C168.824 53.448 169.336 53.58 169.776 53.844C170.224 54.1 170.572 54.476 170.82 54.972C171.076 55.46 171.204 56.06 171.204 56.772ZM166.344 56.772C166.344 57.276 166.408 57.716 166.536 58.092C166.672 58.46 166.88 58.744 167.16 58.944C167.44 59.144 167.796 59.244 168.228 59.244C168.66 59.244 169.016 59.144 169.296 58.944C169.576 58.744 169.78 58.46 169.908 58.092C170.044 57.716 170.112 57.276 170.112 56.772C170.112 56.26 170.044 55.824 169.908 55.464C169.772 55.104 169.564 54.828 169.284 54.636C169.012 54.436 168.656 54.336 168.216 54.336C167.56 54.336 167.084 54.552 166.788 54.984C166.492 55.416 166.344 56.012 166.344 56.772ZM177.653 53.568V59.112H178.589V62.232H177.569V60H173.093V62.232H172.085V59.112H172.601C172.969 58.6 173.273 58.044 173.513 57.444C173.761 56.836 173.945 56.204 174.065 55.548C174.193 54.884 174.261 54.224 174.269 53.568H177.653ZM175.205 54.396C175.173 54.94 175.089 55.504 174.953 56.088C174.817 56.664 174.641 57.216 174.425 57.744C174.217 58.272 173.973 58.728 173.693 59.112H176.633V54.396H175.205ZM180.477 58.3066L181.648 58.7637L179.979 62.1094L179.088 61.7402L180.477 58.3066ZM187.652 60H186.428L188.264 57.3C188.016 57.236 187.776 57.136 187.544 57C187.312 56.856 187.124 56.66 186.98 56.412C186.836 56.156 186.764 55.84 186.764 55.464C186.764 54.848 186.972 54.38 187.388 54.06C187.804 53.732 188.356 53.568 189.044 53.568H191.924V60H190.868V57.444H189.308L187.652 60ZM187.784 55.476C187.784 55.844 187.92 56.12 188.192 56.304C188.472 56.48 188.86 56.568 189.356 56.568H190.868V54.444H189.152C188.664 54.444 188.312 54.54 188.096 54.732C187.888 54.924 187.784 55.172 187.784 55.476ZM197.763 53.568H198.915L196.167 56.664L199.143 60H197.919L195.015 56.736V60H193.959V53.568H195.015V56.688L197.763 53.568ZM201.307 57.492C201.307 57.564 201.303 57.668 201.295 57.804C201.295 57.932 201.291 58.072 201.283 58.224C201.275 58.368 201.267 58.508 201.259 58.644C201.251 58.772 201.243 58.876 201.235 58.956L204.679 53.568H205.975V60H204.991V56.208C204.991 56.08 204.991 55.912 204.991 55.704C204.999 55.496 205.007 55.292 205.015 55.092C205.023 54.884 205.031 54.728 205.039 54.624L201.619 60H200.311V53.568H201.307V57.492ZM213.23 50.904C213.198 51.304 213.098 51.64 212.93 51.912C212.77 52.184 212.53 52.388 212.21 52.524C211.89 52.66 211.474 52.728 210.962 52.728C210.442 52.728 210.022 52.66 209.702 52.524C209.39 52.388 209.162 52.188 209.018 51.924C208.874 51.652 208.786 51.312 208.754 50.904H209.738C209.778 51.336 209.89 51.628 210.074 51.78C210.266 51.924 210.57 51.996 210.986 51.996C211.354 51.996 211.642 51.92 211.85 51.768C212.066 51.608 212.194 51.32 212.234 50.904H213.23ZM209.018 57.492C209.018 57.564 209.014 57.668 209.006 57.804C209.006 57.932 209.002 58.072 208.994 58.224C208.986 58.368 208.978 58.508 208.97 58.644C208.962 58.772 208.954 58.876 208.946 58.956L212.39 53.568H213.686V60H212.702V56.208C212.702 56.08 212.702 55.912 212.702 55.704C212.71 55.496 212.718 55.292 212.726 55.092C212.734 54.884 212.742 54.728 212.75 54.624L209.33 60H208.022V53.568H209.018V57.492ZM224.872 53.568V60H223.816V54.468H220.492V60H219.436V53.568H224.872ZM229.984 53.448C230.776 53.448 231.412 53.724 231.892 54.276C232.38 54.828 232.624 55.66 232.624 56.772C232.624 57.5 232.512 58.116 232.288 58.62C232.072 59.116 231.764 59.492 231.364 59.748C230.972 59.996 230.508 60.12 229.972 60.12C229.644 60.12 229.352 60.076 229.096 59.988C228.84 59.9 228.62 59.788 228.436 59.652C228.26 59.508 228.108 59.352 227.98 59.184H227.908C227.924 59.32 227.94 59.492 227.956 59.7C227.972 59.908 227.98 60.088 227.98 60.24V62.88H226.924V53.568H227.788L227.932 54.444H227.98C228.108 54.26 228.26 54.092 228.436 53.94C228.62 53.788 228.836 53.668 229.084 53.58C229.34 53.492 229.64 53.448 229.984 53.448ZM229.792 54.336C229.36 54.336 229.012 54.42 228.748 54.588C228.484 54.748 228.292 54.992 228.172 55.32C228.052 55.648 227.988 56.064 227.98 56.568V56.772C227.98 57.3 228.036 57.748 228.148 58.116C228.26 58.484 228.448 58.764 228.712 58.956C228.984 59.148 229.352 59.244 229.816 59.244C230.208 59.244 230.528 59.136 230.776 58.92C231.032 58.704 231.22 58.412 231.34 58.044C231.468 57.668 231.532 57.24 231.532 56.76C231.532 56.024 231.388 55.436 231.1 54.996C230.82 54.556 230.384 54.336 229.792 54.336ZM236.743 53.46C237.527 53.46 238.107 53.632 238.483 53.976C238.859 54.32 239.047 54.868 239.047 55.62V60H238.279L238.075 59.088H238.027C237.843 59.32 237.651 59.516 237.451 59.676C237.259 59.828 237.035 59.94 236.779 60.012C236.531 60.084 236.227 60.12 235.867 60.12C235.483 60.12 235.135 60.052 234.823 59.916C234.519 59.78 234.279 59.572 234.103 59.292C233.927 59.004 233.839 58.644 233.839 58.212C233.839 57.572 234.091 57.08 234.595 56.736C235.099 56.384 235.875 56.192 236.923 56.16L238.015 56.124V55.74C238.015 55.204 237.899 54.832 237.667 54.624C237.435 54.416 237.107 54.312 236.683 54.312C236.347 54.312 236.027 54.364 235.723 54.468C235.419 54.564 235.135 54.676 234.871 54.804L234.547 54.012C234.827 53.86 235.159 53.732 235.543 53.628C235.927 53.516 236.327 53.46 236.743 53.46ZM237.055 56.892C236.255 56.924 235.699 57.052 235.387 57.276C235.083 57.5 234.931 57.816 234.931 58.224C234.931 58.584 235.039 58.848 235.255 59.016C235.479 59.184 235.763 59.268 236.107 59.268C236.651 59.268 237.103 59.12 237.463 58.824C237.823 58.52 238.003 58.056 238.003 57.432V56.856L237.055 56.892ZM247.382 62.232H246.35V60H241.034V53.568H242.09V59.112H245.414V53.568H246.47V59.124H247.382V62.232ZM256.968 56.772C256.968 57.484 256.852 58.092 256.62 58.596C256.388 59.092 256.06 59.472 255.636 59.736C255.212 59.992 254.708 60.12 254.124 60.12C253.58 60.12 253.104 60.008 252.696 59.784C252.288 59.552 251.964 59.216 251.724 58.776C251.484 58.328 251.344 57.78 251.304 57.132H249.672V60H248.616V53.568H249.672V56.244H251.316C251.372 55.636 251.52 55.128 251.76 54.72C252.008 54.304 252.332 53.988 252.732 53.772C253.14 53.556 253.612 53.448 254.148 53.448C254.7 53.448 255.188 53.58 255.612 53.844C256.036 54.1 256.368 54.476 256.608 54.972C256.848 55.46 256.968 56.06 256.968 56.772ZM252.384 56.772C252.384 57.308 252.444 57.76 252.564 58.128C252.692 58.496 252.884 58.776 253.14 58.968C253.396 59.152 253.728 59.244 254.136 59.244C254.544 59.244 254.876 59.152 255.132 58.968C255.388 58.776 255.576 58.496 255.696 58.128C255.816 57.76 255.876 57.308 255.876 56.772C255.876 56.236 255.816 55.788 255.696 55.428C255.576 55.068 255.388 54.796 255.132 54.612C254.876 54.428 254.544 54.336 254.136 54.336C253.728 54.336 253.396 54.428 253.14 54.612C252.884 54.796 252.692 55.068 252.564 55.428C252.444 55.788 252.384 56.236 252.384 56.772ZM261.347 60.12C260.755 60.12 260.227 60.008 259.763 59.784C259.307 59.552 258.947 59.192 258.683 58.704C258.419 58.216 258.287 57.588 258.287 56.82C258.287 56.02 258.423 55.372 258.695 54.876C258.967 54.38 259.335 54.02 259.799 53.796C260.271 53.564 260.799 53.448 261.383 53.448C261.711 53.448 262.031 53.48 262.343 53.544C262.663 53.608 262.935 53.692 263.159 53.796L262.847 54.66C262.623 54.572 262.375 54.5 262.103 54.444C261.839 54.388 261.591 54.36 261.359 54.36C260.951 54.36 260.607 54.428 260.327 54.564C260.047 54.7 259.831 54.908 259.679 55.188C259.527 55.468 259.427 55.824 259.379 56.256H262.535V57.12H259.367C259.391 57.592 259.479 57.984 259.631 58.296C259.783 58.608 259.999 58.84 260.279 58.992C260.559 59.144 260.907 59.22 261.323 59.22C261.683 59.22 262.003 59.184 262.283 59.112C262.563 59.04 262.823 58.956 263.063 58.86V59.772C262.839 59.884 262.591 59.968 262.319 60.024C262.047 60.088 261.723 60.12 261.347 60.12Z" fill="black"/>
<defs>
<linearGradient id="paint0_linear_2754_396" x1="37.3201" y1="30.2749" x2="31.1626" y2="24.8792" gradientUnits="userSpaceOnUse">
<stop stop-color="#3980FF"/>
<stop offset="1" stop-color="#0029BC"/>
</linearGradient>
<linearGradient id="paint1_linear_2754_396" x1="13.0853" y1="41.6573" x2="26.6149" y2="52.5387" gradientUnits="userSpaceOnUse">
<stop stop-color="#0029BC"/>
<stop offset="1" stop-color="#3980FF"/>
</linearGradient>
<linearGradient id="paint2_linear_2754_396" x1="47.5412" y1="41.7293" x2="53.6987" y2="47.125" gradientUnits="userSpaceOnUse">
<stop stop-color="#3980FF"/>
<stop offset="1" stop-color="#0029BC"/>
</linearGradient>
<linearGradient id="paint3_linear_2754_396" x1="71.776" y1="30.3471" x2="58.2464" y2="19.4657" gradientUnits="userSpaceOnUse">
<stop stop-color="#0029BC"/>
<stop offset="1" stop-color="#3980FF"/>
</linearGradient>
</defs>
</svg>
