<svg width="285" height="72" viewBox="0 0 285 72" fill="none" xmlns="http://www.w3.org/2000/svg">
<path d="M31.1958 14.3398L21.3257 23.2428V28L31.1958 38.568V14.3398Z" fill="url(#paint0_linear_6203_602)"/>
<path d="M31.196 63L0 31.5H16.1805L31.196 47.6068V63Z" fill="url(#paint1_linear_6203_602)"/>
<path d="M31.196 0L0 31.5L8.25205 39.9951L31.196 15.3932V0Z" fill="#3980FF"/>
<path d="M39.804 48.6598L49.6741 39.7569V34.9996L39.804 24.4316V48.6598Z" fill="url(#paint2_linear_6203_602)"/>
<path d="M39.804 0L70.9999 31.5H54.8518L39.804 15.3932V0Z" fill="url(#paint3_linear_6203_602)"/>
<path d="M39.804 63L70.9999 31.5L62.7803 23.0049L39.804 47.6068V63Z" fill="#3980FF"/>
<path d="M85.3646 13.024C85.0232 12.7467 84.6819 12.544 84.3406 12.416C83.9992 12.2773 83.6686 12.208 83.3486 12.208C82.9432 12.208 82.6126 12.304 82.3566 12.496C82.1006 12.688 81.9726 12.9387 81.9726 13.248C81.9726 13.4613 82.0366 13.6373 82.1646 13.776C82.2926 13.9147 82.4579 14.0373 82.6606 14.144C82.8739 14.24 83.1086 14.3253 83.3646 14.4C83.6312 14.4747 83.8926 14.5547 84.1486 14.64C85.1726 14.9813 85.9192 15.44 86.3886 16.016C86.8686 16.5813 87.1086 17.3227 87.1086 18.24C87.1086 18.8587 87.0019 19.4187 86.7886 19.92C86.5859 20.4213 86.2819 20.8533 85.8766 21.216C85.4819 21.568 84.9912 21.84 84.4046 22.032C83.8286 22.2347 83.1726 22.336 82.4366 22.336C80.9112 22.336 79.4979 21.8827 78.1966 20.976L79.5406 18.448C80.0099 18.864 80.4739 19.1733 80.9326 19.376C81.3912 19.5787 81.8446 19.68 82.2926 19.68C82.8046 19.68 83.1832 19.5627 83.4286 19.328C83.6846 19.0933 83.8126 18.8267 83.8126 18.528C83.8126 18.3467 83.7806 18.192 83.7166 18.064C83.6526 17.9253 83.5459 17.8027 83.3966 17.696C83.2472 17.5787 83.0499 17.472 82.8046 17.376C82.5699 17.28 82.2819 17.1733 81.9406 17.056C81.5352 16.928 81.1352 16.7893 80.7406 16.64C80.3566 16.48 80.0099 16.272 79.7006 16.016C79.4019 15.76 79.1566 15.44 78.9646 15.056C78.7832 14.6613 78.6926 14.1653 78.6926 13.568C78.6926 12.9707 78.7886 12.432 78.9806 11.952C79.1832 11.4613 79.4606 11.0453 79.8126 10.704C80.1752 10.352 80.6126 10.08 81.1246 9.888C81.6472 9.696 82.2286 9.6 82.8686 9.6C83.4659 9.6 84.0899 9.68533 84.7406 9.856C85.3912 10.016 86.0152 10.256 86.6126 10.576L85.3646 13.024ZM93.7384 12.592V22H90.6024V12.592H88.0264V9.936H96.3144V12.592H93.7384ZM100.845 9.936V16.496C100.845 16.848 100.856 17.2107 100.877 17.584C100.909 17.9467 100.989 18.2773 101.117 18.576C101.256 18.8747 101.469 19.12 101.757 19.312C102.045 19.4933 102.451 19.584 102.973 19.584C103.496 19.584 103.896 19.4933 104.173 19.312C104.461 19.12 104.675 18.8747 104.813 18.576C104.952 18.2773 105.032 17.9467 105.053 17.584C105.085 17.2107 105.101 16.848 105.101 16.496V9.936H108.221V16.928C108.221 18.8053 107.789 20.176 106.925 21.04C106.072 21.904 104.755 22.336 102.973 22.336C101.192 22.336 99.8693 21.904 99.0053 21.04C98.1413 20.176 97.7093 18.8053 97.7093 16.928V9.936H100.845ZM113.892 19.344H114.612C115.156 19.344 115.642 19.2587 116.068 19.088C116.495 18.9173 116.852 18.6827 117.14 18.384C117.439 18.0853 117.663 17.7333 117.812 17.328C117.972 16.912 118.052 16.4587 118.052 15.968C118.052 15.488 117.972 15.04 117.812 14.624C117.652 14.208 117.423 13.8507 117.124 13.552C116.836 13.2533 116.479 13.0187 116.052 12.848C115.626 12.6773 115.146 12.592 114.612 12.592H113.892V19.344ZM110.756 9.936H115.396C116.218 9.936 116.986 10.1013 117.7 10.432C118.426 10.7627 119.055 11.2053 119.588 11.76C120.132 12.304 120.559 12.944 120.868 13.68C121.178 14.4053 121.332 15.168 121.332 15.968C121.332 16.7573 121.178 17.52 120.868 18.256C120.57 18.9813 120.148 19.6213 119.604 20.176C119.071 20.7307 118.442 21.1733 117.716 21.504C117.002 21.8347 116.228 22 115.396 22H110.756V9.936ZM126.47 9.936V22H123.334V9.936H126.47ZM131.727 15.968C131.727 16.448 131.817 16.8907 131.999 17.296C132.18 17.7013 132.425 18.0533 132.735 18.352C133.044 18.6507 133.401 18.8853 133.807 19.056C134.223 19.216 134.66 19.296 135.119 19.296C135.577 19.296 136.009 19.216 136.415 19.056C136.831 18.8853 137.193 18.6507 137.503 18.352C137.823 18.0533 138.073 17.7013 138.255 17.296C138.436 16.8907 138.527 16.448 138.527 15.968C138.527 15.488 138.436 15.0453 138.255 14.64C138.073 14.2347 137.823 13.8827 137.503 13.584C137.193 13.2853 136.831 13.056 136.415 12.896C136.009 12.7253 135.577 12.64 135.119 12.64C134.66 12.64 134.223 12.7253 133.807 12.896C133.401 13.056 133.044 13.2853 132.735 13.584C132.425 13.8827 132.18 14.2347 131.999 14.64C131.817 15.0453 131.727 15.488 131.727 15.968ZM128.447 15.968C128.447 15.072 128.612 14.24 128.943 13.472C129.273 12.6933 129.732 12.016 130.319 11.44C130.905 10.864 131.604 10.416 132.415 10.096C133.236 9.76533 134.137 9.6 135.119 9.6C136.089 9.6 136.985 9.76533 137.807 10.096C138.628 10.416 139.332 10.864 139.919 11.44C140.516 12.016 140.98 12.6933 141.311 13.472C141.641 14.24 141.807 15.072 141.807 15.968C141.807 16.864 141.641 17.7013 141.311 18.48C140.98 19.248 140.516 19.92 139.919 20.496C139.332 21.072 138.628 21.5253 137.807 21.856C136.985 22.176 136.089 22.336 135.119 22.336C134.137 22.336 133.236 22.176 132.415 21.856C131.604 21.5253 130.905 21.072 130.319 20.496C129.732 19.92 129.273 19.248 128.943 18.48C128.612 17.7013 128.447 16.864 128.447 15.968Z" fill="black"/>
<path d="M80.6316 29.936L82.7116 37.728L85.2716 29.936H87.7676L90.3276 37.728L92.4076 29.936H95.6876L92.0876 42H88.8876L86.5196 35.008L84.1516 42H80.9516L77.3516 29.936H80.6316ZM103.823 32.592H100.095V34.608H103.615V37.264H100.095V39.344H103.823V42H96.9593V29.936H103.823V32.592ZM109.22 39.568H109.908C110.698 39.568 111.263 39.4667 111.604 39.264C111.946 39.0613 112.116 38.736 112.116 38.288C112.116 37.84 111.946 37.5147 111.604 37.312C111.263 37.1093 110.698 37.008 109.908 37.008H109.22V39.568ZM109.22 34.672H109.796C110.778 34.672 111.268 34.2827 111.268 33.504C111.268 32.7253 110.778 32.336 109.796 32.336H109.22V34.672ZM106.084 29.936H110.756C111.866 29.936 112.708 30.2027 113.284 30.736C113.86 31.2693 114.148 32.0373 114.148 33.04C114.148 33.648 114.036 34.1547 113.812 34.56C113.599 34.9547 113.268 35.2907 112.82 35.568C113.268 35.6533 113.647 35.7867 113.956 35.968C114.276 36.1387 114.532 36.352 114.724 36.608C114.927 36.864 115.071 37.152 115.156 37.472C115.242 37.792 115.284 38.1333 115.284 38.496C115.284 39.0613 115.183 39.5627 114.98 40C114.788 40.4373 114.511 40.8053 114.148 41.104C113.796 41.4027 113.364 41.6267 112.852 41.776C112.34 41.9253 111.764 42 111.124 42H106.084V29.936Z" fill="#017BEA"/>
<path d="M115.898 36.512H120.49V38.928H115.898V36.512ZM124.892 29.936V42H121.756V29.936H124.892ZM126.868 42L128.916 29.936H132.02L134.436 36.368L136.836 29.936H139.94L141.988 42H138.868L137.828 35.056L134.98 42H133.732L131.028 35.056L129.988 42H126.868ZM147.111 35.472H148.151C149.303 35.472 149.879 34.9707 149.879 33.968C149.879 32.9653 149.303 32.464 148.151 32.464H147.111V35.472ZM147.111 42H143.975V29.936H148.967C150.322 29.936 151.356 30.288 152.071 30.992C152.796 31.696 153.159 32.688 153.159 33.968C153.159 35.248 152.796 36.24 152.071 36.944C151.356 37.648 150.322 38 148.967 38H147.111V42ZM157.955 29.936V36.496C157.955 36.848 157.965 37.2107 157.987 37.584C158.019 37.9467 158.099 38.2773 158.227 38.576C158.365 38.8747 158.579 39.12 158.867 39.312C159.155 39.4933 159.56 39.584 160.083 39.584C160.605 39.584 161.005 39.4933 161.283 39.312C161.571 39.12 161.784 38.8747 161.923 38.576C162.061 38.2773 162.141 37.9467 162.163 37.584C162.195 37.2107 162.211 36.848 162.211 36.496V29.936H165.331V36.928C165.331 38.8053 164.899 40.176 164.035 41.04C163.181 41.904 161.864 42.336 160.083 42.336C158.301 42.336 156.979 41.904 156.115 41.04C155.251 40.176 154.819 38.8053 154.819 36.928V29.936H157.955ZM171.002 29.936V39.344H174.762V42H167.866V29.936H171.002ZM183.193 33.024C182.851 32.7467 182.51 32.544 182.169 32.416C181.827 32.2773 181.497 32.208 181.177 32.208C180.771 32.208 180.441 32.304 180.185 32.496C179.929 32.688 179.801 32.9387 179.801 33.248C179.801 33.4613 179.865 33.6373 179.993 33.776C180.121 33.9147 180.286 34.0373 180.489 34.144C180.702 34.24 180.937 34.3253 181.193 34.4C181.459 34.4747 181.721 34.5547 181.977 34.64C183.001 34.9813 183.747 35.44 184.217 36.016C184.697 36.5813 184.937 37.3227 184.937 38.24C184.937 38.8587 184.83 39.4187 184.617 39.92C184.414 40.4213 184.11 40.8533 183.705 41.216C183.31 41.568 182.819 41.84 182.233 42.032C181.657 42.2347 181.001 42.336 180.265 42.336C178.739 42.336 177.326 41.8827 176.025 40.976L177.369 38.448C177.838 38.864 178.302 39.1733 178.761 39.376C179.219 39.5787 179.673 39.68 180.121 39.68C180.633 39.68 181.011 39.5627 181.257 39.328C181.513 39.0933 181.641 38.8267 181.641 38.528C181.641 38.3467 181.609 38.192 181.545 38.064C181.481 37.9253 181.374 37.8027 181.225 37.696C181.075 37.5787 180.878 37.472 180.633 37.376C180.398 37.28 180.11 37.1733 179.769 37.056C179.363 36.928 178.963 36.7893 178.569 36.64C178.185 36.48 177.838 36.272 177.529 36.016C177.23 35.76 176.985 35.44 176.793 35.056C176.611 34.6613 176.521 34.1653 176.521 33.568C176.521 32.9707 176.617 32.432 176.809 31.952C177.011 31.4613 177.289 31.0453 177.641 30.704C178.003 30.352 178.441 30.08 178.953 29.888C179.475 29.696 180.057 29.6 180.697 29.6C181.294 29.6 181.918 29.6853 182.569 29.856C183.219 30.016 183.843 30.256 184.441 30.576L183.193 33.024Z" fill="black"/>
<path d="M79.3516 50.568V57H78.4036V52.896C78.4036 52.728 78.4076 52.552 78.4156 52.368C78.4316 52.184 78.4476 52.004 78.4636 51.828H78.4276L76.3276 57H75.4396L73.3996 51.828H73.3636C73.3796 52.004 73.3876 52.184 73.3876 52.368C73.3956 52.552 73.3996 52.74 73.3996 52.932V57H72.4516V50.568H73.8556L75.8836 55.74L77.9476 50.568H79.3516ZM82.4008 54.492C82.4008 54.564 82.3968 54.668 82.3888 54.804C82.3888 54.932 82.3848 55.072 82.3768 55.224C82.3688 55.368 82.3608 55.508 82.3528 55.644C82.3448 55.772 82.3368 55.876 82.3288 55.956L85.7728 50.568H87.0688V57H86.0848V53.208C86.0848 53.08 86.0848 52.912 86.0848 52.704C86.0928 52.496 86.1008 52.292 86.1088 52.092C86.1168 51.884 86.1248 51.728 86.1328 51.624L82.7128 57H81.4048V50.568H82.4008V54.492ZM98.2548 50.568V57H97.1988V51.468H93.8748V57H92.8188V50.568H98.2548ZM101.303 54.492C101.303 54.564 101.299 54.668 101.291 54.804C101.291 54.932 101.287 55.072 101.279 55.224C101.271 55.368 101.263 55.508 101.255 55.644C101.247 55.772 101.239 55.876 101.231 55.956L104.675 50.568H105.971V57H104.987V53.208C104.987 53.08 104.987 52.912 104.987 52.704C104.995 52.496 105.003 52.292 105.011 52.092C105.019 51.884 105.027 51.728 105.035 51.624L101.615 57H100.307V50.568H101.303V54.492ZM116.742 50.568V57H108.018V50.568H109.074V56.112H111.846V50.568H112.902V56.112H115.686V50.568H116.742ZM121.283 50.448C121.835 50.448 122.307 50.568 122.699 50.808C123.099 51.048 123.403 51.388 123.611 51.828C123.827 52.26 123.935 52.768 123.935 53.352V53.988H119.531C119.547 54.716 119.731 55.272 120.083 55.656C120.443 56.032 120.943 56.22 121.583 56.22C121.991 56.22 122.351 56.184 122.663 56.112C122.983 56.032 123.311 55.92 123.647 55.776V56.7C123.319 56.844 122.995 56.948 122.675 57.012C122.355 57.084 121.975 57.12 121.535 57.12C120.927 57.12 120.387 56.996 119.915 56.748C119.451 56.5 119.087 56.132 118.823 55.644C118.567 55.148 118.439 54.544 118.439 53.832C118.439 53.128 118.555 52.524 118.787 52.02C119.027 51.516 119.359 51.128 119.783 50.856C120.215 50.584 120.715 50.448 121.283 50.448ZM121.271 51.312C120.767 51.312 120.367 51.476 120.071 51.804C119.783 52.124 119.611 52.572 119.555 53.148H122.831C122.831 52.78 122.775 52.46 122.663 52.188C122.551 51.916 122.379 51.704 122.147 51.552C121.923 51.392 121.631 51.312 121.271 51.312ZM132.473 50.568V57H131.525V52.896C131.525 52.728 131.529 52.552 131.537 52.368C131.553 52.184 131.569 52.004 131.585 51.828H131.549L129.449 57H128.561L126.521 51.828H126.485C126.501 52.004 126.509 52.184 126.509 52.368C126.517 52.552 126.521 52.74 126.521 52.932V57H125.573V50.568H126.977L129.005 55.74L131.069 50.568H132.473ZM140.118 53.772C140.118 54.308 140.046 54.784 139.902 55.2C139.766 55.608 139.566 55.956 139.302 56.244C139.046 56.532 138.73 56.752 138.354 56.904C137.986 57.048 137.574 57.12 137.118 57.12C136.694 57.12 136.302 57.048 135.942 56.904C135.582 56.752 135.27 56.532 135.006 56.244C134.742 55.956 134.534 55.608 134.382 55.2C134.238 54.784 134.166 54.308 134.166 53.772C134.166 53.06 134.286 52.46 134.526 51.972C134.766 51.476 135.11 51.1 135.558 50.844C136.006 50.58 136.538 50.448 137.154 50.448C137.738 50.448 138.25 50.58 138.69 50.844C139.138 51.1 139.486 51.476 139.734 51.972C139.99 52.46 140.118 53.06 140.118 53.772ZM135.258 53.772C135.258 54.276 135.322 54.716 135.45 55.092C135.586 55.46 135.794 55.744 136.074 55.944C136.354 56.144 136.71 56.244 137.142 56.244C137.574 56.244 137.93 56.144 138.21 55.944C138.49 55.744 138.694 55.46 138.822 55.092C138.958 54.716 139.026 54.276 139.026 53.772C139.026 53.26 138.958 52.824 138.822 52.464C138.686 52.104 138.478 51.828 138.198 51.636C137.926 51.436 137.57 51.336 137.13 51.336C136.474 51.336 135.998 51.552 135.702 51.984C135.406 52.416 135.258 53.012 135.258 53.772ZM149.299 50.568H150.451L147.703 53.664L150.679 57H149.455L146.551 53.736V57H145.495V50.568H146.551V53.688L149.299 50.568ZM157.204 53.772C157.204 54.308 157.132 54.784 156.988 55.2C156.852 55.608 156.652 55.956 156.388 56.244C156.132 56.532 155.816 56.752 155.44 56.904C155.072 57.048 154.66 57.12 154.204 57.12C153.78 57.12 153.388 57.048 153.028 56.904C152.668 56.752 152.356 56.532 152.092 56.244C151.828 55.956 151.62 55.608 151.468 55.2C151.324 54.784 151.252 54.308 151.252 53.772C151.252 53.06 151.372 52.46 151.612 51.972C151.852 51.476 152.196 51.1 152.644 50.844C153.092 50.58 153.624 50.448 154.24 50.448C154.824 50.448 155.336 50.58 155.776 50.844C156.224 51.1 156.572 51.476 156.82 51.972C157.076 52.46 157.204 53.06 157.204 53.772ZM152.344 53.772C152.344 54.276 152.408 54.716 152.536 55.092C152.672 55.46 152.88 55.744 153.16 55.944C153.44 56.144 153.796 56.244 154.228 56.244C154.66 56.244 155.016 56.144 155.296 55.944C155.576 55.744 155.78 55.46 155.908 55.092C156.044 54.716 156.112 54.276 156.112 53.772C156.112 53.26 156.044 52.824 155.908 52.464C155.772 52.104 155.564 51.828 155.284 51.636C155.012 51.436 154.656 51.336 154.216 51.336C153.56 51.336 153.084 51.552 152.788 51.984C152.492 52.416 152.344 53.012 152.344 53.772ZM163.653 50.568V56.112H164.589V59.232H163.569V57H159.093V59.232H158.085V56.112H158.601C158.969 55.6 159.273 55.044 159.513 54.444C159.761 53.836 159.945 53.204 160.065 52.548C160.193 51.884 160.261 51.224 160.269 50.568H163.653ZM161.205 51.396C161.173 51.94 161.089 52.504 160.953 53.088C160.817 53.664 160.641 54.216 160.425 54.744C160.217 55.272 159.973 55.728 159.693 56.112H162.633V51.396H161.205ZM166.477 55.3066L167.648 55.7637L165.979 59.1094L165.088 58.7402L166.477 55.3066ZM173.652 57H172.428L174.264 54.3C174.016 54.236 173.776 54.136 173.544 54C173.312 53.856 173.124 53.66 172.98 53.412C172.836 53.156 172.764 52.84 172.764 52.464C172.764 51.848 172.972 51.38 173.388 51.06C173.804 50.732 174.356 50.568 175.044 50.568H177.924V57H176.868V54.444H175.308L173.652 57ZM173.784 52.476C173.784 52.844 173.92 53.12 174.192 53.304C174.472 53.48 174.86 53.568 175.356 53.568H176.868V51.444H175.152C174.664 51.444 174.312 51.54 174.096 51.732C173.888 51.924 173.784 52.172 173.784 52.476ZM183.763 50.568H184.915L182.167 53.664L185.143 57H183.919L181.015 53.736V57H179.959V50.568H181.015V53.688L183.763 50.568ZM187.307 54.492C187.307 54.564 187.303 54.668 187.295 54.804C187.295 54.932 187.291 55.072 187.283 55.224C187.275 55.368 187.267 55.508 187.259 55.644C187.251 55.772 187.243 55.876 187.235 55.956L190.679 50.568H191.975V57H190.991V53.208C190.991 53.08 190.991 52.912 190.991 52.704C190.999 52.496 191.007 52.292 191.015 52.092C191.023 51.884 191.031 51.728 191.039 51.624L187.619 57H186.311V50.568H187.307V54.492ZM199.23 47.904C199.198 48.304 199.098 48.64 198.93 48.912C198.77 49.184 198.53 49.388 198.21 49.524C197.89 49.66 197.474 49.728 196.962 49.728C196.442 49.728 196.022 49.66 195.702 49.524C195.39 49.388 195.162 49.188 195.018 48.924C194.874 48.652 194.786 48.312 194.754 47.904H195.738C195.778 48.336 195.89 48.628 196.074 48.78C196.266 48.924 196.57 48.996 196.986 48.996C197.354 48.996 197.642 48.92 197.85 48.768C198.066 48.608 198.194 48.32 198.234 47.904H199.23ZM195.018 54.492C195.018 54.564 195.014 54.668 195.006 54.804C195.006 54.932 195.002 55.072 194.994 55.224C194.986 55.368 194.978 55.508 194.97 55.644C194.962 55.772 194.954 55.876 194.946 55.956L198.39 50.568H199.686V57H198.702V53.208C198.702 53.08 198.702 52.912 198.702 52.704C198.71 52.496 198.718 52.292 198.726 52.092C198.734 51.884 198.742 51.728 198.75 51.624L195.33 57H194.022V50.568H195.018V54.492ZM210.872 50.568V57H209.816V51.468H206.492V57H205.436V50.568H210.872ZM215.984 50.448C216.776 50.448 217.412 50.724 217.892 51.276C218.38 51.828 218.624 52.66 218.624 53.772C218.624 54.5 218.512 55.116 218.288 55.62C218.072 56.116 217.764 56.492 217.364 56.748C216.972 56.996 216.508 57.12 215.972 57.12C215.644 57.12 215.352 57.076 215.096 56.988C214.84 56.9 214.62 56.788 214.436 56.652C214.26 56.508 214.108 56.352 213.98 56.184H213.908C213.924 56.32 213.94 56.492 213.956 56.7C213.972 56.908 213.98 57.088 213.98 57.24V59.88H212.924V50.568H213.788L213.932 51.444H213.98C214.108 51.26 214.26 51.092 214.436 50.94C214.62 50.788 214.836 50.668 215.084 50.58C215.34 50.492 215.64 50.448 215.984 50.448ZM215.792 51.336C215.36 51.336 215.012 51.42 214.748 51.588C214.484 51.748 214.292 51.992 214.172 52.32C214.052 52.648 213.988 53.064 213.98 53.568V53.772C213.98 54.3 214.036 54.748 214.148 55.116C214.26 55.484 214.448 55.764 214.712 55.956C214.984 56.148 215.352 56.244 215.816 56.244C216.208 56.244 216.528 56.136 216.776 55.92C217.032 55.704 217.22 55.412 217.34 55.044C217.468 54.668 217.532 54.24 217.532 53.76C217.532 53.024 217.388 52.436 217.1 51.996C216.82 51.556 216.384 51.336 215.792 51.336ZM222.743 50.46C223.527 50.46 224.107 50.632 224.483 50.976C224.859 51.32 225.047 51.868 225.047 52.62V57H224.279L224.075 56.088H224.027C223.843 56.32 223.651 56.516 223.451 56.676C223.259 56.828 223.035 56.94 222.779 57.012C222.531 57.084 222.227 57.12 221.867 57.12C221.483 57.12 221.135 57.052 220.823 56.916C220.519 56.78 220.279 56.572 220.103 56.292C219.927 56.004 219.839 55.644 219.839 55.212C219.839 54.572 220.091 54.08 220.595 53.736C221.099 53.384 221.875 53.192 222.923 53.16L224.015 53.124V52.74C224.015 52.204 223.899 51.832 223.667 51.624C223.435 51.416 223.107 51.312 222.683 51.312C222.347 51.312 222.027 51.364 221.723 51.468C221.419 51.564 221.135 51.676 220.871 51.804L220.547 51.012C220.827 50.86 221.159 50.732 221.543 50.628C221.927 50.516 222.327 50.46 222.743 50.46ZM223.055 53.892C222.255 53.924 221.699 54.052 221.387 54.276C221.083 54.5 220.931 54.816 220.931 55.224C220.931 55.584 221.039 55.848 221.255 56.016C221.479 56.184 221.763 56.268 222.107 56.268C222.651 56.268 223.103 56.12 223.463 55.824C223.823 55.52 224.003 55.056 224.003 54.432V53.856L223.055 53.892ZM233.382 59.232H232.35V57H227.034V50.568H228.09V56.112H231.414V50.568H232.47V56.124H233.382V59.232ZM242.968 53.772C242.968 54.484 242.852 55.092 242.62 55.596C242.388 56.092 242.06 56.472 241.636 56.736C241.212 56.992 240.708 57.12 240.124 57.12C239.58 57.12 239.104 57.008 238.696 56.784C238.288 56.552 237.964 56.216 237.724 55.776C237.484 55.328 237.344 54.78 237.304 54.132H235.672V57H234.616V50.568H235.672V53.244H237.316C237.372 52.636 237.52 52.128 237.76 51.72C238.008 51.304 238.332 50.988 238.732 50.772C239.14 50.556 239.612 50.448 240.148 50.448C240.7 50.448 241.188 50.58 241.612 50.844C242.036 51.1 242.368 51.476 242.608 51.972C242.848 52.46 242.968 53.06 242.968 53.772ZM238.384 53.772C238.384 54.308 238.444 54.76 238.564 55.128C238.692 55.496 238.884 55.776 239.14 55.968C239.396 56.152 239.728 56.244 240.136 56.244C240.544 56.244 240.876 56.152 241.132 55.968C241.388 55.776 241.576 55.496 241.696 55.128C241.816 54.76 241.876 54.308 241.876 53.772C241.876 53.236 241.816 52.788 241.696 52.428C241.576 52.068 241.388 51.796 241.132 51.612C240.876 51.428 240.544 51.336 240.136 51.336C239.728 51.336 239.396 51.428 239.14 51.612C238.884 51.796 238.692 52.068 238.564 52.428C238.444 52.788 238.384 53.236 238.384 53.772ZM247.347 57.12C246.755 57.12 246.227 57.008 245.763 56.784C245.307 56.552 244.947 56.192 244.683 55.704C244.419 55.216 244.287 54.588 244.287 53.82C244.287 53.02 244.423 52.372 244.695 51.876C244.967 51.38 245.335 51.02 245.799 50.796C246.271 50.564 246.799 50.448 247.383 50.448C247.711 50.448 248.031 50.48 248.343 50.544C248.663 50.608 248.935 50.692 249.159 50.796L248.847 51.66C248.623 51.572 248.375 51.5 248.103 51.444C247.839 51.388 247.591 51.36 247.359 51.36C246.951 51.36 246.607 51.428 246.327 51.564C246.047 51.7 245.831 51.908 245.679 52.188C245.527 52.468 245.427 52.824 245.379 53.256H248.535V54.12H245.367C245.391 54.592 245.479 54.984 245.631 55.296C245.783 55.608 245.999 55.84 246.279 55.992C246.559 56.144 246.907 56.22 247.323 56.22C247.683 56.22 248.003 56.184 248.283 56.112C248.563 56.04 248.823 55.956 249.063 55.86V56.772C248.839 56.884 248.591 56.968 248.319 57.024C248.047 57.088 247.723 57.12 247.347 57.12Z" fill="black"/>
<defs>
<linearGradient id="paint0_linear_6203_602" x1="31.2308" y1="26.4903" x2="25.8797" y2="22.0057" gradientUnits="userSpaceOnUse">
<stop stop-color="#3980FF"/>
<stop offset="1" stop-color="#0029BC"/>
</linearGradient>
<linearGradient id="paint1_linear_6203_602" x1="10.9503" y1="36.4502" x2="22.665" y2="45.461" gradientUnits="userSpaceOnUse">
<stop stop-color="#0029BC"/>
<stop offset="1" stop-color="#3980FF"/>
</linearGradient>
<linearGradient id="paint2_linear_6203_602" x1="39.7845" y1="36.5132" x2="45.1357" y2="40.9978" gradientUnits="userSpaceOnUse">
<stop stop-color="#3980FF"/>
<stop offset="1" stop-color="#0029BC"/>
</linearGradient>
<linearGradient id="paint3_linear_6203_602" x1="60.0652" y1="26.5537" x2="48.3505" y2="17.5428" gradientUnits="userSpaceOnUse">
<stop stop-color="#0029BC"/>
<stop offset="1" stop-color="#3980FF"/>
</linearGradient>
</defs>
</svg>
