<svg width="285" height="72" viewBox="0 0 285 72" fill="none" xmlns="http://www.w3.org/2000/svg">
<path d="M31.1958 14.3398L21.3257 23.2428V28L31.1958 38.568V14.3398Z" fill="url(#paint0_linear_6235_600)"/>
<path d="M31.196 63L0 31.5H16.1805L31.196 47.6068V63Z" fill="url(#paint1_linear_6235_600)"/>
<path d="M31.196 0L0 31.5L8.25205 39.9951L31.196 15.3932V0Z" fill="#3980FF"/>
<path d="M39.8042 48.6598L49.6743 39.7569V34.9996L39.8042 24.4316V48.6598Z" fill="url(#paint2_linear_6235_600)"/>
<path d="M39.8042 0L71.0001 31.5H54.852L39.8042 15.3932V0Z" fill="url(#paint3_linear_6235_600)"/>
<path d="M39.8042 63L71.0001 31.5L62.7805 23.0049L39.8042 47.6068V63Z" fill="#3980FF"/>
<path d="M79.168 17.424C78.8266 17.1467 78.4853 16.944 78.144 16.816C77.8026 16.6773 77.472 16.608 77.152 16.608C76.7466 16.608 76.416 16.704 76.16 16.896C75.904 17.088 75.776 17.3387 75.776 17.648C75.776 17.8613 75.84 18.0373 75.968 18.176C76.096 18.3147 76.2613 18.4373 76.464 18.544C76.6773 18.64 76.912 18.7253 77.168 18.8C77.4346 18.8747 77.696 18.9547 77.952 19.04C78.976 19.3813 79.7226 19.84 80.192 20.416C80.672 20.9813 80.912 21.7227 80.912 22.64C80.912 23.2587 80.8053 23.8187 80.592 24.32C80.3893 24.8213 80.0853 25.2533 79.68 25.616C79.2853 25.968 78.7946 26.24 78.208 26.432C77.632 26.6347 76.976 26.736 76.24 26.736C74.7146 26.736 73.3013 26.2827 72 25.376L73.344 22.848C73.8133 23.264 74.2773 23.5733 74.736 23.776C75.1946 23.9787 75.648 24.08 76.096 24.08C76.608 24.08 76.9866 23.9627 77.232 23.728C77.488 23.4933 77.616 23.2267 77.616 22.928C77.616 22.7467 77.584 22.592 77.52 22.464C77.456 22.3253 77.3493 22.2027 77.2 22.096C77.0506 21.9787 76.8533 21.872 76.608 21.776C76.3733 21.68 76.0853 21.5733 75.744 21.456C75.3386 21.328 74.9386 21.1893 74.544 21.04C74.16 20.88 73.8133 20.672 73.504 20.416C73.2053 20.16 72.96 19.84 72.768 19.456C72.5866 19.0613 72.496 18.5653 72.496 17.968C72.496 17.3707 72.592 16.832 72.784 16.352C72.9866 15.8613 73.264 15.4453 73.616 15.104C73.9786 14.752 74.416 14.48 74.928 14.288C75.4506 14.096 76.032 14 76.672 14C77.2693 14 77.8933 14.0853 78.544 14.256C79.1946 14.416 79.8186 14.656 80.416 14.976L79.168 17.424ZM87.5418 16.992V26.4H84.4058V16.992H81.8298V14.336H90.1178V16.992H87.5418ZM94.6484 14.336V20.896C94.6484 21.248 94.6594 21.6107 94.6804 21.984C94.7124 22.3467 94.7924 22.6773 94.9204 22.976C95.0594 23.2747 95.2724 23.52 95.5604 23.712C95.8484 23.8933 96.2544 23.984 96.7764 23.984C97.2994 23.984 97.6994 23.8933 97.9764 23.712C98.2644 23.52 98.4784 23.2747 98.6164 22.976C98.7554 22.6773 98.8354 22.3467 98.8564 21.984C98.8884 21.6107 98.9044 21.248 98.9044 20.896V14.336H102.024V21.328C102.024 23.2053 101.592 24.576 100.728 25.44C99.8754 26.304 98.5584 26.736 96.7764 26.736C94.9954 26.736 93.6727 26.304 92.8087 25.44C91.9447 24.576 91.5127 23.2053 91.5127 21.328V14.336H94.6484ZM107.695 23.744H108.415C108.959 23.744 109.445 23.6587 109.871 23.488C110.298 23.3173 110.655 23.0827 110.943 22.784C111.242 22.4853 111.466 22.1333 111.615 21.728C111.775 21.312 111.855 20.8587 111.855 20.368C111.855 19.888 111.775 19.44 111.615 19.024C111.455 18.608 111.226 18.2507 110.927 17.952C110.639 17.6533 110.282 17.4187 109.855 17.248C109.429 17.0773 108.949 16.992 108.415 16.992H107.695V23.744ZM104.559 14.336H109.199C110.021 14.336 110.789 14.5013 111.503 14.832C112.229 15.1627 112.858 15.6053 113.391 16.16C113.935 16.704 114.362 17.344 114.671 18.08C114.981 18.8053 115.135 19.568 115.135 20.368C115.135 21.1573 114.981 21.92 114.671 22.656C114.373 23.3813 113.951 24.0213 113.407 24.576C112.874 25.1307 112.245 25.5733 111.519 25.904C110.805 26.2347 110.031 26.4 109.199 26.4H104.559V14.336ZM120.273 14.336V26.4H117.137V14.336H120.273ZM125.53 20.368C125.53 20.848 125.62 21.2907 125.802 21.696C125.983 22.1013 126.228 22.4533 126.538 22.752C126.847 23.0507 127.204 23.2853 127.61 23.456C128.026 23.616 128.463 23.696 128.922 23.696C129.38 23.696 129.812 23.616 130.218 23.456C130.634 23.2853 130.996 23.0507 131.306 22.752C131.626 22.4533 131.876 22.1013 132.058 21.696C132.239 21.2907 132.33 20.848 132.33 20.368C132.33 19.888 132.239 19.4453 132.058 19.04C131.876 18.6347 131.626 18.2827 131.306 17.984C130.996 17.6853 130.634 17.456 130.218 17.296C129.812 17.1253 129.38 17.04 128.922 17.04C128.463 17.04 128.026 17.1253 127.61 17.296C127.204 17.456 126.847 17.6853 126.538 17.984C126.228 18.2827 125.983 18.6347 125.802 19.04C125.62 19.4453 125.53 19.888 125.53 20.368ZM122.25 20.368C122.25 19.472 122.415 18.64 122.746 17.872C123.076 17.0933 123.535 16.416 124.122 15.84C124.708 15.264 125.407 14.816 126.218 14.496C127.039 14.1653 127.94 14 128.922 14C129.892 14 130.788 14.1653 131.61 14.496C132.431 14.816 133.135 15.264 133.722 15.84C134.319 16.416 134.783 17.0933 135.114 17.872C135.444 18.64 135.61 19.472 135.61 20.368C135.61 21.264 135.444 22.1013 135.114 22.88C134.783 23.648 134.319 24.32 133.722 24.896C133.135 25.472 132.431 25.9253 131.61 26.256C130.788 26.576 129.892 26.736 128.922 26.736C127.94 26.736 127.039 26.576 126.218 26.256C125.407 25.9253 124.708 25.472 124.122 24.896C123.535 24.32 123.076 23.648 122.746 22.88C122.415 22.1013 122.25 21.264 122.25 20.368Z" fill="black"/>
<path d="M75.28 34L77.36 41.792L79.92 34H82.416L84.976 41.792L87.056 34H90.336L86.736 46.064H83.536L81.168 39.072L78.8 46.064H75.6L72 34H75.28ZM98.4714 36.656H94.7434V38.672H98.2634V41.328H94.7434V43.408H98.4714V46.064H91.6077V34H98.4714V36.656ZM103.868 43.632H104.556C105.346 43.632 105.911 43.5307 106.252 43.328C106.594 43.1253 106.764 42.8 106.764 42.352C106.764 41.904 106.594 41.5787 106.252 41.376C105.911 41.1733 105.346 41.072 104.556 41.072H103.868V43.632ZM103.868 38.736H104.444C105.426 38.736 105.916 38.3467 105.916 37.568C105.916 36.7893 105.426 36.4 104.444 36.4H103.868V38.736ZM100.732 34H105.404C106.514 34 107.356 34.2667 107.932 34.8C108.508 35.3333 108.796 36.1013 108.796 37.104C108.796 37.712 108.684 38.2187 108.46 38.624C108.247 39.0187 107.916 39.3547 107.468 39.632C107.916 39.7173 108.295 39.8507 108.604 40.032C108.924 40.2027 109.18 40.416 109.372 40.672C109.575 40.928 109.719 41.216 109.804 41.536C109.89 41.856 109.932 42.1973 109.932 42.56C109.932 43.1253 109.831 43.6267 109.628 44.064C109.436 44.5013 109.159 44.8693 108.796 45.168C108.444 45.4667 108.012 45.6907 107.5 45.84C106.988 45.9893 106.412 46.064 105.772 46.064H100.732V34Z" fill="#017BEA"/>
<path d="M111 40.5126H115.656V42.7889H111V40.5126ZM120.119 34.3166V45.6834H116.94V34.3166H120.119ZM122.123 45.6834L124.199 34.3166H127.346L129.796 40.3769L132.229 34.3166H135.377L137.453 45.6834H134.29L133.235 39.1407L130.348 45.6834H129.082L126.341 39.1407L125.286 45.6834H122.123ZM142.647 39.5327H143.702C144.87 39.5327 145.454 39.0603 145.454 38.1156C145.454 37.1708 144.87 36.6985 143.702 36.6985H142.647V39.5327ZM142.647 45.6834H139.468V34.3166H144.529C145.903 34.3166 146.952 34.6482 147.677 35.3116C148.412 35.9749 148.78 36.9095 148.78 38.1156C148.78 39.3216 148.412 40.2563 147.677 40.9196C146.952 41.5829 145.903 41.9146 144.529 41.9146H142.647V45.6834ZM153.642 34.3166V40.4975C153.642 40.8291 153.653 41.1709 153.675 41.5226C153.707 41.8644 153.788 42.1758 153.918 42.4573C154.058 42.7387 154.275 42.9699 154.567 43.1508C154.859 43.3216 155.27 43.407 155.8 43.407C156.329 43.407 156.735 43.3216 157.017 43.1508C157.309 42.9699 157.525 42.7387 157.666 42.4573C157.806 42.1758 157.887 41.8644 157.909 41.5226C157.941 41.1709 157.958 40.8291 157.958 40.4975V34.3166H161.121V40.9045C161.121 42.6733 160.683 43.9648 159.807 44.7789C158.941 45.593 157.606 46 155.8 46C153.993 46 152.653 45.593 151.777 44.7789C150.901 43.9648 150.463 42.6733 150.463 40.9045V34.3166H153.642ZM166.871 34.3166V43.1809H170.683V45.6834H163.691V34.3166H166.871ZM179.232 37.2261C178.885 36.9649 178.539 36.7739 178.193 36.6533C177.847 36.5226 177.512 36.4573 177.188 36.4573C176.776 36.4573 176.441 36.5477 176.182 36.7286C175.922 36.9095 175.793 37.1458 175.793 37.4372C175.793 37.6382 175.857 37.804 175.987 37.9347C176.117 38.0654 176.284 38.1809 176.49 38.2814C176.706 38.3719 176.944 38.4522 177.204 38.5226C177.474 38.593 177.739 38.6684 177.999 38.7487C179.037 39.0703 179.793 39.5025 180.27 40.0452C180.757 40.5779 181 41.2764 181 42.1407C181 42.7237 180.892 43.2513 180.676 43.7236C180.47 44.1959 180.161 44.603 179.751 44.9447C179.35 45.2764 178.853 45.5327 178.258 45.7136C177.674 45.9046 177.009 46 176.263 46C174.716 46 173.283 45.5729 171.964 44.7186L173.327 42.3367C173.802 42.7286 174.273 43.0201 174.738 43.2111C175.202 43.402 175.663 43.4975 176.117 43.4975C176.636 43.4975 177.019 43.387 177.269 43.1658C177.528 42.9447 177.658 42.6935 177.658 42.4121C177.658 42.2412 177.626 42.0955 177.561 41.9749C177.496 41.8442 177.387 41.7287 177.236 41.6281C177.084 41.5176 176.884 41.4171 176.636 41.3266C176.398 41.2362 176.106 41.1356 175.76 41.0251C175.348 40.9045 174.943 40.7738 174.543 40.6332C174.154 40.4824 173.802 40.2864 173.489 40.0452C173.186 39.804 172.937 39.5025 172.743 39.1407C172.558 38.7688 172.467 38.3015 172.467 37.7387C172.467 37.1759 172.564 36.6683 172.759 36.2161C172.964 35.7537 173.246 35.3618 173.602 35.0402C173.969 34.7085 174.414 34.4523 174.933 34.2714C175.462 34.0905 176.052 34 176.701 34C177.306 34 177.939 34.0804 178.599 34.2412C179.258 34.392 179.891 34.6181 180.497 34.9196L179.232 37.2261Z" fill="black"/>
<defs>
<linearGradient id="paint0_linear_6235_600" x1="31.2308" y1="26.4903" x2="25.8797" y2="22.0057" gradientUnits="userSpaceOnUse">
<stop stop-color="#3980FF"/>
<stop offset="1" stop-color="#0029BC"/>
</linearGradient>
<linearGradient id="paint1_linear_6235_600" x1="10.9503" y1="36.4502" x2="22.665" y2="45.461" gradientUnits="userSpaceOnUse">
<stop stop-color="#0029BC"/>
<stop offset="1" stop-color="#3980FF"/>
</linearGradient>
<linearGradient id="paint2_linear_6235_600" x1="39.7847" y1="36.5132" x2="45.1359" y2="40.9978" gradientUnits="userSpaceOnUse">
<stop stop-color="#3980FF"/>
<stop offset="1" stop-color="#0029BC"/>
</linearGradient>
<linearGradient id="paint3_linear_6235_600" x1="60.0654" y1="26.5537" x2="48.3507" y2="17.5428" gradientUnits="userSpaceOnUse">
<stop stop-color="#0029BC"/>
<stop offset="1" stop-color="#3980FF"/>
</linearGradient>
</defs>
</svg>
