<svg width="285" height="72" viewBox="0 0 285 72" fill="none" xmlns="http://www.w3.org/2000/svg">
<path d="M31.1958 14.3398L21.3257 23.2428V28L31.1958 38.568V14.3398Z" fill="url(#paint0_linear_6203_602)"/>
<path d="M31.196 63L0 31.5H16.1805L31.196 47.6068V63Z" fill="url(#paint1_linear_6203_602)"/>
<path d="M31.196 0L0 31.5L8.25205 39.9951L31.196 15.3932V0Z" fill="#3980FF"/>
<path d="M39.804 48.6598L49.6741 39.7569V34.9996L39.804 24.4316V48.6598Z" fill="url(#paint2_linear_6203_602)"/>
<path d="M39.804 0L70.9999 31.5H54.8518L39.804 15.3932V0Z" fill="url(#paint3_linear_6203_602)"/>
<path d="M39.804 63L70.9999 31.5L62.7803 23.0049L39.804 47.6068V63Z" fill="#3980FF"/>
<path d="M85.3646 13.024C85.0232 12.7467 84.6819 12.544 84.3406 12.416C83.9992 12.2773 83.6686 12.208 83.3486 12.208C82.9432 12.208 82.6126 12.304 82.3566 12.496C82.1006 12.688 81.9726 12.9387 81.9726 13.248C81.9726 13.4613 82.0366 13.6373 82.1646 13.776C82.2926 13.9147 82.4579 14.0373 82.6606 14.144C82.8739 14.24 83.1086 14.3253 83.3646 14.4C83.6312 14.4747 83.8926 14.5547 84.1486 14.64C85.1726 14.9813 85.9192 15.44 86.3886 16.016C86.8686 16.5813 87.1086 17.3227 87.1086 18.24C87.1086 18.8587 87.0019 19.4187 86.7886 19.92C86.5859 20.4213 86.2819 20.8533 85.8766 21.216C85.4819 21.568 84.9912 21.84 84.4046 22.032C83.8286 22.2347 83.1726 22.336 82.4366 22.336C80.9112 22.336 79.4979 21.8827 78.1966 20.976L79.5406 18.448C80.0099 18.864 80.4739 19.1733 80.9326 19.376C81.3912 19.5787 81.8446 19.68 82.2926 19.68C82.8046 19.68 83.1832 19.5627 83.4286 19.328C83.6846 19.0933 83.8126 18.8267 83.8126 18.528C83.8126 18.3467 83.7806 18.192 83.7166 18.064C83.6526 17.9253 83.5459 17.8027 83.3966 17.696C83.2472 17.5787 83.0499 17.472 82.8046 17.376C82.5699 17.28 82.2819 17.1733 81.9406 17.056C81.5352 16.928 81.1352 16.7893 80.7406 16.64C80.3566 16.48 80.0099 16.272 79.7006 16.016C79.4019 15.76 79.1566 15.44 78.9646 15.056C78.7832 14.6613 78.6926 14.1653 78.6926 13.568C78.6926 12.9707 78.7886 12.432 78.9806 11.952C79.1832 11.4613 79.4606 11.0453 79.8126 10.704C80.1752 10.352 80.6126 10.08 81.1246 9.888C81.6472 9.696 82.2286 9.6 82.8686 9.6C83.4659 9.6 84.0899 9.68533 84.7406 9.856C85.3912 10.016 86.0152 10.256 86.6126 10.576L85.3646 13.024ZM93.7384 12.592V22H90.6024V12.592H88.0264V9.936H96.3144V12.592H93.7384ZM100.845 9.936V16.496C100.845 16.848 100.856 17.2107 100.877 17.584C100.909 17.9467 100.989 18.2773 101.117 18.576C101.256 18.8747 101.469 19.12 101.757 19.312C102.045 19.4933 102.451 19.584 102.973 19.584C103.496 19.584 103.896 19.4933 104.173 19.312C104.461 19.12 104.675 18.8747 104.813 18.576C104.952 18.2773 105.032 17.9467 105.053 17.584C105.085 17.2107 105.101 16.848 105.101 16.496V9.936H108.221V16.928C108.221 18.8053 107.789 20.176 106.925 21.04C106.072 21.904 104.755 22.336 102.973 22.336C101.192 22.336 99.8693 21.904 99.0053 21.04C98.1413 20.176 97.7093 18.8053 97.7093 16.928V9.936H100.845ZM113.892 19.344H114.612C115.156 19.344 115.642 19.2587 116.068 19.088C116.495 18.9173 116.852 18.6827 117.14 18.384C117.439 18.0853 117.663 17.7333 117.812 17.328C117.972 16.912 118.052 16.4587 118.052 15.968C118.052 15.488 117.972 15.04 117.812 14.624C117.652 14.208 117.423 13.8507 117.124 13.552C116.836 13.2533 116.479 13.0187 116.052 12.848C115.626 12.6773 115.146 12.592 114.612 12.592H113.892V19.344ZM110.756 9.936H115.396C116.218 9.936 116.986 10.1013 117.7 10.432C118.426 10.7627 119.055 11.2053 119.588 11.76C120.132 12.304 120.559 12.944 120.868 13.68C121.178 14.4053 121.332 15.168 121.332 15.968C121.332 16.7573 121.178 17.52 120.868 18.256C120.57 18.9813 120.148 19.6213 119.604 20.176C119.071 20.7307 118.442 21.1733 117.716 21.504C117.002 21.8347 116.228 22 115.396 22H110.756V9.936ZM126.47 9.936V22H123.334V9.936H126.47ZM131.727 15.968C131.727 16.448 131.817 16.8907 131.999 17.296C132.18 17.7013 132.425 18.0533 132.735 18.352C133.044 18.6507 133.401 18.8853 133.807 19.056C134.223 19.216 134.66 19.296 135.119 19.296C135.577 19.296 136.009 19.216 136.415 19.056C136.831 18.8853 137.193 18.6507 137.503 18.352C137.823 18.0533 138.073 17.7013 138.255 17.296C138.436 16.8907 138.527 16.448 138.527 15.968C138.527 15.488 138.436 15.0453 138.255 14.64C138.073 14.2347 137.823 13.8827 137.503 13.584C137.193 13.2853 136.831 13.056 136.415 12.896C136.009 12.7253 135.577 12.64 135.119 12.64C134.66 12.64 134.223 12.7253 133.807 12.896C133.401 13.056 133.044 13.2853 132.735 13.584C132.425 13.8827 132.18 14.2347 131.999 14.64C131.817 15.0453 131.727 15.488 131.727 15.968ZM128.447 15.968C128.447 15.072 128.612 14.24 128.943 13.472C129.273 12.6933 129.732 12.016 130.319 11.44C130.905 10.864 131.604 10.416 132.415 10.096C133.236 9.76533 134.137 9.6 135.119 9.6C136.089 9.6 136.985 9.76533 137.807 10.096C138.628 10.416 139.332 10.864 139.919 11.44C140.516 12.016 140.98 12.6933 141.311 13.472C141.641 14.24 141.807 15.072 141.807 15.968C141.807 16.864 141.641 17.7013 141.311 18.48C140.98 19.248 140.516 19.92 139.919 20.496C139.332 21.072 138.628 21.5253 137.807 21.856C136.985 22.176 136.089 22.336 135.119 22.336C134.137 22.336 133.236 22.176 132.415 21.856C131.604 21.5253 130.905 21.072 130.319 20.496C129.732 19.92 129.273 19.248 128.943 18.48C128.612 17.7013 128.447 16.864 128.447 15.968Z" fill="black"/>
<path d="M80.6316 29.936L82.7116 37.728L85.2716 29.936H87.7676L90.3276 37.728L92.4076 29.936H95.6876L92.0876 42H88.8876L86.5196 35.008L84.1516 42H80.9516L77.3516 29.936H80.6316ZM103.823 32.592H100.095V34.608H103.615V37.264H100.095V39.344H103.823V42H96.9593V29.936H103.823V32.592ZM109.22 39.568H109.908C110.698 39.568 111.263 39.4667 111.604 39.264C111.946 39.0613 112.116 38.736 112.116 38.288C112.116 37.84 111.946 37.5147 111.604 37.312C111.263 37.1093 110.698 37.008 109.908 37.008H109.22V39.568ZM109.22 34.672H109.796C110.778 34.672 111.268 34.2827 111.268 33.504C111.268 32.7253 110.778 32.336 109.796 32.336H109.22V34.672ZM106.084 29.936H110.756C111.866 29.936 112.708 30.2027 113.284 30.736C113.86 31.2693 114.148 32.0373 114.148 33.04C114.148 33.648 114.036 34.1547 113.812 34.56C113.599 34.9547 113.268 35.2907 112.82 35.568C113.268 35.6533 113.647 35.7867 113.956 35.968C114.276 36.1387 114.532 36.352 114.724 36.608C114.927 36.864 115.071 37.152 115.156 37.472C115.242 37.792 115.284 38.1333 115.284 38.496C115.284 39.0613 115.183 39.5627 114.98 40C114.788 40.4373 114.511 40.8053 114.148 41.104C113.796 41.4027 113.364 41.6267 112.852 41.776C112.34 41.9253 111.764 42 111.124 42H106.084V29.936Z" fill="#017BEA"/>
<path d="M115.898 36.512H120.49V38.928H115.898V36.512ZM124.892 29.936V42H121.756V29.936H124.892ZM126.868 42L128.916 29.936H132.02L134.436 36.368L136.836 29.936H139.94L141.988 42H138.868L137.828 35.056L134.98 42H133.732L131.028 35.056L129.988 42H126.868ZM147.111 35.472H148.151C149.303 35.472 149.879 34.9707 149.879 33.968C149.879 32.9653 149.303 32.464 148.151 32.464H147.111V35.472ZM147.111 42H143.975V29.936H148.967C150.322 29.936 151.356 30.288 152.071 30.992C152.796 31.696 153.159 32.688 153.159 33.968C153.159 35.248 152.796 36.24 152.071 36.944C151.356 37.648 150.322 38 148.967 38H147.111V42ZM157.955 29.936V36.496C157.955 36.848 157.965 37.2107 157.987 37.584C158.019 37.9467 158.099 38.2773 158.227 38.576C158.365 38.8747 158.579 39.12 158.867 39.312C159.155 39.4933 159.56 39.584 160.083 39.584C160.605 39.584 161.005 39.4933 161.283 39.312C161.571 39.12 161.784 38.8747 161.923 38.576C162.061 38.2773 162.141 37.9467 162.163 37.584C162.195 37.2107 162.211 36.848 162.211 36.496V29.936H165.331V36.928C165.331 38.8053 164.899 40.176 164.035 41.04C163.181 41.904 161.864 42.336 160.083 42.336C158.301 42.336 156.979 41.904 156.115 41.04C155.251 40.176 154.819 38.8053 154.819 36.928V29.936H157.955ZM171.002 29.936V39.344H174.762V42H167.866V29.936H171.002ZM183.193 33.024C182.851 32.7467 182.51 32.544 182.169 32.416C181.827 32.2773 181.497 32.208 181.177 32.208C180.771 32.208 180.441 32.304 180.185 32.496C179.929 32.688 179.801 32.9387 179.801 33.248C179.801 33.4613 179.865 33.6373 179.993 33.776C180.121 33.9147 180.286 34.0373 180.489 34.144C180.702 34.24 180.937 34.3253 181.193 34.4C181.459 34.4747 181.721 34.5547 181.977 34.64C183.001 34.9813 183.747 35.44 184.217 36.016C184.697 36.5813 184.937 37.3227 184.937 38.24C184.937 38.8587 184.83 39.4187 184.617 39.92C184.414 40.4213 184.11 40.8533 183.705 41.216C183.31 41.568 182.819 41.84 182.233 42.032C181.657 42.2347 181.001 42.336 180.265 42.336C178.739 42.336 177.326 41.8827 176.025 40.976L177.369 38.448C177.838 38.864 178.302 39.1733 178.761 39.376C179.219 39.5787 179.673 39.68 180.121 39.68C180.633 39.68 181.011 39.5627 181.257 39.328C181.513 39.0933 181.641 38.8267 181.641 38.528C181.641 38.3467 181.609 38.192 181.545 38.064C181.481 37.9253 181.374 37.8027 181.225 37.696C181.075 37.5787 180.878 37.472 180.633 37.376C180.398 37.28 180.11 37.1733 179.769 37.056C179.363 36.928 178.963 36.7893 178.569 36.64C178.185 36.48 177.838 36.272 177.529 36.016C177.23 35.76 176.985 35.44 176.793 35.056C176.611 34.6613 176.521 34.1653 176.521 33.568C176.521 32.9707 176.617 32.432 176.809 31.952C177.011 31.4613 177.289 31.0453 177.641 30.704C178.003 30.352 178.441 30.08 178.953 29.888C179.475 29.696 180.057 29.6 180.697 29.6C181.294 29.6 181.918 29.6853 182.569 29.856C183.219 30.016 183.843 30.256 184.441 30.576L183.193 33.024Z" fill="black"/>
<path d="M81.6797 51.293L83.1738 54.5508L84.7852 50.7715L86.4082 54.5508L87.8848 51.293H89.3613L86.373 57.4277L84.7852 53.7539L83.1797 57.4277L80.1973 51.293H81.6797ZM95.2676 54.457H91.1777C91.2129 54.9258 91.3652 55.2988 91.6348 55.5762C91.9043 55.8496 92.25 55.9863 92.6719 55.9863C93 55.9863 93.2715 55.9082 93.4863 55.752C93.6973 55.5957 93.9375 55.3066 94.207 54.8848L95.3203 55.5059C95.1484 55.7988 94.9668 56.0508 94.7754 56.2617C94.584 56.4688 94.3789 56.6406 94.1602 56.7773C93.9414 56.9102 93.7051 57.0078 93.4512 57.0703C93.1973 57.1328 92.9219 57.1641 92.625 57.1641C91.7734 57.1641 91.0898 56.8906 90.5742 56.3438C90.0586 55.793 89.8008 55.0625 89.8008 54.1523C89.8008 53.25 90.0508 52.5195 90.5508 51.9609C91.0547 51.4102 91.7227 51.1348 92.5547 51.1348C93.3945 51.1348 94.0586 51.4023 94.5469 51.9375C95.0312 52.4688 95.2734 53.2051 95.2734 54.1465L95.2676 54.457ZM93.9141 53.3789C93.7305 52.6758 93.2871 52.3242 92.584 52.3242C92.4238 52.3242 92.2734 52.3496 92.1328 52.4004C91.9922 52.4473 91.8633 52.5176 91.7461 52.6113C91.6328 52.7012 91.5352 52.8105 91.4531 52.9395C91.3711 53.0684 91.3086 53.2148 91.2656 53.3789H93.9141ZM101.133 51.293L102.627 54.5508L104.238 50.7715L105.861 54.5508L107.338 51.293H108.814L105.826 57.4277L104.238 53.7539L102.633 57.4277L99.6504 51.293H101.133ZM109.711 51.293H111.029V51.8027C111.271 51.5488 111.486 51.375 111.674 51.2812C111.865 51.1836 112.092 51.1348 112.354 51.1348C112.701 51.1348 113.064 51.248 113.443 51.4746L112.84 52.6816C112.59 52.502 112.346 52.4121 112.107 52.4121C111.389 52.4121 111.029 52.9551 111.029 54.041V57H109.711V51.293ZM115.705 51.293V57H114.387V51.293H115.705ZM114.188 48.9199C114.188 48.6895 114.271 48.4902 114.439 48.3223C114.607 48.1543 114.809 48.0703 115.043 48.0703C115.281 48.0703 115.484 48.1543 115.652 48.3223C115.82 48.4863 115.904 48.6875 115.904 48.9258C115.904 49.1641 115.82 49.3672 115.652 49.5352C115.488 49.7031 115.287 49.7871 115.049 49.7871C114.811 49.7871 114.607 49.7031 114.439 49.5352C114.271 49.3672 114.188 49.1621 114.188 48.9199ZM118.734 52.5234V57H117.416V52.5234H116.854V51.293H117.416V49.2012H118.734V51.293H119.76V52.5234H118.734ZM125.959 54.457H121.869C121.904 54.9258 122.057 55.2988 122.326 55.5762C122.596 55.8496 122.941 55.9863 123.363 55.9863C123.691 55.9863 123.963 55.9082 124.178 55.752C124.389 55.5957 124.629 55.3066 124.898 54.8848L126.012 55.5059C125.84 55.7988 125.658 56.0508 125.467 56.2617C125.275 56.4688 125.07 56.6406 124.852 56.7773C124.633 56.9102 124.396 57.0078 124.143 57.0703C123.889 57.1328 123.613 57.1641 123.316 57.1641C122.465 57.1641 121.781 56.8906 121.266 56.3438C120.75 55.793 120.492 55.0625 120.492 54.1523C120.492 53.25 120.742 52.5195 121.242 51.9609C121.746 51.4102 122.414 51.1348 123.246 51.1348C124.086 51.1348 124.75 51.4023 125.238 51.9375C125.723 52.4688 125.965 53.2051 125.965 54.1465L125.959 54.457ZM124.605 53.3789C124.422 52.6758 123.979 52.3242 123.275 52.3242C123.115 52.3242 122.965 52.3496 122.824 52.4004C122.684 52.4473 122.555 52.5176 122.438 52.6113C122.324 52.7012 122.227 52.8105 122.145 52.9395C122.062 53.0684 122 53.2148 121.957 53.3789H124.605ZM135.551 51.5391V53.291C135.25 52.9238 134.98 52.6719 134.742 52.5352C134.508 52.3945 134.232 52.3242 133.916 52.3242C133.42 52.3242 133.008 52.498 132.68 52.8457C132.352 53.1934 132.188 53.6289 132.188 54.1523C132.188 54.6875 132.346 55.127 132.662 55.4707C132.982 55.8145 133.391 55.9863 133.887 55.9863C134.203 55.9863 134.482 55.918 134.725 55.7812C134.959 55.6484 135.234 55.3906 135.551 55.0078V56.748C135.016 57.0254 134.48 57.1641 133.945 57.1641C133.062 57.1641 132.324 56.8789 131.73 56.3086C131.137 55.7344 130.84 55.0215 130.84 54.1699C130.84 53.3184 131.141 52.5996 131.742 52.0137C132.344 51.4277 133.082 51.1348 133.957 51.1348C134.52 51.1348 135.051 51.2695 135.551 51.5391ZM136.559 54.1055C136.559 53.2812 136.854 52.5801 137.443 52.002C138.033 51.4238 138.752 51.1348 139.6 51.1348C140.451 51.1348 141.174 51.4258 141.768 52.0078C142.354 52.5898 142.646 53.3047 142.646 54.1523C142.646 55.0078 142.352 55.7246 141.762 56.3027C141.168 56.877 140.439 57.1641 139.576 57.1641C138.721 57.1641 138.004 56.8711 137.426 56.2852C136.848 55.707 136.559 54.9805 136.559 54.1055ZM137.906 54.1289C137.906 54.6992 138.059 55.1504 138.363 55.4824C138.676 55.8184 139.088 55.9863 139.6 55.9863C140.115 55.9863 140.527 55.8203 140.836 55.4883C141.145 55.1562 141.299 54.7129 141.299 54.1582C141.299 53.6035 141.145 53.1602 140.836 52.8281C140.523 52.4922 140.111 52.3242 139.6 52.3242C139.096 52.3242 138.688 52.4922 138.375 52.8281C138.062 53.1641 137.906 53.5977 137.906 54.1289ZM148.254 47.1035H149.578V57H148.254V56.4023C147.734 56.9102 147.146 57.1641 146.49 57.1641C145.709 57.1641 145.061 56.8789 144.545 56.3086C144.033 55.7266 143.777 55 143.777 54.1289C143.777 53.2773 144.033 52.5664 144.545 51.9961C145.053 51.4219 145.691 51.1348 146.461 51.1348C147.129 51.1348 147.727 51.4082 148.254 51.9551V47.1035ZM145.125 54.1289C145.125 54.6758 145.271 55.1211 145.564 55.4648C145.865 55.8125 146.244 55.9863 146.701 55.9863C147.189 55.9863 147.584 55.8184 147.885 55.4824C148.186 55.1348 148.336 54.6934 148.336 54.1582C148.336 53.623 148.186 53.1816 147.885 52.834C147.584 52.4941 147.193 52.3242 146.713 52.3242C146.26 52.3242 145.881 52.4961 145.576 52.8398C145.275 53.1875 145.125 53.6172 145.125 54.1289ZM156.439 54.457H152.35C152.385 54.9258 152.537 55.2988 152.807 55.5762C153.076 55.8496 153.422 55.9863 153.844 55.9863C154.172 55.9863 154.443 55.9082 154.658 55.752C154.869 55.5957 155.109 55.3066 155.379 54.8848L156.492 55.5059C156.32 55.7988 156.139 56.0508 155.947 56.2617C155.756 56.4688 155.551 56.6406 155.332 56.7773C155.113 56.9102 154.877 57.0078 154.623 57.0703C154.369 57.1328 154.094 57.1641 153.797 57.1641C152.945 57.1641 152.262 56.8906 151.746 56.3438C151.23 55.793 150.973 55.0625 150.973 54.1523C150.973 53.25 151.223 52.5195 151.723 51.9609C152.227 51.4102 152.895 51.1348 153.727 51.1348C154.566 51.1348 155.23 51.4023 155.719 51.9375C156.203 52.4688 156.445 53.2051 156.445 54.1465L156.439 54.457ZM155.086 53.3789C154.902 52.6758 154.459 52.3242 153.756 52.3242C153.596 52.3242 153.445 52.3496 153.305 52.4004C153.164 52.4473 153.035 52.5176 152.918 52.6113C152.805 52.7012 152.707 52.8105 152.625 52.9395C152.543 53.0684 152.48 53.2148 152.438 53.3789H155.086ZM162.949 52.5234V57H161.631V52.5234H161.068V51.293H161.631V49.2012H162.949V51.293H163.975V52.5234H162.949ZM165.117 47.1035H166.436V51.7676C166.904 51.3457 167.422 51.1348 167.988 51.1348C168.633 51.1348 169.148 51.3438 169.535 51.7617C169.863 52.125 170.027 52.7051 170.027 53.502V57H168.709V53.625C168.709 53.168 168.627 52.8379 168.463 52.6348C168.303 52.4277 168.043 52.3242 167.684 52.3242C167.223 52.3242 166.898 52.4668 166.711 52.752C166.527 53.041 166.436 53.5371 166.436 54.2402V57H165.117V47.1035ZM175.91 51.293H177.234V57H175.91V56.4023C175.367 56.9102 174.783 57.1641 174.158 57.1641C173.369 57.1641 172.717 56.8789 172.201 56.3086C171.689 55.7266 171.434 55 171.434 54.1289C171.434 53.2734 171.689 52.5605 172.201 51.9902C172.713 51.4199 173.354 51.1348 174.123 51.1348C174.787 51.1348 175.383 51.4082 175.91 51.9551V51.293ZM172.781 54.1289C172.781 54.6758 172.928 55.1211 173.221 55.4648C173.521 55.8125 173.9 55.9863 174.357 55.9863C174.846 55.9863 175.24 55.8184 175.541 55.4824C175.842 55.1348 175.992 54.6934 175.992 54.1582C175.992 53.623 175.842 53.1816 175.541 52.834C175.24 52.4941 174.85 52.3242 174.369 52.3242C173.916 52.3242 173.537 52.4961 173.232 52.8398C172.932 53.1875 172.781 53.6172 172.781 54.1289ZM180.258 52.5234V57H178.939V52.5234H178.377V51.293H178.939V49.2012H180.258V51.293H181.283V52.5234H180.258ZM186.598 51.293L188.092 54.5508L189.703 50.7715L191.326 54.5508L192.803 51.293H194.279L191.291 57.4277L189.703 53.7539L188.098 57.4277L185.115 51.293H186.598ZM194.684 54.1055C194.684 53.2812 194.979 52.5801 195.568 52.002C196.158 51.4238 196.877 51.1348 197.725 51.1348C198.576 51.1348 199.299 51.4258 199.893 52.0078C200.479 52.5898 200.771 53.3047 200.771 54.1523C200.771 55.0078 200.477 55.7246 199.887 56.3027C199.293 56.877 198.564 57.1641 197.701 57.1641C196.846 57.1641 196.129 56.8711 195.551 56.2852C194.973 55.707 194.684 54.9805 194.684 54.1055ZM196.031 54.1289C196.031 54.6992 196.184 55.1504 196.488 55.4824C196.801 55.8184 197.213 55.9863 197.725 55.9863C198.24 55.9863 198.652 55.8203 198.961 55.4883C199.27 55.1562 199.424 54.7129 199.424 54.1582C199.424 53.6035 199.27 53.1602 198.961 52.8281C198.648 52.4922 198.236 52.3242 197.725 52.3242C197.221 52.3242 196.812 52.4922 196.5 52.8281C196.188 53.1641 196.031 53.5977 196.031 54.1289ZM202.172 51.293H203.49V51.8027C203.732 51.5488 203.947 51.375 204.135 51.2812C204.326 51.1836 204.553 51.1348 204.814 51.1348C205.162 51.1348 205.525 51.248 205.904 51.4746L205.301 52.6816C205.051 52.502 204.807 52.4121 204.568 52.4121C203.85 52.4121 203.49 52.9551 203.49 54.041V57H202.172V51.293ZM208.166 47.1035V53.1387L210.023 51.293H211.793L209.314 53.6895L211.975 57H210.264L208.377 54.5918L208.166 54.8027V57H206.848V47.1035H208.166ZM216.141 52.2656L215.051 52.8457C214.879 52.4941 214.666 52.3184 214.412 52.3184C214.291 52.3184 214.188 52.3594 214.102 52.4414C214.016 52.5195 213.973 52.6211 213.973 52.7461C213.973 52.9648 214.227 53.1816 214.734 53.3965C215.434 53.6973 215.904 53.9746 216.146 54.2285C216.389 54.4824 216.51 54.8242 216.51 55.2539C216.51 55.8047 216.307 56.2656 215.9 56.6367C215.506 56.9883 215.029 57.1641 214.471 57.1641C213.514 57.1641 212.836 56.6973 212.438 55.7637L213.562 55.2422C213.719 55.5156 213.838 55.6895 213.92 55.7637C214.08 55.9121 214.271 55.9863 214.494 55.9863C214.939 55.9863 215.162 55.7832 215.162 55.377C215.162 55.1426 214.99 54.9238 214.646 54.7207C214.514 54.6543 214.381 54.5898 214.248 54.5273C214.115 54.4648 213.98 54.4004 213.844 54.334C213.461 54.1465 213.191 53.959 213.035 53.7715C212.836 53.5332 212.736 53.2266 212.736 52.8516C212.736 52.3555 212.906 51.9453 213.246 51.6211C213.594 51.2969 214.016 51.1348 214.512 51.1348C215.242 51.1348 215.785 51.5117 216.141 52.2656Z" fill="black"/>
<defs>
<linearGradient id="paint0_linear_6203_602" x1="31.2308" y1="26.4903" x2="25.8797" y2="22.0057" gradientUnits="userSpaceOnUse">
<stop stop-color="#3980FF"/>
<stop offset="1" stop-color="#0029BC"/>
</linearGradient>
<linearGradient id="paint1_linear_6203_602" x1="10.9503" y1="36.4502" x2="22.665" y2="45.461" gradientUnits="userSpaceOnUse">
<stop stop-color="#0029BC"/>
<stop offset="1" stop-color="#3980FF"/>
</linearGradient>
<linearGradient id="paint2_linear_6203_602" x1="39.7845" y1="36.5132" x2="45.1357" y2="40.9978" gradientUnits="userSpaceOnUse">
<stop stop-color="#3980FF"/>
<stop offset="1" stop-color="#0029BC"/>
</linearGradient>
<linearGradient id="paint3_linear_6203_602" x1="60.0652" y1="26.5537" x2="48.3505" y2="17.5428" gradientUnits="userSpaceOnUse">
<stop stop-color="#0029BC"/>
<stop offset="1" stop-color="#3980FF"/>
</linearGradient>
</defs>
</svg>
