<svg width="285" height="72" viewBox="0 0 285 72" fill="none" xmlns="http://www.w3.org/2000/svg">
<path d="M31.1958 14.3398L21.3257 23.2428V28L31.1958 38.568V14.3398Z" fill="url(#paint0_linear_6203_602)"/>
<path d="M31.196 63L0 31.5H16.1805L31.196 47.6068V63Z" fill="url(#paint1_linear_6203_602)"/>
<path d="M31.196 0L0 31.5L8.25205 39.9951L31.196 15.3932V0Z" fill="#3980FF"/>
<path d="M39.804 48.6598L49.6741 39.7569V34.9996L39.804 24.4316V48.6598Z" fill="url(#paint2_linear_6203_602)"/>
<path d="M39.804 0L70.9999 31.5H54.8518L39.804 15.3932V0Z" fill="url(#paint3_linear_6203_602)"/>
<path d="M39.804 63L70.9999 31.5L62.7803 23.0049L39.804 47.6068V63Z" fill="#3980FF"/>
<path d="M85.3646 13.024C85.0232 12.7467 84.6819 12.544 84.3406 12.416C83.9992 12.2773 83.6686 12.208 83.3486 12.208C82.9432 12.208 82.6126 12.304 82.3566 12.496C82.1006 12.688 81.9726 12.9387 81.9726 13.248C81.9726 13.4613 82.0366 13.6373 82.1646 13.776C82.2926 13.9147 82.4579 14.0373 82.6606 14.144C82.8739 14.24 83.1086 14.3253 83.3646 14.4C83.6312 14.4747 83.8926 14.5547 84.1486 14.64C85.1726 14.9813 85.9192 15.44 86.3886 16.016C86.8686 16.5813 87.1086 17.3227 87.1086 18.24C87.1086 18.8587 87.0019 19.4187 86.7886 19.92C86.5859 20.4213 86.2819 20.8533 85.8766 21.216C85.4819 21.568 84.9912 21.84 84.4046 22.032C83.8286 22.2347 83.1726 22.336 82.4366 22.336C80.9112 22.336 79.4979 21.8827 78.1966 20.976L79.5406 18.448C80.0099 18.864 80.4739 19.1733 80.9326 19.376C81.3912 19.5787 81.8446 19.68 82.2926 19.68C82.8046 19.68 83.1832 19.5627 83.4286 19.328C83.6846 19.0933 83.8126 18.8267 83.8126 18.528C83.8126 18.3467 83.7806 18.192 83.7166 18.064C83.6526 17.9253 83.5459 17.8027 83.3966 17.696C83.2472 17.5787 83.0499 17.472 82.8046 17.376C82.5699 17.28 82.2819 17.1733 81.9406 17.056C81.5352 16.928 81.1352 16.7893 80.7406 16.64C80.3566 16.48 80.0099 16.272 79.7006 16.016C79.4019 15.76 79.1566 15.44 78.9646 15.056C78.7832 14.6613 78.6926 14.1653 78.6926 13.568C78.6926 12.9707 78.7886 12.432 78.9806 11.952C79.1832 11.4613 79.4606 11.0453 79.8126 10.704C80.1752 10.352 80.6126 10.08 81.1246 9.888C81.6472 9.696 82.2286 9.6 82.8686 9.6C83.4659 9.6 84.0899 9.68533 84.7406 9.856C85.3912 10.016 86.0152 10.256 86.6126 10.576L85.3646 13.024ZM93.7384 12.592V22H90.6024V12.592H88.0264V9.936H96.3144V12.592H93.7384ZM100.845 9.936V16.496C100.845 16.848 100.856 17.2107 100.877 17.584C100.909 17.9467 100.989 18.2773 101.117 18.576C101.256 18.8747 101.469 19.12 101.757 19.312C102.045 19.4933 102.451 19.584 102.973 19.584C103.496 19.584 103.896 19.4933 104.173 19.312C104.461 19.12 104.675 18.8747 104.813 18.576C104.952 18.2773 105.032 17.9467 105.053 17.584C105.085 17.2107 105.101 16.848 105.101 16.496V9.936H108.221V16.928C108.221 18.8053 107.789 20.176 106.925 21.04C106.072 21.904 104.755 22.336 102.973 22.336C101.192 22.336 99.8693 21.904 99.0053 21.04C98.1413 20.176 97.7093 18.8053 97.7093 16.928V9.936H100.845ZM113.892 19.344H114.612C115.156 19.344 115.642 19.2587 116.068 19.088C116.495 18.9173 116.852 18.6827 117.14 18.384C117.439 18.0853 117.663 17.7333 117.812 17.328C117.972 16.912 118.052 16.4587 118.052 15.968C118.052 15.488 117.972 15.04 117.812 14.624C117.652 14.208 117.423 13.8507 117.124 13.552C116.836 13.2533 116.479 13.0187 116.052 12.848C115.626 12.6773 115.146 12.592 114.612 12.592H113.892V19.344ZM110.756 9.936H115.396C116.218 9.936 116.986 10.1013 117.7 10.432C118.426 10.7627 119.055 11.2053 119.588 11.76C120.132 12.304 120.559 12.944 120.868 13.68C121.178 14.4053 121.332 15.168 121.332 15.968C121.332 16.7573 121.178 17.52 120.868 18.256C120.57 18.9813 120.148 19.6213 119.604 20.176C119.071 20.7307 118.442 21.1733 117.716 21.504C117.002 21.8347 116.228 22 115.396 22H110.756V9.936ZM126.47 9.936V22H123.334V9.936H126.47ZM131.727 15.968C131.727 16.448 131.817 16.8907 131.999 17.296C132.18 17.7013 132.425 18.0533 132.735 18.352C133.044 18.6507 133.401 18.8853 133.807 19.056C134.223 19.216 134.66 19.296 135.119 19.296C135.577 19.296 136.009 19.216 136.415 19.056C136.831 18.8853 137.193 18.6507 137.503 18.352C137.823 18.0533 138.073 17.7013 138.255 17.296C138.436 16.8907 138.527 16.448 138.527 15.968C138.527 15.488 138.436 15.0453 138.255 14.64C138.073 14.2347 137.823 13.8827 137.503 13.584C137.193 13.2853 136.831 13.056 136.415 12.896C136.009 12.7253 135.577 12.64 135.119 12.64C134.66 12.64 134.223 12.7253 133.807 12.896C133.401 13.056 133.044 13.2853 132.735 13.584C132.425 13.8827 132.18 14.2347 131.999 14.64C131.817 15.0453 131.727 15.488 131.727 15.968ZM128.447 15.968C128.447 15.072 128.612 14.24 128.943 13.472C129.273 12.6933 129.732 12.016 130.319 11.44C130.905 10.864 131.604 10.416 132.415 10.096C133.236 9.76533 134.137 9.6 135.119 9.6C136.089 9.6 136.985 9.76533 137.807 10.096C138.628 10.416 139.332 10.864 139.919 11.44C140.516 12.016 140.98 12.6933 141.311 13.472C141.641 14.24 141.807 15.072 141.807 15.968C141.807 16.864 141.641 17.7013 141.311 18.48C140.98 19.248 140.516 19.92 139.919 20.496C139.332 21.072 138.628 21.5253 137.807 21.856C136.985 22.176 136.089 22.336 135.119 22.336C134.137 22.336 133.236 22.176 132.415 21.856C131.604 21.5253 130.905 21.072 130.319 20.496C129.732 19.92 129.273 19.248 128.943 18.48C128.612 17.7013 128.447 16.864 128.447 15.968Z" fill="black"/>
<path d="M80.6316 29.936L82.7116 37.728L85.2716 29.936H87.7676L90.3276 37.728L92.4076 29.936H95.6876L92.0876 42H88.8876L86.5196 35.008L84.1516 42H80.9516L77.3516 29.936H80.6316ZM103.823 32.592H100.095V34.608H103.615V37.264H100.095V39.344H103.823V42H96.9593V29.936H103.823V32.592ZM109.22 39.568H109.908C110.698 39.568 111.263 39.4667 111.604 39.264C111.946 39.0613 112.116 38.736 112.116 38.288C112.116 37.84 111.946 37.5147 111.604 37.312C111.263 37.1093 110.698 37.008 109.908 37.008H109.22V39.568ZM109.22 34.672H109.796C110.778 34.672 111.268 34.2827 111.268 33.504C111.268 32.7253 110.778 32.336 109.796 32.336H109.22V34.672ZM106.084 29.936H110.756C111.866 29.936 112.708 30.2027 113.284 30.736C113.86 31.2693 114.148 32.0373 114.148 33.04C114.148 33.648 114.036 34.1547 113.812 34.56C113.599 34.9547 113.268 35.2907 112.82 35.568C113.268 35.6533 113.647 35.7867 113.956 35.968C114.276 36.1387 114.532 36.352 114.724 36.608C114.927 36.864 115.071 37.152 115.156 37.472C115.242 37.792 115.284 38.1333 115.284 38.496C115.284 39.0613 115.183 39.5627 114.98 40C114.788 40.4373 114.511 40.8053 114.148 41.104C113.796 41.4027 113.364 41.6267 112.852 41.776C112.34 41.9253 111.764 42 111.124 42H106.084V29.936Z" fill="#017BEA"/>
<path d="M115.898 36.512H120.49V38.928H115.898V36.512ZM124.892 29.936V42H121.756V29.936H124.892ZM126.868 42L128.916 29.936H132.02L134.436 36.368L136.836 29.936H139.94L141.988 42H138.868L137.828 35.056L134.98 42H133.732L131.028 35.056L129.988 42H126.868ZM147.111 35.472H148.151C149.303 35.472 149.879 34.9707 149.879 33.968C149.879 32.9653 149.303 32.464 148.151 32.464H147.111V35.472ZM147.111 42H143.975V29.936H148.967C150.322 29.936 151.356 30.288 152.071 30.992C152.796 31.696 153.159 32.688 153.159 33.968C153.159 35.248 152.796 36.24 152.071 36.944C151.356 37.648 150.322 38 148.967 38H147.111V42ZM157.955 29.936V36.496C157.955 36.848 157.965 37.2107 157.987 37.584C158.019 37.9467 158.099 38.2773 158.227 38.576C158.365 38.8747 158.579 39.12 158.867 39.312C159.155 39.4933 159.56 39.584 160.083 39.584C160.605 39.584 161.005 39.4933 161.283 39.312C161.571 39.12 161.784 38.8747 161.923 38.576C162.061 38.2773 162.141 37.9467 162.163 37.584C162.195 37.2107 162.211 36.848 162.211 36.496V29.936H165.331V36.928C165.331 38.8053 164.899 40.176 164.035 41.04C163.181 41.904 161.864 42.336 160.083 42.336C158.301 42.336 156.979 41.904 156.115 41.04C155.251 40.176 154.819 38.8053 154.819 36.928V29.936H157.955ZM171.002 29.936V39.344H174.762V42H167.866V29.936H171.002ZM183.193 33.024C182.851 32.7467 182.51 32.544 182.169 32.416C181.827 32.2773 181.497 32.208 181.177 32.208C180.771 32.208 180.441 32.304 180.185 32.496C179.929 32.688 179.801 32.9387 179.801 33.248C179.801 33.4613 179.865 33.6373 179.993 33.776C180.121 33.9147 180.286 34.0373 180.489 34.144C180.702 34.24 180.937 34.3253 181.193 34.4C181.459 34.4747 181.721 34.5547 181.977 34.64C183.001 34.9813 183.747 35.44 184.217 36.016C184.697 36.5813 184.937 37.3227 184.937 38.24C184.937 38.8587 184.83 39.4187 184.617 39.92C184.414 40.4213 184.11 40.8533 183.705 41.216C183.31 41.568 182.819 41.84 182.233 42.032C181.657 42.2347 181.001 42.336 180.265 42.336C178.739 42.336 177.326 41.8827 176.025 40.976L177.369 38.448C177.838 38.864 178.302 39.1733 178.761 39.376C179.219 39.5787 179.673 39.68 180.121 39.68C180.633 39.68 181.011 39.5627 181.257 39.328C181.513 39.0933 181.641 38.8267 181.641 38.528C181.641 38.3467 181.609 38.192 181.545 38.064C181.481 37.9253 181.374 37.8027 181.225 37.696C181.075 37.5787 180.878 37.472 180.633 37.376C180.398 37.28 180.11 37.1733 179.769 37.056C179.363 36.928 178.963 36.7893 178.569 36.64C178.185 36.48 177.838 36.272 177.529 36.016C177.23 35.76 176.985 35.44 176.793 35.056C176.611 34.6613 176.521 34.1653 176.521 33.568C176.521 32.9707 176.617 32.432 176.809 31.952C177.011 31.4613 177.289 31.0453 177.641 30.704C178.003 30.352 178.441 30.08 178.953 29.888C179.475 29.696 180.057 29.6 180.697 29.6C181.294 29.6 181.918 29.6853 182.569 29.856C183.219 30.016 183.843 30.256 184.441 30.576L183.193 33.024Z" fill="black"/>
<path d="M79.252 60.1055H77.9336V51.293H79.252V51.9141C79.7715 51.3945 80.3613 51.1348 81.0215 51.1348C81.8066 51.1348 82.4531 51.4238 82.9609 52.002C83.4766 52.5762 83.7344 53.3008 83.7344 54.1758C83.7344 55.0312 83.4785 55.7441 82.9668 56.3145C82.459 56.8809 81.8184 57.1641 81.0449 57.1641C80.377 57.1641 79.7793 56.8965 79.252 56.3613V60.1055ZM82.3867 54.1816C82.3867 53.6348 82.2383 53.1895 81.9414 52.8457C81.6406 52.498 81.2617 52.3242 80.8047 52.3242C80.3203 52.3242 79.9277 52.4922 79.627 52.8281C79.3262 53.1641 79.1758 53.6055 79.1758 54.1523C79.1758 54.6875 79.3262 55.1289 79.627 55.4766C79.9238 55.8164 80.3145 55.9863 80.7988 55.9863C81.2559 55.9863 81.6328 55.8145 81.9297 55.4707C82.2344 55.127 82.3867 54.6973 82.3867 54.1816ZM86.4473 51.293V57H85.1289V51.293H86.4473ZM84.9297 48.9199C84.9297 48.6895 85.0137 48.4902 85.1816 48.3223C85.3496 48.1543 85.5508 48.0703 85.7852 48.0703C86.0234 48.0703 86.2266 48.1543 86.3945 48.3223C86.5625 48.4863 86.6465 48.6875 86.6465 48.9258C86.6465 49.1641 86.5625 49.3672 86.3945 49.5352C86.2305 49.7031 86.0293 49.7871 85.791 49.7871C85.5527 49.7871 85.3496 49.7031 85.1816 49.5352C85.0137 49.3672 84.9297 49.1621 84.9297 48.9199ZM91.4336 52.2656L90.3438 52.8457C90.1719 52.4941 89.959 52.3184 89.7051 52.3184C89.584 52.3184 89.4805 52.3594 89.3945 52.4414C89.3086 52.5195 89.2656 52.6211 89.2656 52.7461C89.2656 52.9648 89.5195 53.1816 90.0273 53.3965C90.7266 53.6973 91.1973 53.9746 91.4395 54.2285C91.6816 54.4824 91.8027 54.8242 91.8027 55.2539C91.8027 55.8047 91.5996 56.2656 91.1934 56.6367C90.7988 56.9883 90.3223 57.1641 89.7637 57.1641C88.8066 57.1641 88.1289 56.6973 87.7305 55.7637L88.8555 55.2422C89.0117 55.5156 89.1309 55.6895 89.2129 55.7637C89.373 55.9121 89.5645 55.9863 89.7871 55.9863C90.2324 55.9863 90.4551 55.7832 90.4551 55.377C90.4551 55.1426 90.2832 54.9238 89.9395 54.7207C89.8066 54.6543 89.6738 54.5898 89.541 54.5273C89.4082 54.4648 89.2734 54.4004 89.1367 54.334C88.7539 54.1465 88.4844 53.959 88.3281 53.7715C88.1289 53.5332 88.0293 53.2266 88.0293 52.8516C88.0293 52.3555 88.1992 51.9453 88.5391 51.6211C88.8867 51.2969 89.3086 51.1348 89.8047 51.1348C90.5352 51.1348 91.0781 51.5117 91.4336 52.2656ZM94.8848 55.7578H98.2773V57H92.2715L95.9688 52.5234H93.0566V51.293H98.5762L94.8848 55.7578ZM104.717 54.457H100.627C100.662 54.9258 100.814 55.2988 101.084 55.5762C101.354 55.8496 101.699 55.9863 102.121 55.9863C102.449 55.9863 102.721 55.9082 102.936 55.752C103.146 55.5957 103.387 55.3066 103.656 54.8848L104.77 55.5059C104.598 55.7988 104.416 56.0508 104.225 56.2617C104.033 56.4688 103.828 56.6406 103.609 56.7773C103.391 56.9102 103.154 57.0078 102.9 57.0703C102.646 57.1328 102.371 57.1641 102.074 57.1641C101.223 57.1641 100.539 56.8906 100.023 56.3438C99.5078 55.793 99.25 55.0625 99.25 54.1523C99.25 53.25 99.5 52.5195 100 51.9609C100.504 51.4102 101.172 51.1348 102.004 51.1348C102.844 51.1348 103.508 51.4023 103.996 51.9375C104.48 52.4688 104.723 53.2051 104.723 54.1465L104.717 54.457ZM103.363 53.3789C103.18 52.6758 102.736 52.3242 102.033 52.3242C101.873 52.3242 101.723 52.3496 101.582 52.4004C101.441 52.4473 101.312 52.5176 101.195 52.6113C101.082 52.7012 100.984 52.8105 100.902 52.9395C100.82 53.0684 100.758 53.2148 100.715 53.3789H103.363ZM106.164 51.293H107.482V51.8203C107.736 51.5547 107.953 51.375 108.133 51.2812C108.324 51.1836 108.564 51.1348 108.854 51.1348C109.498 51.1348 110.008 51.416 110.383 51.9785C110.797 51.416 111.357 51.1348 112.064 51.1348C113.35 51.1348 113.992 51.9141 113.992 53.4727V57H112.668V53.8301C112.668 53.2832 112.602 52.8965 112.469 52.6699C112.332 52.4395 112.107 52.3242 111.795 52.3242C111.432 52.3242 111.166 52.4609 110.998 52.7344C110.834 53.0078 110.752 53.4473 110.752 54.0527V57H109.428V53.8477C109.428 52.832 109.135 52.3242 108.549 52.3242C108.178 52.3242 107.906 52.4629 107.734 52.7402C107.566 53.0176 107.482 53.4551 107.482 54.0527V57H106.164V51.293ZM117.256 55.9395L114.689 51.293H116.219L117.965 54.5742L119.594 51.293H121.082L116.535 60.1055H115.029L117.256 55.9395ZM127.006 47.1035V53.1387L128.863 51.293H130.633L128.154 53.6895L130.814 57H129.104L127.217 54.5918L127.006 54.8027V57H125.688V47.1035H127.006ZM131.148 54.1055C131.148 53.2812 131.443 52.5801 132.033 52.002C132.623 51.4238 133.342 51.1348 134.189 51.1348C135.041 51.1348 135.764 51.4258 136.357 52.0078C136.943 52.5898 137.236 53.3047 137.236 54.1523C137.236 55.0078 136.941 55.7246 136.352 56.3027C135.758 56.877 135.029 57.1641 134.166 57.1641C133.311 57.1641 132.594 56.8711 132.016 56.2852C131.438 55.707 131.148 54.9805 131.148 54.1055ZM132.496 54.1289C132.496 54.6992 132.648 55.1504 132.953 55.4824C133.266 55.8184 133.678 55.9863 134.189 55.9863C134.705 55.9863 135.117 55.8203 135.426 55.4883C135.734 55.1562 135.889 54.7129 135.889 54.1582C135.889 53.6035 135.734 53.1602 135.426 52.8281C135.113 52.4922 134.701 52.3242 134.189 52.3242C133.686 52.3242 133.277 52.4922 132.965 52.8281C132.652 53.1641 132.496 53.5977 132.496 54.1289ZM142.844 47.1035H144.168V57H142.844V56.4023C142.324 56.9102 141.736 57.1641 141.08 57.1641C140.299 57.1641 139.65 56.8789 139.135 56.3086C138.623 55.7266 138.367 55 138.367 54.1289C138.367 53.2773 138.623 52.5664 139.135 51.9961C139.643 51.4219 140.281 51.1348 141.051 51.1348C141.719 51.1348 142.316 51.4082 142.844 51.9551V47.1035ZM139.715 54.1289C139.715 54.6758 139.861 55.1211 140.154 55.4648C140.455 55.8125 140.834 55.9863 141.291 55.9863C141.779 55.9863 142.174 55.8184 142.475 55.4824C142.775 55.1348 142.926 54.6934 142.926 54.1582C142.926 53.623 142.775 53.1816 142.475 52.834C142.174 52.4941 141.783 52.3242 141.303 52.3242C140.85 52.3242 140.471 52.4961 140.166 52.8398C139.865 53.1875 139.715 53.6172 139.715 54.1289ZM146.646 55.3066L147.818 55.7637L146.148 59.1094L145.258 58.7402L146.646 55.3066ZM154.557 47.1035V53.1387L156.414 51.293H158.184L155.705 53.6895L158.365 57H156.654L154.768 54.5918L154.557 54.8027V57H153.238V47.1035H154.557ZM160.574 52.5234V57H159.256V52.5234H158.693V51.293H159.256V49.2012H160.574V51.293H161.6V52.5234H160.574ZM162.309 54.1055C162.309 53.2812 162.604 52.5801 163.193 52.002C163.783 51.4238 164.502 51.1348 165.35 51.1348C166.201 51.1348 166.924 51.4258 167.518 52.0078C168.104 52.5898 168.396 53.3047 168.396 54.1523C168.396 55.0078 168.102 55.7246 167.512 56.3027C166.918 56.877 166.189 57.1641 165.326 57.1641C164.471 57.1641 163.754 56.8711 163.176 56.2852C162.598 55.707 162.309 54.9805 162.309 54.1055ZM163.656 54.1289C163.656 54.6992 163.809 55.1504 164.113 55.4824C164.426 55.8184 164.838 55.9863 165.35 55.9863C165.865 55.9863 166.277 55.8203 166.586 55.4883C166.895 55.1562 167.049 54.7129 167.049 54.1582C167.049 53.6035 166.895 53.1602 166.586 52.8281C166.273 52.4922 165.861 52.3242 165.35 52.3242C164.846 52.3242 164.438 52.4922 164.125 52.8281C163.812 53.1641 163.656 53.5977 163.656 54.1289ZM167.33 48.4805L165.197 50.4141L164.477 49.9688L166.088 47.8359L167.33 48.4805ZM169.797 51.293H171.115V51.8027C171.357 51.5488 171.572 51.375 171.76 51.2812C171.951 51.1836 172.178 51.1348 172.439 51.1348C172.787 51.1348 173.15 51.248 173.529 51.4746L172.926 52.6816C172.676 52.502 172.432 52.4121 172.193 52.4121C171.475 52.4121 171.115 52.9551 171.115 54.041V57H169.797V51.293ZM176.611 55.9395L174.045 51.293H175.574L177.32 54.5742L178.949 51.293H180.438L175.891 60.1055H174.385L176.611 55.9395ZM189.25 47.1035H190.574V57H189.25V56.4023C188.73 56.9102 188.143 57.1641 187.486 57.1641C186.705 57.1641 186.057 56.8789 185.541 56.3086C185.029 55.7266 184.773 55 184.773 54.1289C184.773 53.2773 185.029 52.5664 185.541 51.9961C186.049 51.4219 186.688 51.1348 187.457 51.1348C188.125 51.1348 188.723 51.4082 189.25 51.9551V47.1035ZM186.121 54.1289C186.121 54.6758 186.268 55.1211 186.561 55.4648C186.861 55.8125 187.24 55.9863 187.697 55.9863C188.186 55.9863 188.58 55.8184 188.881 55.4824C189.182 55.1348 189.332 54.6934 189.332 54.1582C189.332 53.623 189.182 53.1816 188.881 52.834C188.58 52.4941 188.189 52.3242 187.709 52.3242C187.256 52.3242 186.877 52.4961 186.572 52.8398C186.271 53.1875 186.121 53.6172 186.121 54.1289ZM194.131 55.7578H197.523V57H191.518L195.215 52.5234H192.303V51.293H197.822L194.131 55.7578ZM200.084 51.293V57H198.766V51.293H200.084ZM198.566 48.9199C198.566 48.6895 198.65 48.4902 198.818 48.3223C198.986 48.1543 199.188 48.0703 199.422 48.0703C199.66 48.0703 199.863 48.1543 200.031 48.3223C200.199 48.4863 200.283 48.6875 200.283 48.9258C200.283 49.1641 200.199 49.3672 200.031 49.5352C199.867 49.7031 199.666 49.7871 199.428 49.7871C199.189 49.7871 198.986 49.7031 198.818 49.5352C198.65 49.3672 198.566 49.1621 198.566 48.9199ZM205.961 51.293H207.285V57H205.961V56.4023C205.418 56.9102 204.834 57.1641 204.209 57.1641C203.42 57.1641 202.768 56.8789 202.252 56.3086C201.74 55.7266 201.484 55 201.484 54.1289C201.484 53.2734 201.74 52.5605 202.252 51.9902C202.764 51.4199 203.404 51.1348 204.174 51.1348C204.838 51.1348 205.434 51.4082 205.961 51.9551V51.293ZM202.832 54.1289C202.832 54.6758 202.979 55.1211 203.271 55.4648C203.572 55.8125 203.951 55.9863 204.408 55.9863C204.896 55.9863 205.291 55.8184 205.592 55.4824C205.893 55.1348 206.043 54.6934 206.043 54.1582C206.043 53.623 205.893 53.1816 205.592 52.834C205.291 52.4941 204.9 52.3242 204.42 52.3242C203.967 52.3242 203.588 52.4961 203.283 52.8398C202.982 53.1875 202.832 53.6172 202.832 54.1289ZM211.428 50.666V51.9785L210.566 52.5762V57H209.248V53.2324L208.387 53.8359V52.5234L209.248 51.9199V47.1035H210.566V51.2637L211.428 50.666ZM216.742 51.293H218.066V57H216.742V56.4023C216.199 56.9102 215.615 57.1641 214.99 57.1641C214.201 57.1641 213.549 56.8789 213.033 56.3086C212.521 55.7266 212.266 55 212.266 54.1289C212.266 53.2734 212.521 52.5605 213.033 51.9902C213.545 51.4199 214.186 51.1348 214.955 51.1348C215.619 51.1348 216.215 51.4082 216.742 51.9551V51.293ZM213.613 54.1289C213.613 54.6758 213.76 55.1211 214.053 55.4648C214.354 55.8125 214.732 55.9863 215.189 55.9863C215.678 55.9863 216.072 55.8184 216.373 55.4824C216.674 55.1348 216.824 54.6934 216.824 54.1582C216.824 53.623 216.674 53.1816 216.373 52.834C216.072 52.4941 215.682 52.3242 215.201 52.3242C214.748 52.3242 214.369 52.4961 214.064 52.8398C213.764 53.1875 213.613 53.6172 213.613 54.1289Z" fill="black"/>
<defs>
<linearGradient id="paint0_linear_6203_602" x1="31.2308" y1="26.4903" x2="25.8797" y2="22.0057" gradientUnits="userSpaceOnUse">
<stop stop-color="#3980FF"/>
<stop offset="1" stop-color="#0029BC"/>
</linearGradient>
<linearGradient id="paint1_linear_6203_602" x1="10.9503" y1="36.4502" x2="22.665" y2="45.461" gradientUnits="userSpaceOnUse">
<stop stop-color="#0029BC"/>
<stop offset="1" stop-color="#3980FF"/>
</linearGradient>
<linearGradient id="paint2_linear_6203_602" x1="39.7845" y1="36.5132" x2="45.1357" y2="40.9978" gradientUnits="userSpaceOnUse">
<stop stop-color="#3980FF"/>
<stop offset="1" stop-color="#0029BC"/>
</linearGradient>
<linearGradient id="paint3_linear_6203_602" x1="60.0652" y1="26.5537" x2="48.3505" y2="17.5428" gradientUnits="userSpaceOnUse">
<stop stop-color="#0029BC"/>
<stop offset="1" stop-color="#3980FF"/>
</linearGradient>
</defs>
</svg>
