<svg width="683" height="683" viewBox="0 0 683 683" fill="none" xmlns="http://www.w3.org/2000/svg">
<g clip-path="url(#clip0_10312_245)">
<path d="M675.896 363.964L659.547 347.74C641.536 329.745 612.354 329.745 594.349 347.74L553.396 388.75V376.068C559.765 376.068 564.927 370.906 564.927 364.542V318.422C564.927 312.057 559.765 306.896 553.396 306.896V272.307C553.396 265.943 548.234 260.781 541.87 260.781H357.401C351.036 260.781 345.875 265.943 345.875 272.307V318.422C345.875 324.792 351.036 329.953 357.401 329.953V353.01C351.036 353.01 345.875 358.172 345.875 364.542V399.125H334.344V364.542C334.344 358.172 329.182 353.01 322.818 353.01V329.953C329.182 329.953 334.344 324.792 334.344 318.422V283.839C340.713 283.839 345.875 278.677 345.875 272.307V226.193C345.875 219.823 340.713 214.662 334.344 214.662H322.818V191.604C329.182 191.604 334.344 186.443 334.344 180.073V133.958C334.344 127.594 329.182 122.432 322.818 122.432H138.349C131.979 122.432 126.823 127.594 126.823 133.958V168.547C120.453 168.547 115.292 173.708 115.292 180.073V226.193C115.292 232.557 120.453 237.719 126.823 237.719H138.349V260.781C131.979 260.781 126.823 265.943 126.823 272.307V306.896C120.453 306.896 115.292 312.057 115.292 318.422V364.542C115.292 370.906 120.453 376.068 126.823 376.068V410.656C126.838 415.458 129.854 419.745 134.37 421.38L115.292 440.469V422.187C115.292 415.818 110.13 410.656 103.76 410.656H11.5312C5.16146 410.656 0 415.818 0 422.187V652.771C0 659.135 5.16146 664.297 11.5312 664.297H103.76C110.13 664.297 115.292 659.135 115.292 652.771V634.484L166.182 583.594H484.224C487.281 583.594 490.213 582.38 492.375 580.213L675.906 396.682C684.922 387.641 684.922 373.01 675.906 363.964H675.896ZM493.63 422.187H519.963L495.75 446.396V433.713C495.713 429.776 494.995 425.88 493.63 422.187ZM368.932 283.839H530.338V306.896H368.932V283.839ZM380.458 329.953H541.87V353.01H380.458V329.953ZM368.932 376.068H530.338V399.125H368.932V376.068ZM299.755 353.01H138.349V329.953H299.755V353.01ZM299.755 214.662H138.349V191.604H299.755V214.662ZM149.88 145.49H311.286V168.547H149.88V145.49ZM161.406 237.719H322.818V260.776H161.406V237.719ZM149.88 283.839H311.286V306.896H149.88V283.839ZM311.286 376.068V399.125H149.88V376.068H311.286ZM92.2343 641.239H23.0573V433.713H92.2343V641.239ZM479.448 560.536H161.406C158.349 560.536 155.417 561.75 153.255 563.911L115.292 601.88V473.073L166.182 422.187H461.167C467.531 422.187 472.693 427.349 472.693 433.713V468.302H322.812V491.359H484.224C490.588 491.359 495.75 486.198 495.75 479.833L610.661 364.047C619.666 355.042 634.26 355.042 643.265 364.047L659.614 380.333L479.448 560.536Z" fill="#0078FF"/>
<path d="M518.807 157.016C512.443 157.016 507.281 151.854 507.281 145.49H484.224C484.281 160.094 493.51 173.083 507.281 177.953V191.604H530.338V177.953C548.312 171.625 557.755 151.917 551.422 133.943C546.552 120.115 533.474 110.875 518.812 110.901C512.443 110.901 507.281 105.74 507.281 99.3699C507.281 93.0053 512.443 87.8438 518.812 87.8438C525.177 87.8438 530.338 93.0053 530.338 99.3699H553.396C553.338 84.7657 544.109 71.7709 530.338 66.9063V53.2553H507.281V66.9063C489.307 73.2345 479.865 92.9428 486.198 110.917C491.068 124.745 504.146 133.984 518.807 133.958C525.177 133.958 530.338 139.12 530.338 145.49C530.338 151.854 525.177 157.016 518.807 157.016Z" fill="#0078FF"/>
<path d="M518.807 226.193C576.114 226.193 622.573 179.734 622.573 122.427C622.573 65.1251 576.114 18.6667 518.807 18.6667C461.505 18.6667 415.047 65.1251 415.047 122.427C415.109 179.708 461.531 226.125 518.807 226.193ZM518.807 41.724C563.38 41.724 599.515 77.8594 599.515 122.427C599.515 167 563.38 203.13 518.807 203.13C474.239 203.13 438.104 167 438.104 122.427C438.156 77.8803 474.26 41.7761 518.807 41.724Z" fill="#0078FF"/>
</g>
<defs>
<clipPath id="clip0_10312_245">
<rect width="682.667" height="682.667" fill="white"/>
</clipPath>
</defs>
</svg>
