<svg width="18px" height="26px" viewBox="0 0 18 26" version="1.1" xmlns="http://www.w3.org/2000/svg" xmlns:xlink="http://www.w3.org/1999/xlink"> <g id="Page-1" stroke="none" stroke-width="1" fill="none" fill-rule="evenodd"> <g id="Index-page" transform="translate(-112.000000, -3514.000000)" fill="#FFFFFF" fill-rule="nonzero"> <g id="Group-22" transform="translate(112.000000, 3509.000000)"> <g id="facebook-placeholder-for-locate-places-on-maps" transform="translate(0.000000, 5.000000)"> <path d="M17.5747596,6.4711506 C17.4817535,6.12429292 17.292886,5.75470632 17.1531642,5.43112159 C15.4812405,1.43288857 11.8281219,0 8.87841163,0 C4.92969022,0 0.580635363,2.63474017 0,8.06555952 L0,9.17510515 C0,9.22140926 0.0160376371,9.63736041 0.0388183717,9.84542667 C0.364309507,12.4336209 2.41670182,15.1843027 3.94951114,17.772497 C5.59859333,20.5454846 7.30976062,23.2733165 9.00507251,26 C10.0504349,24.2206164 11.0920308,22.417839 12.1135797,20.6845178 C12.3919906,20.1758375 12.7151733,19.6674595 12.993888,19.1819313 C13.1796573,18.8586488 13.5345508,18.5353663 13.6966889,18.2345709 C15.3457103,15.2303046 18,12.2028258 18,9.22134881 L18,7.99652649 C18.0000607,7.67330446 17.5974189,6.54084857 17.5747596,6.4711506 Z M8.95070249,12.0410636 C7.7899785,12.0410636 6.51948175,11.4635317 5.89237369,9.86857872 C5.7989423,9.61469195 5.80647513,9.10589078 5.80647513,9.05928442 L5.80647513,8.34284014 C5.80647513,6.30956981 7.54145587,5.38493838 9.05081623,5.38493838 C10.9089952,5.38493838 12.3461254,6.86425195 12.3461254,8.71327302 C12.3461254,10.5622336 10.8088814,12.0410636 8.95070249,12.0410636 Z" id="Facebook_Places"></path> </g> </g> </g> </g></svg>
