<svg class="nth-child-3" width="412px" height="72px" viewBox="0 0 412 72" version="1.1" xmlns="http://www.w3.org/2000/svg" xmlns:xlink="http://www.w3.org/1999/xlink"> <g id="Page-1" stroke="none" stroke-width="1" fill="none" fill-rule="evenodd"> <g id="mc_hrz_rev" transform="translate(-37.000000, -19.000000)"> <rect id="Rectangle" x="0" y="0" width="478.99" height="109.97"></rect> <path d="M216.39,67.11 L216.39,52.11 C216.39,46.45 212.78,42.64 206.97,42.59 C203.599983,42.3721167 200.378103,44.0041271 198.56,46.85 C196.902968,44.0880205 193.868021,42.4535234 190.65,42.59 C187.851197,42.4548284 185.189289,43.8085992 183.65,46.15 L183.65,43.15 L178.44,43.15 L178.44,67.11 L183.7,67.11 L183.7,53.84 C183.7,49.68 186,47.48 189.56,47.48 C193.12,47.48 194.77,49.73 194.77,53.79 L194.77,67.11 L200,67.11 L200,53.84 C200,49.68 202.4,47.48 205.86,47.48 C209.32,47.48 211.12,49.73 211.12,53.79 L211.12,67.11 L216.39,67.11 Z M294.22,43.17 L285.71,43.17 L285.71,35.91 L280.45,35.91 L280.45,43.17 L275.59,43.17 L275.59,47.93 L280.45,47.93 L280.45,58.84 C280.45,64.4 282.6,67.71 288.76,67.71 C291.060744,67.7174327 293.317001,67.0762539 295.27,65.86 L293.77,61.4 C292.372215,62.2325883 290.786101,62.6970684 289.16,62.75 C286.56,62.75 285.7,61.15 285.7,58.75 L285.7,47.93 L294.21,47.93 L294.22,43.17 Z M338.65,42.57 C336.062202,42.4945668 333.640683,43.8415608 332.34,46.08 L332.34,43.17 L327.18,43.17 L327.18,67.11 L332.39,67.11 L332.39,53.69 C332.39,49.69 334.09,47.53 337.5,47.53 C338.615534,47.5138629 339.723311,47.7177482 340.76,48.13 L342.36,43.22 C341.169241,42.7941366 339.914613,42.5743231 338.65,42.57 L338.65,42.57 Z M271.48,45.07 C268.530238,43.3175331 265.138961,42.4497549 261.71,42.57 C255.65,42.57 251.71,45.48 251.71,50.23 C251.71,54.14 254.61,56.54 259.97,57.29 L262.42,57.64 C265.27,58.04 266.63,58.79 266.63,60.14 C266.63,61.99 264.73,63.05 261.17,63.05 C258.297906,63.1412362 255.479096,62.2603578 253.17,60.55 L250.8,64.6 C253.833985,66.7213432 257.469346,67.8116008 261.17,67.71 C268.08,67.71 272.09,64.45 272.09,59.9 C272.09,55.69 268.93,53.49 263.73,52.74 L261.28,52.39 C259.03,52.09 257.22,51.64 257.22,50.04 C257.22,48.29 258.92,47.24 261.78,47.24 C264.400407,47.2787271 266.967773,47.9842365 269.24,49.29 L271.48,45.07 Z M411,42.57 C408.412202,42.4945668 405.990683,43.8415608 404.69,46.08 L404.69,43.17 L399.53,43.17 L399.53,67.11 L404.74,67.11 L404.74,53.69 C404.74,49.69 406.44,47.53 409.85,47.53 C410.965534,47.5138629 412.073311,47.7177482 413.11,48.13 L414.71,43.22 C413.519241,42.7941366 412.264613,42.5743231 411,42.57 Z M343.91,55.14 C343.91,62.4 348.97,67.71 356.68,67.71 C359.806362,67.8646769 362.87754,66.844518 365.29,64.85 L362.79,60.64 C360.989011,62.0115371 358.793642,62.7655377 356.53,62.79 C352.37,62.79 349.32,59.73 349.32,55.13 C349.32,50.53 352.38,47.52 356.53,47.47 C358.793642,47.4944623 360.989011,48.2484629 362.79,49.62 L365.29,45.41 C362.87754,43.415482 359.806362,42.3953231 356.68,42.55 C348.97,42.55 343.91,47.86 343.91,55.12 L343.91,55.14 Z M392.69,55.14 L392.69,43.14 L387.48,43.14 L387.48,46.05 C385.67759,43.7241585 382.859869,42.4159307 379.92,42.54 C373.21,42.54 367.92,47.8 367.92,55.11 C367.92,62.42 373.18,67.68 379.92,67.68 C382.859869,67.8040693 385.67759,66.4958415 387.48,64.17 L387.48,67.07 L392.69,67.07 L392.69,55.14 Z M373.31,55.14 C373.31,50.93 376.06,47.48 380.57,47.48 C384.88,47.48 387.78,50.79 387.78,55.14 C387.78,59.49 384.88,62.8 380.57,62.8 C376.06,62.8 373.31,59.34 373.31,55.14 Z M310.45,42.57 C303.45,42.57 298.53,47.68 298.53,55.14 C298.53,62.75 303.64,67.71 310.8,67.71 C314.37508,67.8352583 317.871012,66.6390944 320.62,64.35 L318.07,60.49 C316.081121,62.0813023 313.616971,62.9613556 311.07,62.99 C307.71,62.99 304.66,61.44 303.91,57.13 L321.69,57.13 C321.74,56.48 321.79,55.83 321.79,55.13 C321.79,47.67 317.13,42.56 310.42,42.56 L310.45,42.57 Z M310.35,47.23 C313.71,47.23 315.86,49.33 316.41,53.04 L304,53.04 C304.55,49.58 306.65,47.23 310.36,47.23 L310.35,47.23 Z M441,55.14 L441,33.55 L435.79,33.55 L435.79,46.07 C433.98759,43.7441585 431.169869,42.4359307 428.23,42.56 C421.52,42.56 416.23,47.82 416.23,55.13 C416.23,62.44 421.49,67.7 428.23,67.7 C431.169869,67.8240693 433.98759,66.5158415 435.79,64.19 L435.79,67.09 L441,67.09 L441,55.14 Z M447.09,64.9 C447.29604,64.8991917 447.50012,64.9400078 447.69,65.02 C447.872744,65.0980024 448.03902,65.2099845 448.18,65.35 C448.319723,65.4873911 448.431753,65.6503438 448.51,65.83 C448.672386,66.2065732 448.672386,66.6334268 448.51,67.01 C448.431537,67.1895359 448.319533,67.3524497 448.18,67.49 C448.038566,67.6294613 447.872401,67.7413685 447.69,67.82 C447.50037,67.9008006 447.296121,67.9416503 447.09,67.94 C446.466656,67.9477819 445.899308,67.5813696 445.65,67.01 C445.488792,66.6331845 445.488792,66.2068155 445.65,65.83 C445.806394,65.4628182 446.100927,65.1718773 446.47,65.02 C446.672603,64.9357137 446.890625,64.8948346 447.11,64.9 L447.09,64.9 Z M447.09,67.6 C447.247938,67.6024804 447.404642,67.571821 447.55,67.51 C447.687775,67.4503431 447.813245,67.3655664 447.92,67.26 C448.382785,66.7956114 448.382785,66.0443886 447.92,65.58 C447.813702,65.4738772 447.688121,65.3890249 447.55,65.33 C447.404471,65.2687387 447.247886,65.2381024 447.09,65.24 C446.928855,65.237865 446.768956,65.268484 446.62,65.33 C446.257933,65.4845938 445.995758,65.8082529 445.919704,66.1945272 C445.84365,66.5808014 445.963561,66.97969 446.24,67.26 C446.349414,67.3669917 446.478437,67.4518754 446.62,67.51 C446.775067,67.5745308 446.942123,67.6052145 447.11,67.6 L447.09,67.6 Z M447.18,65.7 C447.329741,65.6895082 447.478405,65.7319837 447.6,65.82 C447.699834,65.8997314 447.755572,66.0223568 447.75,66.15 C447.753652,66.2594413 447.709915,66.3651384 447.63,66.44 C447.538311,66.5215639 447.422368,66.5707517 447.3,66.58 L447.76,67.11 L447.4,67.11 L446.97,66.58 L446.83,66.58 L446.83,67.11 L446.53,67.11 L446.53,65.71 L447.18,65.7 Z M446.83,65.96 L446.83,66.34 L447.18,66.34 C447.242046,66.3580556 447.307954,66.3580556 447.37,66.34 C447.416125,66.3087111 447.442644,66.2556736 447.44,66.2 C447.442644,66.1443264 447.416125,66.0912889 447.37,66.06 C447.307954,66.0419444 447.242046,66.0419444 447.18,66.06 L446.83,65.96 Z M421.64,55.14 C421.64,50.93 424.39,47.48 428.9,47.48 C433.21,47.48 436.11,50.79 436.11,55.14 C436.11,59.49 433.21,62.8 428.9,62.8 C424.39,62.8 421.64,59.34 421.64,55.14 Z M245.74,55.14 L245.74,43.14 L240.53,43.14 L240.53,46.05 C238.727519,43.7442506 235.924158,42.4486732 233,42.57 C226.29,42.57 221,47.83 221,55.14 C221,62.45 226.26,67.71 233,67.71 C235.939869,67.8340693 238.75759,66.5258415 240.56,64.2 L240.56,67.1 L245.77,67.1 L245.74,55.14 Z M226.36,55.14 C226.36,50.93 229.11,47.48 233.62,47.48 C237.93,47.48 240.83,50.79 240.83,55.14 C240.83,59.49 237.93,62.8 233.62,62.8 C229.11,62.8 226.36,59.35 226.36,55.14 L226.36,55.14 Z" id="Shape" fill="#FFFFFF" fill-rule="nonzero"></path> <g id="_Group_" transform="translate(37.000000, 18.000000)" fill-rule="nonzero"> <rect id="Rectangle" fill="#FF5F00" x="43.46" y="8.68" width="31.5" height="56.61"></rect> <path d="M45.46,37 C45.4512973,25.9550015 50.5216087,15.5193787 59.21,8.7 C44.4497903,-2.89994822 23.2535373,-1.21031545 10.5173979,12.5814698 C-2.21874153,26.3732551 -2.21874153,47.6367449 10.5173979,61.4285302 C23.2535373,75.2203154 44.4497903,76.9099482 59.21,65.31 C50.5188438,58.4884557 45.4482226,48.0485077 45.46,37 Z" id="_Path_" fill="#EB001B"></path> <path d="M117.46,37 C117.459679,50.7833804 109.589421,63.3566503 97.1917553,69.3798939 C84.7940897,75.4031374 70.0455898,73.8188948 59.21,65.3 C67.8946003,58.4748318 72.9652933,48.0405965 72.9652933,36.995 C72.9652933,25.9494035 67.8946003,15.5151682 59.21,8.69 C70.047008,0.169989425 84.7978014,-1.41346372 97.1962534,4.61229036 C109.594705,10.6380444 117.463508,23.2148155 117.46,37 Z" id="Path" fill="#F79E1B"></path> <path d="M114,59.29 L114,58.13 L114.47,58.13 L114.47,57.9 L113.3,57.9 L113.3,58.14 L113.77,58.14 L113.77,59.3 L114,59.29 Z M116.31,59.29 L116.31,57.89 L116,57.89 L115.58,58.89 L115.16,57.89 L114.79,57.89 L114.79,59.29 L115,59.29 L115,58.24 L115.39,59.15 L115.66,59.15 L116.05,58.24 L116.05,59.3 L116.31,59.29 Z" id="Shape" fill="#F79E1B"></path> </g> </g> </g></svg>
