<svg id="Gradient" height="512" viewBox="0 0 16 16" width="512" xmlns="http://www.w3.org/2000/svg" xmlns:xlink="http://www.w3.org/1999/xlink"><linearGradient id="linear-gradient" gradientUnits="userSpaceOnUse" x1=".939" x2="15.061" y1=".939" y2="15.061"><stop offset="0" stop-color="#87f1fc"/><stop offset=".2557" stop-color="#7fd4fb"/><stop offset=".5295" stop-color="#78bcfb"/><stop offset=".7844" stop-color="#74aefa"/><stop offset="1" stop-color="#73a9fa"/></linearGradient><path d="m15.5 10v4a1.4979 1.4979 0 0 1 -1.5 1.5h-4a1.4979 1.4979 0 0 1 -1.5-1.5v-4a1.4979 1.4979 0 0 1 1.5-1.5h4a1.4979 1.4979 0 0 1 1.5 1.5zm-9.5-1.5h-4a1.4979 1.4979 0 0 0 -1.5 1.5v4a1.4979 1.4979 0 0 0 1.5 1.5h4a1.4979 1.4979 0 0 0 1.5-1.5v-4a1.4979 1.4979 0 0 0 -1.5-1.5zm0-8h-4a1.4979 1.4979 0 0 0 -1.5 1.5v4a1.4979 1.4979 0 0 0 1.5 1.5h4a1.4979 1.4979 0 0 0 1.5-1.5v-4a1.4979 1.4979 0 0 0 -1.5-1.5zm8 0h-4a1.4979 1.4979 0 0 0 -1.5 1.5v4a1.4979 1.4979 0 0 0 1.5 1.5h4a1.4979 1.4979 0 0 0 1.5-1.5v-4a1.4979 1.4979 0 0 0 -1.5-1.5z" fill="url(#linear-gradient)"/></svg>