<svg xmlns="http://www.w3.org/2000/svg" version="1.1" xmlns:xlink="http://www.w3.org/1999/xlink" width="512" height="512" x="0" y="0" viewBox="0 0 100 100" style="enable-background:new 0 0 512 512" xml:space="preserve" class=""><g><g fill="#000"><path d="M5 19.5a7.5 7.5 0 0 1 7.5-7.5h75a7.5 7.5 0 0 1 0 15h-75A7.5 7.5 0 0 1 5 19.5zM5 49.5a7.5 7.5 0 0 1 7.5-7.5h45a7.5 7.5 0 0 1 0 15h-45A7.5 7.5 0 0 1 5 49.5zM5 79.5a7.5 7.5 0 0 1 7.5-7.5h75a7.5 7.5 0 0 1 0 15h-75A7.5 7.5 0 0 1 5 79.5z" fill="#ffffff" opacity="1" data-original="#000000" class=""></path></g></g></svg>