<svg enable-background="new 0 0 32 32" height="512" viewBox="0 0 32 32" width="512" xmlns="http://www.w3.org/2000/svg"><g id="Layer_4"><path d="m26.106 25.865c-5.513 5.513-14.457 5.513-19.971 0s-5.513-14.457 0-19.971c2.09-2.09 4.686-3.388 7.389-3.894-3.68 4.607-3.395 11.341.87 15.606s10.998 4.55 15.606.87c-.506 2.703-1.805 5.299-3.894 7.389z"/><path d="m20.154 9.713-1.979-.865 1.98-.865c.954-.417 1.715-1.179 2.133-2.133l.865-1.98.865 1.98c.417.954 1.179 1.715 2.133 2.133l1.98.865-1.981.865c-.954.417-1.715 1.179-2.132 2.132l-.866 1.98-.866-1.98c-.417-.953-1.178-1.715-2.132-2.132z"/></g></svg>