<?xml version="1.0"?>
<svg xmlns="http://www.w3.org/2000/svg" xmlns:xlink="http://www.w3.org/1999/xlink" viewBox="0 0 24 24"><defs><linearGradient gradientUnits="userSpaceOnUse" id="a" x1="1.44541" x2="22.55459" y1="7.07831" y2="16.92169"><stop offset="0" stop-color="#fff" stop-opacity="0.2"/><stop offset="1" stop-color="#fff" stop-opacity="0"/></linearGradient></defs><title/><path d="M12,24a.49971.49971,0,0,1-.25049-.06738l-3.0166-1.7461a.4999.4999,0,0,1,.501-.86523L12,22.92188l9-5.21V6.28809l-9-5.21-9,5.21V17.71191l.81006.46875A4.63054,4.63054,0,0,0,6.5,19c.4917,0,1,0,1-2V7.5a.5.5,0,0,1,1,0V17c0,1.55859-.24219,3-2,3a5.67958,5.67958,0,0,1-3.19971-.959l-1.05078-.6084A.49912.49912,0,0,1,2,18V6a.49912.49912,0,0,1,.24951-.43262l9.5-5.5a.4993.4993,0,0,1,.501,0l9.5,5.5A.49912.49912,0,0,1,22,6V18a.49912.49912,0,0,1-.24951.43262l-9.5,5.5A.49971.49971,0,0,1,12,24Z" fill="#388e3c"/><path d="M14,17c-2.20557,0-4-1.3457-4-3a.5.5,0,0,1,1,0c0,1.084,1.374,2,3,2s3-.916,3-2c0-.71-1.23193-1.5-3-1.5-2.24316,0-4-1.09766-4-2.5,0-1.6543,1.79443-3,4-3s4,1.3457,4,3a.5.5,0,0,1-1,0c0-1.084-1.374-2-3-2s-3,.916-3,2c0,.71,1.23193,1.5,3,1.5,2.24316,0,4,1.09766,4,2.5C18,15.6543,16.20557,17,14,17Z" fill="#388e3c"/><path d="M12,24a.49971.49971,0,0,1-.25049-.06738l-3.0166-1.7461a.4999.4999,0,0,1,.501-.86523L12,22.92188l9-5.21V6.28809l-9-5.21-9,5.21V17.71191l.81006.46875A4.63054,4.63054,0,0,0,6.5,19c.4917,0,1,0,1-2V7.5a.5.5,0,0,1,1,0V17c0,1.55859-.24219,3-2,3a5.67958,5.67958,0,0,1-3.19971-.959l-1.05078-.6084A.49912.49912,0,0,1,2,18V6a.49912.49912,0,0,1,.24951-.43262l9.5-5.5a.4993.4993,0,0,1,.501,0l9.5,5.5A.49912.49912,0,0,1,22,6V18a.49912.49912,0,0,1-.24951.43262l-9.5,5.5A.49971.49971,0,0,1,12,24Z" fill="url(#a)"/><path d="M14,17c-2.20557,0-4-1.3457-4-3a.5.5,0,0,1,1,0c0,1.084,1.374,2,3,2s3-.916,3-2c0-.71-1.23193-1.5-3-1.5-2.24316,0-4-1.09766-4-2.5,0-1.6543,1.79443-3,4-3s4,1.3457,4,3a.5.5,0,0,1-1,0c0-1.084-1.374-2-3-2s-3,.916-3,2c0,.71,1.23193,1.5,3,1.5,2.24316,0,4,1.09766,4,2.5C18,15.6543,16.20557,17,14,17Z" fill="url(#a)"/></svg>
