<svg class="nth-child-4" width="647px" height="73px" viewBox="0 0 647 73" version="1.1" xmlns="http://www.w3.org/2000/svg" xmlns:xlink="http://www.w3.org/1999/xlink"> <g id="Page-1" stroke="none" stroke-width="1" fill="none" fill-rule="evenodd"> <g id="mc_idcheck_hrz_ltd_rev" transform="translate(-37.000000, -37.000000)"> <rect id="Rectangle" x="0" y="0" width="716.43" height="147.93"></rect> <path d="M473.21,85.97 L470.21,85.97 L470.21,50.97 L473.21,50.97 L473.21,85.97 Z M496.46,50.97 C499.137221,50.9328893 501.801444,51.3487515 504.34,52.2 C506.562472,52.9348654 508.606362,54.1271347 510.34,55.7 C511.985952,57.2376117 513.273099,59.1188268 514.11,61.21 C515.878464,65.8919019 515.878464,71.0580981 514.11,75.74 C513.273099,77.8311732 511.985952,79.7123883 510.34,81.25 C508.606538,82.8231054 506.562594,84.015406 504.34,84.75 C501.804036,85.5967395 499.143303,86.0092038 496.47,85.97 L483.71,85.97 L483.71,50.97 L496.46,50.97 Z M486.74,53.87 L486.74,83.07 L496.46,83.07 C498.750477,83.1226399 501.033168,82.7844633 503.21,82.07 C505.039327,81.448679 506.716179,80.4466579 508.13,79.13 C509.465518,77.843695 510.491335,76.2707744 511.13,74.53 C512.484237,70.6446223 512.484237,66.4153777 511.13,62.53 C510.48894,60.787514 509.463555,59.2118385 508.13,57.92 C506.720278,56.5978945 505.042183,55.5951301 503.21,54.98 C501.032146,54.2698703 498.750198,53.931804 496.46,53.98 L486.74,53.87 Z M552.84,50.57 C554.304577,50.5657457 555.764583,50.7335625 557.19,51.07 C558.556072,51.3911176 559.878809,51.8745545 561.13,52.51 C562.332244,53.1175491 563.451414,53.8771054 564.46,54.77 C565.444893,55.6442498 566.300159,56.6544066 567,57.77 L564.45,59.47 C563.850044,58.5519081 563.130371,57.7178953 562.31,56.99 C561.483675,56.2571946 560.57011,55.6291187 559.59,55.12 C558.575875,54.5942706 557.50122,54.1946331 556.39,53.93 C555.230386,53.6537106 554.042068,53.5160806 552.85,53.52 C550.862015,53.5043148 548.889552,53.8709688 547.04,54.6 C545.296847,55.2746317 543.708284,56.2951216 542.37,57.6 C541.023855,58.9519138 539.962883,60.5603739 539.25,62.33 C537.732873,66.2551702 537.732873,70.6048298 539.25,74.53 C539.965605,76.3005993 541.030049,77.9091683 542.38,79.26 C543.718284,80.5648784 545.306847,81.5853683 547.05,82.26 C548.899483,82.9892715 550.871993,83.3559343 552.86,83.34 C554.044844,83.3430549 555.226052,83.2088267 556.38,82.94 C557.488062,82.6848861 558.559758,82.2918192 559.57,81.77 C560.553765,81.2618517 561.470755,80.6337303 562.3,79.9 C563.124756,79.168896 563.844859,78.3276542 564.44,77.4 L566.94,79.23 C566.214206,80.3409445 565.343158,81.3498799 564.35,82.23 C563.345607,83.1030573 562.237214,83.8487031 561.05,84.45 C559.815185,85.0757218 558.508959,85.5491869 557.16,85.86 C553.358089,86.7252714 549.384207,86.4327157 545.75,85.02 C543.626375,84.1814873 541.691803,82.9269051 540.06,81.33 C538.437513,79.7202899 537.158391,77.7982059 536.3,75.68 C534.483926,71.0310646 534.483926,65.8689354 536.3,61.22 C537.156461,59.0978338 538.435741,57.1721091 540.06,55.56 C541.691972,53.9633059 543.626499,52.708753 545.75,51.87 C548.015791,50.9742309 550.433684,50.5259699 552.87,50.55 L552.84,50.57 Z M577.37,66.52 C577.817522,65.7778501 578.369891,65.1042291 579.01,64.52 C579.608524,63.9655918 580.281726,63.4977166 581.01,63.13 C581.741933,62.7723554 582.514112,62.5037714 583.31,62.33 C584.098309,62.157196 584.902973,62.070024 585.71,62.07 C587.071534,62.056175 588.425078,62.2795099 589.71,62.73 C590.874371,63.1397693 591.942846,63.7828964 592.85,64.62 C593.729196,65.4607339 594.41209,66.4850755 594.85,67.62 C595.338867,68.8751644 595.579974,70.213141 595.56,71.56 L595.56,85.97 L592.71,85.97 L592.71,72.4 C592.725189,71.3127547 592.556132,70.2307888 592.21,69.2 C591.902865,68.2962073 591.397147,67.4727067 590.73,66.79 C590.060169,66.1191104 589.251087,65.6036195 588.36,65.28 C587.333845,64.9124896 586.249848,64.7329526 585.16,64.75 C584.103955,64.7407627 583.055639,64.9307488 582.07,65.31 C581.136909,65.6685209 580.286376,66.2128618 579.57,66.91 C578.853579,67.6170768 578.285781,68.4602742 577.9,69.39 C577.484705,70.3911358 577.277172,71.4662202 577.29,72.55 L577.29,85.97 L574.44,85.97 L574.44,49.97 L577.29,49.97 L577.37,66.52 Z M614.24,62.07 C615.739645,62.0578434 617.225096,62.3610664 618.6,62.96 C619.916445,63.5365358 621.09825,64.3811685 622.07,65.44 C623.074864,66.5480795 623.858903,67.8378412 624.38,69.24 C624.961897,70.7873162 625.26,72.4268844 625.26,74.08 C625.26,74.3 625.26,74.5033333 625.26,74.69 C625.26,74.8766667 625.26,75.0633333 625.26,75.25 L605.51,75.25 C605.582555,76.5128463 605.89122,77.7508973 606.42,78.9 C606.90221,79.9259214 607.581817,80.8467893 608.42,81.61 C609.236552,82.3524589 610.191408,82.926732 611.23,83.3 C612.317295,83.6904394 613.464747,83.8867587 614.62,83.88 C616.141284,83.905348 617.649754,83.5981934 619.04,82.98 C620.350481,82.375339 621.545138,81.5461859 622.57,80.53 L624.1,82.53 C623.405314,83.235903 622.637683,83.8660978 621.81,84.41 C621.066074,84.8951423 620.271356,85.297531 619.44,85.61 C618.645096,85.9080275 617.820305,86.1192545 616.98,86.24 C616.141618,86.3551602 615.296252,86.4119635 614.45,86.41 C612.823734,86.4264282 611.210005,86.1240663 609.7,85.52 C608.291723,84.9573695 607.014995,84.109622 605.95,83.03 C604.880958,81.9335583 604.047238,80.6302325 603.5,79.2 C602.903191,77.6293008 602.60803,75.9601174 602.63,74.28 C602.612876,72.6082235 602.914946,70.9485376 603.52,69.39 C604.073927,67.9572234 604.906677,66.6486156 605.97,65.54 C607.019597,64.4601696 608.278652,63.6060536 609.67,63.03 C611.118608,62.3982363 612.679693,62.0649328 614.26,62.05 L614.24,62.07 Z M614.24,64.59 C613.113883,64.574925 611.99586,64.782218 610.95,65.2 C609.979834,65.5955828 609.094011,66.172556 608.34,66.9 C607.575287,67.6451298 606.951888,68.522632 606.5,69.49 C606.014365,70.5314102 605.706768,71.6468719 605.59,72.79 L622.42,72.79 C622.334704,71.6376604 622.054035,70.508222 621.59,69.45 C621.170444,68.4842109 620.573455,67.6056878 619.83,66.86 C618.344074,65.3879524 616.331537,64.5706968 614.24,64.59 L614.24,64.59 Z M642.71,62.07 C644.376563,62.0551472 646.02917,62.3747872 647.57,63.01 C649.029055,63.6127582 650.331912,64.5394624 651.38,65.72 L649.53,67.64 C648.640713,66.7422994 647.593103,66.01677 646.44,65.5 C645.237848,64.9806846 643.939398,64.7216761 642.63,64.74 C641.397338,64.7283105 640.175415,64.9699721 639.04,65.45 C637.952251,65.9160401 636.969408,66.596208 636.15,67.45 C635.320126,68.3130014 634.670783,69.3329106 634.24,70.45 C633.324893,72.8903657 633.324893,75.5796343 634.24,78.02 C635.083545,80.2763296 636.819965,82.0851005 639.04,83.02 C640.175415,83.5000279 641.397338,83.7416895 642.63,83.73 C643.959233,83.7440963 645.275859,83.4712206 646.49,82.93 C647.643171,82.4115427 648.695941,81.6938991 649.6,80.81 L651.38,82.76 C650.320436,83.9365604 649.012083,84.8623137 647.55,85.47 C646.012984,86.106257 644.363426,86.4259651 642.7,86.41 C641.034868,86.4303848 639.382471,86.1175854 637.84,85.49 C634.951409,84.3158086 632.673102,82.0049552 631.54,79.1 C630.355503,75.9958239 630.355503,72.5641761 631.54,69.46 C632.668779,66.5499456 634.948081,64.2344642 637.84,63.06 C639.373012,62.402876 641.022112,62.0594551 642.69,62.05 L642.71,62.07 Z M660.96,72.37 L664.78,72.37 L674.68,62.45 L678.28,62.45 L667.08,73.55 L678.46,85.97 L674.84,85.97 L664.76,74.97 L660.94,74.97 L660.94,85.97 L658.09,85.97 L658.09,49.97 L660.94,49.97 L660.96,72.37 Z M216.39,86.1 L216.39,71.1 C216.39,65.44 212.78,61.63 206.97,61.58 C203.599983,61.3621167 200.378103,62.9941271 198.56,65.84 C196.902968,63.0780205 193.868021,61.4435234 190.65,61.58 C187.851197,61.4448284 185.189289,62.7985992 183.65,65.14 L183.65,62.14 L178.44,62.14 L178.44,86.08 L183.7,86.08 L183.7,72.83 C183.7,68.67 186,66.47 189.56,66.47 C193.12,66.47 194.77,68.72 194.77,72.78 L194.77,86.1 L200.03,86.1 L200.03,72.83 C200.03,68.67 202.43,66.47 205.89,66.47 C209.35,66.47 211.15,68.72 211.15,72.78 L211.15,86.1 L216.39,86.1 Z M294.21,62.16 L285.71,62.16 L285.71,54.9 L280.45,54.9 L280.45,62.16 L275.59,62.16 L275.59,66.92 L280.45,66.92 L280.45,77.84 C280.45,83.4 282.6,86.71 288.76,86.71 C291.060744,86.7174327 293.317001,86.0762539 295.27,84.86 L293.77,80.4 C292.372215,81.2325883 290.786101,81.6970684 289.16,81.75 C286.56,81.75 285.7,80.15 285.7,77.75 L285.7,66.92 L294.21,66.92 L294.21,62.16 Z M338.64,61.56 C336.052202,61.4845668 333.630683,62.8315608 332.33,65.07 L332.33,62.16 L327.21,62.16 L327.21,86.1 L332.42,86.1 L332.42,72.68 C332.42,68.68 334.12,66.52 337.53,66.52 C338.645534,66.5038629 339.753311,66.7077482 340.79,67.12 L342.39,62.21 C341.199241,61.7841366 339.944613,61.5643231 338.68,61.56 L338.64,61.56 Z M271.47,64.06 C268.520238,62.3075331 265.128961,61.4397549 261.7,61.56 C255.64,61.56 251.7,64.46 251.7,69.22 C251.7,73.13 254.6,75.53 259.96,76.28 L262.41,76.63 C265.26,77.03 266.62,77.78 266.62,79.13 C266.62,80.98 264.72,82.03 261.16,82.03 C258.287906,82.1212362 255.469096,81.2403578 253.16,79.53 L250.71,83.59 C253.779947,85.7382736 257.465297,86.8298391 261.21,86.7 C268.12,86.7 272.13,83.44 272.13,78.89 C272.13,74.68 268.97,72.48 263.77,71.73 L261.32,71.38 C259.07,71.08 257.26,70.63 257.26,69.03 C257.26,67.28 258.96,66.22 261.82,66.22 C264.416601,66.270522 266.958443,66.9756339 269.21,68.27 L271.47,64.06 Z M411.01,61.56 C408.422202,61.4845668 406.000683,62.8315608 404.7,65.07 L404.7,62.16 L399.54,62.16 L399.54,86.1 L404.75,86.1 L404.75,72.68 C404.75,68.68 406.45,66.52 409.86,66.52 C410.975534,66.5038629 412.083311,66.7077482 413.12,67.12 L414.72,62.21 C413.529241,61.7841366 412.274613,61.5643231 411.01,61.56 Z M343.91,74.13 C343.91,81.39 348.97,86.7 356.68,86.7 C359.806362,86.8546769 362.87754,85.834518 365.29,83.84 L362.79,79.63 C360.989011,81.0015371 358.793642,81.7555377 356.53,81.78 C352.37,81.78 349.32,78.72 349.32,74.12 C349.32,69.52 352.38,66.51 356.53,66.46 C358.793642,66.4844623 360.989011,67.2384629 362.79,68.61 L365.29,64.4 C362.87754,62.405482 359.806362,61.3853231 356.68,61.54 C348.97,61.54 343.91,66.85 343.91,74.11 L343.91,74.13 Z M392.69,74.13 L392.69,62.13 L387.48,62.13 L387.48,65.04 C385.67759,62.7141585 382.859869,61.4059307 379.92,61.53 C373.21,61.53 367.92,66.79 367.92,74.1 C367.92,81.41 373.18,86.67 379.92,86.67 C382.859869,86.7940693 385.67759,85.4858415 387.48,83.16 L387.48,86.06 L392.69,86.06 L392.69,74.13 Z M373.31,74.13 C373.31,69.92 376.06,66.47 380.57,66.47 C384.88,66.47 387.78,69.78 387.78,74.13 C387.78,78.48 384.87,81.79 380.57,81.79 C376.06,81.79 373.31,78.33 373.31,74.13 Z M310.45,61.56 C303.45,61.56 298.53,66.67 298.53,74.13 C298.53,81.74 303.64,86.7 310.8,86.7 C314.37508,86.8252583 317.871012,85.6290944 320.62,83.34 L318.07,79.48 C316.081121,81.0713023 313.616971,81.9513556 311.07,81.98 C307.71,81.98 304.66,80.43 303.91,76.12 L321.69,76.12 C321.74,75.47 321.79,74.82 321.79,74.12 C321.79,66.66 317.13,61.55 310.42,61.55 L310.45,61.56 Z M310.35,66.22 C313.71,66.22 315.86,68.32 316.41,72.03 L303.99,72.03 C304.54,68.57 306.64,66.22 310.35,66.22 Z M441.03,74.13 L441.03,52.54 L435.82,52.54 L435.82,65.06 C434.01759,62.7341585 431.199869,61.4259307 428.26,61.55 C421.55,61.55 416.26,66.81 416.26,74.12 C416.26,81.43 421.52,86.69 428.26,86.69 C431.199869,86.8140693 434.01759,85.5058415 435.82,83.18 L435.82,86.08 L441.03,86.08 L441.03,74.13 Z M447.12,83.89 C447.32604,83.8891917 447.53012,83.9300078 447.72,84.01 C447.902744,84.0880024 448.06902,84.1999845 448.21,84.34 C448.349723,84.4773911 448.461753,84.6403438 448.54,84.82 C448.702386,85.1965732 448.702386,85.6234268 448.54,86 C448.461537,86.1795359 448.349533,86.3424497 448.21,86.48 C448.068566,86.6194613 447.902401,86.7313685 447.72,86.81 C447.53037,86.8908006 447.326121,86.9316503 447.12,86.93 C446.496656,86.9377819 445.929308,86.5713696 445.68,86 C445.518792,85.6231845 445.518792,85.1968155 445.68,84.82 C445.836394,84.4528182 446.130927,84.1618773 446.5,84.01 C446.693302,83.9297393 446.900701,83.8889395 447.11,83.89 L447.12,83.89 Z M447.12,86.59 C447.277938,86.5924804 447.434642,86.561821 447.58,86.5 C447.717775,86.4403431 447.843245,86.3555664 447.95,86.25 C448.412785,85.7856114 448.412785,85.0343886 447.95,84.57 C447.843702,84.4638772 447.718121,84.3790249 447.58,84.32 C447.434471,84.2587387 447.277886,84.2281024 447.12,84.23 C446.958855,84.227865 446.798956,84.258484 446.65,84.32 C446.287933,84.4745938 446.025758,84.7982529 445.949704,85.1845272 C445.87365,85.5708014 445.993561,85.96969 446.27,86.25 C446.379414,86.3569917 446.508437,86.4418754 446.65,86.5 C446.795772,86.5604582 446.952191,86.5910619 447.11,86.59 L447.12,86.59 Z M447.21,84.69 C447.359741,84.6795082 447.508405,84.7219837 447.63,84.81 C447.729834,84.8897314 447.785572,85.0123568 447.78,85.14 C447.783652,85.2494413 447.739915,85.3551384 447.66,85.43 C447.568311,85.5115639 447.452368,85.5607517 447.33,85.57 L447.79,86.1 L447.43,86.1 L447,85.57 L446.86,85.57 L446.86,86.1 L446.56,86.1 L446.56,84.69 L447.21,84.69 Z M446.86,84.95 L446.86,85.33 L447.21,85.33 C447.272046,85.3480556 447.337954,85.3480556 447.4,85.33 C447.446125,85.2987111 447.472644,85.2456736 447.47,85.19 C447.472644,85.1343264 447.446125,85.0812889 447.4,85.05 C447.337954,85.0319444 447.272046,85.0319444 447.21,85.05 L446.86,84.95 Z M421.65,74.12 C421.65,69.91 424.4,66.46 428.91,66.46 C433.22,66.46 436.12,69.77 436.12,74.12 C436.12,78.47 433.22,81.78 428.91,81.78 C424.4,81.78 421.65,78.32 421.65,74.12 Z M245.75,74.12 L245.75,62.12 L240.54,62.12 L240.54,65.03 C238.73759,62.7041585 235.919869,61.3959307 232.98,61.52 C226.27,61.52 220.98,66.78 220.98,74.09 C220.98,81.4 226.24,86.66 232.98,86.66 C235.919869,86.7840693 238.73759,85.4758415 240.54,83.15 L240.54,86.05 L245.75,86.05 L245.75,74.12 Z M226.37,74.12 C226.37,69.91 229.12,66.46 233.63,66.46 C237.94,66.46 240.84,69.77 240.84,74.12 C240.84,78.47 237.94,81.78 233.63,81.78 C229.11,81.79 226.35,78.34 226.35,74.13 L226.37,74.12 Z M682.07,84.77 L681.62,84.77 L681.62,85.97 L681.4,85.97 L681.4,84.77 L680.95,84.77 L680.95,84.56 L682.07,84.56 L682.07,84.77 Z M683.79,85.95 L683.57,85.95 L683.57,84.81 L683.16,85.81 L682.92,85.81 L682.51,84.81 L682.51,85.97 L682.29,85.97 L682.29,84.58 L682.63,84.58 L683.03,85.58 L683.43,84.58 L683.77,84.58 L683.79,85.95 Z" id="Shape" fill="#FFFFFF" fill-rule="nonzero"></path> <rect id="Rectangle" fill="#FF5F00" fill-rule="nonzero" x="80.46" y="45.67" width="31.5" height="56.61"></rect> <path d="M82.46,73.97 C82.4512973,62.9250015 87.5216087,52.4893787 96.21,45.67 C81.4497903,34.0700518 60.2535373,35.7596846 47.5173979,49.5514698 C34.7812585,63.3432551 34.7812585,84.6067449 47.5173979,98.3985302 C60.2535373,112.190315 81.4497903,113.879948 96.21,102.28 C87.5188438,95.4584557 82.4482226,85.0185077 82.46,73.97 L82.46,73.97 Z" id="_Path_" fill="#EB001B" fill-rule="nonzero"></path> <path d="M151.02,96.28 L151.02,95.12 L151.49,95.12 L151.49,94.88 L150.3,94.88 L150.3,95.12 L150.77,95.12 L150.77,96.28 L151.02,96.28 Z M153.33,96.28 L153.33,94.88 L152.97,94.88 L152.55,95.88 L152.13,94.88 L151.77,94.88 L151.77,96.28 L152.03,96.28 L152.03,95.23 L152.42,96.14 L152.69,96.14 L153.08,95.23 L153.08,96.29 L153.33,96.28 Z" id="Shape" fill="#F79E1B" fill-rule="nonzero"></path> <path d="M154.45,73.97 C154.450498,87.7514721 146.583144,100.32382 134.188438,106.348787 C121.793732,112.373755 107.047098,110.793887 96.21,102.28 C104.8946,95.4548318 109.965293,85.0205965 109.965293,73.975 C109.965293,62.9294035 104.8946,52.4951682 96.21,45.67 C107.04568,37.1572267 121.790021,35.5765683 134.183942,41.5990262 C146.577862,47.6214841 154.446671,60.190332 154.45,73.97 L154.45,73.97 Z" id="Path" fill="#F79E1B" fill-rule="nonzero"></path> </g> </g></svg>
