<svg width="216px" height="70px" viewBox="0 0 216 70" version="1.1" xmlns="http://www.w3.org/2000/svg" xmlns:xlink="http://www.w3.org/1999/xlink"> <g id="Page-1" stroke="none" stroke-width="1" fill="none" fill-rule="evenodd"> <g id="vbm_wht01" fill="#FFFFFE"> <path d="M106.952,1.475 L92.518,68.944 L75.065,68.944 L89.501,1.475 L106.952,1.475 Z M180.383,45.04 L189.572,19.704 L194.86,45.04 L180.383,45.04 Z M199.856,68.944 L216,68.944 L201.913,1.475 L187.01,1.475 C183.663,1.475 180.837,3.423 179.581,6.425 L153.396,68.944 L171.722,68.944 L175.362,58.869 L197.754,58.869 L199.856,68.944 Z M154.306,46.916 C154.38,29.108 129.678,28.127 129.85,20.172 C129.901,17.751 132.208,15.178 137.251,14.519 C139.756,14.192 146.643,13.941 154.463,17.54 L157.525,3.233 C153.326,1.707 147.92,0.241 141.199,0.241 C123.949,0.241 111.805,9.413 111.703,22.546 C111.594,32.258 120.37,37.676 126.985,40.906 C133.783,44.214 136.068,46.332 136.039,49.289 C135.994,53.819 130.614,55.814 125.596,55.893 C116.819,56.032 111.727,53.524 107.667,51.632 L104.504,66.415 C108.582,68.289 116.108,69.916 123.917,70 C142.25,70 154.246,60.94 154.306,46.916 L154.306,46.916 Z M82.012,1.475 L53.734,68.944 L35.282,68.944 L21.368,15.099 C20.522,11.782 19.788,10.569 17.217,9.172 C13.027,6.896 6.097,4.76 0,3.435 L0.417,1.475 L30.114,1.475 C33.899,1.475 37.304,3.994 38.163,8.353 L45.513,47.398 L63.676,1.475 L82.012,1.475 L82.012,1.475 Z" id="Fill-1"></path> </g> </g></svg>
