<svg width="184px" height="92px" viewBox="0 0 184 92" version="1.1" xmlns="http://www.w3.org/2000/svg" xmlns:xlink="http://www.w3.org/1999/xlink"> <defs> <polygon id="path-1" points="0.06 0.154 24.883 0.154 24.883 30.269 0.06 30.269"></polygon> </defs> <g id="Page-1" stroke="none" stroke-width="1" fill="none" fill-rule="evenodd"> <g id="vbyvisa_wht"> <g id="Group" transform="translate(0.000000, 0.054000)"> <g id="Group-3" transform="translate(0.000000, 1.946000)"> <mask id="mask-2" fill="white"> <use xlink:href="#path-1"></use> </mask> <g id="Clip-2"></g> <path d="M9.823,30.269 L0,0.154 L4.2,0.154 L8.893,14.99 C10.184,19.052 11.303,22.718 12.106,26.247 L12.198,26.247 C13.047,22.759 14.297,18.961 15.635,15.031 L20.729,0.154 L24.883,0.154 L14.114,30.269 L9.823,30.269" id="Fill-1" fill="#FFFFFE" mask="url(#mask-2)"></path> </g> <path d="M38.469,19.301 C38.52,16.799 37.442,12.909 33.018,12.909 C29.042,12.909 27.303,16.575 26.988,19.301 L38.469,19.301 Z M26.942,22.117 C27.034,27.435 30.425,29.622 34.36,29.622 C37.177,29.622 38.871,29.129 40.35,28.503 L41.021,31.32 C39.633,31.945 37.269,32.662 33.827,32.662 C27.166,32.662 23.19,28.28 23.19,21.756 C23.19,15.233 27.034,10.097 33.329,10.097 C40.391,10.097 42.272,16.311 42.272,20.281 C42.272,21.085 42.18,21.71 42.135,22.117 L26.942,22.117 L26.942,22.117 Z" id="Fill-4" fill="#FFFFFE"></path> <path d="M45.353,17.333 C45.353,14.79 45.307,12.599 45.175,10.586 L48.617,10.586 L48.75,14.831 L48.927,14.831 C49.909,11.928 52.278,10.097 54.917,10.097 C55.359,10.097 55.68,10.143 56.03,10.23 L56.03,13.941 C55.628,13.85 55.227,13.804 54.688,13.804 C51.922,13.804 49.959,15.904 49.42,18.853 C49.329,19.392 49.237,20.017 49.237,20.688 L49.237,32.215 L45.353,32.215 L45.353,17.333" id="Fill-5" fill="#FFFFFE"></path> <path d="M58.354,32.21 L62.294,32.21 L62.294,10.586 L58.354,10.586 L58.354,32.21 Z M62.737,4.51 C62.782,5.852 61.796,6.925 60.235,6.925 C58.852,6.925 57.866,5.852 57.866,4.51 C57.866,3.127 58.893,2.054 60.327,2.054 C61.796,2.054 62.737,3.127 62.737,4.51 L62.737,4.51 Z" id="Fill-6" fill="#FFFFFE"></path> <path d="M67.43,32.215 L67.43,13.58 L64.389,13.58 L64.389,10.586 L67.43,10.586 L67.43,9.558 C67.43,6.523 68.101,3.752 69.931,2.008 C71.406,0.579 73.368,0 75.204,0 C76.592,0 77.791,0.31 78.554,0.625 L78.021,3.661 C77.436,3.391 76.632,3.173 75.514,3.173 C72.169,3.173 71.319,6.121 71.319,9.426 L71.319,10.586 L76.541,10.586 L76.541,13.58 L71.319,13.58 L71.319,32.215 L67.43,32.215" id="Fill-7" fill="#FFFFFE"></path> <path d="M80.42,32.21 L84.35,32.21 L84.35,10.586 L80.42,10.586 L80.42,32.21 Z M84.793,4.51 C84.844,5.852 83.852,6.925 82.291,6.925 C80.908,6.925 79.922,5.852 79.922,4.51 C79.922,3.127 80.954,2.054 82.383,2.054 C83.852,2.054 84.793,3.127 84.793,4.51 L84.793,4.51 Z" id="Fill-8" fill="#FFFFFE"></path> <path d="M102.802,19.301 C102.843,16.799 101.774,12.909 97.351,12.909 C93.376,12.909 91.636,16.575 91.316,19.301 L102.802,19.301 Z M91.275,22.117 C91.367,27.435 94.759,29.622 98.693,29.622 C101.511,29.622 103.204,29.129 104.683,28.503 L105.354,31.32 C103.966,31.945 101.592,32.662 98.159,32.662 C91.499,32.662 87.523,28.28 87.523,21.756 C87.523,15.233 91.367,10.097 97.661,10.097 C104.724,10.097 106.6,16.311 106.6,20.281 C106.6,21.085 106.513,21.71 106.462,22.117 L91.275,22.117 L91.275,22.117 Z" id="Fill-9" fill="#FFFFFE"></path> <path d="M124.431,19.392 C124.431,18.899 124.386,18.227 124.253,17.734 C123.673,15.233 121.522,13.178 118.579,13.178 C114.511,13.178 112.101,16.753 112.101,21.537 C112.101,25.915 114.241,29.53 118.492,29.53 C121.121,29.53 123.536,27.791 124.253,24.837 C124.386,24.303 124.431,23.769 124.431,23.144 L124.431,19.392 Z M128.366,0.493 L128.366,26.627 C128.366,28.549 128.407,30.735 128.539,32.215 L125.016,32.215 L124.833,28.463 L124.741,28.463 C123.536,30.872 120.902,32.703 117.368,32.703 C112.142,32.703 108.125,28.28 108.125,21.71 C108.079,14.516 112.549,10.097 117.821,10.097 C121.121,10.097 123.358,11.663 124.339,13.403 L124.431,13.403 L124.431,0.493 L128.366,0.493 L128.366,0.493 Z" id="Fill-10" fill="#FFFFFE"></path> <path d="M146.99,23.546 C146.99,24.034 147.082,24.527 147.173,24.974 C147.931,27.7 150.204,29.576 153.066,29.576 C157.18,29.576 159.636,26.225 159.636,21.268 C159.636,16.936 157.397,13.224 153.204,13.224 C150.524,13.224 148.022,15.055 147.214,18.05 C147.122,18.497 146.99,19.031 146.99,19.656 L146.99,23.546 Z M142.923,32.215 C143.015,30.735 143.101,28.549 143.101,26.627 L143.101,0.493 L146.99,0.493 L146.99,14.073 L147.082,14.073 C148.465,11.663 150.966,10.097 154.454,10.097 C159.818,10.097 163.611,14.567 163.571,21.131 C163.571,28.859 158.7,32.703 153.874,32.703 C150.743,32.703 148.241,31.498 146.634,28.64 L146.503,28.64 L146.319,32.215 L142.923,32.215 L142.923,32.215 Z" id="Fill-11" fill="#FFFFFE"></path> <path d="M167.862,10.586 L172.595,23.368 C173.089,24.797 173.628,26.495 173.979,27.791 L174.069,27.791 C174.477,26.495 174.919,24.837 175.458,23.276 L179.744,10.586 L183.903,10.586 L178,26.002 C175.188,33.42 173.267,37.217 170.587,39.541 C168.665,41.235 166.743,41.906 165.763,42.089 L164.776,38.779 C165.763,38.468 167.054,37.843 168.218,36.857 C169.29,36.008 170.628,34.492 171.528,32.479 C171.706,32.077 171.838,31.767 171.838,31.544 C171.838,31.32 171.747,31.005 171.568,30.516 L163.571,10.586 L167.862,10.586" id="Fill-12" fill="#FFFFFE"></path> <path d="M65.218,46.969 L53.3,77.11 L48.475,51.485 C47.921,48.628 45.684,46.969 43.197,46.969 L23.708,46.969 L23.444,48.251 C27.441,49.131 31.986,50.524 34.742,52.013 C36.425,52.938 36.908,53.737 37.452,55.913 L46.594,91.25 L58.705,91.25 L77.263,46.969 L65.218,46.969" id="Fill-13" fill="#FFFFFE"></path> <polyline id="Fill-14" fill="#FFFFFE" points="82.169 46.969 72.702 91.25 84.157 91.25 93.609 46.969 82.169 46.969"></polyline> <path d="M108.644,59.243 C108.679,57.657 110.194,55.969 113.505,55.522 C115.151,55.313 119.667,55.155 124.802,57.505 L126.811,48.124 C124.06,47.122 120.501,46.151 116.098,46.151 C104.77,46.151 96.813,52.181 96.735,60.804 C96.675,67.171 102.431,70.729 106.763,72.854 C111.227,75.015 112.731,76.403 112.701,78.36 C112.681,81.331 109.142,82.631 105.857,82.682 C100.092,82.774 96.751,81.131 94.082,79.896 L92.018,89.597 C94.683,90.823 99.629,91.895 104.759,91.946 C116.774,91.946 124.649,85.998 124.69,76.795 C124.741,65.1 108.532,64.46 108.644,59.243" id="Fill-15" fill="#FFFFFE"></path> <path d="M146.157,46.969 C143.955,46.969 142.099,48.246 141.275,50.219 L124.095,91.25 L136.13,91.25 L138.52,84.635 L153.179,84.635 L154.556,91.25 L165.177,91.25 L155.938,46.969 L146.157,46.969 Z M141.81,75.569 L147.896,58.938 L151.322,75.569 L141.81,75.569 L141.81,75.569 Z" id="Fill-16" fill="#FFFFFE"></path> </g> </g> </g></svg>
