<svg width="26px" height="26px" viewBox="0 0 26 26" version="1.1" xmlns="http://www.w3.org/2000/svg" xmlns:xlink="http://www.w3.org/1999/xlink"> <g id="Page-1" stroke="none" stroke-width="1" fill="none" fill-rule="evenodd"> <g id="Index-page" transform="translate(-539.000000, -3509.000000)" fill="#FFFFFF" fill-rule="nonzero"> <g id="Group-22" transform="translate(112.000000, 3509.000000)"> <g id="phone-call-auricular-symbol-in-black" transform="translate(427.000000, 0.000000)"> <path d="M25.8830299,20.7247023 L25.7536173,20.3347037 C25.4471137,19.4235262 24.4424905,18.473218 23.5195471,18.2228471 L20.1037083,17.2895428 C19.1773865,17.0374825 17.8560157,17.376415 17.1782751,18.0542256 L15.942017,19.2907108 C11.4491929,18.0764614 7.92611872,14.5526311 6.71372698,10.0598538 L7.95003962,8.82331406 C8.62778023,8.14544897 8.96659604,6.82557948 8.71458202,5.89908755 L7.78313823,2.48093184 C7.53112422,1.55612941 6.57924686,0.551321664 5.6699803,0.248140807 L5.28005332,0.11701495 C4.36904309,-0.186165908 3.06979507,0.12044842 2.39210895,0.798259012 L0.542843743,2.64955338 C0.212473805,2.97824001 0.00132692927,3.91835682 0.00132692927,3.92179029 C-0.0633521267,9.7941141 2.23882994,15.4518188 6.3919119,19.6057181 C10.5348043,23.7493715 16.1702736,26.0485974 22.0244637,25.9992209 C22.0550869,25.9992209 23.0222758,25.7914142 23.3526457,25.462673 L25.2019109,23.6130681 C25.879597,22.9353121 26.1861006,21.6358799 25.8830299,20.7247023 Z" id="Path"></path> </g> </g> </g> </g></svg>
