<svg width="512" height="512" viewBox="0 0 512 512" fill="none" xmlns="http://www.w3.org/2000/svg">
<g clip-path="url(#clip0_10312_249)">
<path d="M257.756 273.413C333.137 273.413 394.463 212.087 394.463 136.706C394.463 61.326 333.137 0 257.756 0C182.375 0 121.049 61.326 121.049 136.706C121.049 212.087 182.376 273.413 257.756 273.413ZM257.756 15.029C324.849 15.029 379.433 69.613 379.433 136.706C379.433 203.799 324.849 258.384 257.756 258.384C190.663 258.384 136.078 203.8 136.078 136.706C136.078 69.614 190.663 15.029 257.756 15.029Z" fill="#0078FF"/>
<path d="M257.755 235.574C312.271 235.574 356.623 191.222 356.623 136.707C356.623 82.192 312.271 37.84 257.755 37.84C233.146 37.84 209.562 46.939 191.348 63.461C188.274 66.25 188.043 71.002 190.831 74.076C193.62 77.15 198.373 77.383 201.446 74.593C216.889 60.584 236.887 52.869 257.755 52.869C303.984 52.869 341.594 90.479 341.594 136.707C341.594 182.935 303.984 220.545 257.755 220.545C211.527 220.545 173.918 182.936 173.918 136.707C173.918 122.747 177.415 108.93 184.032 96.75C186.013 93.103 184.663 88.541 181.016 86.56C177.37 84.578 172.808 85.93 170.826 89.576C163.017 103.951 158.889 120.249 158.889 136.707C158.889 191.222 203.24 235.574 257.755 235.574Z" fill="#0078FF"/>
<path d="M254.898 172.111C243.096 171.392 239.854 164.289 239.253 162.62C238.393 159.408 235.471 157.04 231.988 157.04C227.83 157.04 224.459 160.411 224.459 164.57C224.459 165.174 224.538 165.758 224.672 166.321L224.669 166.322C224.676 166.349 224.69 166.401 224.709 166.466C224.801 166.821 224.91 167.169 225.051 167.502C226.441 171.336 232.01 183.231 248.422 186.409V196.408C248.422 200.558 251.787 203.923 255.937 203.923C260.088 203.923 263.452 200.559 263.452 196.408V186.635C270.645 185.383 275.477 182.239 278.498 179.396C284.119 174.106 287.475 166.11 287.475 158.006C287.475 150.391 284.489 132.351 256.826 129.299C251.346 128.694 247.437 126.95 245.206 124.116C243.237 121.613 243.024 118.848 243.024 117.775C243.024 116.453 243.387 104.862 255.937 104.862C264.171 104.862 267.496 110.099 268.121 111.238C269.235 114.004 271.939 115.958 275.103 115.958C279.261 115.958 282.632 112.587 282.632 108.429C282.632 107.193 282.328 106.029 281.8 105L281.804 104.998C279.686 100.394 273.705 93.191 263.451 90.711V80.624C263.451 76.474 260.087 73.109 255.936 73.109C251.786 73.109 248.421 76.474 248.421 80.624V90.679C233.589 94.201 227.993 108.04 227.993 117.774C227.993 128.597 235.112 142.022 255.176 144.236C272.444 146.142 272.444 155.071 272.444 158.005C272.444 161.122 271.329 165.503 268.197 168.45C265.236 171.237 260.764 172.469 254.898 172.111Z" fill="#0078FF"/>
<path d="M130.238 347.994C128.818 346.484 126.837 345.628 124.764 345.628C122.691 345.628 120.711 346.484 119.29 347.994L68.2431 402.262C66.1891 404.446 65.6301 407.641 66.8191 410.392C68.0081 413.144 70.7191 414.925 73.7171 414.925H88.4711V442.214C88.4711 446.364 91.8361 449.729 95.9861 449.729C100.136 449.729 103.501 446.364 103.501 442.214V407.41C103.501 403.26 100.136 399.895 95.9861 399.895H91.1021L124.763 364.109L158.424 399.895H153.54C149.39 399.895 146.025 403.26 146.025 407.41V496.97H103.499V472.273C103.499 468.123 100.134 464.758 95.9841 464.758C91.8341 464.758 88.4691 468.123 88.4691 472.273V504.485C88.4691 508.635 91.8341 512 95.9841 512H153.539C157.689 512 161.054 508.635 161.054 504.485V414.925H175.808C178.805 414.925 181.516 413.144 182.706 410.392C183.895 407.641 183.336 404.445 181.282 402.262L130.238 347.994Z" fill="#0078FF"/>
<path d="M263.229 296.294C261.809 294.784 259.828 293.928 257.755 293.928C255.682 293.928 253.702 294.784 252.281 296.294L201.235 350.563C199.181 352.747 198.621 355.942 199.811 358.693C201 361.445 203.711 363.226 206.709 363.226H221.463V504.485C221.463 508.635 224.828 512 228.978 512H286.533C290.684 512 294.048 508.635 294.048 504.485V363.226H308.802C311.8 363.226 314.51 361.445 315.7 358.693C316.889 355.942 316.329 352.746 314.275 350.563L263.229 296.294ZM286.533 348.197C282.382 348.197 279.018 351.562 279.018 355.712V496.971H236.492V355.711C236.492 351.561 233.127 348.196 228.977 348.196H224.093L257.754 312.41L291.415 348.196L286.533 348.197Z" fill="#0078FF"/>
<path d="M396.221 248.46C394.801 246.95 392.82 246.094 390.747 246.094C388.675 246.094 386.693 246.95 385.273 248.46L334.226 302.728C332.172 304.911 331.612 308.107 332.801 310.858C333.991 313.61 336.701 315.391 339.699 315.391H354.453V361.25C354.453 365.4 357.817 368.765 361.968 368.765C366.119 368.765 369.483 365.4 369.483 361.25V307.877C369.483 303.727 366.119 300.362 361.968 300.362H357.085L390.746 264.576L424.406 300.362H419.523C415.372 300.362 412.008 303.727 412.008 307.877V496.971H369.482V391.309C369.482 387.159 366.118 383.794 361.967 383.794C357.816 383.794 354.452 387.158 354.452 391.309V504.486C354.452 508.636 357.816 512.001 361.967 512.001H419.523C423.674 512.001 427.038 508.636 427.038 504.486V315.391H441.792C444.79 315.391 447.5 313.61 448.69 310.858C449.879 308.107 449.319 304.911 447.265 302.728L396.221 248.46Z" fill="#0078FF"/>
<path d="M92.8052 139.396C92.8052 135.246 89.4402 131.881 85.2902 131.881H41.2152C37.0652 131.881 33.7002 135.246 33.7002 139.396C33.7002 143.546 37.0642 146.911 41.2152 146.911H85.2902C89.4412 146.91 92.8052 143.546 92.8052 139.396Z" fill="#0078FF"/>
<path d="M95.012 198.37L79.336 204.511C75.471 206.025 73.566 210.385 75.08 214.249C76.241 217.213 79.077 219.024 82.079 219.024C82.991 219.024 83.918 218.857 84.818 218.504L100.494 212.363C104.359 210.849 106.264 206.489 104.75 202.625C103.235 198.762 98.875 196.856 95.012 198.37Z" fill="#0078FF"/>
<path d="M79.3363 74.279L95.0123 80.42C95.9133 80.773 96.8393 80.94 97.7513 80.94C100.753 80.94 103.589 79.128 104.75 76.165C106.264 72.301 104.359 67.941 100.494 66.427L84.8183 60.286C80.9523 58.772 76.5943 60.678 75.0803 64.542C73.5663 68.405 75.4723 72.765 79.3363 74.279Z" fill="#0078FF"/>
<path d="M470.785 131.881H426.71C422.559 131.881 419.195 135.246 419.195 139.396C419.195 143.546 422.559 146.911 426.71 146.911H470.785C474.936 146.911 478.3 143.546 478.3 139.396C478.299 135.246 474.935 131.881 470.785 131.881Z" fill="#0078FF"/>
<path d="M411.506 212.365L427.181 218.506C428.082 218.859 429.009 219.026 429.921 219.026C432.923 219.026 435.759 217.214 436.92 214.251C438.434 210.387 436.529 206.027 432.665 204.513L416.99 198.372C413.122 196.858 408.766 198.764 407.251 202.628C405.737 206.49 407.642 210.85 411.506 212.365Z" fill="#0078FF"/>
<path d="M414.25 80.9399C415.162 80.9399 416.09 80.7729 416.99 80.4199L432.665 74.2789C436.529 72.7649 438.434 68.4049 436.92 64.5409C435.405 60.6759 431.044 58.7729 427.181 60.2849L411.506 66.4259C407.642 67.9399 405.737 72.2999 407.251 76.1639C408.412 79.1289 411.248 80.9399 414.25 80.9399Z" fill="#0078FF"/>
</g>
<defs>
<clipPath id="clip0_10312_249">
<rect width="512" height="512" fill="white"/>
</clipPath>
</defs>
</svg>
