<svg id="Layer_1" viewBox="0 0 64 64" xmlns="http://www.w3.org/2000/svg" data-name="Layer 1"><g><circle cx="32" cy="32" fill="#ffcf00" r="16"/><path d="m32 13c2.1-1.85 3-5.02 3-7.62 0-2.59-1.5-3.38-3-3.38s-3 .79-3 3.38.9 5.76 3 7.62z" fill="#ffc000"/><path d="m22.5 15.55c1.06-2.36.66-4.86-.4-6.7s-2.8-1.85-4.1-1.1-2.16 2.26-1.1 4.1 3.02 3.44 5.6 3.7z" fill="#ffc000"/><path d="m15.2 22.5c-.56-2.74-2.91-5.11-5.2-6.41s-3.76-.39-4.52.91c-.77 1.3-.83 2.99 1.46 4.29s5.56 2.1 8.26 1.21z" fill="#ffc000"/><path d="m13 32c-1.51-2.1-3.88-3-6-3s-3 1.5-3 3 .88 3 3 3 4.49-.9 6-3z" fill="#ffc000"/><path d="m15.2 41.5c-2.71-.89-5.97-.09-8.26 1.21s-2.23 2.99-1.46 4.29 2.23 2.2 4.52.91 4.64-3.66 5.2-6.41z" fill="#ffc000"/><g fill="#ffcf00"><path d="m22.5 48.46c-2.58.26-4.54 1.86-5.6 3.7s-.2 3.35 1.1 4.1 3.04.74 4.1-1.1 1.46-4.33.4-6.7z"/><path d="m32 51c-2.1 1.85-3 5.02-3 7.62s1.5 3.38 3 3.38 3-.79 3-3.38-.9-5.76-3-7.62z"/><path d="m41.5 48.45c-1.06 2.36-.66 4.86.4 6.7s2.8 1.85 4.1 1.1 2.16-2.26 1.1-4.1-3.02-3.44-5.6-3.7z"/><path d="m48.8 41.5c.56 2.74 2.91 5.11 5.2 6.41s3.76.39 4.52-.91c.77-1.3.83-2.99-1.46-4.29s-5.56-2.1-8.26-1.21z"/><path d="m51 32c1.51 2.1 3.88 3 6 3s3-1.5 3-3-.88-3-3-3-4.49.9-6 3z"/><path d="m48.8 22.5c2.71.89 5.97.09 8.26-1.21s2.23-2.99 1.46-4.29-2.23-2.2-4.52-.91c-2.29 1.3-4.64 3.66-5.2 6.41z"/></g><path d="m41.5 15.54c2.58-.26 4.54-1.86 5.6-3.7s.2-3.35-1.1-4.1-3.04-.74-4.1 1.1-1.46 4.33-.4 6.7z" fill="#ffc000"/></g><path d="m44.3 21.76c-2.19-1.13-4.67-1.76-7.3-1.76-8.84 0-16 7.16-16 16 0 3.9 1.39 7.47 3.7 10.24-5.17-2.65-8.7-8.03-8.7-14.24 0-8.84 7.16-16 16-16 4.94 0 9.36 2.24 12.3 5.76z" fill="#ffc000"/></svg>