<svg height="512" viewBox="0 0 48 48" width="512" xmlns="http://www.w3.org/2000/svg"><g id="Line"><path d="m13.23 18h4.88c.15-.16.31-.3.48-.43l-2.59-6.03z"/><path d="m41 18c-4.291 0-13.798 0-18 0-2.703-.025-5.032 2.256-5 5v7 11c0 2.757 2.243 5 5 5h18c2.757 0 5-2.243 5-5v-18c0-2.757-2.243-5-5-5zm-3 11h-1.068c-.224 2.484-1.265 4.79-2.929 6.589l2.703 2.703c.638.593.15 1.739-.706 1.708-.256 0-.512-.098-.707-.293l-2.761-2.761c-.836.704-4.074 2.341-5.047 2.928-.473.266-1.09.098-1.359-.389-.269-.482-.095-1.092.389-1.359l3.755-2.086c.289-.16.557-.345.823-.533l-3.8-3.8c-.919-.927.484-2.336 1.414-1.414 0 0 3.884 3.883 3.884 3.883 1.297-1.426 2.128-3.229 2.342-5.177h-8.933c-.553 0-1-.447-1-1s.447-1 1-1h5v-2c.004-1.303 1.995-1.312 2 0v2h5c1.305.008 1.311 1.994 0 2.001z"/><path d="m7 30h9v-7c0-1.07.24-2.09.68-3h-4.31l-1.45 3.39c-.516 1.206-2.353.413-1.84-.78 0 0 6-14 6-14 .16-.37.52-.61.92-.61s.76.24.92.61l3.4 7.93c1.767-.934 7.349-.415 9.68-.54v-9c0-2.757-2.243-5-5-5h-18c-2.757 0-5 2.243-5 5v18c0 2.757 2.243 5 5 5z"/></g></svg>