<svg width="490" height="471" viewBox="0 0 490 471" fill="none" xmlns="http://www.w3.org/2000/svg">
<path d="M446.52 174.433C419.266 153.512 383.179 141.99 344.904 141.99C321.761 141.99 299.422 146.21 279.349 154.165C269.316 135.068 252.578 118.156 231.286 105.849C206.218 91.358 176.413 83.699 145.097 83.699C106.822 83.699 70.735 95.221 43.481 116.142C15.441 137.664 0 166.525 0 197.406C0 225.219 12.723 251.69 35.936 272.416L36.331 340.171C36.351 343.707 38.145 347.139 41.292 348.751C45.028 350.666 48.591 350.208 51.204 348.845L121.492 309.616C129.285 310.612 137.207 311.116 145.097 311.116C145.099 311.116 145.101 311.116 145.103 311.116C167.953 311.116 190.374 306.922 210.568 298.942C217.937 313.058 228.964 325.971 243.287 336.966C270.541 357.887 306.629 369.408 344.904 369.408C352.832 369.408 360.799 368.898 368.633 367.892L439.009 404.982C443.003 407.016 445.964 406.519 448.812 404.712C451.761 402.841 453.65 399.688 453.671 396.194L454.066 330.709C477.277 309.984 490 283.511 490 255.699C490 224.818 474.559 195.958 446.52 174.433ZM145.102 291.115C145.1 291.115 145.096 291.115 145.096 291.115C136.953 291.115 128.772 290.513 120.782 289.329C117.921 288.907 115.165 289.736 113.069 291.411L56.23 323.135L55.91 267.95C55.914 267.75 55.91 267.548 55.9 267.346C55.769 264.536 54.462 261.911 52.296 260.115C31.471 242.833 20 220.562 20 197.406C20 145.735 76.119 103.698 145.097 103.698C196.201 103.698 242.404 127.57 261.249 162.7C254.925 166.2 248.915 170.113 243.286 174.433C215.247 195.957 199.806 224.818 199.806 255.699C199.806 264.103 200.96 272.356 203.189 280.355C185.337 287.409 165.442 291.115 145.102 291.115ZM437.703 318.408C435.539 320.204 434.232 322.831 434.101 325.64C434.091 325.822 434.089 326.003 434.089 326.184L433.769 379.613L376.748 349.562C374.676 347.981 371.998 347.21 369.215 347.622C361.223 348.808 353.043 349.409 344.902 349.409C288.414 349.409 240.56 321.215 225.078 282.627C225.014 282.439 224.932 282.256 224.855 282.07C221.574 273.701 219.804 264.852 219.804 255.699C219.804 222.452 243.042 193.196 277.986 176.558C278.011 176.548 278.037 176.542 278.062 176.532C278.453 176.378 278.824 176.194 279.185 175.997C298.294 167.123 320.812 161.99 344.902 161.99C413.88 161.99 469.999 204.028 469.999 255.699C470 278.854 458.529 301.125 437.703 318.408Z" fill="white"/>
<path d="M403.65 222.195H286.155C280.632 222.195 276.155 226.672 276.155 232.195C276.155 237.718 280.632 242.195 286.155 242.195H403.65C409.171 242.195 413.65 237.718 413.65 232.195C413.65 226.672 409.172 222.195 403.65 222.195Z" fill="white"/>
<path d="M403.65 267.469H286.155C280.632 267.469 276.155 271.946 276.155 277.469C276.155 282.992 280.632 287.469 286.155 287.469H403.65C409.171 287.469 413.65 282.992 413.65 277.469C413.65 271.946 409.172 267.469 403.65 267.469Z" fill="white"/>
<path d="M446.52 174.433C419.266 153.512 383.179 141.99 344.904 141.99C321.761 141.99 299.422 146.21 279.349 154.165C269.316 135.068 252.578 118.156 231.286 105.849C206.218 91.358 176.413 83.699 145.097 83.699C106.822 83.699 70.735 95.221 43.481 116.142C15.441 137.664 0 166.525 0 197.406C0 225.219 12.723 251.69 35.936 272.416L36.331 340.171C36.351 343.707 38.145 347.139 41.292 348.751C45.028 350.666 48.591 350.208 51.204 348.845L121.492 309.616C129.285 310.612 137.207 311.116 145.097 311.116C145.099 311.116 145.101 311.116 145.103 311.116C167.953 311.116 190.374 306.922 210.568 298.942C217.937 313.058 228.964 325.971 243.287 336.966C270.541 357.887 306.629 369.408 344.904 369.408C352.832 369.408 360.799 368.898 368.633 367.892L439.009 404.982C443.003 407.016 445.964 406.519 448.812 404.712C451.761 402.841 453.65 399.688 453.671 396.194L454.066 330.709C477.277 309.984 490 283.511 490 255.699C490 224.818 474.559 195.958 446.52 174.433ZM145.102 291.115C145.1 291.115 145.096 291.115 145.096 291.115C136.953 291.115 128.772 290.513 120.782 289.329C117.921 288.907 115.165 289.736 113.069 291.411L56.23 323.135L55.91 267.95C55.914 267.75 55.91 267.548 55.9 267.346C55.769 264.536 54.462 261.911 52.296 260.115C31.471 242.833 20 220.562 20 197.406C20 145.735 76.119 103.698 145.097 103.698C196.201 103.698 242.404 127.57 261.249 162.7C254.925 166.2 248.915 170.113 243.286 174.433C215.247 195.957 199.806 224.818 199.806 255.699C199.806 264.103 200.96 272.356 203.189 280.355C185.337 287.409 165.442 291.115 145.102 291.115ZM437.703 318.408C435.539 320.204 434.232 322.831 434.101 325.64C434.091 325.822 434.089 326.003 434.089 326.184L433.769 379.613L376.748 349.562C374.676 347.981 371.998 347.21 369.215 347.622C361.223 348.808 353.043 349.409 344.902 349.409C288.414 349.409 240.56 321.215 225.078 282.627C225.014 282.439 224.932 282.256 224.855 282.07C221.574 273.701 219.804 264.852 219.804 255.699C219.804 203.017 276.802 161.99 344.902 161.99C413.002 161.99 470 204.028 470 255.699C470 278.854 458.529 301.125 437.703 318.408Z" fill="black"/>
<path d="M403.65 222.195H286.155C280.632 222.195 276.155 226.672 276.155 232.195C276.155 237.718 280.632 242.195 286.155 242.195H403.65C409.171 242.195 413.65 237.718 413.65 232.195C413.65 226.672 409.172 222.195 403.65 222.195Z" fill="black"/>
<path d="M403.65 267.469H286.155C280.632 267.469 276.155 271.946 276.155 277.469C276.155 282.992 280.632 287.469 286.155 287.469H403.65C409.171 287.469 413.65 282.992 413.65 277.469C413.65 271.946 409.172 267.469 403.65 267.469Z" fill="black"/>
</svg>
