<?xml version="1.0" encoding="iso-8859-1"?>
<!-- Generator: Adobe Illustrator 19.0.0, SVG Export Plug-In . SVG Version: 6.00 Build 0)  -->
<svg version="1.1" id="Layer_1" xmlns="http://www.w3.org/2000/svg" xmlns:xlink="http://www.w3.org/1999/xlink" x="0px" y="0px"
	 viewBox="0 0 238.041 238.041" style="enable-background:new 0 0 238.041 238.041;" xml:space="preserve">
<g>
	<path style="fill:#0071BC;" d="M150.055,65.137c-0.092,0.092-0.229,0.138-0.321,0.183c0.55,2.475,0.413,5.088-0.046,7.609
		c1.558,1.742,0.871,5.179-2.154,5.179c-4.308-0.046-8.571-0.046-12.879-0.046c10.45,28.738,24.567,58.943,31.626,88.736
		c3.392-12.971,7.929-25.667,10.084-38.959c3.575-21.817-2.292-36.576-8.388-56.927c-3.346-11.046-2.154-20.396,4.4-27.409
		c-20.488-13.613-43.543-20.58-68.706-16.317c-15.996,2.658-30.297,9.213-42.901,19.388c-4.904,3.988-9.075,8.479-13.934,12.192
		c7.379,0,14.759,0.229,22.092,0.412c2.2,0.092,3.346,1.742,3.438,3.483c0.642,0.458,1.1,1.192,1.192,2.292
		c0,0.275,0.046,0.55,0.046,0.825c0.183,3.117,0,6.325-0.092,9.442c-0.046,1.558-1.375,3.163-3.071,3.071
		c-3.346-0.229-6.692-0.733-10.038-1.283c12.054,27.226,22.001,55.781,33.093,83.511c0.642-1.742,1.329-3.483,1.971-5.225
		c3.438-14.759,7.608-29.884,13.659-43.176c-5.409-10.863-9.763-23.422-11.963-35.155c-4.217-0.321-8.434-0.688-12.65-1.238
		c-1.65-0.229-2.338-1.696-2.017-2.888c-0.183-0.321-0.321-0.688-0.367-1.146c-0.275-2.108-0.504-4.125-0.596-6.233
		c-0.046-0.688-0.046-1.375-0.046-2.063c0-1.788,1.237-2.704,2.567-2.888c0.183-0.458,0.504-0.871,1.054-0.963
		c11.871-1.925,23.972-1.283,35.934-1.146c8.021,0.092,21.267-2.292,28.647,1.283c1.971,0.917,2.017,3.713,0.688,5.133
		C150.238,64.954,150.147,65.045,150.055,65.137z M202.765,36.582c36.668,33.093,44.047,86.903,25.347,131.545
		c-19.984,47.622-67.377,66.185-115.962,69.898c-1.008,0.092-1.742-0.229-2.246-0.733c-53.26-1.146-99.186-40.564-108.216-94.144
		C-6.654,93.784,16.814,44.603,58.615,17.744C107.475-13.653,161.284-0.911,202.765,36.582z M173.522,196.316
		c29.563-28.647,45.147-62.656,35.155-104.09C197.127,126.922,185.577,161.802,173.522,196.316z M147.901,211.212
		c-5.729-10.496-9.213-22.413-13.475-33.505c-4.813-12.513-9.854-24.98-14.346-37.584c-8.709,24.98-17.234,50.143-27.501,74.344
		c10.038,1.558,20.076,2.658,30.251,1.925C131.675,215.795,139.605,213.366,147.901,211.212z M72.961,204.291
		c-14.713-39.555-31.076-78.836-44.23-118.895C6.776,130.405,31.572,179.54,72.961,204.291z"/>
</g>
<g>
</g>
<g>
</g>
<g>
</g>
<g>
</g>
<g>
</g>
<g>
</g>
<g>
</g>
<g>
</g>
<g>
</g>
<g>
</g>
<g>
</g>
<g>
</g>
<g>
</g>
<g>
</g>
<g>
</g>
</svg>
