<svg width="18px" height="18px" viewBox="0 0 18 18" version="1.1" xmlns="http://www.w3.org/2000/svg" xmlns:xlink="http://www.w3.org/1999/xlink"> <g id="Page-1" stroke="none" stroke-width="1" fill="none" fill-rule="evenodd"> <g id="Front" transform="translate(-656.000000, -51.000000)" fill="#FFFFFF" fill-rule="nonzero"> <g id="Section-1" transform="translate(0.000000, -97.000000)"> <g id="Group-2" transform="translate(364.000000, 136.000000)"> <g id="Group" transform="translate(292.000000, 12.000000)"> <path d="M9,0 C4.05670166,0 0,4.05670166 0,9 C0,10.6314697 0.439865121,12.2196808 1.27400207,13.6091766 L0,18 L4.39082336,16.7259979 C5.78031922,17.5601349 7.36853027,18 9,18 C13.9432983,18 18,13.9432983 18,9 C18,4.05670166 13.9432983,0 9,0 Z M14.6269226,12.8027802 L14.2082062,13.2214966 C13.6157684,13.8139343 12.2533264,13.7669678 11.3778534,13.5979156 C8.46688845,13.0356903 5.07307433,9.746109 4.41856385,6.89735412 C4.09446717,5.48616027 4.273407,4.25926209 4.74142458,3.7911072 L5.160141,3.37239074 C5.39126585,3.14140321 5.76672363,3.14167785 5.99757384,3.37239074 L7.67271424,5.04766846 C7.78450011,5.15945433 7.84574891,5.30763244 7.84574891,5.46624756 C7.84574891,5.62486268 7.78450011,5.77317811 7.67271424,5.88455198 L7.25413514,6.30368044 C6.79270936,6.76620485 6.79270936,7.51753234 7.25413514,7.97895812 L10.0203552,10.708786 C10.4831543,11.1715851 11.2321472,11.1721344 11.6956329,10.708786 L12.1143494,10.2902069 C12.3305054,10.0728149 12.7342529,10.0721283 12.9521942,10.2902069 L14.6269226,11.9649353 C14.8543396,12.191391 14.8629913,12.5665741 14.6269226,12.8027802 L14.6269226,12.8027802 Z" id="Shape"></path> </g> </g> </g> </g> </g></svg>
