<svg height="512" viewBox="0 0 152 152" width="512" xmlns="http://www.w3.org/2000/svg"><g id="Layer_2" data-name="Layer 2"><g id="_08.whatsapp" data-name="08.whatsapp"><circle id="background" cx="76" cy="76" fill="#2aa81a" r="76"/><g id="icon" fill="#fff"><path d="m102.81 49.19a37.7 37.7 0 0 0 -60.4 43.62l-4 19.42a1.42 1.42 0 0 0 .23 1.13 1.45 1.45 0 0 0 1.54.6l19-4.51a37.7 37.7 0 0 0 43.6-60.26zm-5.94 47.37a29.56 29.56 0 0 1 -34 5.57l-2.66-1.32-11.67 2.76v-.15l2.46-11.77-1.3-2.56a29.5 29.5 0 0 1 5.43-34.27 29.53 29.53 0 0 1 41.74 0l.13.18a29.52 29.52 0 0 1 -.15 41.58z"/><path d="m95.84 88c-1.43 2.25-3.7 5-6.53 5.69-5 1.2-12.61 0-22.14-8.81l-.12-.11c-8.29-7.74-10.49-14.19-10-19.3.29-2.91 2.71-5.53 4.75-7.25a2.72 2.72 0 0 1 4.25 1l3.07 6.94a2.7 2.7 0 0 1 -.33 2.76l-1.56 2a2.65 2.65 0 0 0 -.21 2.95 29 29 0 0 0 5.27 5.86 31.17 31.17 0 0 0 7.3 5.23 2.65 2.65 0 0 0 2.89-.61l1.79-1.82a2.71 2.71 0 0 1 2.73-.76l7.3 2.09a2.74 2.74 0 0 1 1.54 4.14z"/></g></g></g></svg>