<svg xmlns="http://www.w3.org/2000/svg" xmlns:xlink="http://www.w3.org/1999/xlink" viewBox="0 0 793.93 269.32"><defs><style>.cls-1{fill:none;}.cls-2,.cls-3,.cls-4,.cls-5,.cls-6{fill-rule:evenodd;}.cls-2{fill:url(#Безымянный_градиент);}.cls-3{fill:url(#Безымянный_градиент_2);}.cls-4{fill:url(#Безымянный_градиент_3);}.cls-5{fill:url(#Безымянный_градиент_4);}.cls-6{fill:#ffcb00;}</style><linearGradient id="Безымянный_градиент" x1="65722.44" y1="-18576.41" x2="65722.44" y2="-9076.41" gradientTransform="matrix(0.03, 0, 0, -0.03, -1460.21, -257.28)" gradientUnits="userSpaceOnUse"><stop offset="0" stop-color="#1a8ccb"/><stop offset="1" stop-color="#0c3196"/></linearGradient><linearGradient id="Безымянный_градиент_2" x1="57414.52" y1="-16590.91" x2="57794.52" y2="-9344.91" gradientTransform="matrix(0.03, 0, 0, -0.03, -1460.21, -257.28)" gradientUnits="userSpaceOnUse"><stop offset="0.02" stop-color="#255c35"/><stop offset="1" stop-color="#73bd44"/></linearGradient><linearGradient id="Безымянный_градиент_3" x1="54959.03" y1="-15854.26" x2="55319.03" y2="-16960.26" gradientTransform="matrix(0.03, 0, 0, -0.03, -1460.21, -257.28)" gradientUnits="userSpaceOnUse"><stop offset="0.11" stop-color="#74bb43"/><stop offset="1" stop-color="#1d4f2c"/></linearGradient><linearGradient id="Безымянный_градиент_4" x1="55179.94" y1="-18303.61" x2="51259.94" y2="-15014.61" gradientTransform="matrix(0.03, 0, 0, -0.03, -1460.21, -257.28)" gradientUnits="userSpaceOnUse"><stop offset="0.14" stop-color="#235a32"/><stop offset="1" stop-color="#6bb441"/></linearGradient></defs><g id="Слой_2" data-name="Слой 2"><g id="Слой_1-2" data-name="Слой 1"><g id="id1"><g id="id3"><rect class="cls-1" x="11.71" width="782.22" height="269.32"/><path class="cls-2" d="M103.83,237.63l-1.07,3.4-1.34,3.34-1.56,3.35L98.08,251l-2,3.26-2.24,3.26-2.5,3.2-2.69,3.18,4.08,1.24,4.14,1.08,4.2.91,4.25.76,4.31.6L114,269l4.42.26,4.45.08,11.37-.57,11-1.7,10.66-2.72,10.2-3.74,9.72-4.68L185,250.3l8.56-6.38,7.91-7.2,7.17-7.88,6.41-8.56,5.55-9.16,4.68-9.72L229,191.2l2.75-10.66,1.67-11,.57-11.37-.14-5.92-.46-5.84-.76-5.75-1-5.67-1.33-5.56L228.67,124l-1.87-5.33-2.13-5.19-2.29-26-1.9,7-1,3.43-1.11,3.4-3.43,9.41L211,119.82l-4.34,8.93-4.76,8.67L194,149.81l-8.79,11.76-9.63,11.09L165.17,183,154,192.64,142,201.49l-12.58,8-13.21,7.17-.91,1.67-1,1.59-1.13,1.47-1.25,1.34L110.55,224l-1.5,1.11-1.59,1-1.7.91-.25,2.66-.43,2.67-.54,2.63Zm245.94-62.22-6.1-15.31H304.44l-6.09,15.31H275.19l38.58-94.17h20.58l38.58,94.17Zm-60,70,1.87-.06,1.76-.17,1.64-.28,1.5-.4,1.36-.48,1.25-.57,1.14-.65,1-.74.87-.79.77-.88.65-.94.51-1,.43-1,.28-1.08.17-1.1.06-1.11-.06-1.25-.2-1.13-.28-1-.43-.93-.51-.85-.59-.8-.68-.68-.74-.62-1.7-1.08-1.9-.85-2-.71-2.1-.56-4.11-1-1.9-.51-1.7-.59-.76-.34-.66-.37-.62-.43-.48-.45-.43-.54-.31-.57-.17-.65-.06-.71,0-.53.09-.51.14-.49.2-.48.25-.45.34-.43.4-.39.45-.34.54-.34.6-.29.68-.25.73-.23.83-.17.9-.11,1-.09,1.05,0,1.24.06,1.31.11,1.3.23,1.31.34,1.33.4,1.33.51,1.3.62,1.31.71,2.21-5.47-1.31-.77-1.41-.65-1.53-.57-1.59-.48L296,207l-1.71-.28-1.7-.17-1.7-.06-1.87.06-1.76.2-1.61.28-1.5.37-1.39.48-1.25.6-1.11.65-1,.74-.9.79-.74.88-.65.94-.51,1-.43,1.05-.28,1.07-.17,1.11-.06,1.11.09,1.27.17,1.14.31,1,.39,1,.51.88.6.76.68.71.77.62,1.7,1.08,1.9.88,2,.68,2.1.6,4.13,1,1.9.54,1.7.56.74.37.68.37.6.43.51.45.42.54.31.56.17.66.06.73,0,.51-.08.51-.14.49-.23.45-.26.42-.34.4-.42.4-.45.34-.57.31-.6.28-.68.23-.76.2-.85.17-.91.11-2,.09-1.73-.06-1.76-.23-1.7-.36-1.64-.51-1.59-.6-1.47-.71-1.36-.79-1.22-.88-2.41,5.44.59.48.68.49.74.45.79.42,1.73.77,1.87.68,2,.54,2.09.37,2.19.25Zm48.67-14.8-.06-1.64-.22-1.59-.34-1.48-.46-1.41-.59-1.31L336,221.9l-.82-1.14-.91-1-1-.91-1.13-.82-1.2-.68-1.27-.59-1.36-.46-1.42-.34-1.5-.2-1.56-.05-1.59.05-1.5.23-1.47.34-1.39.46-1.31.59-1.22.71-1.13.82-1.05.94-.93,1-.85,1.1-.71,1.22-.6,1.3-.48,1.36-.37,1.45-.2,1.53-.08,1.59L309,232l.2,1.53.37,1.44.48,1.39.63,1.31.73,1.22.85,1.13,1,1,1.1.94,1.19.82,1.31.71,1.41.59,1.5.48,1.59.34,1.7.23,1.76.06,1.84-.06,1.7-.23,1.65-.39.76-.23.77-.28.71-.32.68-.34.68-.39.62-.43.6-.45.56-.48.54-.54.51-.57-3.63-4.14-.79.74-.4.34-.42.31-.46.29-.45.25-.45.23-.48.2-.49.19-.51.15-1.07.25-1.11.14-1.19.06-.91,0-.9-.11-.85-.14-.8-.23-.76-.26-.71-.31-.68-.39-.63-.43-.56-.45-.54-.54-.48-.57-.4-.62-.37-.65-.31-.68-.26-.74-.17-.77h22.6l0-.51,0-.54,0-.51Zm-14.57-9.47.82,0,.8.09.73.17.71.22.68.26.65.34.6.39.54.43.51.48.48.54.4.57.36.62.32.65.22.71.2.74.14.76H315.64l.14-.79.2-.74.28-.68.31-.68.37-.59.43-.6.45-.51.51-.51.57-.42.59-.37.63-.34.68-.29.71-.19.73-.17.8-.09Zm27.47-.88V216h-6.41v28.83h6.75v-14l0-1.07.11-1,.2-.93.22-.88.34-.79.37-.74.46-.65.54-.6.56-.51.63-.45.68-.4.73-.31.8-.26.85-.17L359,222l1,0h.34l.4,0,.39.06.43.08v-6.43l-1.76.05-1.59.23-.76.14-.74.2-.68.23-.68.28-.62.31-.6.32-.56.39-.51.4-.49.45-.45.48-.43.52Zm56-4.22-7.85,21.37L391.72,216h-5.67l-7.94,21.29L370.52,216h-6.35l10.54,28.83h6.49L388.77,225l7.43,19.87h6.49L413.32,216Zm14-4.73.45,0,.46-.06.42-.11.4-.14.4-.17.34-.2.34-.26.28-.25.28-.31.23-.32.23-.34.17-.37.14-.39.08-.4.06-.42,0-.46,0-.39-.06-.4-.11-.37-.14-.37-.17-.34-.2-.31-.26-.31-.25-.29-.31-.22-.34-.23-.34-.2-.4-.17-.4-.11-.42-.09-.43-.05-.45,0-.45,0-.46.05-.42.09-.4.14-.37.17-.37.2-.31.23-.31.28-.28.28-.23.31-.23.35-.17.34-.14.36-.11.4-.06.4,0,.42,0,.43.06.39.11.4.14.37.17.37.23.31.23.31.28.29.31.25.31.26.37.19.37.17.4.12.42.11.46.06ZM418,244.83h6.74V216H418Zm24.49.37,1.47,0,1.42-.11,1.33-.2,1.25-.29,1.16-.34,1.08-.42,1-.48.91-.54.79-.63.68-.68.63-.73.48-.8.4-.82.28-.91.17-.93.06-1-.06-1-.14-.91-.26-.82-.31-.77-.39-.68-.49-.59-.54-.54-.59-.48-.65-.43-.71-.37-1.5-.59-1.62-.46-1.64-.37-3.29-.53-1.5-.29-1.34-.34-1.13-.45-.48-.26-.4-.31-.34-.34-.23-.4-.17-.45,0-.51V224l.08-.31.11-.34.15-.28.22-.29.26-.28.28-.26.37-.22.4-.2.45-.17.48-.17.54-.11.6-.12.65-.08,1.44-.06,1,0,1,.08,1.05.15,1,.22,1.05.29,1,.36,1,.49,1.05.54,2.58-5.11-.51-.28-.54-.28-1.19-.49-1.3-.42-1.39-.37-1.42-.28-1.5-.2-1.47-.14-1.45,0-1.42,0-1.36.14-1.27.2-1.22.25-1.14.37-1,.43-1,.48-.88.56-.76.63-.68.68-.6.74L432,221l-.4.85-.28.91-.17,1-.06,1,.06,1,.14.94.25.85.32.76.42.71.46.6.53.56.63.49.62.42.71.37,1.5.62,1.62.46,1.64.34,3.29.54,1.5.28,1.33.31,1.14.4.48.23.4.31.34.31.22.37.17.42,0,.51v.34l-.08.37-.09.31-.17.32-.2.28-.22.25-.31.26-.34.2-.4.2-.43.17-.51.14-.54.14-.59.08-.65.06-1.5.06-1.37-.06-1.36-.14-1.36-.26-1.33-.34-1.27-.42L435,238l-1.11-.57-1-.6L430.27,242l.51.34.57.34,1.25.59,1.41.57,1.53.48,1.65.37,1.7.31,1.78.17Zm46.15.17,1.87-.06,1.76-.17,1.61-.28,1.5-.4,1.39-.48,1.25-.57,1.13-.65,1-.74.88-.79.76-.88.65-.94.54-1,.4-1,.28-1.08.2-1.1.06-1.11-.09-1.25-.17-1.13-.31-1-.4-.93-.51-.85-.59-.8-.68-.68-.77-.62-1.7-1.08-1.87-.85-2-.71-2.07-.56-4.11-1-1.9-.51-1.7-.59-.74-.34-.68-.37-.59-.43-.51-.45-.43-.54-.28-.57-.2-.65-.06-.71,0-.53.09-.51.14-.49.2-.48.25-.45.34-.43.4-.39.45-.34.54-.34.6-.29.68-.25.73-.23.83-.17.87-.11,1-.09,1.05,0,1.24.06,1.28.11,1.3.23,1.33.34,1.34.4,1.33.51,1.3.62,1.28.71,2.21-5.47-1.3-.77-1.42-.65-1.5-.57-1.59-.48-1.65-.37-1.7-.28-1.7-.17-1.7-.06-1.87.06-1.76.2-1.61.28-1.5.37-1.39.48-1.25.6-1.11.65-1,.74-.88.79-.76.88-.62.94-.54,1-.4,1.05-.28,1.07-.17,1.11-.06,1.11.06,1.27.19,1.14.29,1,.42,1,.51.88.6.76.68.71.76.62,1.71,1.08,1.87.88,2,.68,2.09.6,4.12,1,1.89.54,1.71.56.76.37.68.37.6.43.51.45.39.54.31.56.2.66.06.73,0,.51-.08.51-.15.49-.22.45-.29.42-.34.4-.39.4-.48.34-.54.31-.63.28-.68.23-.76.2-.82.17-.91.11-2,.09-1.76-.06-1.73-.23-1.7-.36-1.67-.51-1.56-.6-1.48-.71-1.36-.79-1.21-.88-2.44,5.44.62.48.68.49.74.45.79.42,1.7.77,1.9.68,2,.54,2.1.37,2.16.25Zm37.56-29.68-1.48.05-1.39.2-.65.15-.65.17-.62.19-.63.26-.59.25-.57.32-.57.34-.51.36-.51.4-.48.43-.48.48-.43.51V216h-6.43v39.29h6.75v-14l.45.49.45.45.51.4.49.39.53.34.54.34.57.29.57.25.59.23.6.2.62.14.65.14,1.31.17,1.36.06,1.53-.06,1.5-.2,1.42-.34,1.36-.45,1.3-.57,1.19-.68,1.14-.82,1-.91.93-1,.8-1.1.73-1.22.6-1.31.45-1.41.34-1.48.23-1.56.06-1.64-.06-1.65-.23-1.55-.34-1.48-.45-1.39-.6-1.3-.73-1.22-.8-1.11-.93-1-1-.9-1.14-.83-1.19-.68-1.3-.56-1.36-.46-1.42-.34-1.5-.2Zm-.77,23.72-.91,0-.85-.12-.82-.2-.79-.28-.77-.34-.71-.42-.65-.49-.59-.56-.57-.6-.48-.68-.43-.76-.34-.8-.28-.85-.23-.91-.11-1-.06-1,.06-1,.11-1,.23-.9.28-.85.34-.8.43-.73.48-.68.57-.63.59-.56.65-.49.71-.42L522,222l.79-.29.82-.19.85-.12.91-.05.91.05.85.12.82.19.79.29.77.34.68.42.65.49.63.56.53.63.49.68.39.73.37.8.26.85.22.9.12,1,0,1,0,1-.12,1-.22.91-.26.85-.37.8-.39.76-.49.68-.53.6-.63.56-.65.49-.68.42-.77.34-.79.28-.82.2-.85.12Zm28.23-19.19V216H547.2v28.83H554v-14l0-1.07.12-1,.2-.93.25-.88.31-.79.4-.74.45-.65.51-.6.57-.51.62-.45.71-.4.74-.31.79-.26.83-.17.9-.11.94,0h.37l.37,0,.39.06.46.08v-6.43l-1.76.05-1.62.23-.76.14-.71.2-.71.23-.65.28-.63.31-.59.32-.57.39-.54.4-.48.45-.45.48-.43.52Zm22.43,19.19,15.87-19.13V216H567.81v5.39h15.5L567.5,240.58v4.25h24.86v-5.42ZM622.8,252.6l-.34.19-.37.17-.4.15-.42.11-.43.11-.42.09-.45,0-.46,0-.34,0-.34,0-.31-.06-.31-.08-.26-.09-.28-.11-.23-.14-.22-.17-.2-.17-.17-.2-.14-.23-.15-.23-.08-.25-.09-.29,0-.28,0-.31,0-.4,0-.37.12-.39.14-.37.2-.37.25-.37.31-.37.37-.37.4-.36.45-.37,1.11-.74,1.33-.74,1.61-.76v-16.9l-.05-1.5-.17-1.42-.29-1.3-.36-1.19-.51-1.11-.57-1-.71-.9-.79-.8-.88-.71-1-.62-1.08-.51-1.16-.42-1.28-.32-1.33-.25-1.45-.14-1.5,0-1.73.05-1.7.17-1.67.26-1.59.4-1.53.51-1.45.62-1.33.71-.62.4-.6.45,2.67,4.9.42-.34.43-.31,1-.57,1-.48,1.11-.39,1.16-.34,1.19-.23,1.19-.14,1.22-.06.88,0,.82.08.76.12.68.2.66.22.59.29.54.34.45.36.43.43.37.48.31.51.25.54.18.62.14.63.08.68,0,.74V228h-7.43l-1.58.06-1.45.11-1.33.23-1.22.28-1.08.34-1,.43L600,230l-.77.54-.68.59-.56.68-.46.71-.37.74-.31.79-.2.82-.11.88,0,.88.06.91.14.9.23.85.31.8.43.76.51.71.56.65.65.6.74.57.82.48.88.39,1,.37,1,.26,1.07.23,1.17.11,1.19,0,1.56-.06,1.44-.2.68-.14.65-.17.63-.2.59-.23.54-.28.54-.28.48-.31.45-.34.43-.4.4-.4.37-.42.31-.46v3.21l-1.11.76-.51.4-.45.4-.4.39-.37.43-.34.42-.28.46-.26.42-.22.46-.2.42-.14.45-.12.46-.08.45-.06.45v.46l0,.62.08.63.15.56.2.54.28.51.31.45.37.46.42.39.49.37.51.32.59.28.63.23.65.17.73.14.77.08.79,0,.71,0,.71-.05.68-.12.68-.14.65-.17.6-.23.59-.22.51-.29Zm-14.14-12.31-.63,0-.59,0-.57-.09-.51-.11-.51-.17-.45-.17-.4-.23-.37-.22-.34-.29-.28-.31-.26-.31-.23-.37-.14-.37-.11-.4-.09-.42,0-.45,0-.4,0-.37.09-.37.14-.34.14-.34.23-.31.25-.31.29-.26.36-.25.43-.23.45-.2.54-.14.63-.14.68-.09.73-.05.83,0h6.94v3.34l-.23.54-.25.51-.31.46-.34.45-.4.4-.4.37-.42.34-.48.28-.49.25-.51.23-.54.2L611,240l-.57.11-.6.09-.59,0Zm38.09-1.81-.39.25-.43.26-.45.2-.46.17-.51.11-.48.09-.54.05-.51,0-.48,0-.42-.05-.43-.09-.4-.11-.34-.14-.34-.2-.28-.23-.28-.25-.23-.29-.2-.34-.2-.34-.14-.4-.11-.39-.09-.46,0-.48,0-.51V221.61h7.71v-5.38H639v-6.58h-6.75v6.58h-4.73v5.38h4.73v13.86l.06,1.17.11,1.1.23,1,.28,1,.37.85.42.82.54.71.6.65.68.57.73.51.83.42.88.34,1,.29,1,.2,1.08.11,1.16,0,.91,0,.87-.09.88-.14.88-.23.8-.28.76-.31.37-.2.34-.2.34-.22.31-.26Zm18.48-22.79-1.72.05-1.71.17-1.67.26-1.59.4-1.53.51-1.44.62-1.33.71-.63.4-.59.45,2.63,4.9.43-.34.45-.31,1-.57,1-.48,1.1-.39,1.16-.34,1.19-.23,1.22-.14,1.22-.06.88,0,.8.08.76.12.71.2.65.22.6.29.51.34.48.36.42.43.37.48.31.51.23.54.2.62.14.63.09.68,0,.74V228h-7.45l-1.56.06-1.45.11-1.33.23-1.22.28-1.07.34-1,.43-.87.51-.74.54-.68.59-.57.68-.45.71-.37.74-.31.79-.2.82-.11.88,0,.88.05.91.15.9.22.85.31.8.43.76.48.71.6.65.65.6.74.57.82.48.88.39.93.37,1,.26,1.11.23,1.13.11,1.19,0,1.59-.06,1.44-.2.69-.14.65-.17.59-.2.6-.23.56-.28.51-.28.52-.31.45-.34.42-.4.4-.4.34-.42.31-.46v3.52h6.38v-16.9l-.06-1.5L678.1,225l-.28-1.3-.37-1.19-.48-1.11-.6-1-.68-.9-.79-.8L674,218l-1-.62-1.08-.51-1.19-.42-1.25-.32-1.33-.25-1.44-.14Zm-.93,24.6-.62,0-.6,0-.57-.09L662,240l-.48-.17-.45-.17-.43-.23-.36-.22-.34-.29-.29-.31-.25-.31-.2-.37-.17-.37-.11-.4-.06-.42,0-.45v-.4l.06-.37.08-.37.12-.34.17-.34.19-.31.26-.31.31-.26.37-.25.4-.23.48-.2.54-.14.59-.14.68-.09.74-.05.82,0h7v3.34l-.22.54-.29.51-.28.46-.37.45-.37.4-.39.37-.43.34-.48.28-.48.25-.51.23-.54.2-.54.17-.59.11-.57.09-.6,0Zm26.33-29,.48,0,.43-.06.43-.11.42-.14.37-.17.37-.2.31-.26.31-.25.26-.31.25-.32.2-.34.17-.37.14-.39.12-.4.05-.42,0-.46,0-.39-.05-.4-.12-.37-.14-.37-.17-.34-.23-.31-.22-.31-.29-.29-.28-.22-.34-.23-.37-.2-.37-.17-.39-.11-.43-.09-.45-.05-.46,0-.45,0-.43.05-.42.09-.43.14-.36.17-.37.2-.31.23-.32.28-.28.28-.23.31-.22.35-.17.34-.15.36-.08.4-.09.4v.85l.09.39.08.4.15.37.17.37.22.31.23.31.28.29.32.25.31.26.37.19.36.17.43.12.42.11.43.06ZM684,255.69l1.16-.06,1.11-.14,1.05-.23,1-.31.88-.4.82-.48.77-.54.68-.65.59-.71.54-.77.43-.85.36-.9.32-1,.19-1,.12-1.1,0-1.16V216h-6.74v29.54l0,.56,0,.51-.08.49-.12.45-.14.4-.17.39-.2.34-.25.29-.26.28-.28.23-.31.2-.37.14-.37.14-.4.08-.42.06h-1l-.54-.06-.54-.08-.51-.14-.48-.14-.46-.2-.45-.23-.4-.25-2,5,.31.2.31.2.34.2.37.14.77.31.79.23.88.17.88.11.9.09Zm43.11-3.09-.34.19-.36.17-.4.15-.43.11-.42.11-.45.09-.46,0-.42,0-.37,0-.31,0-.32-.06-.31-.08-.28-.09-.26-.11-.25-.14-.2-.17-.2-.17-.2-.2-.14-.23-.11-.23-.11-.25-.06-.29-.06-.28v-.71l.09-.37.08-.39.17-.37.2-.37.26-.37.31-.37.34-.37.42-.36.46-.37,1.1-.74,1.33-.74,1.59-.76v-16.9l-.06-1.5-.17-1.42-.25-1.3-.4-1.19-.48-1.11-.59-1-.68-.9-.8-.8-.88-.71-1-.62-1.08-.51-1.16-.42-1.27-.32-1.34-.25-1.44-.14-1.5,0-1.73.05-1.7.17-1.68.26-1.58.4-1.53.51-1.45.62-1.33.71-.63.4-.59.45,2.66,4.9.4-.34.45-.31,1-.57,1.05-.48,1.1-.39,1.14-.34,1.19-.23,1.21-.14,1.22-.06.88,0,.82.08.74.12.71.2.65.22.6.29.51.34.48.36.42.43.37.48.31.51.26.54.17.62.14.63.09.68,0,.74V228H712.8l-1.56.06-1.44.11-1.34.23-1.22.28-1.07.34-1,.43-.85.51-.76.54-.68.59-.57.68-.45.71-.37.74-.28.79-.2.82-.14.88,0,.88,0,.91.15.9.22.85.34.8.4.76.51.71.57.65.65.6.74.57.82.48.88.39,1,.37,1,.26,1.11.23,1.13.11,1.22,0,1.56-.06,1.45-.2.68-.14.65-.17.62-.2.57-.23.57-.28.51-.28.51-.31.45-.34.42-.4.4-.4.34-.42.34-.46v3.21l-1.13.76-.48.4-.46.4-.39.39-.37.43-.34.42-.31.46-.26.42-.2.46-.2.42-.14.45-.11.46-.09.45,0,.45v.46l0,.62.09.63.14.56.23.54.25.51.32.45.36.46.43.39.48.37.51.32.6.28.62.23.65.17.74.14.74.08.82,0,.71,0,.71-.05.68-.12.65-.14.65-.17.62-.23.57-.22.54-.29ZM713,240.29l-.62,0-.6,0-.57-.09-.53-.11-.49-.17-.45-.17-.42-.23-.37-.22-.34-.29-.29-.31-.25-.31-.2-.37-.17-.37-.11-.4-.06-.42,0-.45v-.4l.06-.37.08-.37.12-.34.17-.34.19-.31.26-.31.31-.26.37-.25.4-.23.48-.2.54-.14.62-.14.65-.09.77-.05.79,0h7v3.34l-.23.54-.26.51-.31.46-.34.45-.4.4-.39.37-.43.34-.48.28-.48.25-.51.23-.54.2-.54.17-.57.11-.59.09-.6,0Zm36.17,4.91,1,0,1-.09,1-.14.94-.17.91-.25.87-.32.85-.34.83-.39.76-.48.71-.49.68-.56.65-.6.6-.65.54-.71.48-.74.45-.76-5.18-3-.35.48-.34.48-.36.42-.4.4-.4.34-.42.34-.46.29-.45.25-.45.26-.49.17-.48.17-.51.14-.51.11-.51.06-.54,0h-.51l-.93,0-.88-.12-.85-.2-.82-.25-.77-.34-.71-.43-.68-.48-.59-.54-.57-.62-.48-.68-.46-.74-.34-.79-.28-.88-.23-.91-.11-1-.06-1,.06-1,.11-1,.23-.9.28-.88.34-.8.46-.73.48-.68.57-.63.59-.53.68-.52.71-.39.77-.34.82-.29.85-.19.88-.12.93-.05.51,0,.54.06.51.06.51.11.51.14.48.17.49.2.45.23.45.25.46.29.42.34.4.37.4.39.36.43.34.45.35.51,5.18-3-.45-.8-.48-.73-.54-.71-.6-.65-.65-.6-.68-.54-.71-.51-.76-.45-.83-.4-.85-.34-.87-.28-.91-.26-.94-.2-1-.11-1-.08-1,0-1.67.05-1.62.23-1.53.34-1.47.46-1.36.59-1.31.71-1.19.82-1.08.94-1,1-.85,1.1-.76,1.22-.63,1.31-.48,1.38-.37,1.45-.22,1.53-.06,1.59.06,1.59.22,1.53.37,1.44.48,1.39.63,1.31.76,1.21.85,1.11,1,1.05L739,242l1.19.83,1.31.7,1.36.6,1.47.45,1.53.34,1.62.23ZM787.38,216l-9.1,21.32L769.21,216h-7l12.59,28.94-.49,1.14-.51,1-.25.42-.26.4-.25.37-.29.34-.28.28-.28.26-.31.22-.34.2-.34.14-.34.15-.4.08-.37.09-.43,0-.42,0-.68,0-.68-.09-.68-.17-.65-.23-.63-.28-.59-.34-.54-.4-.54-.45-2.66,5,.34.31.39.29.4.28.42.25.91.46,1,.37,1,.31,1.08.2,1.08.14,1.08.06.87,0,.88-.09.83-.11.82-.2.76-.26.77-.31.74-.37.7-.45.66-.54.68-.62.62-.68.6-.8.59-.87.54-1,.54-1.08.51-1.16L793.87,216ZM311.64,141.9h24.83l-11.7-29.42-.6-2.89h-.23l-.62,2.89ZM424.2,81.3l2.41,0,2.39.2,2.29.31,2.21.43,2.16.57,2.09.71,2.05.82,2,.93,1.87,1.05,1.79,1.14,1.67,1.27,1.56,1.33,1.44,1.45,1.36,1.56,1.25,1.64,1.14,1.76,1,1.81.87,1.9.74,2,.6,2,.48,2.07.34,2.15.2,2.24.05,2.27-.08,2.35-.23,2.27-.37,2.18-.51,2.13-.68,2-.82,2-1,1.93-1.14,1.85-1.24,1.75-1.36,1.62-1.48,1.53L447.68,136,446,137.28l-1.78,1.19-1.9,1.05-2,.94,20.09,34.95H435.26l-16.44-31.5h-14v31.5h-22V81.3Zm-.9,44.27.9,0,.86-.06.85-.14.85-.17.79-.23.79-.28.77-.34.76-.37.71-.43.68-.48.65-.51.6-.54.57-.59.54-.63.48-.65.42-.68.43-.74.34-.76.28-.77.23-.79.2-.82.14-.85.06-.88,0-.88,0-.79-.06-.8-.14-.76-.2-.77-.23-.76-.31-.74-.34-.71-.43-.71-.45-.68-.48-.65-.51-.59-.57-.6-.62-.54-.63-.51-.7-.45-.71-.46-.77-.36-.76-.34-.8-.29-.79-.22-.82-.2-.85-.12-.85-.08-.88,0H404.84v24.77ZM471.71,81.3h21.94v94.11H471.71Zm106.53,94.11-6.1-15.31h-39.2l-6.09,15.31H503.69l38.58-94.17h20.58l38.58,94.17Zm-38.1-33.51H565l-11.7-29.42-.6-2.89h-.23l-.62,2.89Zm71.24-60.6h19.19l44.81,58.39V81.3h21.91v94.11h-19l-45-58.48h0v58.48H611.38Zm139.29,96.46-3.32-.08-3.17-.2-3-.37-2.89-.48-2.75-.63-2.58-.79-2.44-.91-2.3-1.05L726,172.06l-2-1.24-1.85-1.34-1.67-1.39-1.56-1.5L717.56,165l-1.22-1.64-1.1-1.76-.94-1.81-.82-1.84-.71-1.87-.57-1.9-.42-1.93-.31-2-.2-2-.06-2h21.91V147l.06.71.09.71.14.68.14.65.2.66.25.62.26.6.31.59.34.57.37.54.42.51.46.51.48.51.51.45.57.45.59.46.63.39.65.37.65.34,1.45.63,1.55.51,1.68.37,1.78.28,1.9.17,2,.06,2.16,0,2-.14,1.87-.2,1.7-.29,1.56-.37,1.42-.45,1.24-.54.57-.28.51-.31.51-.34.46-.37.45-.4.4-.39.36-.43.34-.45.29-.49.28-.48.23-.54.23-.53.17-.57.14-.57.11-.62.06-.63.08-1.3,0-.79-.11-.74-.17-.71-.23-.68-.14-.34-.17-.31-.17-.31-.17-.31-.42-.57-.49-.57-.56-.51-.63-.51-.68-.48-.73-.48-.8-.43-.85-.42-.9-.4-1-.4-2.18-.73-2.52-.77-2.81-.76-3.17-.77L744,135.38,739.5,134l-4.22-1.44-3.91-1.53-1.85-.85-1.75-.94-1.7-1-1.62-1.08L722.92,126l-1.47-1.27L720,123.34l-1.31-1.45-1.21-1.53-1-1.65-.91-1.72-.71-1.88-.57-1.92-.39-2.07-.26-2.16-.08-2.26.05-2,.2-2,.31-1.93.46-1.84.56-1.79.71-1.72.83-1.68,1-1.58,1.08-1.53,1.19-1.45,1.33-1.33,1.44-1.25,1.59-1.19L726,84.3l1.84-1,2-.91,2.1-.82,2.21-.71,2.32-.56,2.47-.51,2.55-.37,2.69-.26,2.78-.17,2.92-.06,3,.06,2.83.17,2.75.29,2.61.39,2.49.51,2.35.6,2.24.73,2.13.85,2,.94,1.87,1,1.73,1.13,1.62,1.25,1.5,1.33,1.33,1.42,1.25,1.53,1.11,1.62,1,1.7.82,1.78.71,1.87.57,1.93.45,2,.31,2.09.2,2.16.06,2.21H764.82l0-.54,0-.57-.09-.51-.08-.54-.14-.51-.14-.48-.2-.48-.2-.48-.26-.46-.25-.45-.31-.45-.32-.43-.36-.42-.37-.4-.88-.79-.45-.34-.51-.34-.54-.34-.57-.29-.6-.25-.65-.26-1.39-.42-1.5-.31-1.64-.26-1.79-.14-1.93,0-3.31.14-1.48.17-1.39.23-1.27.31-1.16.37-1,.45-1,.51-.82.6-.71.65-.59.71-.51.79-.4.85-.26.94-.17,1,0,1,0,.74.11.71.06.34.11.34.08.31.15.34.14.31.17.28.17.31.2.29.42.56.51.57.57.51.65.51.71.48.82.46.88.45.94.43,1,.42,1.1.4,2.5.76,2.83.77,3.23.76,3.63.74,3.83.85,3.6,1,3.37,1.1,3.18,1.22,3,1.33,2.75,1.45,2.55,1.59,2.33,1.67,1.07.91,1,.93.94,1,.85,1,.82,1.08.71,1.13.68,1.19.6,1.22.51,1.25.45,1.33.4,1.36.31,1.39.23,1.45.17,1.5.14,3.12-.06,2.26-.25,2.19-.37,2.1-.54,2-.71,1.93-.85,1.84-1,1.76-1.14,1.67-1.3,1.61-1.39,1.51-1.56,1.38-1.64,1.28-1.79,1.19-1.9,1.11-2,1-2.15.88-2.24.79-2.36.68-2.43.6-2.55.48-2.61.37-2.72.25-2.81.17ZM122.85,0l-79,79.94,0,0-7.06,7.86-6.32,8.53-5.5,9.13-4.6,9.63-3.68,10.15-2.72,10.6-1.65,10.94-.56,11.31,0,4L12,166l.34,3.91.48,3.85.12.71.19.68.26.68.34.65.79,1.25,1.08,1.16,1.28,1.14,1.53,1,1.78,1,2,.91,2.23.82,2.47.76,5.64,1.31,6.61,1,7.48.76-1.25-3.48-1.1-3.55-.94-3.6-.79-3.68-.6-3.72-.45-3.79L41.22,162l-.09-3.89.11-4.45.37-4.36.57-4.28.79-4.22,1-4.17,1.19-4.06,1.45-4,1.59-3.89L50,121l2-3.65,2.18-3.55,2.32-3.4,2.5-3.29,2.66-3.17L67.46,98,70,95.7V66.93H89V78.21L96,71.72,94.37,57.63,79.91,56l14.46-1.68.42-3.74L96,39.86,97.2,50l.51,4.33L112.14,56,97.71,57.63l-1.64,14L122.85,47,178.24,98l1.9,1.84,1.87,1.88,1.79,1.92,1.73,2,1.67,2,1.59,2.12,1.53,2.16,1.47,2.21,3.8-6.27,3-5.81,1.19-2.72,1-2.61.77-2.49.54-2.38.34-2.27.14-2.15-.09-2.05-.28-1.89-.48-1.82L201,80.08,200,78.52l-1.13-1.47,3,2.89h0ZM56.32,42.26,58,27.81l1.67,14.45L74.1,43.94,59.64,45.61,58,60,56.32,45.61,41.84,43.94ZM73.11,31.18,65,30.25l8.11-.94,1-8.11L75,29.31l8.11.94L75,31.18l-.93,8.14ZM61.65,145.84l.2-.39.2-.46.14-.42.14-.46.09-.45.08-.45,0-.46,0-.45,0-.45,0-.46-.08-.45-.09-.45-.14-.46-.14-.42-.2-.43-.2-.42.2.17.17.17.17.19.17.2.14.2.15.2.11.23.11.22.12.23.08.26.09.22.05.26,0,.22.06.26V142l0,.26,0,.25v.26l-.06.25,0,.26-.05.23-.09.25L63,144l-.12.23-.11.22-.11.23-.15.2-.14.22-.17.17-.17.2-.17.17Zm3.41,16.64.11,2.13.31,2.07.51,2,.71,1.9.88,1.84,1,1.7,1.19,1.62,1.33,1.47,1.5,1.36,1.59,1.19,1.73,1,1.81.88,1.93.71,2,.51,2.07.31,2.13.11,2.12-.11,2.07-.31,2-.51,1.9-.71,1.84-.88,1.7-1,1.61-1.19,1.48-1.36,1.36-1.47,1.19-1.62,1.05-1.7.88-1.84.71-1.9.51-2,.31-2.07.11-2.13-.11-2.12-.31-2.07-.51-2-.71-1.92-.88-1.82-1.05-1.73L102,149.22l-1.36-1.51-1.48-1.33-1.61-1.19-1.7-1.05L94,143.26l-1.9-.71-2-.51L88,141.73l-2.12-.11-2.13.11-2.07.31-2,.51-1.93.71-1.81.88-1.73,1.05-1.59,1.19-1.5,1.33-1.33,1.51-1.19,1.58-1,1.73-.88,1.82L66,156.27l-.51,2-.31,2.07Zm31.6,12.62.74-1.51.68-1.56.54-1.55.48-1.59.34-1.62.25-1.61.15-1.65,0-1.64,0-1.65-.15-1.61-.25-1.65-.34-1.61-.48-1.59-.54-1.56-.68-1.53-.74-1.5.68.59.65.66.6.68.59.68.51.73.51.77.43.76.43.83.34.82.31.82.28.88.23.88.17.88.11.9.09.91,0,.91,0,.91-.09.9-.11.91-.17.91-.23.88-.28.85-.31.85-.34.82-.43.79-.43.8-.51.73-.51.74-.59.71-.6.68-.65.62ZM67.78,126.82l0,1.08L68,129l.26,1,.37,1,.45.93.51.88.62.83.71.76.74.68.82.62.88.54.94.46,1,.37,1,.25,1.08.17,1.07.06,1.11-.06,1.08-.17,1-.25,1-.37.94-.46.87-.54.85-.62.74-.68.71-.76.6-.83.53-.88.46-.93.37-1,.25-1,.17-1.08.06-1.08-.06-1.1-.17-1-.25-1-.37-1-.46-.94-.53-.88-.6-.82-.71-.77-.74-.68-.85-.62-.87-.54-.94-.45-1-.37-1-.26-1.08-.17-1.11,0-1.07,0-1.08.17-1,.26-1,.37-.94.45-.88.54-.82.62-.74.68-.71.77-.62.82-.51.88-.45.94-.37,1-.26,1-.17,1ZM84,133.26l.37-.77.34-.79.31-.8.23-.82.17-.82.14-.82.08-.85,0-.82,0-.86-.08-.85-.14-.82-.17-.82L85,122.6l-.31-.8-.34-.79-.37-.76.34.31.34.31.31.34.29.37.28.37.25.39.23.4.2.43.2.39.14.46.14.42.12.45.08.46.09.45,0,.48,0,.49,0,.45,0,.48-.09.45-.08.46-.12.45-.14.45-.14.43-.2.43-.2.39-.23.4-.25.4-.28.36-.29.37-.31.34-.34.31Zm-19.53,9.07,0-.6-.08-.56-.15-.57-.19-.51-.23-.51-.31-.48-.31-.46-.4-.42-.4-.37-.45-.34-.48-.28-.51-.26-.54-.2-.54-.14-.6-.09-.59,0-.6,0-.56.09-.57.14-.54.2-.48.26-.48.28-.46.34-.42.37-.37.42-.34.46-.28.48-.26.51-.2.51-.14.57-.08.56,0,.6,0,.59.08.6.14.54.2.54.26.51.28.48.34.45.37.4.42.39.46.32.48.31.48.23.54.19.57.15.56.08.6,0,.59,0,.6-.08.54-.15.54-.19.51-.23.48-.31.45-.32.4-.39.4-.4.31-.45.31-.48.23-.51.19-.54.15-.54.08-.6Zm69.93,110.18,7.12-1.62,6.86-2.06,6.63-2.58,6.38-3,6.12-3.51,5.9-4,5.66-4.48,5.39-5,5.19-5.44,4.9-5.95,4.68-6.44,4.45-6.91,4.19-7.43,3.94-7.91L219,168.86l-2,9.58-2.43,9-2.87,8.41-3.31,7.86L204.6,211l-4.19,6.66-4.62,6.13-5.08,5.49-5.49,5-6,4.33-6.37,3.77-6.84,3.21-7.25,2.6-7.71,2L143,251.63Z"/></g><g id="id4"><rect class="cls-1" x="108.26" y="10.6" width="127.3" height="199.36"/><path class="cls-3" d="M115.94,209.91,129.46,202l12.67-8.79,11.76-9.55,10.92-10.21,10-10.74,9.05-11.14,8.08-11.43,7.14-11.59,4.59-8.53,4.08-8.53,3.52-8.45,2.95-8.31,3-10.57L219.26,74l1.08-9.72.17-4.65-.09-4.48-.34-4.33-.57-4.14-.85-4L217.56,39l-1.36-3.52-1.62-3.29-1.87-3.06-2.15-2.77,2,1.7,1.81,1.92,1.68,2.16,1.47,2.38,1.3,2.64L220,39.94,220.9,43l.77,3.32.57,3.57.39,3.77.23,8.3-.57,9.24L221,81.44l3.6-3.35,3.09-3.4,2.58-3.4,2-3.43,1.56-3.46,1-3.48.57-3.52,0-3.54L235,50.29l-1-3.6-1.5-3.63-2-3.63L228,35.74,225,32l-3.55-3.71-4-3.77-10.26-9-3.26-2.95-2-1.93L198,14.34l-3.43,3.75-2.92,3.68-2.44,3.69-2,3.68-.8,1.81-.68,1.85-.56,1.81-.43,1.82-.34,1.81-.2,1.81.4,2.61.62,2.55.83,2.5,1,2.46,1.25,2.44L189.84,55l1.67,2.36,1.9,2.26,8.33,10.07,2,2.29,1.73,2.33,1.41,2.32.6,1.19.51,1.16.45,1.2.37,1.16.31,1.19.23,1.19.14,1.19.09,1.19v1.22l-.06,1.19-.11.82-.12.82-.17.83-.17.82L208,95.39l-1.17,3.68-1.36,3.69-1.56,3.68-1.75,3.71-2,3.72-2.12,3.71-2.27,3.69-8,11.22-9.29,11L168.18,154,157,163.87,145.16,173,133,181.19l-12.38,7.09-12.31,5.84,1.11.56,1,.63,1,.68.85.73.8.8.68.85.62.88.51,1,.45,1,.34,1.08.26,1.13.2,1.16.08,1.25v1.31l-.08,1.36Z"/></g><g id="id5"><rect class="cls-1" x="88.89" y="195" width="23.81" height="26.93"/><path class="cls-4" d="M102.56,221.9l3.57-2.73,2.72-2.8,1.08-1.42.9-1.44.71-1.42.51-1.42.37-1.39.2-1.39.06-1.33-.12-1.3-.25-1.28-.4-1.19-.51-1.16-.62-1.08-.77-1-.88-.94-1-.82-1.08-.74-1.16-.65-1.25-.54-1.33-.39-1.39-.29-1.47-.17H99l-1.59.12-1.62.28-1.67.43-1.7.62-3.49,1.73,1.71,1,1.55,1.08,1.48,1.1L95,202.56l1.25,1.28,1.13,1.3,1,1.39L99.3,208l.79,1.5.68,1.59.6,1.64.45,1.7.34,1.79.26,1.81.14,1.9Z"/></g><g id="id6"><rect class="cls-1" y="159.79" width="99.55" height="107.15"/><path class="cls-5" d="M53.21,200.89H51l2-.28,3.26-.23,3.26,0,3.17.31,3.15.54,3.06.82,3,1.08,3,1.3,2.92,1.59-3-1.16-3-1L68.85,203l-3.06-.71-3.12-.57-3.11-.42L56.38,201Zm23.64,58.48-1.22,1.05-1.33,1-1.45,1-1.56,1-1.67.9-1.79.88-1.9.85-2,.8,2.5.05,2.44-.17,2.32-.34,2.27-.57,2.21-.79,2.12-1,2-1.19,2-1.39,2.1-1.79,2-2,1.93-2.32,1.84-2.55,1.76-2.84,1.64-3.06,1.59-3.35,1.47-3.6.37-1,.37-1,.65-2,.94-3.46.62-3.37.37-3.26.06-3.18-.23-3.06L99,218l-.28-1.47-.37-1.45-.45-1.42-.51-1.41-.6-1.36-1-1.93-1.22-1.82-1.42-1.7-1.61-1.58-1.82-1.45-2-1.33-2.21-1.22-2.41-1.08-2.61-1L77.73,197l-3-.71-3.17-.6-7-.79-7.74-.25-7.23-.2-7.05-.57-6.89-1-6.75-1.36-3.34-.83-3.29-1-1-.28-.93-.34-.91-.34-.88-.37-.85-.43L17,187.6l-.79-.46-.77-.48-1.39-1-1.3-1.08-1.19-1.16-1.08-1.25-1-1.36-.88-1.44-.79-1.53-.68-1.65-.57-1.73L6,172.66l-.34-1.9-.29-2-.14-2.1,0-2.18.22-4.65-1.93,4.31L2,168.32l-1.07,4-.68,3.85L0,179.86l.14,3.51.57,3.35,1,3.17,1.36,3,1.79,2.81L7,198.28l2.55,2.44,3,2.21,3.35,2,3.74,1.82,4.11,1.61,3,1,3.21.87,3.34.8,3.55.68-3.18-.17-3.09-.37-3-.54-3-.71L21.4,209l-3-1.17-3-1.36L12.53,205l-2.81-1.75-2.75-2-2.72-2.18-2.61-2.36,1.28,4.51,1.45,4.17L6,209.28l1.73,3.6,1.9,3.26,2,3,2.16,2.63,2.32,2.39,2.44,2,2.61,1.73,2.75,1.44,2.86,1.14,3,.82,3.18.51,3.34.22,3.46-.08,2.24-.23,2.3-.34,2.38-.45,2.41-.57,2.49-.68,2.53-.82,2.57-.94,2.64-1-2.24,1.16-2.29,1-2.33.9-2.32.8-2.38.68-2.41.54-2.44.42-2.44.28-2.75.2-2.78,0-2.83-.11-2.84-.29-2.89-.42-2.92-.57-3-.71-3-.88.85,2.36,1.19,2.32,1.5,2.3,1.82,2.21,2.06,2.07,2.3,2L29.76,245l2.73,1.59,2.86,1.36,3,1.08,3.15.82,3.2.48,3.29.14,3.32-.25,3.34-.66,3.32-1.1,1.78-.77-.11.14-.14.15-.14.14-.14.17-.17.14-.17.14-.17.14-.2.12-.63.39-.71.4-.79.37-.88.37-2,.68-2.38.62-2.75.57-3.09.51-7.23.82,5.42,4.14,2.6,1.7,2.58,1.45L51.19,262l2.47,1,2.44.71,2.41.45,2.32.23,2.3-.06,2.24-.25,2.21-.54,2.15-.77,2.1-1,2-1.27,2-1.51,1.42-1.24,1.39-1.39,1.36-1.5,1.33-1.62L81,254l-.45.82-.51.8-.54.79-.59.77-.63.73-.71.74Z"/></g><g id="id7"><rect class="cls-1" x="104.26" y="119.28" width="16.44" height="16.44"/><path class="cls-6" d="M104.29,119.28v16.39h16.38V119.28Z"/></g><g id="id8"><rect class="cls-1" x="124.38" y="119.28" width="16.44" height="16.44"/><path class="cls-6" d="M124.38,119.28v16.39h16.39V119.28Z"/></g><g id="id9"><rect class="cls-1" x="124.38" y="99.18" width="16.44" height="16.44"/><path class="cls-6" d="M124.38,115.57h16.39V99.21H124.38Z"/></g><g id="id10"><rect class="cls-1" x="104.26" y="99.18" width="16.44" height="16.44"/><path class="cls-6" d="M120.67,115.57V99.21H104.29v16.36Z"/></g></g></g></g></svg>