<svg xmlns="http://www.w3.org/2000/svg" xmlns:xlink="http://www.w3.org/1999/xlink" width="550" height="470"><style><![CDATA[.DK,.E{mix-blend-mode:multiply}]]></style><defs><linearGradient id="A" x1="275.164" y1="373.115" x2="285.856" y2="377.455" gradientUnits="userSpaceOnUse"><stop offset="0" stop-color="#fff"/><stop offset=".524" stop-color="#eff0f0"/><stop offset="1" stop-color="#e6e7e8"/></linearGradient><path id="B" d="M63.49 259.418l-5.15-2.974a.469.469 0 0 1 0-.888l5.15-2.974a1.7 1.7 0 0 1 1.538 0l5.15 2.974a.469.469 0 0 1 0 .888l-5.15 2.974a1.7 1.7 0 0 1-1.538 0z"/><path id="C" d="M72.294 264.502l-5.152-2.974a.469.469 0 0 1 0-.888l5.15-2.974a1.699 1.699 0 0 1 1.538 0l5.15 2.974a.469.469 0 0 1 0 .888l-5.15 2.974a1.699 1.699 0 0 1-1.538 0z"/><path id="D" d="M423.04 414.53l-36.97-21.345a.737.737 0 0 1 0-1.396l2.37-1.368a2.672 2.672 0 0 1 2.419 0l36.97 21.345a.737.737 0 0 1 0 1.396l-2.37 1.368a2.674 2.674 0 0 1-2.419 0z"/><path id="E" d="M405.876 424.44l-36.97-21.345a.737.737 0 0 1 0-1.396l2.37-1.368a2.673 2.673 0 0 1 2.419 0l36.97 21.345a.737.737 0 0 1 0 1.396l-2.37 1.368a2.674 2.674 0 0 1-2.419 0z"/></defs><path d="M94.213 370.627a20.909 20.909 0 0 1-10.283-2.692l-68.877-38.862a5.722 5.722 0 0 1-.05-9.941l50.423-29.114.663 1.148-50.422 29.114a4.397 4.397 0 0 0 .038 7.638l68.878 38.863a19.66 19.66 0 0 0 19.577-.181l35.02-20.62.673 1.143-35.02 20.62a20.933 20.933 0 0 1-10.62 2.884zm416.167-49.53L350.22 228.4a24.138 24.138 0 0 0-24.063-.028l-116.675 67.172.663 1.15L326.82 229.52a22.807 22.807 0 0 1 22.738.026l160.16 92.697a12.571 12.571 0 0 1 .019 21.747l-99.112 57.6.97.97 98.8-57.432a13.897 13.897 0 0 0-.022-24.041z" fill="#585afa"/><path d="M64.395 296.924L25.697 274.58a3.026 3.026 0 0 1-.375-4.752l47.756-24.346a3.615 3.615 0 0 1 3.251-.135l39.08 19.267c.55.314 1.762 3.46-.616 4.952l-47.147 27.22a3.614 3.614 0 0 1-3.251.135z" fill="#3656a1"/><path d="M64.395 293.514L25.697 271.17c-.833-.48-.73-1.322.233-1.877l47.147-27.22a3.613 3.613 0 0 1 3.251-.135l38.698 22.342c.833.48.73 1.322-.233 1.877l-47.147 27.22a3.614 3.614 0 0 1-3.251.135z" fill="#e2e2e2"/><g fill="#3656a1"><use xlink:href="#B"/><use xlink:href="#C"/><path d="M81.098 269.585l-5.152-2.974a.469.469 0 0 1 0-.888l5.152-2.974a1.699 1.699 0 0 1 1.538 0l5.152 2.974a.469.469 0 0 1 0 .888l-5.152 2.974a1.699 1.699 0 0 1-1.538 0zm8.805 5.083l-5.15-2.974a.469.469 0 0 1 0-.888l5.15-2.974a1.699 1.699 0 0 1 1.538 0l5.15 2.974a.469.469 0 0 1 0 .888l-5.15 2.974a1.699 1.699 0 0 1-1.538 0zM55.054 264.3l-5.152-2.974a.469.469 0 0 1 0-.888l5.152-2.974a1.7 1.7 0 0 1 1.538 0l5.152 2.974a.469.469 0 0 1 0 .888l-5.15 2.974a1.701 1.701 0 0 1-1.538 0zm8.806 5.082l-5.152-2.974a.469.469 0 0 1 0-.888l5.152-2.974a1.7 1.7 0 0 1 1.538 0l5.15 2.975a.469.469 0 0 1 0 .888l-5.15 2.974a1.699 1.699 0 0 1-1.538 0z"/><use xlink:href="#B" x="9.173" y="15.037"/><use xlink:href="#C" x="9.174" y="15.036"/><path d="M46.62 269.16l-5.15-2.974a.469.469 0 0 1 0-.888l5.15-2.974a1.699 1.699 0 0 1 1.538 0l5.152 2.974a.469.469 0 0 1 0 .888l-5.152 2.974a1.7 1.7 0 0 1-1.538 0zm8.804 5.082l-5.152-2.974a.469.469 0 0 1 0-.888l5.152-2.974a1.699 1.699 0 0 1 1.538 0l5.15 2.974a.469.469 0 0 1 0 .888l-5.15 2.974a1.699 1.699 0 0 1-1.538 0zm8.804 5.083l-5.152-2.974a.469.469 0 0 1 0-.888l5.152-2.974a1.699 1.699 0 0 1 1.538 0l5.152 2.974a.469.469 0 0 1 0 .888l-5.15 2.974a1.7 1.7 0 0 1-1.538 0zm-26.044-5.295l-5.152-2.974a.469.469 0 0 1 0-.888l5.152-2.974a1.7 1.7 0 0 1 1.538 0l5.152 2.974a.469.469 0 0 1 0 .888l-5.15 2.974a1.7 1.7 0 0 1-1.538 0zm8.804 5.082l-5.15-2.974a.469.469 0 0 1 0-.888l5.15-2.974a1.701 1.701 0 0 1 1.538 0l5.15 2.974a.469.469 0 0 1 0 .888l-5.15 2.974a1.699 1.699 0 0 1-1.538 0zm8.805 5.083l-5.152-2.974a.469.469 0 0 1 0-.888l5.15-2.974a1.699 1.699 0 0 1 1.538 0l5.152 2.974a.469.469 0 0 1 0 .888l-5.152 2.974a1.699 1.699 0 0 1-1.538 0zm17.24-6.623l-13.587 7.844a.469.469 0 0 0 0 .888l5.152 2.974a1.699 1.699 0 0 0 1.538 0l13.587-7.844a.469.469 0 0 0 0-.888l-5.152-2.974a1.7 1.7 0 0 0-1.538 0zm34.712-13.142l-31.67-18.286a1.713 1.713 0 0 0-1.542.064l-6.906 3.987c-.456.263-.506.662-.1.9l31.672 18.286a1.713 1.713 0 0 0 1.542-.064l6.906-3.987c.456-.264.506-.662.1-.9z"/></g><g class="E" opacity=".3"><path d="M509.51 315.55l-.917.516 40.712 22.885.696-.39-40.49-23z" fill="#a8aeff" opacity=".5"/><path d="M508.93 315.88l-.917.516 40.712 22.885.696-.39-40.49-23z" fill="#a6acfc" opacity=".505"/><path d="M508.35 316.208l-.918.516 40.713 22.884.696-.4-40.49-23z" fill="#a5abfa" opacity=".5"/><path d="M507.77 316.537l-.917.515 40.712 22.885.696-.39-40.49-23.01z" fill="#a3a9f7" opacity=".515"/><path d="M507.2 316.866l-.917.515 40.713 22.885.696-.39-40.492-23.01z" fill="#a1a7f5" opacity=".52"/><path d="M506.61 317.195l-.918.515 40.713 22.885.696-.39-40.49-23.01z" fill="#a0a5f2" opacity=".525"/><path d="M506.03 317.524l-.917.515 40.712 22.885.696-.39-40.49-23.01z" fill="#9ea4f0" opacity=".53"/><path d="M505.452 317.853l-.918.515 40.713 22.885.696-.39-40.49-23.01z" fill="#9ca2ed" opacity=".535"/><path d="M504.872 318.182l-.917.515 40.712 22.885.696-.39-40.49-23.01z" fill="#9ba0eb" opacity=".54"/><path d="M504.292 318.51l-.917.515 40.712 22.885.696-.39-40.49-23.01z" fill="#999ee8" opacity=".545"/><path d="M503.713 318.84l-.918.515 40.713 22.885.696-.39-40.49-23.01z" fill="#979de6" opacity=".55"/><path d="M503.133 319.17l-.917.515 40.712 22.885.696-.39-40.49-23.01z" fill="#969be3" opacity=".555"/><path d="M502.554 319.498l-.918.515 40.713 22.885.696-.39-40.49-23.01z" fill="#9499e1" opacity=".56"/><path d="M501.974 319.826l-.917.516 40.712 22.885.696-.39-40.49-23z" fill="#9298de" opacity=".564"/><path d="M501.394 320.155l-.917.516 40.712 22.884.696-.4-40.49-23z" fill="#9196dc" opacity=".57"/><path d="M500.815 320.484l-.918.516 40.713 22.884.696-.39-40.49-23.01z" fill="#8f94d9" opacity=".574"/><path d="M500.235 320.813l-.917.515 40.712 22.885.696-.39-40.49-23.01z" fill="#8d92d7" opacity=".58"/><path d="M499.655 321.142l-.917.515 40.713 22.885.696-.39-40.492-23.01z" fill="#8c91d4" opacity=".584"/><path d="M499.076 321.47l-.918.515 40.713 22.885.696-.39-40.49-23.01z" fill="#8a8fd2" opacity=".59"/><path d="M498.496 321.8l-.917.515L538.29 345.2l.696-.39-40.49-23.01z" fill="#888dcf" opacity=".594"/><path d="M497.917 322.13l-.918.515 40.713 22.885.696-.39-40.49-23.01z" fill="#878ccd" opacity=".6"/><path d="M497.337 322.458l-.917.515 40.712 22.885.696-.39-40.49-23.01z" fill="#858aca" opacity=".604"/><path d="M496.757 322.787l-.917.515 40.712 22.885.696-.39-40.49-23.01z" fill="#8388c7" opacity=".61"/><path d="M496.178 323.116l-.918.515 40.713 22.885.696-.39-40.49-23.01z" fill="#8286c5" opacity=".614"/><path d="M495.598 323.445l-.917.515 40.712 22.885.696-.39-40.49-23.01z" fill="#8085c2" opacity=".62"/><path d="M495.018 323.774l-.917.515 40.713 22.885.696-.39-40.492-23.01z" fill="#7e83c0" opacity=".624"/><path d="M494.44 324.102l-.917.516 40.712 22.885.696-.39-40.49-23z" fill="#7d81bd" opacity=".63"/><path d="M493.86 324.43l-.917.516 40.712 22.884.696-.39-40.49-23.01z" fill="#7b7fbb" opacity=".634"/><path d="M493.28 324.76l-.918.515 40.713 22.885.696-.39-40.49-23.01z" fill="#797eb8" opacity=".64"/><path d="M492.7 325.09l-.917.515 40.712 22.885.696-.39-40.49-23.01z" fill="#787cb6" opacity=".644"/><path d="M492.12 325.418l-.917.515 40.713 22.885.696-.39-40.492-23.01z" fill="#767ab3" opacity=".65"/><path d="M491.54 325.747l-.918.515 40.713 22.885.696-.39-40.49-23.01z" fill="#7479b1" opacity=".654"/><path d="M490.96 326.076l-.917.515 40.712 22.885.696-.39-40.49-23.01z" fill="#7377ae" opacity=".658"/><path d="M490.382 326.405l-.918.515 40.713 22.885.696-.39-40.49-23.01z" fill="#7175ac" opacity=".663"/><path d="M489.802 326.734l-.917.515 40.712 22.885.696-.39-40.49-23.01z" fill="#6f73a9" opacity=".668"/><path d="M489.222 327.063l-.917.515 40.712 22.885.696-.39-40.49-23.01z" fill="#6e72a7" opacity=".673"/><path d="M488.643 327.392l-.918.515 40.713 22.885.696-.39-40.49-23.01z" fill="#6c70a4" opacity=".678"/><path d="M488.063 327.72l-.917.515 40.712 22.885.696-.39-40.49-23.01z" fill="#6a6ea2" opacity=".683"/><path d="M487.483 328.05l-.917.516 40.713 22.885.696-.39-40.492-23z" fill="#696d9f" opacity=".688"/><path d="M486.904 328.378l-.917.516L526.7 351.78l.696-.39-40.49-23z" fill="#676b9d" opacity=".693"/><path d="M486.324 328.707l-.917.516 40.712 22.884.696-.39-40.49-23.01z" fill="#65699a" opacity=".698"/><path d="M485.745 329.036l-.918.515 40.713 22.885.696-.39-40.49-23.01z" fill="#646797" opacity=".703"/><path d="M485.165 329.365l-.917.515 40.712 22.885.696-.39-40.49-23.01z" fill="#626695" opacity=".708"/><path d="M484.585 329.694l-.917.515 40.712 22.885.697-.39-40.492-23.01z" fill="#606492" opacity=".713"/><path d="M484.006 330.023l-.918.515 40.713 22.885.696-.39-40.49-23.01z" fill="#5f6290" opacity=".718"/><path d="M483.426 330.352l-.917.515 40.712 22.885.696-.39-40.49-23.01z" fill="#5d608d" opacity=".723"/><path d="M482.847 330.68l-.918.515 40.713 22.885.696-.39-40.49-23.01z" fill="#5b5f8b" opacity=".728"/><path d="M482.267 331l-.917.515 40.712 22.885.696-.39-40.49-23.01z" fill="#5a5d88" opacity=".733"/><path d="M481.687 331.34l-.917.515 40.712 22.885.696-.39-40.49-23.01z" fill="#585b86" opacity=".738"/><path d="M481.108 331.668l-.918.515 40.713 22.885.696-.39-40.49-23.01z" fill="#565a83" opacity=".743"/><path d="M480.528 331.997l-.917.515 40.712 22.885.696-.39-40.49-23.01z" fill="#555881" opacity=".748"/><path d="M479.948 332.325l-.917.516 40.713 22.885.696-.39-40.492-23z" fill="#53567e" opacity=".753"/><path d="M479.37 332.654l-.917.516 40.712 22.884.696-.39-40.49-23.01z" fill="#52547c" opacity=".757"/><path d="M478.79 332.983l-.917.515 40.712 22.885.696-.39-40.49-23.01z" fill="#505379" opacity=".762"/><path d="M478.2 333.312l-.918.515 40.713 22.885.696-.39-40.49-23.01z" fill="#4e5177" opacity=".767"/><path d="M477.63 333.64l-.917.515 40.712 22.885.696-.39-40.49-23.01z" fill="#4d4f74" opacity=".772"/><path d="M477.05 333.97l-.917.515 40.712 22.885.697-.39-40.492-23.01z" fill="#4b4e72" opacity=".777"/><path d="M476.47 334.3l-.918.515 40.713 22.885.696-.39-40.49-23.01z" fill="#494c6f" opacity=".782"/><path d="M475.89 334.628l-.917.515 40.712 22.885.696-.39-40.49-23.01z" fill="#484a6d" opacity=".787"/><path d="M475.312 334.957l-.918.515 40.713 22.885.696-.39-40.49-23.01z" fill="#46486a" opacity=".792"/><path d="M474.732 335.286l-.917.515 40.712 22.885.696-.39-40.49-23.01z" fill="#444768" opacity=".797"/><path d="M474.152 335.615l-.917.515 40.712 22.885.696-.39-40.49-23.01z" fill="#434565" opacity=".802"/><path d="M473.573 335.944l-.918.515 40.713 22.885.696-.39-40.49-23.01z" fill="#414362" opacity=".807"/><path d="M472.993 336.273l-.917.515 40.712 22.885.696-.39-40.49-23.01z" fill="#3f4160" opacity=".812"/><path d="M472.413 336.6l-.917.516 40.713 22.885.696-.39-40.492-23z" fill="#3e405d" opacity=".817"/><path d="M471.834 336.93l-.917.516 40.712 22.884.696-.39-40.49-23.01z" fill="#3c3e5b" opacity=".822"/><path d="M471.254 337.26l-.917.515 40.712 22.885.696-.39-40.49-23.01z" fill="#3a3c58" opacity=".827"/><path d="M470.675 337.588l-.918.515 40.713 22.885.696-.39-40.49-23.01z" fill="#393b56" opacity=".832"/><path d="M470.095 337.917l-.917.515 40.712 22.885.696-.39-40.49-23.01z" fill="#373953" opacity=".837"/><path d="M469.515 338.246l-.917.515 40.712 22.885.697-.39-40.492-23.01z" fill="#353751" opacity=".842"/><path d="M468.936 338.575l-.918.515 40.713 22.885.696-.39-40.49-23.01z" fill="#34354e" opacity=".847"/><path d="M468.356 338.904l-.917.515 40.712 22.885.696-.39-40.49-23.01z" fill="#32344c" opacity=".852"/><path d="M467.776 339.233l-.917.515 40.713 22.885.696-.39-40.492-23.01z" fill="#303249" opacity=".856"/><path d="M467.197 339.562l-.917.515 40.712 22.885.696-.39-40.49-23.01z" fill="#2f3047" opacity=".86"/><path d="M466.617 339.89l-.917.515 40.712 22.885.696-.39-40.49-23.01z" fill="#2d2f44" opacity=".866"/><path d="M466.038 340.22l-.918.515 40.713 22.885.696-.39-40.49-23.01z" fill="#2b2d42" opacity=".87"/><path d="M465.458 340.55l-.917.515 40.712 22.885.696-.39-40.49-23.01z" fill="#2a2b3f" opacity=".876"/><path d="M464.878 340.877l-.917.516 40.713 22.885.696-.392-40.492-23.01z" fill="#28293d" opacity=".88"/><path d="M464.3 341.206l-.917.515 40.712 22.885.696-.39-40.49-23.01z" fill="#26283a" opacity=".886"/><path d="M463.72 341.535l-.917.515 40.712 22.885.696-.39-40.49-23.01z" fill="#252638" opacity=".89"/><path d="M463.14 341.864l-.918.515 40.713 22.885.696-.39-40.49-23.01z" fill="#232435" opacity=".896"/><path d="M462.56 342.193l-.917.515 40.712 22.885.696-.39-40.49-23.01z" fill="#212232" opacity=".9"/><path d="M461.98 342.522l-.917.515 40.712 22.885.697-.39-40.492-23.01z" fill="#202130" opacity=".906"/><path d="M461.4 342.85l-.918.515 40.713 22.885.696-.39-40.49-23.01z" fill="#1e1f2d" opacity=".91"/><path d="M460.82 343.18l-.917.515 40.712 22.885.696-.39-40.49-23.01z" fill="#1c1d2b" opacity=".916"/><path d="M460.24 343.51l-.917.515 40.713 22.885.696-.39-40.492-23.01z" fill="#1b1c28" opacity=".92"/><path d="M459.662 343.838l-.917.515 40.712 22.885.696-.39-40.49-23.01z" fill="#191a26" opacity=".926"/><path d="M459.082 344.167l-.917.515 40.712 22.885.696-.39-40.49-23.01z" fill="#171823" opacity=".93"/><path d="M458.503 344.496l-.918.515 40.713 22.885.696-.39-40.49-23.01z" fill="#161621" opacity=".936"/><path d="M457.923 344.824l-.917.516 40.712 22.885.696-.39-40.49-23z" fill="#14151e" opacity=".94"/><path d="M457.343 345.153l-.917.515 40.712 22.885.697-.39-40.492-23.01z" fill="#12131c" opacity=".946"/><path d="M456.764 345.482l-.917.515 40.712 22.885.696-.39-40.49-23.01z" fill="#111119" opacity=".95"/><path d="M456.184 345.81l-.917.515 40.712 22.885.696-.39-40.49-23.01z" fill="#0f1017" opacity=".955"/><path d="M455.605 346.14l-.918.515L495.4 369.54l.696-.39-40.49-23.01z" fill="#0d0e14" opacity=".96"/><path d="M455.025 346.47l-.917.515 40.712 22.885.696-.39-40.49-23.01z" fill="#0c0c12" opacity=".965"/><path d="M454.445 346.798l-.917.515 40.712 22.885.697-.39-40.492-23.01z" fill="#0a0a0f" opacity=".97"/><path d="M453.866 347.127l-.918.515 40.713 22.885.696-.39-40.49-23.01z" fill="#08090d" opacity=".975"/><path d="M453.286 347.456l-.917.515 40.712 22.885.696-.39-40.49-23.01z" fill="#07070a" opacity=".98"/><path d="M452.706 347.785l-.917.515 40.713 22.885.696-.39-40.492-23.01z" fill="#050508" opacity=".985"/><path d="M452.127 348.114l-.917.515 40.712 22.885.696-.39-40.49-23.01z" fill="#030305" opacity="1"/><path d="M451.547 348.443l-.917.515 40.712 22.885.696-.39-40.49-23.01z" fill="#020203" opacity=".995"/><path d="M450.968 348.772l-.918.515 40.713 22.885.696-.39-40.49-23.01z"/></g><path d="M449.528 335.375v29.948c0 3.32 2.194 6.642 6.583 9.176 8.778 5.068 23.01 5.068 31.786 0 4.39-2.534 6.583-5.855 6.583-9.176v-29.948z" fill="#3656a1"/><path d="M487.897 344.55c-8.778 5.068-23.01 5.068-31.786 0s-8.778-13.284 0-18.352 23.01-5.067 31.786 0 8.778 13.284 0 18.352z" fill="#585afa"/><path d="M485.28 343.04c-7.33 4.233-19.218 4.233-26.55 0s-7.33-11.096 0-15.328 19.218-4.233 26.55 0 7.33 11.095 0 15.328z" fill="#fefeff"/><g fill="#fb6592"><path d="M489.662 296.088a1.562 1.562 0 0 0-3.03.528 66.623 66.623 0 0 1-.91 11.042 16.938 16.938 0 0 1-1.394 4.382c-2.295 4.86-6.357 7.973-8.37 13.828a59.167 59.167 0 0 1 1.55 12.167 27.963 27.963 0 0 0 6.86-2.327 35.986 35.986 0 0 0 .014-4.722c-.372-5.02 3.224-7.532 5.368-15.13a38.652 38.652 0 0 0 1.175-6.072 30.004 30.004 0 0 0-1.261-13.696zm-25.102 33.32c-.727-2.538-1.12-5.807-4.434-10.573a22.469 22.469 0 0 0-5.198-5.436 17.198 17.198 0 0 0-1.797-1.151 1.092 1.092 0 0 0-1.342 1.678c.313.356.643.746.977 1.15a44.617 44.617 0 0 1 3.652 5.052c3.322 5.405.598 10.257 4.536 16.397.2.298.387.565.58.842a31.331 31.331 0 0 0 5.101 1.078 41.151 41.151 0 0 1-2.077-9.037z"/><path d="M478.757 298.374a36.803 36.803 0 0 0-4.726-16.19 1.916 1.916 0 0 0-3.523 1.345 81.533 81.533 0 0 1 1.49 13.503c.096 4.812-1.428 8.462-3.147 12.1-2.258 4.766-4.855 9.492-4.572 16.757a45.55 45.55 0 0 0 .28 3.528 41.151 41.151 0 0 0 2.077 9.036 13.651 13.651 0 0 0 4.149.649 34.665 34.665 0 0 0 3.87-.237 10.323 10.323 0 0 0 2.851-.822 59.167 59.167 0 0 0-1.55-12.167l-.11-.444c-1.382-5.07 1.12-8.63 2.39-15.524a43.849 43.849 0 0 0 .518-11.526z"/></g><g fill="#3656a1"><path d="M50.517 15.468l59.36 40.242a11.751 11.751 0 0 1 4.448 8.97v31.826c0 3.545-3.122 5.957-5.968 5.008l-6.533-5.808-2.822 11.707-4.868-16.147-43.98-25.39c-2.656-1.534-4.8-5.65-4.8-9.195L42.93 18.832c0-3.97 5.056-5.1 7.586-3.363"/><path d="M47.824 16.5l59.36 40.242a11.751 11.751 0 0 1 4.448 8.97v31.826c0 3.545-2.154 5.174-4.8 3.64l-7.692-4.44-.13 10.675-7.56-15.115-43.98-25.392c-2.656-1.533-4.8-5.65-4.8-9.195V19.917c0-3.736 2.38-5.308 5.172-3.417"/></g><path d="M52.437 33.098l49.244 28.43a4.22 4.22 0 0 1 1.968 3.268v1.755c0 1.178-.88 1.623-1.968.996l-49.244-28.43a4.22 4.22 0 0 1-1.968-3.268v-1.755c0-1.178.88-1.624 1.968-.996zm0 10.69l49.244 28.43a4.22 4.22 0 0 1 1.968 3.268v1.754c0 1.177-.88 1.623-1.968.996l-49.244-28.43a4.22 4.22 0 0 1-1.968-3.268v-1.755c0-1.177.88-1.623 1.968-.996zm0 10.223L91.8 76.737a4.22 4.22 0 0 1 1.968 3.268v1.754c0 1.178-.88 1.623-1.968.996L52.437 60.03a4.221 4.221 0 0 1-1.967-3.269v-1.754c0-1.178.88-1.624 1.967-.996z" fill="#fefeff"/><path d="M373.225 454.992l-52.937-30.563c-1.42-.802-1.203-3.052-.362-3.842l68.263-37.102a3.612 3.612 0 0 1 3.25-.135l53.22 28.293a2.716 2.716 0 0 1-.516 4.147l-67.668 39.068a3.612 3.612 0 0 1-3.25.135z" fill="#3656a1"/><path d="M373.225 452.51l-52.937-30.563c-.833-.48-.728-1.32.233-1.876l67.668-39.068a3.612 3.612 0 0 1 3.25-.135l52.937 30.563c.833.48.728 1.32-.233 1.876l-67.668 39.068a3.612 3.612 0 0 1-3.25.135z" fill="#585afa"/><path d="M378.996 446.28l-47.92-27.667 59.158-34.155 47.92 27.666-59.158 34.156z" fill="#fefeff"/><path d="M428.365 406.474l6.178-3.567-7.798-4.502c1.996-1.83 1.317-4.475-1.84-6.297A14.063 14.063 0 0 0 414 391.046l-7.798-4.502-6.178 3.567z" fill="#fb6592"/><g fill="#e2e2e2"><use xlink:href="#D"/><use xlink:href="#D" x="-8.582" y="4.955"/><use xlink:href="#E"/><use xlink:href="#D" x="-25.746" y="14.865"/><use xlink:href="#E" x="-17.163" y="9.91"/><use xlink:href="#E" x="-25.746" y="14.864"/></g><path d="M259.613 404.288l-11.67-10.598c-5.54-3.333 2.915-8.62 4.684-9.967l9.286-5.77c6.694-3.865 16.82-4.285 22.62-.937l6.378-2.23c4.02 4.683 2.8 13.588-3.69 17.33l-13.33 7.697c-4.237 2.446-9.14 5.986-14.277 4.477z" fill="#3656a1"/><path d="M255.35 401.834l-12.796-7.353c-6.62-3.444 2.352-13.38 6.418-15.374l12.942-7.472c6.694-3.865 16.82-4.285 22.62-.938l4.26 2.46c5.61 3.24 4.908 8.898-1.572 12.64l-14.91 7.723a13.233 13.233 0 0 0-5.944 6.116c-3.85 8.277-7.76 4.078-11.016 2.198z" fill="#585afa"/><path d="M275.242 379.153l-1.432-.827 11.967-6.91 1.432.827-11.967 6.91z" fill="url(#A)"/><g class="E" opacity=".3"><path d="M453.754 132.39l-1.053.59 46.734 26.27.8-.45-46.48-26.412z" fill="#a8aeff" opacity=".5"/><path d="M453.09 132.768l-1.054.592 46.734 26.27.8-.448-46.48-26.413z" fill="#a6acfc" opacity=".505"/><path d="M452.423 133.146l-1.053.59 46.734 26.27.8-.45-46.48-26.412z" fill="#a5abfa" opacity=".5"/><path d="M451.758 133.523l-1.053.592 46.734 26.27.8-.448-46.48-26.413z" fill="#a3a9f7" opacity=".515"/><path d="M451.092 133.9l-1.053.59 46.734 26.27.8-.45-46.48-26.412z" fill="#a1a7f5" opacity=".52"/><path d="M450.427 134.28l-1.053.59 46.734 26.27.8-.45-46.48-26.412z" fill="#a0a5f2" opacity=".525"/><path d="M449.762 134.656l-1.053.592 46.734 26.27.8-.45-46.48-26.412z" fill="#9ea4f0" opacity=".53"/><path d="M449.096 135.034l-1.053.59 46.734 26.27.8-.45-46.48-26.412z" fill="#9ca2ed" opacity=".535"/><path d="M448.43 135.41l-1.053.592 46.734 26.27.8-.448-46.48-26.413z" fill="#9ba0eb" opacity=".54"/><path d="M447.766 135.79l-1.053.59 46.734 26.27.798-.45-46.48-26.412z" fill="#999ee8" opacity=".545"/><path d="M447.1 136.166l-1.053.592 46.734 26.27.8-.448-46.48-26.413z" fill="#979de6" opacity=".55"/><path d="M446.435 136.544l-1.053.59 46.734 26.27.8-.45-46.48-26.412z" fill="#969be3" opacity=".555"/><path d="M445.77 136.922l-1.053.59 46.734 26.27.798-.45-46.48-26.412z" fill="#9499e1" opacity=".56"/><path d="M445.104 137.3l-1.053.59 46.734 26.27.8-.45-46.48-26.412z" fill="#9298de" opacity=".564"/><path d="M444.44 137.677l-1.053.59 46.734 26.27.8-.45-46.48-26.412z" fill="#9196dc" opacity=".57"/><path d="M443.774 138.054l-1.053.592 46.734 26.27.798-.448-46.48-26.413z" fill="#8f94d9" opacity=".574"/><path d="M443.108 138.432l-1.053.59 46.734 26.27.8-.45-46.48-26.412z" fill="#8d92d7" opacity=".58"/><path d="M442.443 138.81l-1.053.592 46.734 26.27.8-.448-46.48-26.413z" fill="#8c91d4" opacity=".584"/><path d="M441.778 139.187l-1.053.59 46.734 26.27.798-.45-46.48-26.412z" fill="#8a8fd2" opacity=".59"/><path d="M441.112 139.565l-1.053.59 46.734 26.27.8-.45-46.48-26.412z" fill="#888dcf" opacity=".594"/><path d="M440.447 139.942l-1.053.59 46.734 26.27.8-.45-46.48-26.412z" fill="#878ccd" opacity=".6"/><path d="M439.782 140.32l-1.053.59 46.734 26.27.798-.45-46.48-26.412z" fill="#858aca" opacity=".604"/><path d="M439.116 140.697l-1.053.592 46.734 26.27.8-.45-46.48-26.412z" fill="#8388c7" opacity=".61"/><path d="M438.45 141.075l-1.053.59 46.734 26.27.8-.45-46.48-26.412z" fill="#8286c5" opacity=".614"/><path d="M437.786 141.452l-1.054.592 46.734 26.27.8-.448-46.48-26.413z" fill="#8085c2" opacity=".62"/><path d="M437.12 141.83l-1.053.59 46.734 26.27.8-.45-46.48-26.412z" fill="#7e83c0" opacity=".624"/><path d="M436.455 142.208l-1.053.59 46.734 26.27.8-.45-46.48-26.412z" fill="#7d81bd" opacity=".63"/><path d="M435.8 142.585l-1.054.59 46.734 26.27.8-.45-46.48-26.412z" fill="#7b7fbb" opacity=".634"/><path d="M435.124 142.963l-1.053.59 46.734 26.27.8-.45-46.48-26.412z" fill="#797eb8" opacity=".64"/><path d="M434.46 143.34l-1.053.592 46.734 26.27.8-.45-46.48-26.412z" fill="#787cb6" opacity=".644"/><path d="M433.793 143.718l-1.053.59 46.734 26.27.8-.45-46.48-26.412z" fill="#767ab3" opacity=".65"/><path d="M433.128 144.095l-1.053.592 46.734 26.27.8-.448-46.48-26.413z" fill="#7479b1" opacity=".654"/><path d="M432.463 144.473l-1.053.59 46.734 26.27.8-.45-46.48-26.412z" fill="#7377ae" opacity=".658"/><path d="M431.797 144.85l-1.053.59 46.734 26.27.8-.45-46.48-26.412z" fill="#7175ac" opacity=".663"/><path d="M431.132 145.228l-1.053.59 46.734 26.27.8-.45-46.48-26.412z" fill="#6f73a9" opacity=".668"/><path d="M430.467 145.606l-1.053.59 46.734 26.27.8-.45-46.48-26.412z" fill="#6e72a7" opacity=".673"/><path d="M429.8 145.983l-1.053.592 46.734 26.27.8-.45-46.48-26.412z" fill="#6c70a4" opacity=".678"/><path d="M429.136 146.36l-1.053.59 46.734 26.27.8-.45-46.48-26.412z" fill="#6a6ea2" opacity=".683"/><path d="M428.47 146.738l-1.053.592 46.734 26.27.8-.448-46.48-26.413z" fill="#696d9f" opacity=".688"/><path d="M427.805 147.116l-1.053.59 46.734 26.27.8-.45-46.48-26.412z" fill="#676b9d" opacity=".693"/><path d="M427.14 147.494l-1.053.59 46.734 26.27.8-.45-46.48-26.412z" fill="#65699a" opacity=".698"/><path d="M426.475 147.87l-1.053.59 46.734 26.27.798-.45-46.48-26.412z" fill="#646797" opacity=".703"/><path d="M425.81 148.25l-1.053.59L471.5 175.1l.8-.45-46.48-26.412z" fill="#626695" opacity=".708"/><path d="M425.144 148.626l-1.053.592 46.734 26.27.8-.45-46.48-26.412z" fill="#606492" opacity=".713"/><path d="M424.48 149.004l-1.053.59 46.734 26.27.798-.45-46.48-26.412z" fill="#5f6290" opacity=".718"/><path d="M423.813 149.38l-1.053.592 46.734 26.27.8-.448-46.48-26.413z" fill="#5d608d" opacity=".723"/><path d="M423.148 149.76l-1.053.59 46.734 26.27.8-.45-46.48-26.412z" fill="#5b5f8b" opacity=".728"/><path d="M422.483 150.136l-1.053.592 46.734 26.27.798-.45-46.48-26.413z" fill="#5a5d88" opacity=".733"/><path d="M421.817 150.514l-1.053.59 46.734 26.27.8-.45-46.48-26.412z" fill="#585b86" opacity=".738"/><path d="M421.152 150.892l-1.053.59 46.734 26.27.8-.45-46.48-26.412z" fill="#565a83" opacity=".743"/><path d="M420.487 151.27l-1.053.592 46.734 26.27.798-.45-46.48-26.412z" fill="#555881" opacity=".748"/><path d="M419.82 151.647l-1.053.59 46.734 26.27.8-.45-46.48-26.412z" fill="#53567e" opacity=".753"/><path d="M419.156 152.024l-1.053.592 46.734 26.27.8-.45-46.48-26.412z" fill="#52547c" opacity=".757"/><path d="M418.49 152.402l-1.053.59 46.733 26.27.8-.45-46.48-26.412z" fill="#505379" opacity=".762"/><path d="M417.825 152.78l-1.053.592 46.734 26.27.8-.45-46.48-26.413z" fill="#4e5177" opacity=".767"/><path d="M417.16 153.157l-1.053.59 46.734 26.27.8-.45-46.48-26.412z" fill="#4d4f74" opacity=".772"/><path d="M416.494 153.535l-1.052.59 46.733 26.27.8-.45-46.48-26.412z" fill="#4b4e72" opacity=".777"/><path d="M415.83 153.912l-1.053.592 46.734 26.27.8-.45-46.48-26.412z" fill="#494c6f" opacity=".782"/><path d="M415.164 154.3l-1.053.59 46.734 26.27.8-.45-46.48-26.412z" fill="#484a6d" opacity=".787"/><path d="M414.498 154.667l-1.053.592 46.734 26.27.8-.45-46.48-26.412z" fill="#46486a" opacity=".792"/><path d="M413.833 155.045l-1.053.59 46.734 26.27.8-.45-46.48-26.412z" fill="#444768" opacity=".797"/><path d="M413.168 155.422l-1.053.592 46.734 26.27.8-.45-46.48-26.413z" fill="#434565" opacity=".802"/><path d="M412.502 155.8l-1.053.59 46.734 26.27.8-.45-46.48-26.412z" fill="#414362" opacity=".807"/><path d="M411.837 156.178l-1.053.59 46.734 26.27.8-.45-46.48-26.412z" fill="#3f4160" opacity=".812"/><path d="M411.172 156.555l-1.053.59 46.734 26.27.8-.45-46.48-26.412z" fill="#3e405d" opacity=".817"/><path d="M410.506 156.933l-1.053.59 46.734 26.27.8-.45-46.48-26.412z" fill="#3c3e5b" opacity=".822"/><path d="M409.84 157.3l-1.053.592 46.734 26.27.8-.45-46.48-26.412z" fill="#3a3c58" opacity=".827"/><path d="M409.176 157.688l-1.053.59 46.734 26.27.8-.45-46.48-26.412z" fill="#393b56" opacity=".832"/><path d="M408.5 158.065l-1.053.592 46.734 26.27.8-.45-46.48-26.413z" fill="#373953" opacity=".837"/><path d="M407.845 158.443l-1.053.59 46.734 26.27.8-.45-46.48-26.412z" fill="#353751" opacity=".842"/><path d="M407.18 158.82l-1.053.59 46.734 26.27.8-.45-46.48-26.412z" fill="#34354e" opacity=".847"/><path d="M406.514 159.198l-1.053.59 46.734 26.27.8-.45-46.48-26.412z" fill="#32344c" opacity=".852"/><path d="M405.85 159.576l-1.053.59 46.734 26.27.8-.45-46.48-26.412z" fill="#303249" opacity=".856"/><path d="M405.184 159.953l-1.053.592 46.734 26.27.8-.45-46.48-26.412z" fill="#2f3047" opacity=".86"/><path d="M404.518 160.33l-1.053.59 46.734 26.27.8-.45-46.48-26.412z" fill="#2d2f44" opacity=".866"/><path d="M403.853 160.708l-1.053.592 46.734 26.27.8-.45-46.48-26.413z" fill="#2b2d42" opacity=".87"/><path d="M403.188 161.086l-1.053.59 46.734 26.27.798-.45-46.48-26.412z" fill="#2a2b3f" opacity=".876"/><path d="M402.522 161.464l-1.053.59 46.734 26.27.8-.45-46.48-26.412z" fill="#28293d" opacity=".88"/><path d="M401.857 161.84l-1.053.59 46.734 26.27.8-.45-46.48-26.412z" fill="#26283a" opacity=".886"/><path d="M401.192 162.22l-1.053.59 46.734 26.27.798-.45-46.48-26.412z" fill="#252638" opacity=".89"/><path d="M400.526 162.596l-1.053.592 46.734 26.27.8-.45-46.48-26.412z" fill="#232435" opacity=".896"/><path d="M399.86 162.974l-1.053.59 46.734 26.27.8-.45-46.48-26.412z" fill="#212232" opacity=".9"/><path d="M399.196 163.35l-1.053.592 46.733 26.27.8-.45-46.48-26.412z" fill="#202130" opacity=".906"/><path d="M398.53 163.73l-1.053.59 46.734 26.27.8-.45-46.48-26.412z" fill="#1e1f2d" opacity=".91"/><path d="M397.865 164.107l-1.053.59 46.734 26.27.8-.45-46.48-26.412z" fill="#1c1d2b" opacity=".916"/><path d="M397.2 164.484l-1.052.59 46.733 26.27.8-.45-46.48-26.412z" fill="#1b1c28" opacity=".92"/><path d="M396.534 164.862l-1.053.59 46.734 26.27.8-.45-46.48-26.412z" fill="#191a26" opacity=".926"/><path d="M395.87 165.24l-1.053.592 46.734 26.27.8-.45-46.48-26.412z" fill="#171823" opacity=".93"/><path d="M395.203 165.617l-1.052.59 46.733 26.27.8-.45-46.48-26.412z" fill="#161621" opacity=".936"/><path d="M394.538 165.994l-1.053.592 46.734 26.27.8-.45-46.48-26.412z" fill="#14151e" opacity=".94"/><path d="M393.873 166.372l-1.053.59 46.734 26.27.8-.45-46.48-26.412z" fill="#12131c" opacity=".946"/><path d="M393.207 166.75l-1.053.59 46.734 26.27.8-.45-46.48-26.412z" fill="#111119" opacity=".95"/><path d="M392.542 167.127l-1.053.59 46.734 26.27.8-.45-46.48-26.412z" fill="#0f1017" opacity=".955"/><path d="M391.877 167.505l-1.053.59 46.734 26.27.8-.45-46.48-26.412z" fill="#0d0e14" opacity=".96"/><path d="M391.21 167.882l-1.053.592 46.734 26.27.8-.45-46.48-26.412z" fill="#0c0c12" opacity=".965"/><path d="M390.546 168.26l-1.053.59 46.734 26.27.8-.45-46.48-26.412z" fill="#0a0a0f" opacity=".97"/><path d="M389.88 168.637l-1.053.592 46.734 26.27.8-.45-46.48-26.412z" fill="#08090d" opacity=".975"/><path d="M389.215 169.015l-1.053.59 46.734 26.27.8-.45-46.48-26.412z" fill="#07070a" opacity=".98"/><path d="M388.55 169.392l-1.053.592 46.734 26.27.8-.45-46.48-26.413z" fill="#050508" opacity=".985"/><path d="M387.885 169.77l-1.053.59 46.734 26.27.8-.45-46.48-26.412z" fill="#030305" opacity="1"/><path d="M387.22 170.148l-1.053.59 46.734 26.27.8-.45-46.48-26.412z" fill="#020203" opacity=".995"/><path d="M386.554 170.525l-1.053.592 46.734 26.27.8-.45-46.48-26.412z"/></g><g fill="#585afa"><path d="M404.812 213.346l-35.96-20.76v-41.522l35.96 20.76v41.522z"/><path d="M404.812 171.824l-35.96-20.76 35.96-20.76 35.96 20.76-35.96 20.76z"/></g><path d="M440.772 192.585l-35.96 20.76v-41.522l35.96-20.76v41.522zm-333.014 9.885L4.643 140.954a6.446 6.446 0 0 1-2.692-5.142L.128 76.277a3.064 3.064 0 0 1 4.515-2.182L109.095 134.4a6.446 6.446 0 0 1 2.691 5.143v59.682c0 3.037-2.148 3.658-4.028 3.246z" fill="#3656a1"/><path d="M107.143 202.21L2.69 141.905A6.445 6.445 0 0 1 0 136.763V77.08c0-1.982 1.205-2.893 2.69-2.035l104.452 60.305a6.445 6.445 0 0 1 2.691 5.142v59.682c0 1.982-1.205 2.893-2.69 2.035z" fill="#daedf9"/><g fill="#6d6afd"><path d="M11.206 136.17l-1.077-.622V87.743l1.077.622v47.806z"/><path d="M99.667 187.245l-89.5-51.673v-1.077l89.5 51.672v1.078z"/><path d="M29.823 129.5l-10.475-6.048v16.337l10.475 6.047V129.5z"/></g><path d="M46.045 131.908L35.57 125.86v23.293l10.474 6.047v-23.293z" fill="#fb6592"/><path d="M62.267 135.312l-10.474-6.047v29.255l10.474 6.047v-29.255z" fill="#6d6afd"/><path d="M78.49 136.895l-10.474-6.048v37.04l10.474 6.047v-37.038z" fill="#fb6592"/><path d="M94.71 141.15l-10.474-6.047v42.147l10.474 6.047V141.15z" fill="#6d6afd"/><path d="M323.82 147.248l-67.762-41.97a5.461 5.461 0 0 1-2.28-4.357l-2.655-79.155a3.505 3.505 0 0 1 4.935-2.415l69.854 40.33a5.461 5.461 0 0 1 2.28 4.357v79.847c-.154 2.783-2.275 3.652-4.372 3.364z" fill="#3656a1"/><path d="M323.187 147.002l-69.855-40.33a5.46 5.46 0 0 1-2.28-4.357V22.467c0-1.68 1.02-2.45 2.28-1.724l69.855 40.33a5.461 5.461 0 0 1 2.28 4.357v79.847c0 1.68-1.02 2.45-2.28 1.724z" fill="#fefeff"/><path d="M289.058 48.76v7.76c10.705 6.18 19.383 21.21 19.383 33.572s-8.678 17.37-19.383 11.19a36.313 36.313 0 0 1-10.372-9.485l-3.605 4.483a48.892 48.892 0 0 0 13.978 12.761c14.416 8.323 26.103 1.576 26.103-15.07s-11.687-36.888-26.102-45.2z" fill="#6d6afd"/><path d="M262.955 63.83l6.72 3.88c0-12.36 8.678-17.37 19.383-11.2v-7.76c-14.416-8.323-26.102-1.576-26.102 15.07z" fill="#dd5e92"/><path d="M269.675 67.71l-6.72-3.88c0 10.707 4.84 22.896 12.125 32.45l3.605-4.483c-5.4-7.095-9-16.137-9-24.088z" fill="#fb6592"/><ellipse cx="289.058" cy="78.9" rx="11.588" ry="20.07" transform="matrix(.866022 -.500006 .500006 .866022 -.7232 155.1013)" fill="#e2e2e2"/><path d="M260.665 103.56l-3.27-1.89v-5.957l3.27 1.888v5.958z" fill="#dd5e92"/><path d="M276.672 112.802l-14.66-8.464V98.38l14.66 8.464v5.958z" fill="#ebedff"/><path d="M282.495 116.163l-3.27-1.888v-5.958l3.27 1.89v5.957z" fill="#6d6afd"/><path d="M298.502 125.405l-14.66-8.463v-5.958l14.66 8.463v5.958z" fill="#ebedff"/><path d="M304.714 128.992l-3.27-1.89v-5.958l3.27 1.89v5.958z" fill="#fb6592"/><path d="M320.72 138.233l-14.66-8.463v-5.958l14.66 8.463v5.958z" fill="#ebedff"/><path d="M410.91 305.12L380.11 287.34a2.889 2.889 0 0 1-.174-4.904l65.467-35.348a5.301 5.301 0 0 1 4.768-.198l31.128 15.498a3.185 3.185 0 0 1-.672 5.036l-64.95 37.5a5.299 5.299 0 0 1-4.768.198z" fill="#3656a1"/><path d="M410.91 302.605l-30.798-17.782c-1.222-.705-1.07-1.938.342-2.753l64.95-37.5a5.299 5.299 0 0 1 4.768-.198l30.798 17.78c1.222.705 1.07 1.938-.342 2.753l-64.95 37.5a5.299 5.299 0 0 1-4.768.198z" fill="#f2f2f2"/><path d="M417.23 299.66l-32.02-18.487 61.61-35.57 32.022 18.488-61.6 35.57z" fill="#3656a1"/><g fill="#a8aeff"><path d="M465.52 255.423l-3.686-2.128c-.225-.13-.197-.356.063-.506a.974.974 0 0 1 .876-.036l3.686 2.128c.225.13.197.356-.063.506a.974.974 0 0 1-.876.036z" opacity=".5"/><ellipse cx="476.5" cy="261.256" rx=".921" ry=".532" opacity=".5"/><path d="M478.487 262.404a.825.825 0 0 1-.746 0 .227.227 0 0 1 0-.431.825.825 0 0 1 .746 0 .228.228 0 0 1 0 .431z" opacity=".5"/></g><path d="M400.506 293.194a4.524 4.524 0 0 1-4.094 0 1.248 1.248 0 0 1 0-2.363 4.524 4.524 0 0 1 4.094 0 1.248 1.248 0 0 1 0 2.363z" fill="#5d1584"/><ellipse cx="398.459" cy="292.012" rx="2.425" ry="1.4" opacity=".5" fill="#a8aeff"/><g class="DK" opacity=".2"><path d="M361.537 106.1l-4.194 2.314 184.592 105.573 3.183-1.757-183.58-106.13z" fill="#a8aeff" opacity=".5"/><path d="M359.404 107.288l-4.194 2.315 184.592 105.573 3.183-1.757-183.58-106.13z" fill="#a6acfc" opacity=".505"/><path d="M357.27 108.478l-4.194 2.315L537.67 216.366l3.182-1.757-183.58-106.13z" fill="#a5abfa" opacity=".5"/><path d="M355.138 109.668l-4.194 2.315 184.592 105.573 3.182-1.757-183.58-106.13z" fill="#a3a9f7" opacity=".515"/><path d="M353.005 110.858l-4.194 2.315 184.592 105.573 3.182-1.757-183.58-106.13z" fill="#a1a7f5" opacity=".52"/><path d="M350.872 112.048l-4.194 2.314L531.27 219.935l3.182-1.757-183.58-106.13z" fill="#a0a5f2" opacity=".525"/><path d="M348.74 113.238l-4.194 2.314 184.592 105.573 3.182-1.757-183.58-106.13z" fill="#9ea4f0" opacity=".53"/><path d="M346.606 114.428l-4.194 2.314 184.592 105.573 3.182-1.757-183.58-106.13z" fill="#9ca2ed" opacity=".535"/><path d="M344.473 115.618l-4.194 2.314L524.87 223.505l3.182-1.757-183.58-106.13z" fill="#9ba0eb" opacity=".54"/><path d="M342.34 116.808l-4.194 2.314 184.592 105.573 3.182-1.757-183.58-106.13z" fill="#999ee8" opacity=".545"/><path d="M340.207 117.998l-4.194 2.314 184.592 105.573 3.182-1.757-183.58-106.13z" fill="#979de6" opacity=".55"/><path d="M338.074 119.188l-4.194 2.314 184.592 105.573 3.182-1.757-183.58-106.13z" fill="#969be3" opacity=".555"/><path d="M335.94 120.378l-4.194 2.314L516.34 228.265l3.182-1.757-183.58-106.13z" fill="#9499e1" opacity=".56"/><path d="M333.808 121.568l-4.194 2.314 184.592 105.573 3.182-1.757-183.58-106.13z" fill="#9298de" opacity=".564"/><path d="M331.675 122.758l-4.194 2.314 184.592 105.573 3.182-1.757-183.58-106.13z" fill="#9196dc" opacity=".57"/><path d="M329.542 123.948l-4.194 2.314L509.94 231.835l3.182-1.757-183.58-106.13z" fill="#8f94d9" opacity=".574"/><path d="M327.41 125.138l-4.194 2.314 184.592 105.573 3.182-1.757-183.58-106.13z" fill="#8d92d7" opacity=".58"/><path d="M325.276 126.328l-4.194 2.314 184.592 105.573 3.182-1.757-183.58-106.13z" fill="#8c91d4" opacity=".584"/><path d="M323.143 127.518l-4.194 2.314L503.54 235.405l3.182-1.757-183.58-106.13z" fill="#8a8fd2" opacity=".59"/><path d="M321 128.708l-4.194 2.314 184.592 105.573 3.182-1.757L321 128.708z" fill="#888dcf" opacity=".594"/><path d="M318.877 129.897l-4.194 2.315 184.592 105.573 3.182-1.757-183.58-106.13z" fill="#878ccd" opacity=".6"/><path d="M316.744 131.087l-4.194 2.315 184.592 105.573 3.182-1.757-183.58-106.13z" fill="#858aca" opacity=".604"/><path d="M314.61 132.277l-4.194 2.315L495.01 240.165l3.182-1.757-183.58-106.13z" fill="#8388c7" opacity=".61"/><path d="M312.478 133.467l-4.195 2.314 184.593 105.574 3.182-1.757-183.58-106.13z" fill="#8286c5" opacity=".614"/><path d="M310.345 134.657l-4.195 2.314 184.593 105.573 3.182-1.756-183.58-106.13z" fill="#8085c2" opacity=".62"/><path d="M308.212 135.847l-4.195 2.314L488.6 243.734l3.182-1.757-183.58-106.13z" fill="#7e83c0" opacity=".624"/><path d="M306.08 137.037l-4.195 2.314 184.593 105.573 3.182-1.757-183.58-106.13z" fill="#7d81bd" opacity=".63"/><path d="M303.946 138.227l-4.195 2.314 184.592 105.573 3.183-1.757-183.58-106.13z" fill="#7b7fbb" opacity=".634"/><path d="M301.813 139.417l-4.195 2.314L482.2 247.304l3.183-1.757-183.58-106.13z" fill="#797eb8" opacity=".64"/><path d="M299.68 140.607l-4.195 2.314 184.592 105.573 3.183-1.757-183.58-106.13z" fill="#787cb6" opacity=".644"/><path d="M297.546 141.797l-4.194 2.314 184.592 105.573 3.183-1.757-183.58-106.13z" fill="#767ab3" opacity=".65"/><path d="M295.413 142.987l-4.194 2.314L475.81 250.874l3.183-1.757-183.58-106.13z" fill="#7479b1" opacity=".654"/><path d="M293.28 144.177l-4.194 2.314 184.592 105.573 3.183-1.757-183.58-106.13z" fill="#7377ae" opacity=".658"/><path d="M291.147 145.367l-4.194 2.314 184.592 105.573 3.183-1.757-183.58-106.13z" fill="#7175ac" opacity=".663"/><path d="M289.014 146.557l-4.194 2.314 184.592 105.573 3.183-1.757-183.58-106.13z" fill="#6f73a9" opacity=".668"/><path d="M286.88 147.747l-4.194 2.314L467.28 255.634l3.182-1.757-183.58-106.13z" fill="#6e72a7" opacity=".673"/><path d="M284.748 148.937l-4.194 2.314 184.592 105.573 3.182-1.757-183.58-106.13z" fill="#6c70a4" opacity=".678"/><path d="M282.615 150.127l-4.194 2.314 184.592 105.573 3.182-1.757-183.58-106.13z" fill="#6a6ea2" opacity=".683"/><path d="M280.482 151.317l-4.194 2.314L460.88 259.204l3.182-1.757-183.58-106.13z" fill="#696d9f" opacity=".688"/><path d="M278.35 152.506l-4.194 2.315 184.592 105.573 3.182-1.757-183.58-106.13z" fill="#676b9d" opacity=".693"/><path d="M276.216 153.696l-4.194 2.315 184.592 105.573 3.182-1.757-183.58-106.13z" fill="#65699a" opacity=".698"/><path d="M274.083 154.886l-4.194 2.315L454.48 262.774l3.182-1.757-183.58-106.13z" fill="#646797" opacity=".703"/><path d="M271.95 156.076l-4.194 2.314 184.592 105.574 3.182-1.757-183.58-106.13z" fill="#626695" opacity=".708"/><path d="M269.817 157.266l-4.194 2.314 184.592 105.573 3.182-1.756-183.58-106.13z" fill="#606492" opacity=".713"/><path d="M267.684 158.456l-4.194 2.314 184.592 105.573 3.182-1.757-183.58-106.13z" fill="#5f6290" opacity=".718"/><path d="M265.55 159.646l-4.194 2.314L445.95 267.533l3.182-1.757-183.58-106.13z" fill="#5d608d" opacity=".723"/><path d="M263.418 160.836l-4.194 2.314 184.592 105.573 3.182-1.757-183.58-106.13z" fill="#5b5f8b" opacity=".728"/><path d="M261.285 162.026l-4.194 2.314 184.592 105.573 3.182-1.757-183.58-106.13z" fill="#5a5d88" opacity=".733"/><path d="M259.152 163.216l-4.194 2.314L439.55 271.103l3.182-1.757-183.58-106.13z" fill="#585b86" opacity=".738"/><path d="M257.02 164.406l-4.194 2.314 184.592 105.573 3.182-1.757-183.58-106.13z" fill="#565a83" opacity=".743"/><path d="M254.886 165.596l-4.194 2.314 184.592 105.573 3.182-1.757-183.58-106.13z" fill="#555881" opacity=".748"/><path d="M252.753 166.786l-4.194 2.314L433.15 274.673l3.182-1.757-183.58-106.13z" fill="#53567e" opacity=".753"/><path d="M250.62 167.976l-4.194 2.314 184.592 105.573 3.182-1.757-183.58-106.13z" fill="#52547c" opacity=".757"/><path d="M248.487 169.166l-4.194 2.314 184.592 105.573 3.182-1.757-183.58-106.13z" fill="#505379" opacity=".762"/><path d="M246.354 170.356l-4.194 2.314 184.592 105.573 3.182-1.757-183.58-106.13z" fill="#4e5177" opacity=".767"/><path d="M244.22 171.546l-4.195 2.314L424.62 279.433l3.182-1.757-183.58-106.13z" fill="#4d4f74" opacity=".772"/><path d="M242.088 172.736l-4.195 2.314 184.593 105.573 3.182-1.757-183.58-106.13z" fill="#4b4e72" opacity=".777"/><path d="M239.955 173.926l-4.195 2.314 184.593 105.573 3.182-1.757-183.58-106.13z" fill="#494c6f" opacity=".782"/><path d="M237.822 175.115l-4.195 2.315L418.22 283.003l3.182-1.757-183.58-106.13z" fill="#484a6d" opacity=".787"/><path d="M235.69 176.305l-4.195 2.315 184.593 105.573 3.182-1.757-183.58-106.13z" fill="#46486a" opacity=".792"/><path d="M233.555 177.495l-4.194 2.315 184.592 105.573 3.183-1.757-183.58-106.13z" fill="#444768" opacity=".797"/><path d="M231.422 178.685L227.228 181 411.82 286.573l3.183-1.757-183.58-106.13z" fill="#434565" opacity=".802"/><path d="M229.29 179.875l-4.194 2.314 184.592 105.573 3.183-1.756-183.58-106.13z" fill="#414362" opacity=".807"/><path d="M227.156 181.065l-4.194 2.314 184.592 105.573 3.183-1.756-183.58-106.13z" fill="#3f4160" opacity=".812"/><path d="M225.023 182.255l-4.194 2.314L405.42 290.142l3.183-1.757-183.58-106.13z" fill="#3e405d" opacity=".817"/><path d="M222.9 183.445l-4.194 2.314 184.592 105.573 3.183-1.757-183.58-106.13z" fill="#3c3e5b" opacity=".822"/><path d="M220.757 184.635l-4.194 2.314 184.592 105.573 3.183-1.757-183.58-106.13z" fill="#3a3c58" opacity=".827"/><path d="M218.624 185.825l-4.194 2.314 184.592 105.573 3.182-1.757-183.58-106.13z" fill="#393b56" opacity=".832"/><path d="M216.49 187.015l-4.194 2.314L396.89 294.902l3.182-1.757-183.58-106.13z" fill="#373953" opacity=".837"/><path d="M214.358 188.205l-4.194 2.314 184.592 105.573 3.182-1.757-183.58-106.13z" fill="#353751" opacity=".842"/><path d="M212.225 189.395l-4.194 2.314 184.592 105.573 3.182-1.757-183.58-106.13z" fill="#34354e" opacity=".847"/><path d="M210.092 190.585l-4.194 2.314L390.5 298.472l3.182-1.757-183.58-106.13z" fill="#32344c" opacity=".852"/><path d="M207.96 191.775l-4.194 2.314 184.592 105.573 3.182-1.757-183.58-106.13z" fill="#303249" opacity=".856"/><path d="M205.826 192.965l-4.194 2.314 184.592 105.573 3.182-1.757-183.58-106.13z" fill="#2f3047" opacity=".86"/><path d="M203.693 194.155l-4.194 2.314L384.09 302.042l3.182-1.757-183.58-106.13z" fill="#2d2f44" opacity=".866"/><path d="M201.56 195.345l-4.194 2.314 184.592 105.573 3.182-1.757-183.58-106.13z" fill="#2b2d42" opacity=".87"/><path d="M199.427 196.535l-4.194 2.314 184.592 105.573 3.182-1.757-183.58-106.13z" fill="#2a2b3f" opacity=".876"/><path d="M197.294 197.724l-4.194 2.315 184.592 105.573 3.182-1.757-183.58-106.13z" fill="#28293d" opacity=".88"/><path d="M195.16 198.914l-4.194 2.315L375.56 306.802l3.182-1.757-183.58-106.13z" fill="#26283a" opacity=".886"/><path d="M193.028 200.104l-4.194 2.315 184.592 105.573 3.182-1.757-183.58-106.13z" fill="#252638" opacity=".89"/><path d="M190.895 201.294l-4.194 2.314 184.592 105.574 3.182-1.757-183.58-106.13z" fill="#232435" opacity=".896"/><path d="M188.762 202.484l-4.194 2.314L369.16 310.37l3.182-1.756-183.58-106.13z" fill="#212232" opacity=".9"/><path d="M186.63 203.674l-4.194 2.314L367.027 311.56l3.182-1.756-183.58-106.13z" fill="#202130" opacity=".906"/><path d="M184.496 204.864l-4.194 2.314L364.894 312.75l3.182-1.757-183.58-106.13z" fill="#1e1f2d" opacity=".91"/><path d="M182.363 206.054l-4.194 2.314L362.76 313.94l3.182-1.757-183.58-106.13z" fill="#1c1d2b" opacity=".916"/><path d="M180.23 207.244l-4.194 2.314L360.628 315.13l3.182-1.757-183.58-106.13z" fill="#1b1c28" opacity=".92"/><path d="M178.097 208.434l-4.194 2.314L358.495 316.32l3.182-1.757-183.58-106.13z" fill="#191a26" opacity=".926"/><path d="M175.964 209.624l-4.194 2.314L356.362 317.51l3.182-1.757-183.58-106.13z" fill="#171823" opacity=".93"/><path d="M173.83 210.814l-4.195 2.314L354.23 318.7l3.182-1.757-183.58-106.13z" fill="#161621" opacity=".936"/><path d="M171.698 212.004l-4.195 2.314L352.096 319.89l3.182-1.757-183.58-106.13z" fill="#14151e" opacity=".94"/><path d="M169.565 213.194l-4.195 2.314L349.963 321.08l3.182-1.757-183.58-106.13z" fill="#12131c" opacity=".946"/><path d="M167.43 214.384l-4.194 2.314L347.83 322.27l3.182-1.757-183.58-106.13z" fill="#111119" opacity=".95"/><path d="M165.298 215.574l-4.194 2.314L345.696 323.46l3.183-1.757-183.58-106.13z" fill="#0f1017" opacity=".955"/><path d="M163.165 216.764l-4.194 2.314L343.563 324.65l3.183-1.757-183.58-106.13z" fill="#0d0e14" opacity=".96"/><path d="M161.032 217.954l-4.194 2.314L341.43 325.84l3.183-1.757-183.58-106.13z" fill="#0c0c12" opacity=".965"/><path d="M158.9 219.144l-4.194 2.314L339.297 327.03l3.183-1.757-183.58-106.13z" fill="#0a0a0f" opacity=".97"/><path d="M156.766 220.333l-4.194 2.315L337.164 328.22l3.183-1.757-183.58-106.13z" fill="#08090d" opacity=".975"/><path d="M154.633 221.523l-4.194 2.315L335.03 329.41l3.183-1.757-183.58-106.13z" fill="#07070a" opacity=".98"/><path d="M152.5 222.713l-4.194 2.315L332.898 330.6l3.183-1.757-183.58-106.13z" fill="#050508" opacity=".985"/><path d="M150.367 223.903l-4.194 2.314L330.765 331.79l3.182-1.757-183.58-106.13z" fill="#030305" opacity="1"/><path d="M148.234 225.093l-4.194 2.314L328.632 332.98l3.182-1.756-183.58-106.13z" fill="#020203" opacity=".995"/><path d="M146.1 226.283l-4.194 2.314L326.5 334.17l3.182-1.756-183.58-106.13z"/></g><g fill="#3656a1"><path d="M249.312 285.02l-37.872-19.524v11.687s1.237 9.624-7.012 14.437l-17.44 10.376-4.885-1.376v4.705l37.154 21.306 17.522-9.967 6.938-4.366c2.284-1.13 5.428-6.726 5.532-11.19.18-7.7.06-16.087.06-16.087z"/><path d="M207.815 263.36v11.687s1.237 9.625-7.012 14.437l-18.7 11.137 37.123 21.31 20.866-11.77a7.297 7.297 0 0 0 1.46-1.059 13.982 13.982 0 0 0 4.072-10.132l.06-16.087z"/><path d="M328.56 175.943L139.283 66.664c-5.058-2.502-9.408.848-9.408 3.524l4.226 126.26v17.957a11.713 11.713 0 0 0 5.182 9.239L326.077 335.65c4.238.608 7.665-1.296 7.665-5.984V185.182a11.713 11.713 0 0 0-5.182-9.239z"/></g><path d="M324.08 178L134.804 68.71c-2.862-1.653-5.182-.195-5.182 3.255v126.53l199.642 115.263V187.23a11.713 11.713 0 0 0-5.182-9.239z" fill="#f2f2f2"/><path d="M129.622 216.45a11.713 11.713 0 0 0 5.182 9.239L324.08 334.97c2.862 1.652 5.182.195 5.182-3.255v-17.957L129.622 198.495z" fill="#e2e2e2"/><path d="M323.88 303.907L135.006 194.86V74.533L323.88 183.58v120.328z" fill="#3656a1"/><path d="M229.25 268.842c0 3.284-2.305 4.615-5.15 2.973a11.382 11.382 0 0 1-5.149-8.919c0-3.284 2.305-4.615 5.15-2.973a11.382 11.382 0 0 1 5.149 8.919z" opacity=".5" fill="#a8aeff"/><path d="M241.506 150.854l-91.53-52.845c-1.265-.73-2.3.045-2.3 1.732v39.183a5.488 5.488 0 0 0 2.291 4.378l91.53 52.845c1.265.73 2.3-.045 2.3-1.732v-39.183a5.488 5.488 0 0 0-2.291-4.378zm-.893 52.412l-89.745-51.814c-1.76-1.015-3.185.063-3.185 2.407v37.227a7.626 7.626 0 0 0 3.185 6.084l89.745 51.814c1.76 1.015 3.185-.063 3.185-2.407V209.35a7.627 7.627 0 0 0-3.185-6.084zm74.457-9.286l-60.517-34.94c-1.142-.66-2.067.04-2.067 1.563v29.34a4.951 4.951 0 0 0 2.067 3.95l60.517 34.94c1.142.66 2.067-.04 2.067-1.563v-29.34a4.952 4.952 0 0 0-2.067-3.95zm-.155 37.578l-60.208-34.76c-1.227-.708-2.22-.134-2.22 1.283v17.392a4.91 4.91 0 0 0 2.221 3.848l60.208 34.76c1.227.708 2.22.134 2.22-1.283v-17.392a4.91 4.91 0 0 0-2.221-3.848zm0 25.336l-60.208-34.76c-1.227-.708-2.22-.134-2.22 1.283v17.392a4.91 4.91 0 0 0 2.221 3.848l60.208 34.76c1.227.708 2.22.134 2.22-1.283V260.74a4.91 4.91 0 0 0-2.221-3.848z" opacity=".3"/><path d="M237.52 188.988l-91.53-52.845a5.488 5.488 0 0 1-2.291-4.378V92.58c0-1.687 1.026-2.463 2.29-1.732l91.53 52.846a5.486 5.486 0 0 1 2.292 4.378v39.183c0 1.687-1.026 2.463-2.292 1.732z" fill="#fefeff"/><path d="M200.75 137.148l28.624 16.526c.675.4 1.222.074 1.222-.705v-1.803a2.701 2.701 0 0 0-1.222-2.116l-28.624-16.526c-.675-.4-1.222-.074-1.222.705v1.803a2.7 2.7 0 0 0 1.222 2.116zm0 11.065l28.624 16.526c.675.4 1.222.074 1.222-.705v-1.803a2.7 2.7 0 0 0-1.222-2.116L200.75 143.59c-.675-.4-1.222-.074-1.222.705v1.803a2.7 2.7 0 0 0 1.222 2.116zm0 10.96l28.624 16.526c.675.4 1.222.074 1.222-.705v-1.803a2.7 2.7 0 0 0-1.222-2.116L200.75 154.55c-.675-.4-1.222-.074-1.222.705v1.803a2.7 2.7 0 0 0 1.222 2.116z" fill="#e2e2e2"/><path d="M190.47 132.094l3.257 1.88c.628.363 1.137-.022 1.137-.86v-3.355a2.722 2.722 0 0 0-1.137-2.172l-3.257-1.88c-.628-.362-1.137.022-1.137.86v3.355a2.723 2.723 0 0 0 1.137 2.172z" fill="#6d6afd"/><path d="M190.47 143.16l3.257 1.88c.628.363 1.137-.022 1.137-.86v-3.355a2.722 2.722 0 0 0-1.137-2.172l-3.257-1.88c-.628-.363-1.137.022-1.137.86v3.355a2.723 2.723 0 0 0 1.137 2.172z" fill="#dd5e92"/><path d="M190.47 154.12l3.257 1.88c.628.363 1.137-.022 1.137-.86v-3.355a2.723 2.723 0 0 0-1.137-2.172l-3.257-1.88c-.628-.363-1.137.022-1.137.86v3.355a2.723 2.723 0 0 0 1.137 2.172zm-23.965-46.352v17.283l10.583-6.1a31.08 31.08 0 0 0-10.583-11.173" fill="#fb6592"/><path d="M176.737 121.812l-9.91 5.72 6.687 18.08c4.343-.262 7.286-3.9 7.286-10.033a28.721 28.721 0 0 0-4.064-13.767" fill="#dd5e92"/><path d="M165.023 110.494c-7.62-4.344-13.783-.758-13.783 8.053a23.202 23.202 0 0 0 .825 5.866l-.003-.001.015.05.053.205.01.002c2.06 7.06 7.104 14.32 12.922 17.68a12.247 12.247 0 0 0 6.541 1.881l-6.58-17.794z" fill="#6d6afd"/><path d="M236.626 241.825L146.882 190a7.626 7.626 0 0 1-3.184-6.084V146.7c0-2.345 1.426-3.423 3.184-2.407l89.745 51.814a7.627 7.627 0 0 1 3.185 6.085v37.226c0 2.345-1.426 3.423-3.185 2.407z" fill="#fefeff"/><path d="M233.594 235.603c-1.273-11.493-7.07-36.232-15.44-41.2-9.52-5.66-13.282 13.762-17.41 11.188s-3.756-16.086-11.34-20.465-7.18 15.773-13.565 11.79c-6.163-3.844-5.608-17.04-13.354-21.164-5.65-3-10.618 6.705-12.57 11.55z" fill="#3656a1"/><path d="M311.083 221.673l-60.517-34.94a4.951 4.951 0 0 1-2.067-3.95v-29.34c0-1.522.925-2.222 2.067-1.563l60.517 34.94a4.951 4.951 0 0 1 2.067 3.95v29.34c0 1.522-.926 2.222-2.067 1.563z" fill="#fefeff"/><path d="M256.61 168.65l47.348 27.336a1.428 1.428 0 0 0 2.142-1.236v-3.83a2.116 2.116 0 0 0-1.058-1.833l-47.527-27.44a1.308 1.308 0 0 0-1.962 1.133v4.037a2.116 2.116 0 0 0 1.058 1.833z" fill="#6d6afd"/><path d="M255.55 173.966v1.327a1.693 1.693 0 0 0 .846 1.466l48.25 27.857a.968.968 0 0 0 1.452-.838v-1.437a1.693 1.693 0 0 0-.846-1.466l-48.153-27.8a1.032 1.032 0 0 0-1.548.893zm0 8.468v1.227a1.712 1.712 0 0 0 .856 1.483l48.344 27.9a.898.898 0 0 0 1.347-.778v-1.548a1.712 1.712 0 0 0-.856-1.483l-48.067-27.752a1.083 1.083 0 0 0-1.624.938z" fill="#eaeaea"/><path d="M250.72 212.16l60.208 34.76c1.227.708 2.222.134 2.222-1.283v-17.392a4.91 4.91 0 0 0-2.222-3.848l-60.208-34.76c-1.227-.708-2.22-.134-2.22 1.283v17.392a4.91 4.91 0 0 0 2.221 3.848z" fill="#fefeff"/><path d="M270.888 220.698l-18.615-10.748v-16.312l18.615 10.748v16.312z" fill="#eaeaea"/><path d="M252.273 206.025l4.56-1.9 4 5.99 5.84-2.712 4.212 6.488v6.81l-18.615-10.748v-3.925z" fill="#6d6afd"/><path d="M261.992 204.37c0 1.048-.736 1.473-1.644.95a3.633 3.633 0 0 1-1.643-2.846c0-1.048.736-1.473 1.643-.95a3.632 3.632 0 0 1 1.644 2.846z" fill="#dd5e92"/><path d="M308.33 239.746l-33.96-19.608a1.077 1.077 0 0 1-.539-.933v-1.583a.811.811 0 0 1 1.216-.702l33.8 19.5a1.077 1.077 0 0 1 .539.933v1.78a.697.697 0 0 1-1.045.603zm-17.638-16.313l-16.326-9.426a1.07 1.07 0 0 1-.535-.926v-4.562a.677.677 0 0 1 1.015-.586l16.223 9.366a1.069 1.069 0 0 1 .535.926v4.68a.608.608 0 0 1-.912.526z" fill="#eaeaea"/><path d="M250.72 237.495l60.208 34.76c1.227.708 2.222.134 2.222-1.283v-17.392a4.91 4.91 0 0 0-2.222-3.848l-60.208-34.76c-1.227-.708-2.22-.134-2.22 1.282v17.392a4.911 4.911 0 0 0 2.221 3.848z" fill="#fefeff"/><path d="M308.33 265.097l-33.96-19.608a1.077 1.077 0 0 1-.538-.933v-1.583a.811.811 0 0 1 1.216-.702l33.8 19.5a1.077 1.077 0 0 1 .539.933v1.78a.697.697 0 0 1-1.045.603zm-17.638-16.313l-16.326-9.426a1.069 1.069 0 0 1-.535-.926v-4.562a.677.677 0 0 1 1.015-.586l16.223 9.367a1.069 1.069 0 0 1 .535.926v4.68a.608.608 0 0 1-.912.526zm-19.804-2.75l-18.615-10.748v-16.312l18.615 10.748v16.312z" fill="#eaeaea"/><path d="M252.273 231.36l4.56-1.9 4 5.988 5.84-2.71 4.212 6.488v6.81l-18.615-10.748v-3.925z" fill="#6d6afd"/><path d="M261.992 229.707c0 1.048-.736 1.473-1.644.95a3.632 3.632 0 0 1-1.643-2.846c0-1.048.736-1.473 1.643-.95a3.633 3.633 0 0 1 1.644 2.847z" fill="#dd5e92"/><g class="E" opacity=".3"><path d="M107.48 374.6c29.58 17.08 77.54 17.078 107.122 0s29.58-44.768 0-61.847-77.54-17.078-107.122 0-29.58 44.768 0 61.847z" opacity=".5" fill="#a8aeff"/><path d="M109.132 373.647c28.668 16.55 75.148 16.55 103.816 0s28.668-43.387 0-59.938-75.148-16.55-103.816 0-28.668 43.387 0 59.938z" fill="#a5abfa" opacity=".516"/><path d="M110.785 372.692c27.755 16.024 72.755 16.024 100.5 0s27.755-42.005 0-58.03-72.755-16.024-100.5 0-27.755 42.005 0 58.03z" fill="#a3a8f4" opacity=".532"/><path d="M112.438 371.738c26.842 15.497 70.36 15.497 97.204 0s26.843-40.623 0-56.12-70.362-15.497-97.204 0-26.842 40.623 0 56.12z" fill="#a0a5ef" opacity=".548"/><path d="M114.09 370.784c25.93 14.97 67.968 14.97 93.898 0s25.93-39.24 0-54.212-67.97-14.97-93.898 0-25.93 39.24 0 54.212z" fill="#9da3e9" opacity=".565"/><path d="M115.744 369.83c25.016 14.443 65.575 14.443 90.592 0s25.016-37.86 0-52.303-65.576-14.443-90.592 0-25.016 37.86 0 52.303z" fill="#9ba0e4" opacity=".58"/><path d="M117.397 368.875c24.103 13.916 63.182 13.916 87.286 0s24.104-36.478 0-50.394-63.183-13.916-87.286 0-24.103 36.478 0 50.394z" fill="#989dde" opacity=".597"/><path d="M119.05 367.92c23.2 13.39 60.79 13.39 83.98 0s23.19-35.097 0-48.486-60.8-13.39-83.98 0-23.2 35.097 0 48.486z" fill="#959ad9" opacity=".613"/><path d="M120.703 366.966c22.278 12.862 58.396 12.862 80.674 0s22.278-33.715 0-46.577-58.396-12.862-80.674 0-22.277 33.715 0 46.577z" fill="#9397d3" opacity=".63"/><path d="M122.356 366.012c21.364 12.335 56.003 12.335 77.368 0s21.365-32.333 0-44.668-56.003-12.335-77.368 0-21.364 32.333 0 44.668z" fill="#9094ce" opacity=".645"/><path d="M124.01 365.057c20.452 11.808 53.6 11.808 74.062 0s20.452-30.952 0-42.76-53.6-11.808-74.062 0-20.45 30.952 0 42.76z" fill="#8e92c8" opacity=".66"/><path d="M125.662 364.103c19.54 11.28 51.217 11.28 70.756 0s19.54-29.57 0-40.85-51.217-11.28-70.756 0-19.54 29.57 0 40.85z" fill="#8b8fc3" opacity=".677"/><path d="M127.315 363.15c18.626 10.754 48.824 10.753 67.45 0s18.626-28.19 0-38.942-48.824-10.753-67.45 0-18.625 28.19 0 38.942z" fill="#888cbe" opacity=".694"/><path d="M128.968 362.194c17.713 10.227 46.43 10.226 64.144 0s17.713-26.807 0-37.033-46.43-10.226-64.144 0-17.713 26.807 0 37.033z" fill="#8689b8" opacity=".7"/><path d="M130.62 361.24c16.8 9.7 44.038 9.7 60.838 0s16.8-25.425 0-35.125-44.038-9.7-60.838 0-16.8 25.425 0 35.125z" fill="#8386b3" opacity=".726"/><path d="M132.274 360.286c15.887 9.173 41.645 9.172 57.532 0s15.887-24.043 0-33.216-41.645-9.172-57.532 0-15.887 24.043 0 33.216z" fill="#8083ad" opacity=".742"/><path d="M133.927 359.33c14.974 8.645 39.252 8.645 54.226 0s14.974-22.662 0-31.307-39.252-8.645-54.226 0-14.974 22.662 0 31.307z" fill="#7e81a8" opacity=".758"/><path d="M135.58 358.377c14.06 8.118 36.86 8.118 50.92 0s14.06-21.28 0-29.398-36.86-8.118-50.92 0-14.06 21.28 0 29.398z" fill="#7b7ea2" opacity=".774"/><path d="M137.233 357.423c13.148 7.59 34.465 7.59 47.614 0s13.148-19.9 0-27.5-34.466-7.59-47.614 0-13.148 19.9 0 27.5z" fill="#787b9d" opacity=".8"/><path d="M138.886 356.468c12.235 7.064 32.072 7.064 44.308 0s12.235-18.517 0-25.58-32.073-7.064-44.308 0-12.235 18.517 0 25.58z" fill="#767897" opacity=".807"/><path d="M140.54 355.514c11.322 6.537 29.68 6.537 41.002 0s11.322-17.135 0-23.672-29.68-6.537-41.002 0-11.322 17.135 0 23.672z" fill="#737592" opacity=".823"/><path d="M142.192 354.56c10.41 6 27.286 6 37.696 0s10.41-15.754 0-21.764-27.287-6-37.696 0-10.41 15.754 0 21.764z" fill="#70728d" opacity=".84"/><path d="M143.845 353.605c9.496 5.483 24.893 5.483 34.4 0s9.496-14.372 0-19.855-24.894-5.483-34.4 0-9.496 14.372 0 19.855z" fill="#6e7087" opacity=".855"/><path d="M145.498 352.65c8.584 4.956 22.5 4.956 31.084 0s8.584-13 0-17.946-22.5-4.956-31.084 0-8.583 13 0 17.946z" fill="#6b6d82" opacity=".87"/><path d="M147.15 351.696c7.67 4.43 20.107 4.43 27.778 0s7.67-11.61 0-16.038-20.108-4.43-27.778 0-7.67 11.61 0 16.038z" fill="#696a7c" opacity=".887"/><path d="M148.804 350.742c6.758 3.902 17.714 3.902 24.472 0s6.758-10.227 0-14.13-17.714-3.9-24.472 0-6.758 10.227 0 14.13z" fill="#666777" opacity=".903"/><path d="M150.457 349.788c5.845 3.375 15.32 3.375 21.166 0s5.845-8.846 0-12.22-15.32-3.374-21.166 0-5.845 8.845 0 12.22z" fill="#636471" opacity=".92"/><path d="M152.1 348.833c4.932 2.848 12.928 2.848 17.86 0s4.932-7.464 0-10.31-12.928-2.847-17.86 0-4.932 7.464 0 10.31z" fill="#61616c" opacity=".936"/><path d="M153.763 347.88a16.084 16.084 0 0 0 14.554 0c4.02-2.32 4.02-6.082 0-8.403a16.086 16.086 0 0 0-14.554 0c-4.02 2.32-4.02 6.082 0 8.403z" fill="#5e5f66" opacity=".952"/><path d="M155.416 346.924a12.43 12.43 0 0 0 11.248 0c3.106-1.793 3.106-4.7 0-6.494a12.432 12.432 0 0 0-11.248 0c-3.106 1.793-3.106 4.7 0 6.494z" fill="#5b5c61" opacity=".968"/><path d="M157.07 345.97a8.776 8.776 0 0 0 7.942 0c2.193-1.266 2.193-3.32 0-4.585a8.779 8.779 0 0 0-7.942 0c-2.193 1.266-2.193 3.32 0 4.585z" fill="#59595b" opacity=".984"/><path d="M158.722 345.016a5.122 5.122 0 0 0 4.636 0c1.28-.74 1.28-1.937 0-2.676a5.125 5.125 0 0 0-4.636 0c-1.28.74-1.28 1.937 0 2.676z" fill="#565656"/></g><path d="M156.8 348.417a12.762 12.762 0 0 0 10.133 1.762s3.6-2.45 6.32-2.084 4.86 2.327 2.628 5.492-8.918 3.395-10.623 4.612-6.58 1.416-8.407-.004c-1.202-.935-2.617-7-.05-9.78zm-22.64-8.93s4.454 3.998 10.04 2.453c0 0 3.6-2.45 6.32-2.084s4.86 2.327 2.628 5.493-8.918 3.395-10.622 4.612-6.952.87-8.217-.24c-1.144-1.006-2.534-7.2-.15-10.232z"/><path d="M167.692 269.43s3.682 30.566 2.98 37.05-3.73 43.7-3.73 43.7-7.68 2.618-10.133-1.762-.857-33-.156-41.937-5.957-23.83-5.957-23.83-1.05 22.428-4.03 28.385-2.485 30.92-2.485 30.92-7.385 2.85-9.838-2.056 1.46-29.04.758-42.005-7.915-14.517-2.134-36.323 34.723 7.86 34.723 7.86z" fill="#29427b"/><path d="M160.58 185.512s2.054 7.703 4.194 9.843.257 2.825-.856 3.338 3.252 8.046.77 8.9-8.816-.845-8.816 1a15.304 15.304 0 0 0 .428 3.461s-6.333 1.456-8.9-2.14a22.781 22.781 0 0 1 0-5.563c.428-1.797-10.87-16.52 13.18-18.83z" fill="#f9ddc2"/><path d="M161.264 176.782s4.668 6.99-2.6 17.14c-.77 1.073-2.892-.04-3.555 1.913-.802 2.367.328 3.462.033 4.043-3.425 6.745-1.115 8.705-1.115 8.705s-9.148-.125-10.15-5.64-6.034-4.166-6-11.356c.086-18.088 20.562-10.613 23.387-14.808z" fill="#6d6afd"/><path d="M198.052 215.884s3.22-1.923 3.77-3.216 1.706-4.667 7.524-6.88 4.92-4 6.12-3.364c1.47.767-4.15 5.35-4.15 5.35s1.17.343.952 1.062c0 0 1.172.956.857 1.7 0 0 .722.985-.13 1.653 0 0 .738.378.12 1.32s-4.013 3.01-6.826 3.394-4.204 3.706-4.204 3.706z" fill="#f9ddc2"/><path d="M135.58 210.265s-12.82 18.054-10.62 21.924 16.056 14.24 16.056 14.24z" fill="#6ab4e5"/><path d="M135.982 209.395c3.183-2.58 11.417.5 11.417.5l8.9 2.14s.255.05.628.15a7.314 7.314 0 0 1 4.562-.029c4.086 1.02 16.03 11.79 19.42 14.905a1.392 1.392 0 0 0 1.853.04l15.99-13.51 5.128 6.4s-17.548 17.928-22.065 19.123c-2.156.57-8.094-3.317-13.858-7.83.985 15.074-.265 38.13-.265 38.13s-3.7-.817-15.967-.6c-12.7.235-18.756-7.27-18.756-7.27s-.17-49.596 3.012-52.178z" fill="#73bfff"/></svg>