<svg width="390" height="987" viewBox="0 0 390 987" fill="none" xmlns="http://www.w3.org/2000/svg">
<path d="M277.5 356.5C152 14 -495.5 237 -547.5 -70H1420V821.5C1342 752 1178.55 677.583 849 802.5C535 921.524 366.113 598.331 277.5 356.5Z" fill="url(#paint0_linear_225_169)"/>
<path d="M174 321C39.5 73 -156 117 -225 -68H1420V625.5C1228.5 625.5 1220.5 752 851.5 735.5C589.467 723.783 328.789 606.411 174 321Z" fill="url(#paint1_linear_225_169)" fill-opacity="0.59"/>
<path d="M440.5 278C239 250.5 67.0001 118 67 -70H1420V416C1228.5 416 1096.5 794.5 887 673.5C714 573.581 743.405 319.339 440.5 278Z" fill="url(#paint2_linear_225_169)"/>
<defs>
<linearGradient id="paint0_linear_225_169" x1="476.937" y1="-70" x2="476.937" y2="827.985" gradientUnits="userSpaceOnUse">
<stop stop-color="#9039FF"/>
<stop offset="1" stop-color="#39B8FF"/>
</linearGradient>
<linearGradient id="paint1_linear_225_169" x1="478" y1="-289.5" x2="918.5" y2="584.5" gradientUnits="userSpaceOnUse">
<stop offset="0.354167" stop-color="#8DFFFF"/>
<stop offset="1" stop-color="#304CE1"/>
</linearGradient>
<linearGradient id="paint2_linear_225_169" x1="701" y1="-106" x2="1057" y2="538.5" gradientUnits="userSpaceOnUse">
<stop stop-color="#9584FF"/>
<stop offset="1" stop-color="#B556FF"/>
</linearGradient>
</defs>
</svg>
