<svg id="Capa_1" enable-background="new 0 0 512 512" height="512" viewBox="0 0 512 512" width="512" xmlns="http://www.w3.org/2000/svg" xmlns:xlink="http://www.w3.org/1999/xlink"><linearGradient id="SVGID_1_" gradientUnits="userSpaceOnUse" x1="87.068" x2="445.958" y1="422.044" y2="63.154"><stop offset="0" stop-color="#d2dbfc" stop-opacity="0"/><stop offset="1" stop-color="#b8c2fb"/></linearGradient><g><g><path d="m496.172 113.42c-191.261-197.647-265.821 302.252-363.612 141.478-15.598-25.644 30.717-101.708 61.271-134.611 163.786-176.379-251.69-138.339-186.91 191.041 18.136 92.211 109.885 112.44 197.187 99.729 56.605-8.241 87.549 74.598 145.527 81.796 51.805 6.432 79.822-36.894 67.278-84.573-26.456-100.552 147.042-224.814 79.259-294.86z" fill="url(#SVGID_1_)"/></g><g><path d="m421.017 281.637c-2.762 0-5-2.239-5-5 0-3.492-2.842-6.333-6.334-6.333-2.762 0-5-2.239-5-5s2.238-5 5-5c3.492 0 6.334-2.841 6.334-6.333 0-2.761 2.238-5 5-5s5 2.239 5 5c0 3.492 2.841 6.333 6.333 6.333 2.762 0 5 2.239 5 5s-2.238 5-5 5c-3.492 0-6.333 2.841-6.333 6.333 0 2.761-2.239 5-5 5z" fill="#6e80f8"/></g><g><g><g><path d="m341.994 232.411c18.015 0 34.828-5.132 49.069-14.006 7.029 12.981 20.768 21.798 36.567 21.798 22.951 0 41.557-18.606 41.557-41.557 0-21.071-15.686-38.467-36.015-41.178 1.141-5.818 1.745-11.828 1.745-17.981 0-51.32-41.603-92.922-92.922-92.922-51.32 0-92.922 41.603-92.922 92.922 0 12.603 2.514 24.617 7.06 35.576l-38.463 15.937c-12.544-30.239-42.342-51.513-77.118-51.513-46.097 0-83.466 37.369-83.466 83.466s37.369 83.466 83.466 83.466c24.041 0 45.693-10.178 60.923-26.443l32.752 30.655c-18.756 20.031-30.245 46.95-30.245 76.557 0 61.877 50.161 112.039 112.039 112.039 61.877 0 112.039-50.161 112.039-112.039 0-57.931-43.968-105.59-100.353-111.434l4.598-43.846c3.183.332 6.416.503 9.689.503z" fill="#2a2ab5" opacity=".1"/><g><g><path d="m155.577 192.729 170.137-70.495c7.344-3.043 15.27 2.874 14.441 10.78l-21.937 209.206c-.903 8.614-11.269 12.48-17.593 6.562l-148.199-138.712c-5.564-5.208-3.889-14.424 3.151-17.341z" fill="#6e80f8"/></g><g><circle cx="341.994" cy="115.489" fill="#fff" r="92.922"/><path d="m370.209 143.704c16.061-16.061 20.624-39.321 13.713-59.486-.858-2.504-.527-5.203.551-7.619 1.856-4.157 1.081-9.203-2.331-12.615l-3.474-3.474c-4.42-4.42-11.587-4.42-16.008 0l-18.572 18.572c-4.42 4.42-4.42 11.587 0 16.008l3.474 3.474c3.365 3.365 8.318 4.162 12.441 2.4 1.679-.717 3.562.615 3.539 2.44-.106 8.586-3.422 17.138-9.959 23.675s-15.089 9.853-23.675 9.959c-1.826.023-3.157-1.86-2.44-3.539 1.761-4.123.965-9.076-2.4-12.441l-3.474-3.474c-4.42-4.42-11.587-4.42-16.008 0l-18.572 18.572c-4.42 4.42-4.42 11.587 0 16.007l3.474 3.474c3.412 3.412 8.457 4.187 12.614 2.331 2.417-1.079 5.116-1.409 7.619-.551 20.167 6.911 43.426 2.349 59.488-13.713z" fill="#6e80f8"/></g><g><circle cx="140.55" cy="198.955" fill="#fff" r="83.466"/><circle cx="140.55" cy="198.955" fill="#6e80f8" r="51.033"/></g><g><g><circle cx="316.019" cy="363.19" fill="#fff" r="112.039"/><circle cx="316.019" cy="363.19" fill="#6e80f8" r="71.024"/></g><g><path d="m390.442 328.062v70.261c0 6.06-4.896 10.946-10.957 10.946h-126.932c-6.05 0-10.957-4.886-10.957-10.946v-70.261c0-6.05 4.907-10.957 10.957-10.957h126.932c6.061.001 10.957 4.908 10.957 10.957z" fill="#fff"/><path d="m241.601 398.323 70.476-44.675c2.511-1.591 5.715-1.588 8.222.008l70.142 44.666c0 6.045-4.906 10.951-10.951 10.951h-126.937c-6.057.001-10.952-4.905-10.952-10.95z" fill="#6e80f8"/><path d="m390.441 328.059-70.476 44.675c-2.511 1.591-5.715 1.588-8.222-.008l-70.142-44.666c0-6.045 4.906-10.951 10.951-10.951h126.938c6.056-.001 10.951 4.905 10.951 10.95z" fill="#fff"/></g></g></g></g><g><circle cx="427.63" cy="174.647" fill="#fff" r="41.557"/><g fill="#2a2ab5"><path d="m341.99 213.408c16.672 0 32.952-4.228 47.404-12.243 8.417 12.099 22.412 20.04 38.236 20.04 25.672 0 46.557-20.885 46.557-46.557 0-25.671-20.885-46.557-46.557-46.557s-46.557 20.885-46.557 46.557c0 6.282 1.257 12.273 3.522 17.746-12.983 7.211-27.616 11.015-42.605 11.015-48.479 0-87.92-39.441-87.92-87.92s39.441-87.92 87.92-87.92c44.459 0 81.987 33.228 87.295 77.291.33 2.741 2.816 4.696 5.562 4.366 2.742-.331 4.696-2.821 4.366-5.562-5.912-49.082-47.709-86.095-97.223-86.095-53.993 0-97.92 43.927-97.92 97.92 0 11.507 2.001 22.554 5.664 32.818l-29.506 12.225c-14.327-29.588-44.658-50.042-79.677-50.042-48.78 0-88.466 39.686-88.466 88.466 0 42.803 30.537 79.401 72.61 87.021.301.055.601.081.897.081 2.371 0 4.477-1.694 4.914-4.11.492-2.717-1.312-5.319-4.029-5.811-37.312-6.758-64.393-39.218-64.393-77.182 0-43.267 35.2-78.466 78.466-78.466s78.466 35.2 78.466 78.466c0 37.935-27.057 70.391-64.335 77.171-2.717.494-4.519 3.098-4.024 5.814s3.095 4.515 5.814 4.024c17.515-3.186 33.017-11.411 45.156-23.001l25.648 24.004c-17.627 20.493-28.296 47.134-28.296 76.221 0 64.536 52.503 117.039 117.039 117.039s117.039-52.503 117.039-117.039c0-58.701-43.443-107.442-99.865-115.775l3.583-34.146c1.728.092 3.466.141 5.215.141zm85.64-75.317c20.157 0 36.557 16.399 36.557 36.557s-16.399 36.557-36.557 36.557-36.557-16.399-36.557-36.557 16.4-36.557 36.557-36.557zm-4.572 225.099c0 59.021-48.018 107.039-107.039 107.039s-107.039-48.018-107.039-107.039 48.017-107.039 107.039-107.039 107.039 48.017 107.039 107.039zm-99.811-116.809c-2.392-.146-4.8-.23-7.228-.23-31.858 0-60.778 12.8-81.903 33.521l-25.644-23.999c12.903-15.456 20.545-35.313 20.545-56.718 0-10.224-1.749-20.046-4.955-29.19l29.509-12.226c13.675 28.638 40.861 49.635 73.258 54.693z"/><path d="m174.097 240.242c-1.642-2.499-4.998-3.195-7.496-1.552-7.986 5.247-17.299 7.927-26.901 7.765-25.253-.441-46.179-21.344-46.647-46.596-.242-13.036 4.697-25.288 13.906-34.497 9.21-9.209 21.472-14.125 34.496-13.906 24.969.463 46.552 20.321 46.552 45.269 0 17.434-4.58 20.856-9.659 20.856-4.602 0-8.345-3.744-8.345-8.344v-34.323c0-2.989-2.424-5.413-5.413-5.413s-5.413 2.424-5.413 5.413v1.244c-5.079-4.158-11.566-6.657-18.627-6.657-16.24 0-29.453 13.212-29.453 29.453 0 16.24 13.212 29.453 29.453 29.453 8.432 0 16.041-3.567 21.416-9.264 3.364 5.542 9.438 9.265 16.382 9.265 8.649 0 16.268-5.85 18.528-14.227 1.569-5.818 2.224-11.857 1.946-17.948-1.394-30.61-26.505-55.033-57.166-55.601-16.001-.301-31.045 5.767-42.352 17.075-11.308 11.308-17.372 26.349-17.075 42.353.28 15.104 6.369 29.351 17.147 40.116s25.031 16.839 40.136 17.103c.347.006.692.01 1.038.01 11.429-.001 22.472-3.293 31.997-9.551 2.497-1.642 3.191-4.998 1.55-7.496zm-33.547-22.661c-10.271 0-18.627-8.356-18.627-18.627s8.356-18.627 18.627-18.627 18.627 8.356 18.627 18.627-8.356 18.627-18.627 18.627z"/><path d="m236.596 328.062v70.261c0 8.793 7.158 15.946 15.957 15.946h126.933c8.799 0 15.957-7.153 15.957-15.946v-70.261c0-8.798-7.158-15.957-15.957-15.957h-126.933c-8.799.001-15.957 7.159-15.957 15.957zm142.889 76.207h-126.932c-3.285 0-5.957-2.667-5.957-5.946v-61.156l62.461 39.775c2.066 1.315 4.435 1.974 6.804 1.974 2.36 0 4.721-.653 6.781-1.959l62.801-39.809v61.175c-.001 3.279-2.672 5.946-5.958 5.946zm5.437-78.631-67.633 42.873c-.87.551-1.993.549-2.859-.003l-67.314-42.865c.93-2.081 3.016-3.537 5.438-3.537h126.933c2.42 0 4.504 1.454 5.435 3.532z"/></g><g><path d="m444.242 168.034c0-9.161-7.453-16.613-16.613-16.613-9.161 0-16.613 7.453-16.613 16.613 0 4.518 1.818 8.615 4.755 11.613-2.936 2.998-4.755 7.095-4.755 11.613 0 2.761 2.239 5 5 5s5-2.239 5-5c0-3.646 2.967-6.613 6.613-6.613s6.613 2.967 6.613 6.613c0 2.761 2.239 5 5 5s5-2.239 5-5c0-4.518-1.818-8.615-4.754-11.613 2.936-2.997 4.754-7.095 4.754-11.613zm-16.612-6.613c3.646 0 6.613 2.967 6.613 6.613s-2.966 6.613-6.613 6.613-6.613-2.967-6.613-6.613 2.966-6.613 6.613-6.613z" fill="#6e80f8"/></g></g></g><g><path d="m180.25 461.274c-2.761 0-5-2.239-5-5 0-3.492-2.841-6.333-6.333-6.333-2.761 0-5-2.239-5-5s2.239-5 5-5c3.492 0 6.333-2.841 6.333-6.333 0-2.761 2.239-5 5-5s5 2.239 5 5c0 3.492 2.841 6.333 6.333 6.333 2.761 0 5 2.239 5 5s-2.239 5-5 5c-3.492 0-6.333 2.841-6.333 6.333 0 2.761-2.239 5-5 5z" fill="#6e80f8"/></g><g><path d="m159.883 340.982c-2.761 0-5-2.239-5-5 0-3.492-2.841-6.333-6.333-6.333-2.761 0-5-2.239-5-5s2.239-5 5-5c3.492 0 6.333-2.841 6.333-6.333 0-2.761 2.239-5 5-5s5 2.239 5 5c0 3.492 2.841 6.333 6.333 6.333 2.761 0 5 2.239 5 5s-2.239 5-5 5c-3.492 0-6.333 2.841-6.333 6.333 0 2.761-2.239 5-5 5z" fill="#6e80f8"/></g><g><path d="m249.071 45.438c-2.761 0-5-2.239-5-5 0-3.492-2.841-6.333-6.333-6.333-2.761 0-5-2.239-5-5s2.239-5 5-5c3.492 0 6.333-2.841 6.333-6.333 0-2.761 2.239-5 5-5s5 2.239 5 5c0 3.492 2.841 6.333 6.333 6.333 2.762 0 5 2.239 5 5s-2.238 5-5 5c-3.492 0-6.333 2.841-6.333 6.333 0 2.762-2.238 5-5 5z" fill="#6e80f8"/></g><g><path d="m127.27 373.187c-1.28 0-2.559-.488-3.536-1.464-1.953-1.953-1.953-5.119 0-7.071l10-10c1.953-1.952 5.118-1.952 7.071 0 1.953 1.953 1.953 5.119 0 7.071l-10 10c-.976.976-2.255 1.464-3.535 1.464z" fill="#6e80f8"/></g></g></g></svg>