<svg width="550" height="577" viewBox="0 0 550 577" fill="none" xmlns="http://www.w3.org/2000/svg">
<path fill-rule="evenodd" clip-rule="evenodd" d="M2.37355 576.999L0 574.855L37.3247 541.125L39.6962 543.269L2.37152 577M39.6962 576.999L37.3247 574.855L74.6494 541.125L77.0229 543.269L39.6982 577M77.0229 576.999L74.6494 574.855L111.974 541.125L114.347 543.269L77.0219 577M114.347 576.999L111.974 574.855L149.299 541.125L151.671 543.269L114.347 576.999ZM151.671 576.999L149.299 574.855L186.623 541.125L188.997 543.269L151.672 577" fill="black"/>
<path fill-rule="evenodd" clip-rule="evenodd" d="M179.049 110.473C179.049 125.343 165.71 137.397 149.256 137.397C132.802 137.397 119.462 125.342 119.462 110.473C119.462 95.6034 132.791 83.5488 149.256 83.5488C165.721 83.5488 179.049 95.6034 179.049 110.474" fill="#FEB600"/>
<path fill-rule="evenodd" clip-rule="evenodd" d="M168.732 73.8165C153.048 73.8165 140.288 85.3467 140.288 99.5197C140.288 113.693 153.046 125.225 168.732 125.225C184.417 125.225 197.176 113.695 197.176 99.5197C197.176 85.3449 184.417 73.8165 168.732 73.8165ZM168.732 127.665C151.558 127.665 137.587 115.039 137.587 99.5197C137.587 84.0006 151.559 71.375 168.732 71.375C185.904 71.375 199.876 84.0006 199.876 99.5197C199.876 115.039 185.904 127.665 168.732 127.665Z" fill="black"/>
<path d="M483.052 256.072C482.697 256.073 482.344 256.011 482.016 255.889C481.687 255.766 481.389 255.587 481.138 255.36C480.886 255.133 480.687 254.863 480.552 254.566C480.416 254.269 480.347 253.951 480.348 253.63C480.349 252.982 480.634 252.361 481.141 251.903C481.648 251.445 482.335 251.188 483.052 251.188C484.54 251.188 485.745 252.284 485.745 253.63C485.747 253.95 485.678 254.268 485.543 254.564C485.408 254.86 485.21 255.129 484.96 255.356C484.71 255.583 484.412 255.763 484.085 255.886C483.757 256.009 483.406 256.072 483.052 256.072ZM483.052 230.953C482.697 230.954 482.344 230.892 482.016 230.769C481.687 230.647 481.389 230.467 481.138 230.24C480.886 230.013 480.687 229.743 480.552 229.447C480.416 229.15 480.347 228.832 480.348 228.51C480.349 227.863 480.634 227.241 481.141 226.783C481.648 226.325 482.335 226.068 483.052 226.068C484.54 226.068 485.745 227.164 485.745 228.511C485.747 228.832 485.678 229.149 485.543 229.445C485.408 229.742 485.21 230.011 484.96 230.238C484.71 230.465 484.412 230.645 484.085 230.768C483.757 230.891 483.406 230.954 483.052 230.954V230.953ZM483.052 205.833C482.697 205.835 482.345 205.772 482.016 205.65C481.688 205.528 481.389 205.348 481.138 205.121C480.887 204.894 480.687 204.625 480.552 204.328C480.416 204.031 480.347 203.713 480.348 203.392C480.349 202.744 480.634 202.123 481.141 201.665C481.648 201.207 482.335 200.95 483.052 200.95C484.54 200.95 485.745 202.045 485.745 203.393C485.747 203.713 485.678 204.03 485.543 204.327C485.408 204.623 485.21 204.892 484.959 205.119C484.709 205.346 484.412 205.526 484.085 205.648C483.757 205.771 483.406 205.834 483.052 205.834V205.833ZM483.052 180.723C482.334 180.723 481.646 180.466 481.138 180.007C480.631 179.548 480.346 178.926 480.346 178.278C480.346 177.629 480.631 177.007 481.138 176.548C481.646 176.09 482.334 175.832 483.052 175.832C484.54 175.832 485.745 176.927 485.745 178.274C485.745 179.628 484.53 180.723 483.052 180.723ZM483.052 155.598C481.553 155.598 480.348 154.5 480.348 153.155C480.349 152.507 480.634 151.886 481.141 151.428C481.648 150.97 482.335 150.713 483.052 150.713C484.54 150.713 485.745 151.808 485.745 153.156C485.747 153.476 485.678 153.794 485.543 154.09C485.408 154.386 485.21 154.656 484.96 154.882C484.71 155.109 484.412 155.289 484.085 155.412C483.757 155.535 483.406 155.598 483.052 155.598V155.598ZM483.052 130.479C482.697 130.48 482.345 130.418 482.016 130.296C481.688 130.173 481.389 129.994 481.138 129.767C480.887 129.54 480.687 129.27 480.552 128.973C480.416 128.677 480.347 128.359 480.348 128.037C480.349 127.39 480.634 126.768 481.141 126.31C481.648 125.852 482.335 125.595 483.052 125.595C484.54 125.595 485.745 126.691 485.745 128.038C485.747 128.359 485.678 128.676 485.543 128.972C485.408 129.268 485.21 129.538 484.959 129.764C484.709 129.991 484.412 130.171 484.085 130.294C483.757 130.417 483.406 130.48 483.052 130.48V130.479ZM483.052 105.361C482.336 105.361 481.65 105.105 481.144 104.647C480.638 104.19 480.354 103.57 480.354 102.923C480.354 102.276 480.638 101.656 481.144 101.199C481.65 100.742 482.336 100.485 483.052 100.485C483.768 100.485 484.454 100.742 484.96 101.199C485.466 101.656 485.75 102.276 485.75 102.923C485.75 103.57 485.466 104.19 484.96 104.647C484.454 105.105 483.768 105.361 483.052 105.361ZM483.052 80.242C482.697 80.2432 482.344 80.1809 482.016 80.0586C481.687 79.9363 481.389 79.7564 481.138 79.5294C480.886 79.3024 480.687 79.0327 480.552 78.7358C480.416 78.4389 480.347 78.1207 480.348 77.7996C480.349 77.1519 480.634 76.5309 481.141 76.0731C481.648 75.6153 482.335 75.3581 483.052 75.3581C484.54 75.3581 485.745 76.4535 485.745 77.7996C485.747 78.12 485.678 78.4374 485.543 78.7337C485.408 79.0299 485.21 79.2993 484.96 79.5262C484.71 79.7531 484.412 79.9331 484.085 80.0559C483.757 80.1788 483.406 80.242 483.052 80.242ZM483.052 55.1226C482.697 55.1238 482.344 55.0615 482.016 54.9392C481.687 54.8169 481.389 54.6371 481.138 54.41C480.886 54.183 480.687 53.9133 480.552 53.6164C480.416 53.3195 480.347 53.0014 480.348 52.6802C480.349 52.0326 480.634 51.4116 481.141 50.9537C481.648 50.4959 482.335 50.2388 483.052 50.2388C484.54 50.2388 485.745 51.3341 485.745 52.6802C485.747 53.0006 485.678 53.318 485.543 53.6143C485.408 53.9106 485.21 54.1799 484.96 54.4068C484.71 54.6337 484.412 54.8137 484.085 54.9366C483.757 55.0594 483.406 55.1226 483.052 55.1226ZM483.052 30.0033C482.697 30.0045 482.345 29.9421 482.016 29.8199C481.688 29.6977 481.389 29.5179 481.138 29.291C480.887 29.064 480.687 28.7944 480.552 28.4977C480.416 28.2009 480.347 27.8828 480.348 27.5618C480.349 26.9139 480.634 26.2927 481.141 25.8347C481.648 25.3767 482.335 25.1194 483.052 25.1194C484.54 25.1194 485.745 26.2148 485.745 27.5627C485.747 27.883 485.678 28.2003 485.543 28.4964C485.408 28.7926 485.21 29.0618 484.959 29.2886C484.709 29.5154 484.412 29.6954 484.085 29.8182C483.757 29.941 483.406 30.0042 483.052 30.0042V30.0033ZM483.052 4.88387C482.697 4.88507 482.346 4.823 482.018 4.70121C481.69 4.57942 481.392 4.40032 481.141 4.17417C480.89 3.94801 480.69 3.67927 480.554 3.38334C480.418 3.08742 480.348 2.77014 480.348 2.44971C480.347 2.12832 480.417 1.80991 480.552 1.51273C480.687 1.21556 480.886 0.945454 481.138 0.717893C481.389 0.490332 481.687 0.309786 482.016 0.186598C482.344 0.06341 482.696 -1.10455e-06 483.052 0C484.54 0 485.745 1.09629 485.745 2.44971C485.745 3.09529 485.462 3.71443 484.957 4.17092C484.451 4.62741 483.766 4.88387 483.052 4.88387Z" fill="#1E3F7D"/>
<path fill-rule="evenodd" clip-rule="evenodd" d="M515.172 256.072C514.817 256.072 514.466 256.009 514.139 255.886C513.812 255.763 513.514 255.583 513.264 255.356C513.014 255.129 512.816 254.86 512.681 254.564C512.546 254.268 512.477 253.95 512.478 253.63C512.478 252.285 513.694 251.188 515.172 251.188C515.889 251.188 516.576 251.445 517.083 251.903C517.59 252.361 517.875 252.982 517.876 253.63C517.877 253.951 517.808 254.269 517.672 254.566C517.537 254.863 517.338 255.133 517.086 255.36C516.835 255.587 516.536 255.766 516.208 255.889C515.879 256.011 515.527 256.073 515.172 256.072ZM515.172 230.953C514.817 230.953 514.466 230.89 514.139 230.767C513.812 230.644 513.514 230.464 513.264 230.237C513.014 230.01 512.816 229.741 512.681 229.444C512.546 229.148 512.477 228.831 512.478 228.51C512.478 227.165 513.694 226.067 515.172 226.067C515.889 226.067 516.576 226.324 517.083 226.782C517.59 227.24 517.875 227.862 517.876 228.51C517.877 228.831 517.808 229.149 517.672 229.446C517.537 229.743 517.338 230.012 517.086 230.239C516.835 230.466 516.536 230.646 516.208 230.768C515.879 230.891 515.527 230.954 515.172 230.953ZM515.172 205.833C514.818 205.833 514.467 205.77 514.139 205.647C513.812 205.525 513.515 205.345 513.264 205.118C513.014 204.891 512.816 204.622 512.681 204.326C512.546 204.03 512.477 203.712 512.478 203.392C512.478 202.045 513.694 200.949 515.172 200.949C515.889 200.949 516.576 201.206 517.083 201.664C517.59 202.122 517.875 202.743 517.876 203.391C517.877 203.712 517.807 204.03 517.672 204.327C517.536 204.624 517.337 204.893 517.086 205.12C516.835 205.347 516.536 205.527 516.208 205.649C515.879 205.771 515.527 205.834 515.172 205.833V205.833ZM515.172 180.723C513.683 180.723 512.478 179.628 512.478 178.274C512.478 176.928 513.694 175.832 515.172 175.832C515.89 175.832 516.578 176.09 517.086 176.548C517.593 177.007 517.878 177.629 517.878 178.278C517.878 178.926 517.593 179.548 517.086 180.007C516.578 180.466 515.89 180.723 515.172 180.723ZM515.172 155.598C514.817 155.598 514.466 155.535 514.139 155.412C513.812 155.289 513.514 155.109 513.264 154.882C513.014 154.656 512.816 154.386 512.681 154.09C512.546 153.794 512.477 153.476 512.478 153.156C512.478 151.809 513.694 150.713 515.172 150.713C515.889 150.713 516.576 150.97 517.083 151.428C517.59 151.886 517.875 152.507 517.876 153.155C517.876 154.509 516.66 155.598 515.172 155.598ZM515.172 130.479C514.818 130.479 514.467 130.416 514.139 130.293C513.812 130.17 513.515 129.99 513.264 129.763C513.014 129.537 512.816 129.267 512.681 128.971C512.546 128.675 512.477 128.358 512.478 128.037C512.478 126.692 513.694 125.594 515.172 125.594C515.889 125.594 516.576 125.851 517.083 126.309C517.59 126.767 517.875 127.389 517.876 128.037C517.877 128.358 517.807 128.676 517.672 128.972C517.536 129.269 517.337 129.539 517.086 129.766C516.835 129.993 516.536 130.172 516.208 130.295C515.879 130.417 515.527 130.48 515.172 130.479ZM515.172 105.361C514.456 105.361 513.77 105.105 513.264 104.647C512.758 104.19 512.474 103.57 512.474 102.923C512.474 102.276 512.758 101.656 513.264 101.199C513.77 100.742 514.456 100.485 515.172 100.485C515.888 100.485 516.574 100.742 517.08 101.199C517.586 101.656 517.87 102.276 517.87 102.923C517.87 103.57 517.586 104.19 517.08 104.647C516.574 105.105 515.888 105.361 515.172 105.361ZM515.172 80.242C514.817 80.242 514.466 80.1788 514.139 80.0559C513.812 79.9331 513.514 79.7531 513.264 79.5262C513.014 79.2993 512.816 79.0299 512.681 78.7337C512.546 78.4374 512.477 78.12 512.478 77.7996C512.478 76.4544 513.694 75.3581 515.172 75.3581C515.889 75.3581 516.576 75.6153 517.083 76.0731C517.59 76.5309 517.875 77.1519 517.876 77.7996C517.877 78.1207 517.808 78.4389 517.672 78.7358C517.537 79.0327 517.338 79.3024 517.086 79.5294C516.835 79.7564 516.536 79.9363 516.208 80.0586C515.879 80.1809 515.527 80.2432 515.172 80.242ZM515.172 55.1226C514.817 55.1226 514.466 55.0594 514.139 54.9366C513.812 54.8137 513.514 54.6337 513.264 54.4068C513.014 54.1799 512.816 53.9106 512.681 53.6143C512.546 53.318 512.477 53.0006 512.478 52.6802C512.478 51.3351 513.694 50.2388 515.172 50.2388C515.889 50.2388 516.576 50.4959 517.083 50.9537C517.59 51.4116 517.875 52.0326 517.876 52.6802C517.877 53.0014 517.808 53.3195 517.672 53.6164C517.537 53.9133 517.338 54.183 517.086 54.41C516.835 54.6371 516.536 54.8169 516.208 54.9392C515.879 55.0615 515.527 55.1238 515.172 55.1226ZM515.172 30.0033C514.818 30.0033 514.467 29.94 514.139 29.8173C513.812 29.6945 513.515 29.5145 513.264 29.2877C513.014 29.0609 512.816 28.7917 512.681 28.4955C512.546 28.1994 512.477 27.8821 512.478 27.5618C512.478 26.2148 513.694 25.1185 515.172 25.1185C515.889 25.1185 516.576 25.3758 517.083 25.8338C517.59 26.2918 517.875 26.913 517.876 27.5609C517.877 27.8819 517.807 28.2 517.672 28.4967C517.536 28.7935 517.337 29.0631 517.086 29.2901C516.835 29.517 516.536 29.6967 516.208 29.819C515.879 29.9412 515.527 30.0045 515.172 30.0033ZM515.172 4.88387C514.458 4.88387 513.772 4.62741 513.267 4.17092C512.762 3.71443 512.478 3.09529 512.478 2.44971C512.478 1.09537 513.694 0 515.172 0C515.528 -1.10455e-06 515.88 0.06341 516.208 0.186598C516.537 0.309786 516.835 0.490332 517.086 0.717893C517.337 0.945454 517.536 1.21556 517.672 1.51273C517.807 1.80991 517.877 2.12832 517.876 2.44971C517.876 2.77014 517.806 3.08742 517.67 3.38334C517.534 3.67927 517.334 3.94801 517.083 4.17417C516.832 4.40032 516.534 4.57942 516.206 4.70121C515.878 4.823 515.527 4.88507 515.172 4.88387Z" fill="#1E3F7D"/>
<path d="M547.302 256.072C546.947 256.073 546.594 256.011 546.266 255.889C545.937 255.766 545.639 255.587 545.388 255.36C545.136 255.133 544.937 254.863 544.802 254.566C544.666 254.269 544.597 253.951 544.598 253.63C544.599 252.982 544.884 252.361 545.391 251.903C545.898 251.445 546.585 251.188 547.302 251.188C548.79 251.188 549.995 252.284 549.995 253.63C549.997 253.95 549.928 254.268 549.793 254.564C549.658 254.86 549.46 255.129 549.21 255.356C548.96 255.583 548.662 255.763 548.335 255.886C548.007 256.009 547.656 256.072 547.302 256.072ZM547.302 230.953C546.947 230.954 546.594 230.892 546.266 230.769C545.937 230.647 545.639 230.467 545.388 230.24C545.136 230.013 544.937 229.743 544.802 229.447C544.666 229.15 544.597 228.832 544.598 228.51C544.599 227.863 544.884 227.241 545.391 226.783C545.898 226.325 546.585 226.068 547.302 226.068C548.79 226.068 549.995 227.164 549.995 228.511C549.997 228.832 549.928 229.149 549.793 229.445C549.658 229.742 549.46 230.011 549.21 230.238C548.96 230.465 548.662 230.645 548.335 230.768C548.007 230.891 547.656 230.954 547.302 230.954V230.953ZM547.302 205.833C546.947 205.835 546.595 205.772 546.266 205.65C545.938 205.528 545.639 205.348 545.388 205.121C545.137 204.894 544.937 204.625 544.802 204.328C544.666 204.031 544.597 203.713 544.598 203.392C544.599 202.744 544.884 202.123 545.391 201.665C545.898 201.207 546.585 200.95 547.302 200.95C548.79 200.95 549.995 202.045 549.995 203.393C549.997 203.713 549.928 204.03 549.793 204.327C549.658 204.623 549.46 204.892 549.209 205.119C548.959 205.346 548.662 205.526 548.335 205.648C548.007 205.771 547.656 205.834 547.302 205.834V205.833ZM547.302 180.723C546.584 180.723 545.896 180.466 545.388 180.007C544.881 179.548 544.596 178.926 544.596 178.278C544.596 177.629 544.881 177.007 545.388 176.548C545.896 176.09 546.584 175.832 547.302 175.832C548.79 175.832 549.995 176.927 549.995 178.274C549.995 179.628 548.78 180.723 547.302 180.723ZM547.302 155.598C545.803 155.598 544.598 154.5 544.598 153.155C544.599 152.507 544.884 151.886 545.391 151.428C545.898 150.97 546.585 150.713 547.302 150.713C548.79 150.713 549.995 151.808 549.995 153.156C549.997 153.476 549.928 153.794 549.793 154.09C549.658 154.386 549.46 154.656 549.21 154.882C548.96 155.109 548.662 155.289 548.335 155.412C548.007 155.535 547.656 155.598 547.302 155.598V155.598ZM547.302 130.479C546.947 130.48 546.595 130.418 546.266 130.296C545.938 130.173 545.639 129.994 545.388 129.767C545.137 129.54 544.937 129.27 544.802 128.973C544.666 128.677 544.597 128.359 544.598 128.037C544.599 127.39 544.884 126.768 545.391 126.31C545.898 125.852 546.585 125.595 547.302 125.595C548.79 125.595 549.995 126.691 549.995 128.038C549.997 128.359 549.928 128.676 549.793 128.972C549.658 129.268 549.46 129.538 549.209 129.764C548.959 129.991 548.662 130.171 548.335 130.294C548.007 130.417 547.656 130.48 547.302 130.48V130.479ZM547.302 105.361C546.586 105.361 545.9 105.105 545.394 104.647C544.888 104.19 544.604 103.57 544.604 102.923C544.604 102.276 544.888 101.656 545.394 101.199C545.9 100.742 546.586 100.485 547.302 100.485C548.018 100.485 548.704 100.742 549.21 101.199C549.716 101.656 550 102.276 550 102.923C550 103.57 549.716 104.19 549.21 104.647C548.704 105.105 548.018 105.361 547.302 105.361ZM547.302 80.242C546.947 80.2432 546.594 80.1809 546.266 80.0586C545.937 79.9363 545.639 79.7564 545.388 79.5294C545.136 79.3024 544.937 79.0327 544.802 78.7358C544.666 78.4389 544.597 78.1207 544.598 77.7996C544.599 77.1519 544.884 76.5309 545.391 76.0731C545.898 75.6153 546.585 75.3581 547.302 75.3581C548.79 75.3581 549.995 76.4535 549.995 77.7996C549.997 78.12 549.928 78.4374 549.793 78.7337C549.658 79.0299 549.46 79.2993 549.21 79.5262C548.96 79.7531 548.662 79.9331 548.335 80.0559C548.007 80.1788 547.656 80.242 547.302 80.242ZM547.302 55.1226C546.947 55.1238 546.594 55.0615 546.266 54.9392C545.937 54.8169 545.639 54.6371 545.388 54.41C545.136 54.183 544.937 53.9133 544.802 53.6164C544.666 53.3195 544.597 53.0014 544.598 52.6802C544.599 52.0326 544.884 51.4116 545.391 50.9537C545.898 50.4959 546.585 50.2388 547.302 50.2388C548.79 50.2388 549.995 51.3341 549.995 52.6802C549.997 53.0006 549.928 53.318 549.793 53.6143C549.658 53.9106 549.46 54.1799 549.21 54.4068C548.96 54.6337 548.662 54.8137 548.335 54.9366C548.007 55.0594 547.656 55.1226 547.302 55.1226ZM547.302 30.0033C546.947 30.0045 546.595 29.9421 546.266 29.8199C545.938 29.6977 545.639 29.5179 545.388 29.291C545.137 29.064 544.937 28.7944 544.802 28.4977C544.666 28.2009 544.597 27.8828 544.598 27.5618C544.599 26.9139 544.884 26.2927 545.391 25.8347C545.898 25.3767 546.585 25.1194 547.302 25.1194C548.79 25.1194 549.995 26.2148 549.995 27.5627C549.997 27.883 549.928 28.2003 549.793 28.4964C549.658 28.7926 549.46 29.0618 549.209 29.2886C548.959 29.5154 548.662 29.6954 548.335 29.8182C548.007 29.941 547.656 30.0042 547.302 30.0042V30.0033ZM547.302 4.88387C546.947 4.88507 546.596 4.823 546.268 4.70121C545.94 4.57942 545.642 4.40032 545.391 4.17417C545.14 3.94801 544.94 3.67927 544.804 3.38334C544.668 3.08742 544.598 2.77014 544.598 2.44971C544.597 2.12832 544.667 1.80991 544.802 1.51273C544.937 1.21556 545.136 0.945454 545.388 0.717893C545.639 0.490332 545.937 0.309786 546.266 0.186598C546.594 0.06341 546.946 -1.10455e-06 547.302 0C548.79 0 549.995 1.09629 549.995 2.44971C549.995 3.09529 549.712 3.71443 549.207 4.17092C548.701 4.62741 548.016 4.88387 547.302 4.88387Z" fill="#1E3F7D"/>
<path fill-rule="evenodd" clip-rule="evenodd" d="M271.293 131.619H380.12V33.2734L271.293 131.619Z" fill="#FFB321"/>
</svg>
