<svg xmlns="http://www.w3.org/2000/svg" xmlns:xlink="http://www.w3.org/1999/xlink" width="550" height="600"><style><![CDATA[.L,.P,.Q,.R,.V,.X,.Z{mix-blend-mode:multiply}.k{opacity:.5}.l{fill:#daedf9}.m{fill:#73bfff}.n{fill:#ffa698}.o{fill:#29427b}.p{fill:#3656a1}.q{fill:#d0e7ff}.r{fill:#b4b9ff}.s{fill:#585afa}.t{fill:#fb6592}.u{fill:#a8aeff}.v{fill:#19325c}.w{fill:#f38ca0}]]></style><defs><linearGradient id="A" x1="213.477" y1="184.646" x2="290.768" y2="475.084" gradientUnits="userSpaceOnUse"><stop offset="0" stop-color="#c4e0f5"/><stop offset="1" stop-color="#e1e8f6"/></linearGradient><linearGradient id="B" x1="147.251" y1="196.492" x2="123.619" y2="128.41" gradientUnits="userSpaceOnUse"><stop offset="0" stop-color="#965cf2"/><stop offset="1" stop-color="#ff8adc"/></linearGradient><linearGradient id="C" x1="317.969" y1="161.88" x2="326.387" y2="83.462" xlink:href="#B"/><linearGradient id="D" x1="388.501" y1="252.73" x2="387.424" y2="264.136" gradientUnits="userSpaceOnUse"><stop offset="0" stop-color="#ff8a78"/><stop offset="1" stop-color="#ffa799"/></linearGradient><linearGradient id="E" x1="387.605" y1="251.935" x2="386.716" y2="261.345" xlink:href="#D"/><linearGradient id="F" x1="497.02" y1="332.053" x2="493.813" y2="326.472" xlink:href="#D"/><linearGradient id="G" x1="480.39" y1="219.885" x2="484.592" y2="224.598" xlink:href="#D"/><linearGradient id="H" x1="466.243" y1="206.029" x2="471.455" y2="218.892" gradientUnits="userSpaceOnUse"><stop offset="0" stop-color="#ffb89e"/><stop offset="1" stop-color="#ffa799"/></linearGradient><linearGradient id="I" x1="157.439" y1="276.344" x2="156.153" y2="275.366" xlink:href="#D"/><linearGradient id="J" x1="61.322" y1="385.555" x2="63.413" y2="381.769" xlink:href="#D"/><linearGradient id="K" x1="80.776" y1="293.627" x2="79.881" y2="298.107" xlink:href="#D"/><linearGradient id="L" x1="96.717" y1="276.163" x2="89.813" y2="287.343" xlink:href="#H"/><path id="M" d="M394.882 54.832c-1.927.44-3.407 2.735-3.306 5.125s1.745 3.97 3.673 3.528 3.407-2.735 3.306-5.125-1.746-3.97-3.673-3.528z"/><path id="N" d="M499.722 282.348a1.072 1.072 0 0 0-.962 1.07.902.902 0 0 0 .962.932 1.072 1.072 0 0 0 .962-1.07.902.902 0 0 0-.962-.932z"/></defs><g fill-rule="evenodd"><path d="M135.69 491.842l6.602-3.672 1.836 3.3-6.602 3.672-1.836-3.3zm53.4-422.293l-1.836-3.302-4.362 2.426 1.836 3.3 4.362-2.426zm-7.664 4.262l-6.603 3.672-1.836-3.3 6.603-3.672 1.836 3.3zm-9.904 5.508l-6.602 3.672-1.836-3.3 6.602-3.672 1.836 3.302zm-9.903 5.507l-6.602 3.672-1.836-3.302 6.602-3.672 1.836 3.3zm-9.903 5.507l-6.602 3.672-1.836-3.3 6.602-3.672 1.836 3.302zm-9.903 5.507l-6.602 3.67-1.836-3.3 6.602-3.67 1.836 3.3zm-9.903 5.507l-6.602 3.672-1.836-3.302 6.602-3.67 1.836 3.3zm-9.903 5.507l-6.602 3.672-1.836-3.3 6.602-3.672 1.836 3.3zm-9.903 5.507l-6.602 3.672-1.836-3.3 6.602-3.672 1.837 3.302zm-9.903 5.507l-6.602 3.67-1.836-3.3 6.602-3.67 1.836 3.3zm-9.903 5.507l-6.6 3.672-1.836-3.302 6.602-3.67 1.836 3.3zm-9.903 5.507l-6.602 3.672-1.836-3.3 6.602-3.672 1.836 3.3zm-9.903 5.507l-6.602 3.672-1.836-3.3 6.602-3.672 1.836 3.302zM62.6 139.9l-6.602 3.672-1.837-3.302 6.602-3.672L62.6 139.9zm-9.903 5.507l-6.602 3.672-1.836-3.302 6.602-3.672 1.836 3.302zm-9.7 5.474l-2.16-3.098a22.232 22.232 0 0 0-5.687 5.919l3.138 2.102a18.509 18.509 0 0 1 4.709-4.923zm-6.42 7.963l-3.42-1.603a27.295 27.295 0 0 0-2.317 7.763l3.743.5-.001.008a23.525 23.525 0 0 1 1.995-6.667zm-2.18 10.1l-3.774.15a71.934 71.934 0 0 0 .997 7.686l3.737-.548a68.261 68.261 0 0 1-.96-7.289zm1.508 11.026l1.095 7.475-3.737.547-1.095-7.475 3.737-.547zm1.643 11.212l1.095 7.475-3.737.548-1.095-7.475 3.737-.548zm1.643 11.212l1.095 7.475-3.737.547-1.095-7.475 3.737-.547zm1.643 11.212l1.095 7.475-3.737.548-1.095-7.475 3.737-.548zm1.642 11.212l1.095 7.475-3.737.547-1.095-7.475 3.737-.548zm1.642 11.212l1.095 7.475-3.737.548-1.095-7.475 3.737-.548zm1.643 11.212l1.095 7.476-3.737.548-1.095-7.475 3.737-.547zm1.643 11.212l1.095 7.475-3.737.548-1.095-7.475 3.737-.548zm1.643 11.212l1.095 7.475-3.737.548-1.095-7.475 3.737-.548zm1.643 11.212l1.095 7.475-3.737.548-1.095-7.475 3.737-.548zm1.643 11.212l1.095 7.475-3.737.548-1.095-7.475 3.737-.548zm1.643 11.212l1.095 7.475-3.737.547-1.095-7.475 3.737-.547zm1.642 11.212l1.095 7.475-3.737.547-1.096-7.475 3.737-.548zm1.642 11.212l1.095 7.475-3.737.547-1.095-7.475 3.737-.547zm1.643 11.212l1.095 7.475-3.737.548-1.095-7.474 3.737-.548zm1.642 11.212l1.095 7.476-3.737.547-1.095-7.475 3.737-.547zm1.643 11.212l1.095 7.474-3.737.547-1.095-7.474 3.737-.548zm1.642 11.212l1.095 7.474-3.737.548-1.095-7.474 3.737-.548zm1.643 11.21l1.095 7.474-3.737.548-1.095-7.474 3.737-.548zM67.105 393l1.095 7.474-3.737.547-1.095-7.474 3.737-.547zm1.642 11.21l1.095 7.474-3.737.548-1.095-7.474 3.737-.547zm1.642 11.21l1.095 7.474-3.737.548-1.095-7.474 3.737-.547zm1.643 11.21l1.095 7.474-3.737.547-1.095-7.474 3.737-.547zm1.642 11.21l1.095 7.474-3.737.547-1.095-7.474 3.737-.548zm1.642 11.21l1.095 7.474-3.737.548-1.095-7.474 3.737-.548zm1.643 11.21l1.095 7.474-3.737.548-1.095-7.474 3.737-.548zm1.643 11.21l1.095 7.474-3.737.548-1.095-7.474 3.737-.548zm1.642 11.21l1.095 7.474-3.737.548-1.094-7.474 3.737-.548zm1.642 11.21l1.094 7.474-3.737.548-1.095-7.474 3.737-.547zm1.64 11.21l.253 1.73a12.548 12.548 0 0 0 1.618 4.733l-3.212 1.987a16.298 16.298 0 0 1-2.143-6.172l-.253-1.73 3.737-.547zm3.896 8.726l-2.24 3.04a10.656 10.656 0 0 0 8.674 1.823l-.767-3.7a6.904 6.904 0 0 1-5.667-1.165zm8.655.033l6.6-3.67 1.836 3.3-6.606 3.672-1.83-3.304zm9.9-5.506l6.602-3.67 1.836 3.3-6.602 3.67-1.836-3.3zm9.903-5.507l6.602-3.672 1.836 3.3-6.602 3.672-1.836-3.3zm16.505-9.18l1.836 3.3-6.602 3.672-1.836-3.302z" class="l"/><path d="M229.27 22.5a21.657 21.657 0 0 0-7.668 7.287c.027-.553.054 1.476.036-1.66s1.78-8.2-.672-10.738c-.972-1.005-5.707-2.853-6.844-3.145a10.137 10.137 0 0 0-7.414 1.295c-4.108 2.246-7.828 6.62-10.528 11.877a49.66 49.66 0 0 0-4.383 17.221c.004 3.172.016 1.096.047 1.63-2.287-.687-4.34-.678-7.87 1.275s-7.98 6.773-10.74 12.126a39.621 39.621 0 0 0-4.516 17.511c-.01 4.572 1.032 8.204 2.807 10.718 1.788 2.534 5.244 4.03 7.694 4.844 7.024 2.44 20.565-11.8 27.7-15.846q11.373-6.438 22.63-12.803c4.1-2.314 7.756-6.724 10.382-12a38.589 38.589 0 0 0 4.147-17.082c-.03-3.335 2.407-8.34-.748-10.736-4.904-3.723-10.143-3.956-14.07-1.782z" class="s"/><path d="M233.24 24.226a21.66 21.66 0 0 0-7.668 7.287c.027-.554.054 1.476.035-1.66s-1.715-9.984-4.41-12.263-6.41-2.573-10.518-.326-7.828 6.62-10.528 11.877a49.659 49.659 0 0 0-4.383 17.221l.047 1.63c-2.287-.687-4.34-.678-7.87 1.275s-7.98 6.773-10.74 12.126a39.534 39.534 0 0 0-4.516 17.511c-.013 5.882 1.7 10.263 4.468 12.57 2.758 2.3 6.583 2.516 10.787.137q11.522-6.52 22.956-13 11.373-6.438 22.63-12.803c4.09-2.314 7.755-6.724 10.382-12a38.6 38.6 0 0 0 4.148-17.082c-.053-5.707-1.727-9.95-4.4-12.212-2.678-2.266-6.986-2.206-10.42-.306z" class="t"/><path d="M225.313 52.508l7.038-4.06-11.07 19.17-11.14-6.348 7.035-4.064-.02-18.05 8.135-4.697.02 18.05zm-24.388 7.82l-7.038 4.06 11.07-19.17 11.14 6.348-7.035 4.063.02 18.05-8.135 4.697-.02-18.05z" fill="#e6f7ff"/><path d="M410.915 75.294l-5.757 3.2-1.6-2.88 5.757-3.2 1.6 2.88zM402.44 344.76l1.6 2.88 4.328-2.407-1.6-2.88-4.33 2.407zm7.207-4.008l5.758-3.202 1.6 2.88-5.758 3.202-1.6-2.88zm8.636-4.803l5.757-3.202 1.6 2.88-5.757 3.202-1.6-2.88zm8.636-4.803l5.757-3.202 1.6 2.88-5.757 3.202-1.6-2.88zm8.636-4.803l5.757-3.202 1.6 2.88-5.757 3.202-1.6-2.88zm8.636-4.803l5.757-3.2 1.6 2.88-5.757 3.2-1.6-2.88zm8.636-4.802l2.965-1.65a9.761 9.761 0 0 0 2.179-1.659l2.316 2.342a13.714 13.714 0 0 1-2.896 2.197l-2.962 1.647-1.6-2.88zm6.97-5.582l2.78 1.766a18.951 18.951 0 0 0 2.642-6.668l-3.238-.602a15.619 15.619 0 0 1-2.185 5.505zm2.418-8.422l3.292-.12a63.531 63.531 0 0 0-.89-6.704l-3.26.478a62.119 62.119 0 0 1 .857 6.347zm-1.335-9.607l-.956-6.52 3.26-.478.956 6.52-3.26.478zm-1.434-9.778l-.956-6.52 3.26-.478.956 6.518-3.26.478zm-1.433-9.778l-.955-6.52 3.26-.478.955 6.52-3.26.478zm-1.433-9.778l-.955-6.518 3.26-.478.955 6.518-3.26.478zm-1.433-9.777l-.955-6.518 3.26-.478.955 6.518-3.26.478zm-1.433-9.777l-.955-6.518 3.26-.478.955 6.518-3.26.478zm-1.433-9.777l-.955-6.518 3.26-.478.955 6.518-3.26.478zm-1.432-9.777l-.955-6.518 3.26-.478.955 6.518-3.26.478zm-1.433-9.777l-.955-6.518 3.26-.478.955 6.518-3.26.478zm-1.433-9.777l-.955-6.518 3.26-.478.955 6.518-3.26.478zm-1.433-9.777l-.955-6.518 3.26-.478.955 6.518-3.26.478zm-1.432-9.777l-.955-6.518 3.26-.478.955 6.518-3.26.478zm-1.432-9.777l-.955-6.518 3.26-.478.955 6.518-3.26.478zm-1.432-9.777l-.955-6.518 3.26-.478.955 6.518-3.26.478zm-1.432-9.777l-.955-6.518 3.26-.478.955 6.518-3.26.478zm-1.432-9.777l-.955-6.518 3.26-.478.955 6.518-3.26.478zm-1.432-9.777l-.955-6.518 3.26-.478.955 6.518-3.26.478zm-1.432-9.777l-.955-6.518 3.26-.478.955 6.518-3.26.478zm-1.432-9.777l-.955-6.518 3.26-.478.955 6.518-3.26.478zm-1.432-9.777l-.955-6.518 3.26-.478.955 6.518-3.26.478zm-1.432-9.777l-.955-6.518 3.26-.478.955 6.518-3.26.478zM430.8 87.81l-.955-6.518 3.26-.478.955 6.518-3.26.478zm-1.432-9.777c-.204-1.4-.438-4.393-1.156-6.046l3.036-1.278c.878 2.042 1.077 4.79 1.378 6.846l-3.26.478zm-2.6-8.138l2.193-2.457a7.71 7.71 0 0 0-7.808-1.417l1.073 3.114a4.441 4.441 0 0 1 4.542.759zm-12.975 3.8l-1.6-2.88 5.757-3.202 1.6 2.88z" class="l"/><path d="M154.753 530.213L354.21 419.91c4.896-2.237 12.092-4.347 16.893-1.422l12.288 7.486c2.47 1.506 10.6 6.505 5.163 9.46L186.6 547.632c-3.072 1.67-7.566 2.274-12.283 1.883a30.855 30.855 0 0 1-13.303-3.962l-4.908-3.027c-3.47-2.14-5.39-4.477-5.576-6.72-.18-2.2 1.227-4.222 4.233-5.594z" class="k u"/><path d="M304.366 35.22a11.054 11.054 0 0 1 9.404-1.05l7.06 2.76c2.563 13.267-146.196 499.58-149.47 502.954l-6.302-2.378c-4.137-1.63-6.307-5.936-6.914-10.122L104.942 164.23a.252.252 0 0 1-.007-.041 25.947 25.947 0 0 1 4.328-17.568 20.452 20.452 0 0 1 7.107-6.853z" fill="url(#A)"/><path d="M123.334 142.456l187.992-104.55c7.667-4.25 14.968-.17 16.322 9.078L380.85 410.14c1.354 9.248-3.742 20.2-11.41 24.448l-187.994 104.55c-7.667 4.25-14.985.18-16.34-9.067l-53.202-363.155c-1.357-9.246 3.76-20.21 11.427-24.458z" class="m"/><path d="M123.334 142.456l187.99-104.55c7.666-4.25 14.967-.17 16.32 9.078l2.725 18.597-215.733 119.974-2.73-18.642c-1.357-9.246 3.76-20.21 11.428-24.458z" class="o"/><path d="M312.912 63.666a10.46 10.46 0 0 0 3.234-9.26c-.634-3.12-3.1-4.032-5.532-2.036a10.468 10.468 0 0 0-3.234 9.26c.635 3.12 3.112 4.03 5.532 2.036zm-15.374 9.34a10.461 10.461 0 0 0 3.234-9.261c-.634-3.118-3.1-4.032-5.532-2.036a10.467 10.467 0 0 0-3.234 9.26c.635 3.12 3.112 4.03 5.532 2.037zm-15.374 9.34a10.46 10.46 0 0 0 3.234-9.26c-.634-3.12-3.1-4.032-5.532-2.036a10.467 10.467 0 0 0-3.234 9.261c.635 3.12 3.112 4.03 5.532 2.036z" class="l"/><g class="o"><path d="M134.64 230.55a2.809 2.809 0 0 0-1.274 2.686c.15 1.03.95 1.49 1.816 1.01a2.834 2.834 0 0 0 1.241-2.703 1.168 1.168 0 0 0-1.782-.992zm213.826 49.324l-15.36-104.85-1.456.807 15.36 104.85 1.457-.808zm-16.83-109.67a2.842 2.842 0 0 0-1.283 2.728 1.18 1.18 0 0 0 1.828.986 2.832 2.832 0 0 0 1.242-2.688c-.15-1.03-.965-1.482-1.787-1.026zm-6.222 127.875L310.05 193.213l-1.457.81 15.363 104.865 1.457-.808zM308.565 188.4a2.84 2.84 0 0 0-1.269 2.72 1.176 1.176 0 0 0 1.814.992 2.831 2.831 0 0 0 1.257-2.694c-.152-1.03-.964-1.482-1.802-1.018zm-10.61 97.833l-15.362-104.867-1.47.815 15.363 104.867 1.47-.815zM281.08 176.57a2.84 2.84 0 0 0-1.241 2.704 1.172 1.172 0 0 0 1.784 1.009 2.835 2.835 0 0 0 1.273-2.704 1.181 1.181 0 0 0-1.816-1.01zm-10.623 97.842l-15.36-104.867-1.43.793 15.363 104.866 1.427-.792zm-16.832-109.686a2.807 2.807 0 0 0-1.252 2.728 1.16 1.16 0 0 0 1.796.984 2.784 2.784 0 0 0 1.245-2.67c-.152-1.047-.937-1.515-1.788-1.042zm-7.7 117.85l-15.36-104.847-1.456.805 15.362 104.85 1.455-.808zM229.1 172.917a2.842 2.842 0 0 0-1.268 2.722 1.176 1.176 0 0 0 1.812.992 2.835 2.835 0 0 0 1.259-2.696 1.18 1.18 0 0 0-1.803-1.018zm-5.474 132.87l-15.364-104.866-1.47.815 15.362 104.866 1.472-.815zm-16.845-109.66a2.798 2.798 0 0 0-1.268 2.72 1.166 1.166 0 0 0 1.81.974 2.823 2.823 0 0 0 1.245-2.669c-.15-1.045-.965-1.482-1.786-1.025zM202.01 334l-15.36-104.848-1.456.806 15.36 104.85 1.455-.808zm-16.857-109.653a2.837 2.837 0 0 0-1.256 2.713 1.174 1.174 0 0 0 1.799 1 2.841 2.841 0 0 0 1.273-2.704 1.18 1.18 0 0 0-1.816-1.01zm-6.215 127.718L163.576 247.19l-1.442.797 15.362 104.867 1.442-.8zm-16.845-109.66a2.814 2.814 0 0 0-1.275 2.686 1.183 1.183 0 0 0 1.818 1.01 2.819 2.819 0 0 0 1.239-2.704 1.158 1.158 0 0 0-1.782-.992zm-25.973-7.05l-1.47.814 15.363 104.866 1.47-.815z" class="k"/><path d="M125.47 240.88a2.517 2.517 0 0 1 .966-1.019 1.265 1.265 0 0 1 1.396.01c3.568 2.752 6.83 5.13 9.89 7.184a103.73 103.73 0 0 0 8.483 5.246c12.24 6.68 21.105 7.154 29.83 2.31 8.54-4.92 16.777-15.292 27.532-29.884 12.03-16.328 22.647-27.387 33.34-33.315a45.599 45.599 0 0 1 4.745-2.291c12.32-5.074 24.845-3.31 39.843 5.112 1.557.833 3.06 1.732 4.56 2.598 11.54 6.682 22.355 12.935 34.025 6.466 6.07-3.365 12.37-10.172 19.123-22.15a2.52 2.52 0 0 1 .956-1.01 1.244 1.244 0 0 1 1.411.037 2.435 2.435 0 0 1 .163 2.925c-7.542 13.396-14.514 20.952-21.194 24.655-12.578 6.972-24.115.272-36.43-6.85l-4.553-2.562c-14.306-8.055-26.172-9.787-37.713-5.048a41.52 41.52 0 0 0-4.277 2.07c-10.085 5.6-20.27 16.21-31.888 31.98-11.16 15.102-19.73 25.883-29 31.23l-.532.3c-9.192 5.097-18.816 4.662-31.826-2.417q-4.04-2.2-8.702-5.353a219.34 219.34 0 0 1-9.983-7.283 2.367 2.367 0 0 1-.166-2.941z" class="k"/><path d="M127.477 233.174a2.463 2.463 0 0 1 .965-1.006 1.267 1.267 0 0 1 1.396.029c3.568 2.802 6.83 5.225 9.89 7.322 3.016 2.12 5.855 3.866 8.483 5.365 12.24 6.85 21.105 7.448 29.83 2.727 8.538-4.8 16.777-15.058 27.532-29.5 12.03-16.16 22.647-27.07 33.34-32.85a44.798 44.798 0 0 1 4.745-2.224c12.32-4.903 24.845-2.965 39.843 5.668 1.557.855 3.06 1.775 4.56 2.662 11.54 6.844 22.355 13.247 34.025 6.942 6.07-3.28 12.37-10 19.124-21.883a2.473 2.473 0 0 1 .956-.996 1.245 1.245 0 0 1 1.411.058 2.441 2.441 0 0 1 .164 2.927c-7.542 13.29-14.514 20.75-21.195 24.36-12.577 6.797-24.114-.065-36.43-7.36l-4.553-2.626c-14.306-8.254-26.172-10.152-37.712-5.574a40.655 40.655 0 0 0-4.277 2.01c-10.085 5.45-20.27 15.928-31.888 31.534-11.16 14.946-19.73 25.607-29 30.825l-.532.292c-9.192 4.97-18.816 4.4-31.826-2.86q-4.04-2.257-8.702-5.475a224.11 224.11 0 0 1-9.983-7.423 2.373 2.373 0 0 1-.166-2.942z"/></g><path d="M129.84 232.197a151.566 151.566 0 0 0 18.374 12.688c12.24 6.85 21.105 7.448 29.83 2.727 8.538-4.8 16.777-15.058 27.532-29.5 9.522-12.79 22.785-29 38.084-35.074 16.417-6.533 30.184-.082 44.402 8.33 11.54 6.844 22.355 13.247 34.025 6.942 6.07-3.28 12.37-10 19.124-21.883a2.473 2.473 0 0 1 .956-.996c-1.913 4.92-10.508 19.527-18.8 24.014-12.577 6.797-23.394.836-35.71-6.46-13.738-7.82-27.928-14.854-43.795-8.56-14.406 5.752-28.274 22.573-37.245 34.624-11.162 14.946-19.19 25.156-28.46 30.374-7.727 4.33-14.2 4.097-21.016 1.554-7.13-2.66-23.664-13.1-27.293-18.78z" fill="#b1e8fd"/><path class="L k r" d="M239.18 258.605l110.505-61.237 15.48 105.658-111.58 61.832c-7.818 4.33-15.278.182-16.66-9.245l-9.395-72.07c-1.383-9.426 3.836-20.604 11.652-24.937z"/><path d="M241.194 280.957l10.723 72.873-1.288.156-3.51-1.364c-3.85-1.517-5.87-5.526-6.436-9.423l-8.578-65.79a.292.292 0 0 1-.005-.038 24.143 24.143 0 0 1 4.029-16.352 19.027 19.027 0 0 1 6.615-6.379l140.75-78.017a10.285 10.285 0 0 1 8.753-.978l3.096 1.2c1.558.586 2.04 1.053 2.03 1.15-1.46 13.62-158.226 88.982-156.176 102.953z" fill="#e5edff"/><path d="M246.284 256.032l140.746-78.018a10.198 10.198 0 0 1 8.75-.981c3.28 1.277 5.734 4.596 6.443 9.432l8.577 65.793c1.262 8.61-3.483 18.803-10.618 22.758l-140.748 78.017c-7.137 3.955-13.948.167-15.21-8.44l-8.577-65.796c-1.263-8.606 3.5-18.81 10.637-22.766z" class="l"/><path d="M243.666 283.466l80.17-44.106a2.436 2.436 0 0 1 2.092-.233 2.681 2.681 0 0 1 1.54 2.255l.536 3.243a5.677 5.677 0 0 1-2.538 5.439l-80.17 44.105c-1.707.945-3.335.04-3.636-2.018l-.536-3.244a5.679 5.679 0 0 1 2.543-5.441zm2.904 19.85l80.17-44.106a2.439 2.439 0 0 1 2.092-.233 2.679 2.679 0 0 1 1.54 2.254l.536 3.244a5.677 5.677 0 0 1-2.538 5.44L248.2 314.02c-1.707.945-3.334.04-3.636-2.018l-.536-3.244a5.679 5.679 0 0 1 2.543-5.442zm51.188-7.283l31.886-16.974a2.438 2.438 0 0 1 2.092-.234 2.681 2.681 0 0 1 1.54 2.255l.536 3.243a5.677 5.677 0 0 1-2.538 5.44l-31.887 16.974c-1.707.945-3.334.04-3.636-2.018l-.536-3.244a5.682 5.682 0 0 1 2.543-5.442z" class="m"/><path d="M399.98 219.015c2.473 22.2-9.837 49.32-27.53 60.53s-34.657-3.227-36.518-19.94 1.266-23.662 6.324-34.684l9.235 5.063c-3.282 7.083-5.306 11.615-4.11 22.36s12.104 20.014 23.465 12.81 19.27-24.628 17.683-38.882l11.45-7.258z" class="t"/><g class="p"><path d="M387.407 196.52c6.613 3.585 11.335 11.378 12.573 22.495l-11.45 7.258c-.793-7.128-3.8-12.153-8.065-14.458q3.485-7.63 6.943-15.295z"/><path d="M363.46 199.063c8.854-5.605 17.354-6.163 23.944-2.577q-3.444 7.68-6.94 15.328c-4.255-2.305-9.72-1.954-15.376 1.64s-10.522 9.76-13.714 16.787l-9.23-5.03c4.968-10.964 12.463-20.545 21.316-26.15z"/></g><path class="L k r" d="M191.443 381.218c16.215-12.93 25.91-39.783 21.66-60-4.247-20.207-20.83-26.123-37.047-13.195-16.205 12.92-25.906 39.795-21.658 60 4.25 20.218 20.84 26.115 37.045 13.194z"/><path d="M209.506 306.742c-2.946-3.072-10.35-4.833-14.495-5.056-4.836-.26-10.236 1.703-15.588 6.114-14.047 11.578-22.457 35.657-18.775 53.762 1.093 5.378 3.064 9.68 5.82 12.636 2.572 2.76 10.846 6.24 14.666 6.546 22.9 3.188 37.038-64.965 28.37-74z" class="q"/><path d="M198.342 374.794c14.056-11.584 22.46-35.646 18.776-53.76-3.682-18.105-18.058-23.406-32.115-11.822-14.047 11.578-22.458 35.657-18.774 53.76 3.684 18.116 18.065 23.4 32.114 11.822z" class="t"/><path d="M198.213 328.556l3.8.182-7.148 30.177-19.06-14.01 4.75-.25 8.87 3.587 8.788-19.686z" fill="#e6f7ff"/><path class="L k r" d="M143.395 435.457l166.888-92.39a9.901 9.901 0 0 1 8.494-.952c3.184 1.24 5.566 4.46 6.254 9.155l11.573 82.045c1.224 8.356-3.382 18.252-10.308 22.09l-153.577 85.02c-1.675-.632-9.806-2.066-10.262-4.47z"/><path d="M132.408 459.79l13.03 84.846-1.193.144-3.253-1.263-.48-.207-.046-.018c-3.566-1.404-5.438-5.118-5.96-8.727l-11.043-78.287a.33.33 0 0 1-.004-.035 22.363 22.363 0 0 1 3.731-15.147 17.618 17.618 0 0 1 6.127-5.908l168.57-93.32a9.529 9.529 0 0 1 8.108-.906l2.868 1.12a11.3 11.3 0 0 1 .778.323c1.244.496 1.638.884 1.628.968C313.913 356 130.51 446.85 132.408 459.79z" class="q"/><path d="M137.123 436.703l168.565-93.32a9.447 9.447 0 0 1 8.104-.908c3.04 1.183 5.31 4.257 5.968 8.736l11.042 78.29c1.168 7.974-3.227 17.416-9.836 21.08L152.4 543.898c-6.612 3.663-12.92.155-14.088-7.817L127.27 457.8c-1.17-7.973 3.244-17.424 9.853-21.087z" class="s"/><path d="M321.097 402.474c-1.9-11.052-6.197-14.79-11.695-13.25a11.616 11.616 0 0 0-2.611 1.11c-5.39 3.073-10.887 11.108-11.725 24.484-.536 8.468-2.154 16.23-9.25 20.275-18.653 9.986-11.926-49.11-29.588-39.032-15.207 8.68-6.107 40.07-12.028 59.954-2.057 6.896-5.76 10.14-8.316 11.596-10.74 5.728-11.93-12.38-13.328-19.998-6.472-35.207-10.578-37.146-17.127-33.412-6.844 3.973-9.887 6.67-8.62 43.44.524 15.036.001 28.503-10.58 34.846-11.814 6.74-12.853-7.073-18.098-13.802-3.117-3.996-7.164-4.813-10.858-2.707-3.995 2.278-7.58 7.972-9.136 16.765-2.612 14.748-1.41 35.144-.633 42.264L325.332 434.33c-1.53-10.79-2.593-22.3-4.234-31.856z" class="q"/><path class="L k r" d="M340.637 339.965l27.668-15.2 11.98 81.78-27.984 15.363c-7.794 4.317-15.228.182-16.605-9.214l-6.673-47.883c-1.38-9.396 3.823-20.537 11.612-24.855z"/><path d="M342.47 362.03l8.258 50.935-1.287.156-3.512-1.364c-3.85-1.516-5.87-5.526-6.435-9.423l-6.114-43.854a.292.292 0 0 1-.005-.038 24.142 24.142 0 0 1 4.029-16.352 19.027 19.027 0 0 1 6.615-6.379l53.93-29.605a10.288 10.288 0 0 1 8.753-.977l3.096 1.21c1.558.586 2.04 1.054 2.03 1.15-1.46 13.62-71.408 40.57-69.358 54.54z" class="q"/><path d="M347.56 337.105l53.928-29.606a10.2 10.2 0 0 1 8.75-.981c3.28 1.277 5.734 4.596 6.443 9.43l6.113 43.856c1.26 8.61-3.484 18.803-10.62 22.758l-53.93 29.606c-7.138 3.955-13.948.167-15.21-8.44l-6.112-43.858c-1.263-8.607 3.5-18.81 10.636-22.766z" class="l"/><path d="M356.997 353.06c-.543-3.708 1.492-8.072 4.578-9.782 3.143-1.742 6.055-.123 6.6 3.585.546 3.735-1.478 8.166-4.622 9.908-3.088 1.713-6 .023-6.555-3.71zm16.945 33.17c.546 3.732-1.478 8.166-4.622 9.908-3.09 1.7-6.012.02-6.558-3.71s1.49-8.095 4.578-9.805c3.144-1.742 6.056-.123 6.602 3.608zm19.3-31.925c-.546-3.73 1.536-8.195 4.623-9.905 3.067-1.7 6.01-.023 6.555 3.71.543 3.71-1.51 8.08-4.58 9.782-3.087 1.71-6.056.124-6.6-3.588zm-40.15.923c.932 6.353 5.96 9.105 11.155 6.226 3.74-2.072 6.57-6.4 7.596-11l17.415 2.98a11.34 11.34 0 0 0 .11 3.021 8.348 8.348 0 0 0 .712 2.589l-13.993 20.393c-2.117-2.84-5.696-3.638-9.434-1.567-5.198 2.883-8.712 10.446-7.793 16.728.932 6.353 5.956 9.082 11.15 6.202 5.253-2.912 8.8-10.396 7.872-16.745l-.112-.34 14.772-21.297c2.075 1.707 4.965 1.9 7.994.23 5.255-2.912 8.717-10.42 7.795-16.705-.93-6.35-5.9-9.134-11.153-6.223a15.528 15.528 0 0 0-6.743 8.324l-18.315-2.882-.006-.473c-.93-6.353-5.973-9.074-11.228-6.16-5.195 2.88-8.724 10.35-7.796 16.702z" class="m"/><path class="P k" d="M97.346 148.103l60.746-31.537 6.336 3.04 8.906 64.7c1.32 8.994-3.64 19.645-11.095 23.78L121.25 230.54l-6.98-2.7z" fill="url(#B)"/><path d="M60.43 139.697L76.17 244.032l-1.345.164-3.67-1.426c-4.023-1.584-6.134-5.774-6.724-9.845l-13.5-96.936a.226.226 0 0 1-.006-.04 25.227 25.227 0 0 1 4.209-17.086 19.883 19.883 0 0 1 6.912-6.665l71.734-39.294a10.747 10.747 0 0 1 9.147-1.022l3.235 1.264c1.628.612 2.13 1.102 2.12 1.202-1.526 14.23-89.996 50.75-87.854 65.348z" class="q"/><path d="M65.747 113.654l71.73-39.295c3.27-1.81 6.468-2.066 9.142-1.025 3.428 1.334 5.992 4.802 6.732 9.854l13.5 96.94c1.318 8.995-3.64 19.646-11.095 23.78L84.024 243.2c-7.457 4.13-14.573.174-15.89-8.82l-13.5-96.94c-1.32-8.993 3.657-19.655 11.113-23.788z" class="l"/><path d="M65.747 113.654l71.73-39.295c3.268-1.8 6.468-2.066 9.142-1.025 3.428 1.334 5.992 4.8 6.732 9.854l10.75 77.186-98.74 54.1-10.727-77.025c-1.32-8.993 3.657-19.655 11.112-23.787zm90.53 59.696c-.243-1.8-1.6-2.594-3.03-1.77l-32.466 17.614a5.073 5.073 0 0 0-2.149 4.757l.472 3.562c.243 1.8 1.602 2.593 3.03 1.77L154.6 181.67a5.07 5.07 0 0 0 2.15-4.757zm2.068 15.622c-.214-1.586-1.4-2.285-2.67-1.56L88.686 223.68a4.47 4.47 0 0 0-1.894 4.191l.416 3.138c.214 1.586 1.4 2.285 2.67 1.56l66.988-36.267a4.465 4.465 0 0 0 1.894-4.19z" class="m"/><g class="o"><path d="M76.894 134.268l-16.042 9.037 8.392 62.556 16.04-9.037-8.39-62.556zM122.542 88.1l-16.04 9.037 11.256 83.736 16.04-9.037L122.542 88.1zm-22.127 27.89l9.318 69.404-16.04 9.038-9.318-69.405 16.042-9.037zm57.44 42.293l-16.04 9.037-8.39-62.556 16.04-9.037z"/><path class="Q k" d="M152.913 120.242a1.073 1.073 0 0 0-.299-1.607 1.457 1.457 0 0 0-1.852-.052l-14.418 14.444-7.528 2.882-17.58-4.697-11.9-12.198a1.568 1.568 0 0 0-1.878-.327.899.899 0 0 0-.254.247l-20.92 24.778-14.396 2.684c-.73-.07-1.274.375-1.217.997a1.56 1.56 0 0 0 1.423 1.258l15.035-2.62a1.173 1.173 0 0 0 1.068-.36l20.436-24.184 11.04 11.3a1.723 1.723 0 0 0 .788.457l18.528 4.95a1.435 1.435 0 0 0 .881-.027l8.064-3.09a1.01 1.01 0 0 0 .437-.253z"/></g><path d="M152.957 120.57a1.402 1.402 0 0 0-.336-1.885 1.29 1.29 0 0 0-1.85-.04l-14.06 17.15-7.45 3.48-17.662-5.3-12.174-14.194a1.404 1.404 0 0 0-1.883-.361.968.968 0 0 0-.248.294l-19.163 28.56-16.428-1.738a1.043 1.043 0 0 0-1.193 1.186 1.696 1.696 0 0 0 1.45 1.461l17.068 1.805a1.066 1.066 0 0 0 1.057-.436l18.692-27.857 11.284 13.15a1.705 1.705 0 0 0 .797.527l18.613 5.596a1.234 1.234 0 0 0 .879-.042l7.98-3.727a.982.982 0 0 0 .43-.303z" class="l"/><path class="R k" d="M334.404 85.7l-30.362 13.95c-7.246 4.196-9.416 17.754-8.23 26.807l6.17 45.447c1.188 9.052 8.04 12.998 15.287 8.803l27.515-16.7-1.09-7.526z" fill="url(#C)"/><path d="M410.775 52.247c-.4-3.046.43-4.886-1.082-6.61-.962-1.096-4-2.51-5.27-2.987-2.457-.925-5.4-.636-8.394 1.104l-86.806 50.738c-7 4.048-11.74 14.426-10.594 23.16l5.95 43.844c.355 2.707 1.363 6.2 3.67 8.192a14.265 14.265 0 0 0 6.333 3.135c1.988.25 2.513-1.545 4.743-2.836l86.805-50.738c7-4.052 11.74-14.427 10.595-23.16z" class="q"/><path d="M413.127 53.64c-1.145-8.733-7.747-12.544-14.746-8.492l-86.805 50.738c-6.99 4.048-11.74 14.427-10.595 23.16l5.95 43.844c1.145 8.732 7.755 12.54 14.747 8.492l86.804-50.74c7-4.05 11.74-14.427 10.596-23.16z" class="l"/><path d="M413.127 53.64c-1.145-8.734-7.747-12.544-14.746-8.492l-86.805 50.738c-7 4.048-11.74 14.427-10.594 23.16l.56 4.116a22.634 22.634 0 0 1 2.341-1.565l109.76-64.157zm-15.322 26.848c-8.84 2.023-15.63 12.55-15.167 23.514s8 18.2 16.85 16.188 15.63-12.55 15.166-23.513-8.008-18.2-16.85-16.188z" class="m"/><path d="M398.192 89.636c4.767-1.1 8.834 2.817 9.085 8.728s-3.41 11.587-8.178 12.677-8.834-2.817-9.085-8.728 3.41-11.587 8.178-12.677zm-4.13 11.752c.133 3.14 2.293 5.214 4.825 4.636s4.477-3.594 4.344-6.733-2.293-5.215-4.825-4.636-4.476 3.594-4.344 6.734z" class="l"/><path d="M377.337 101.587c-.305-2.33-2.064-3.32-3.927-2.205l-56.684 32.138a6.776 6.776 0 0 0-2.819 6.242l.592 4.6c.306 2.33 2.066 3.32 3.928 2.205L375.1 112.44a6.772 6.772 0 0 0 2.82-6.241zm2.177 16.958c-.18-1.376-1.22-1.96-2.32-1.302l-33.472 18.977a4.002 4.002 0 0 0-1.665 3.686l.35 2.722c.18 1.376 1.22 1.96 2.32 1.302l33.472-18.978a3.999 3.999 0 0 0 1.665-3.686z" class="m"/><g class="l"><path d="M403.657 49.792c-1.927.44-3.407 2.735-3.306 5.125s1.745 3.97 3.673 3.528 3.407-2.735 3.306-5.125-1.747-3.97-3.673-3.528z"/><use xlink:href="#M"/><use xlink:href="#M" x="-9.495" y="5.535"/></g><path d="M539.06 480.06l-62.82-35.778c-6.848-3.13-16.65-5.62-23.628-1.99-6.358 3.308-16.83 10.08-21.46 12.72-3.518 2.006-15.727 9.32-8.123 13.457 22.37 12.165 44.5 25.846 67.227 38.203 4.296 2.337 10.58 3.182 17.18 2.633a45.486 45.486 0 0 0 18.606-5.541q5.663-3.294 11.14-6.484c4.928-2.87 7.54-6.262 7.8-9.4.253-3.064-1.716-5.904-5.92-7.824z" class="k u"/><path d="M389.45 252.964a10.635 10.635 0 0 0 1.479-.349l-1.294-.207a44.141 44.141 0 0 1-6.018-3.828c1.81-3.662 6.297.14 7.172.2.347.028 2.685-.388 4.957-.493 3.23-.15 5.28.538 7.496 3l3.377 2.542c-.28 3.058-.666 5.618-2.536 8.273a5.896 5.896 0 0 0-1.755-.49c-2.296-.24-4.5.286-9.57 1.97-5.14 1.707-6.052 1.653-13.99-4.06-5.813-4.184-8.98-6.527-7.988-9.6 2.324-7.19 11.498 2.04 18.67 3.042z" class="n"/><path d="M390.105 260.466c4.943-.784 8.397-4.88 12.448-2.486a49.08 49.08 0 0 1 2.825 1.801 12.376 12.376 0 0 1-1.295 2.321 5.896 5.896 0 0 0-1.755-.49c-2.296-.24-4.5.286-9.57 1.97-5.14 1.707-6.052 1.653-13.99-4.06-3.905-2.81-6.616-4.79-7.675-6.72-.518-.942 1-2.006 2.244-1.116 6.397 4.575 9.596 7.777 16.766 8.78z" fill="url(#D)"/><path d="M372.486 249.957c2.17 1.65 13.563 6.906 16.234 6.37.717-.144.604-1.53.675-3.24.548 1.137-.128 3.688.962 3.133 6.11-3.108 8.75-3.68 12.285-1.44a12.655 12.655 0 0 0-6.985.502c-2.13.717-4.102 1.97-6.356 2.584-5.912-1.743-9.505-2.346-16.815-7.91z" fill="url(#E)"/><path d="M454.138 281.575l3.2-3.23c6.202-5.758 16.414-24.446 22.164-52.276-2.078-1.7-8.23-3.287-9.337-3.506a11.479 11.479 0 0 0-10.333 3.258c-2.572 3.04-5.2 8.584-6.81 17.442-1.086 5.973-5.538 13.954-8.544 21.337q-.198.488-.388.97a140 140 0 0 0-13.23-5.989c-5.987-2.394-12.813-4.646-20.205-6.793-.882-.256-1.697.324-2.57.074-.484-.2-2.656-.977-3.042-1.16a15.545 15.545 0 0 1-3.621 10.718c.448.152 2.83 1.25 3.316 1.43a10.419 10.419 0 0 1 2.121 2.034c5.56 5.74 21.597 14.335 36.357 18.845 5.012 1.532 8.793.697 10.9-3.156z" class="m"/><path class="V o" d="M454.138 281.575l3.2-3.23c6.202-5.758 16.414-24.446 22.164-52.276-12.363-10.06-24.2 6.555-26.226 17.7-2.624 14.437-5.19 26.758-5.326 41.675a6.996 6.996 0 0 0 6.178-3.87z" opacity=".35"/><path d="M511.207 461.867c.342 1.238.15 2.273.76 3.9a45.25 45.25 0 0 1 2.005 6.266c1.027 4.365-.386 10.2 1 16.386.715 2.47.66 4.447-.98 6.628-1.608 2.138-4.634 5.564-8.58 5.435a5.913 5.913 0 0 1-4.162-2.019 9.942 9.942 0 0 1-2.487-7.32 60.637 60.637 0 0 0 .652-8.423c-.102-3.024-.655-4.7-.586-8.005.074-3.505.344-8.33.398-10.593zm-34.852-17.96c1.143 3.105 1.896 4.433 1.95 8.768-.7 2.3-2.313 3.22-4.1 4.8l-1.266.277c-3.14 1.7-4.288 7.657-7.202 10.37-2.056 1.914-6.146 2.956-10.207 3.74-4.34.838-8.463-.402-7.333-3.815 2.807-8.48 14.94-18.056 15.217-27.53z" class="v"/><path d="M458.147 383.467c.31 16.245 3.85 46.647 3.31 62.654 4.15 4.16 12.46 2.874 15.16-1.384 1.685-14.73 3.65-35.656 3.844-43.738a62.712 62.712 0 0 0-2.16-18.955c2.41-17.774 12.678-42.028 10.233-58.75-1.074-7.345-5.887-15.252-7.288-21.31-12.107 14.916-21.333 7.767-26.344 6.47.03 5.154-.36 4.466-.194 9.883l2.423 56.882a25.973 25.973 0 0 0 1.015 8.249z" class="p"/><path class="X" d="M479.41 416.408c.567-6.397.972-11.965 1.054-15.408a62.714 62.714 0 0 0-2.16-18.955c2.41-17.774 12.677-42.028 10.233-58.75-1.074-7.345-5.887-15.252-7.288-21.31-12.108 14.916-21.334 7.767-26.343 6.472l-.005 1.522 15.867 11.725-3.9-.883c.15 21.108 2.76 40.35 3.153 61.167 4.096 11.804 6.504 21.887 9.333 34.052z" fill="#1e2353" opacity=".3"/><path d="M485.113 395.284c2.918 16.245 11.43 55.665 13.457 71.673 5.242 2.912 11.937 1.39 13.79-2.868.06-14.73.001-41.222-1.1-49.304-.917-6.727-3.298-17.105-5.986-23.147 1.074-37.953 5.314-48.07.187-64.792-2.252-7.345-8.145-14.432-10.518-20.49-3.25 4.99-8.263 12.073-19.004 11.197-1.05-.086-10.007-6.484-12.964-7.22 3.748 22.58 14.547 52.074 19.802 76.7a28.513 28.513 0 0 0 2.339 8.249z" class="p"/><path d="M468.37 222.185a8.964 8.964 0 0 0-3.352 1.129c-8 4.436-10.776 17.493-12.06 28.933-1.113 9.923-.27 18.16.046 27.238.252 7.243-.683 13.945-.358 20.8.096 2.03.868 4.233 1.076 6.394-.006 1.546.542 3.084.524 4.277 4 15.255 41.81 16.518 47.315 6.19a30.493 30.493 0 0 1-.97-4.619c3.56-3.242 1.504-11.144 2.065-16.663.42-4.145 1.016-8.372 2.242-11.394 5.142-12.667 12.322-22.42 13.748-32.142.982-6.697-7.577-15.036-18.863-21.79-10.86-6.5-25.598-10.047-31.414-8.35z" class="m"/><g fill="#5b8ad6"><path d="M452.92 252.595c4.017 4.072 28.758 27.715 56.15 21.638l-.283-1.864c-28.87 6.405-54.94-21.646-55.017-21.727l-.705.674q-.055.466-.107.93l-.04.348zm-.445 14.675c6.773 6.38 27.835 23.943 51.4 20.536a26.57 26.57 0 0 1 .544-1.997c-25.096 4.083-47.592-16.922-52.007-21.34q.02 1.4.064 2.802z"/><path d="M505.04 284.12l-4.87-10.13-6.524 11.007-5.622-13.4-7.725 10.334-3.998-14.395-8.16 8.807-3.714-16.38-6.088 9.187-5.105-19.223q-.15 1.168-.28 2.32-.046.41-.088.818l4.994 18.807 6.02-9.084 3.6 15.885 8.235-8.888 4.073 14.665 7.914-10.587 5.73 13.658 6.592-11.12 4.443 9.244.427-1.175.143-.35z"/><use xlink:href="#N"/><path d="M493.92 276.457a1.072 1.072 0 0 0-.962 1.07.901.901 0 0 0 .962.932 1.071 1.071 0 0 0 .961-1.07.901.901 0 0 0-.961-.932zm-6.778 4.363a1.072 1.072 0 0 0-.961 1.069.901.901 0 0 0 .961.932 1.071 1.071 0 0 0 .962-1.07.902.902 0 0 0-.962-.931zm-5.738-7.596a1.072 1.072 0 0 0-.962 1.07.901.901 0 0 0 .962.932 1.072 1.072 0 0 0 .962-1.069.901.901 0 0 0-.962-.932zm-7.19 2.848a1.072 1.072 0 0 0-.962 1.069.901.901 0 0 0 .962.932 1.072 1.072 0 0 0 .961-1.069.902.902 0 0 0-.961-.932z"/><use xlink:href="#N" x="-29.795" y="-14.671"/><path d="M462.676 269.457a1.072 1.072 0 0 0-.962 1.07.901.901 0 0 0 .962.932 1.072 1.072 0 0 0 .962-1.07.902.902 0 0 0-.962-.932zm-3.846-9.12a1.071 1.071 0 0 0-.962 1.069.902.902 0 0 0 .962.932 1.072 1.072 0 0 0 .962-1.07.901.901 0 0 0-.962-.931zm-6.18.963a.965.965 0 0 0-.241.049q-.012.974-.008 1.936a.918.918 0 0 0 .249.016 1.072 1.072 0 0 0 .961-1.07.901.901 0 0 0-.961-.931zm53.504 15.353a1.071 1.071 0 0 0-.962 1.069.902.902 0 0 0 .962.932 1.072 1.072 0 0 0 .962-1.069.901.901 0 0 0-.962-.932z"/><path class="Z" d="M500.246 257.572c-1.442 7.813.38 21.045 4.23 28.04a88.905 88.905 0 0 1 6.046-12.84c-.22-.6-8.495-24.862-10.277-15.2z" opacity=".35"/></g><path d="M502.795 316.488c-1.75.9-4.878 1.704-6.157 2.36l-8.104 4.453c-2.87 1.67-3.82 4.29-5.653 7.146a18.665 18.665 0 0 0-2.199 5.254c-.256 1.238 2.763 3.846 4.132 3.635 3.108-.48 6.48-4.04 7.314-4.406 7.093-3.116 10.403-3.255 13.067-5.927 1.137-1.14 2.014-4.635 4.405-7.67l-3.962-4.082z" fill="url(#F)"/><path d="M519.233 247.686c6.322 10.123 10.87 28.537 16.484 41.01a8.071 8.071 0 0 1 .728 2.651c1.04 3.097-.584 5.685-2.73 8.44-5.254 6.743-9.452 12.823-20.27 20.88a6.54 6.54 0 0 1-2.832.836c-.678.49-1.64 1.393-2.364 1.905.923-1.042-3.817-6.965-6.155-6.748.643-.698 1.3-1.457 1.972-2.263a7.118 7.118 0 0 1 .668-2.603c1.9-3.63 8.246-12.58 14.32-18.962-2.51-3.272-4.64-7.08-6.395-9.766a162.111 162.111 0 0 1-8.355-14.454c-.982-1.907-1.53-2.852-2.476-4.813-7.015-14.56 9.738-28.393 17.405-16.115z" class="m"/><path d="M473.835 229.59l-.39-1.875c-.373-1.867.112-5.492-.386-9.768l16.19-6.84c.27 9.092 1.76 10.966 3.433 18.374-.18 7.284-18.273 10.545-18.653 1.988a13.422 13.422 0 0 0-.194-1.878z" class="n"/><path d="M473.835 229.59l-.39-1.875c-.373-1.867.112-5.492-.386-9.768l16.19-6.84.36 5.243c.577 6.022-5.196 16.5-15.58 15.118a13.422 13.422 0 0 0-.194-1.878z" fill="url(#G)"/><path d="M472.905 229.184c1.986-1.312 7.416-4.61 9.196-5.915 3.893-2.856 3.42-6.5 4.548-12.208 3.64-2.602 4.864-4.666 5.19-7 .772-5.54-2.384-11.508-6.615-14.77a14.701 14.701 0 0 0-12.733-2.602c-9.29 2.035-13.118 9.065-13.61 17.1a5.391 5.391 0 0 0 .261 1.996 25.365 25.365 0 0 1 .859 2.985c.49 2.384-1.122 3.248-.48 6.21.874 4.03 4.216 11.89 5.585 13.203 1.053 1.01 5.745 1.336 7.797 1.002z" class="n"/><path d="M459.33 200.286a26.001 26.001 0 0 0-.447 3.502 5.391 5.391 0 0 0 .261 1.996 25.226 25.226 0 0 1 .859 2.985c.5 2.384-1.12 3.248-.478 6.21a47.99 47.99 0 0 0 2.516 7.403c5.98 4.55 11.212-1.007 12.012-2.038 3.748-4.834 4.036-12.065 1.2-18.82-4.316 1.45-11.373 1.162-15.923-1.238z" fill="url(#H)"/><path d="M494.438 201.44c-.248 3.072-2.653 10.962-4.473 13.89-1.886 3.033-1.064-.683-2.057-2.76-.764-1.596-3.237-1.78-3.985-3.426-.366 1.398-.855 2.76-1.756 3.252-.574.313-1.735.743-1.78-.907-.16-5.7-2.856-6.097-2.005-9.513.64-2.56.484-3.66-.142-4.586-1.86.26-3.058 2.166-5.238 3.107-1.516.655-8.204 1.364-12.955-1.232-4.595-2.5-5.024-8.106-1.165-11.7 2.147-2 4.556-2.508 7.927-4.763a14.612 14.612 0 0 1 18.804 1.991c8.457 1.71 9.38 9.78 8.826 16.648z" class="o"/><path d="M485.45 206.245c3.505-1.59 3.938 2.595 3.624 5.19-.215 1.782-1.668 1.793-2.055 3.22a3.308 3.308 0 0 1-2.751 2.667c-2.213.155-1.168-3.257-1.033-4.584-.465-2.107-.01-5.483 2.215-6.492z" class="n"/><path d="M475.84 194.63c.34 2.38-2.722 5.18-7.03 5.416-3.994.22-9.408-.725-11.408-5.577a5.532 5.532 0 0 1 2.098-5.99 5.016 5.016 0 0 1 4.788.023c2.953 1.297 5.415 4.596 7.528 5.407 2.01.77 3.99.467 4.025.72z" class="p"/><path d="M87.62 251.914c5.273-.816 9.442 2.81 11.553 7.656a28.593 28.593 0 0 1 1.291 16.849c-3.437 12.5 2.618 17.96 4.845 23.788a25.408 25.408 0 0 1 1.285 9.641c-.15 4.48-2.73 6.787-4.895 10.8a35.384 35.384 0 0 1-3.153 11.091c-5.933 11.867-25.892 17.596-45.05 16.72-15.332-.7-30.152-6.128-36.86-12.363-7.364-6.844-8.315-24.217 4.053-25.987 2.88-.412 6.235-1.038 8.696-4.02 1.692-2.05.057-7.452-.35-14.646-.394-6.966 1.196-14.295 11.322-16.74 3.878-.936 7.66-1.322 10.895-3.447 7.072-4.642 4.484-13.263 12.154-18.34 4.632-3.065 12.084-3.73 20.223-1.47l3.993.467z" class="s"/><path d="M92.198 258.47c.44 3.4-.807 6.362-2.827 9.213-4.713 6.652-7.19 6.132-9.77 14.605-4.24-2.83-7.15-3.262-8.374-.482-1.966 4.47-.727 7.112-1.184 11.736-.745 7.515-9.728-2.786-16.77 2.973-6.925 5.662-2.174 9.638-4.848 17.653-1 3-1.778 6.945-4.58 8.272-8.7 4.124-12.047 14.506 3.46 19.66 9.606 3.192 23.555 2.393 35.21-1.58 15.388-5.245 24.88-27.947 20.953-38.73-1.625-4.463-6.014-7.797-6.037-11.284-.076-11.98 2.237-19.665-5.235-32.035z" class="o"/><path d="M162.015 269.088c2.347.762 1.104 3.484.2 4.254-1.355 1.344-4.084 2.215-3.848 3.626.263 1.584-8.55 4.635-8.53 4.507a16.089 16.089 0 0 1 4.062-7.145c4.732-3.144 4.192-1.128 8.114-5.243z" fill="url(#I)"/><path d="M155.847 287.264c-5.064 6.757-9.07 19.804-14.154 25.886-1.606 1.92-3.988 5.086-6.774 4.602-14.423-2.503-1.294-8.086-2.833-12.02 2.427-8.476 12.733-13.222 16.97-22.597a17.005 17.005 0 0 1 .773-1.898c1.748-3.563 3.416-4.652 10.197-5.934a7.191 7.191 0 0 0 3.858-2.015l4.446-4.4c1.47-1.2 2.708-1.585 3.322-1.27.682.35 2.52 3.88 2.575 5.78v.008c.25.72-.533 2.01-2.272 3.374l-5.52 7.712-.483.066c-6.153.842-8.602 1.433-10.106 2.704z" class="n"/><path d="M132.727 320.623c-9.968-.985-24.254-2.567-31.97-6.546-5.017-2.587-14.066-13.692-8.97-19.86 1.076-2.89 10.698 3.178 15.435 4.978a188.828 188.828 0 0 0 23.084 7.045c2.413-6.757 8.778-12.104 13.814-18.39a7.715 7.715 0 0 1 2.797-2.264 12.167 12.167 0 0 0 1.585-2.405c.85-.346 6.26 1.902 7.672 4.582-.387.517-1.226 1.69-1.603 2.268-.537.822-.414 1.84-.842 2.787-1.455 3.22-8.344 17.226-12.92 22.7-1.743 2.084-4.294 5.768-7.32 5.243l-.76-.14z" class="w"/><path d="M132.727 320.623c-9.968-.985-24.254-2.567-31.97-6.546-4.334-2.235-11.675-10.826-10.31-17.1 1.866-1.76 2.992-2.7 4.578-2.63 1.983.086 4.387 2.225 8.977 4.596 6.945 3.588 13.48 3.78 18.85 10.14 3.963 4.693 10.58 8.745 16.194 8.57-1.54 1.772-3.433 3.48-5.558 3.1l-.76-.14z" fill="#d96c81" class="k"/><path d="M123.486 556.593l-62.823-35.78c-6.85-3.13-16.65-5.62-23.63-1.99-6.358 3.31-16.83 10.08-21.462 12.72-3.517 2.006-15.728 9.322-8.122 13.457 22.372 12.165 44.512 25.847 67.23 38.205 4.296 2.337 10.582 3.182 17.18 2.634a45.489 45.489 0 0 0 18.606-5.541q5.663-3.294 11.14-6.484c4.928-2.87 7.54-6.262 7.8-9.4.253-3.065-1.717-5.905-5.92-7.824z" class="k u"/><path d="M56.227 505.43a6.928 6.928 0 0 1-.777 3.884c-3.643 5.3.697 4.844.505 12.392-.017.694 3.066 12.618 3.066 12.618s7.266 1.76 7.807 1.664 4.954-1.8 4.954-1.8c-.374-.645-.867-2.22-1.17-2.813-2.09-4.075-3.198-9.02-4.005-13.983-.533-3.28-1.535-8.38-.86-11.824z" class="n"/><path d="M72.014 534.1a32.427 32.427 0 0 1 2.042 4.808 2.274 2.274 0 0 1-.098 1.95c-1.66 2.39-10.512-1.57-13.52-4.05-1.943-1.6-2.044-3.57-2.568-5.96-.787-3.588-.914-4-1.904-7.67l-.64 10.104-.813.53a112.162 112.162 0 0 0-1.685-12.993c-.3-1.388-.784-2.967-.87-3.738a7.992 7.992 0 0 1 3.699-8.221c-.668 2.8 1.81 7.242 2.917 12.9 1.34 6.837 7.378 12.393 13.443 12.35z" class="v"/><path d="M104.084 366.266c-.688 3.102 2.482 13.815 1.67 17.935-.772 13.563-3.154 25.04-12.294 52.164-.005.308-8.35 16.895-8.907 18.63-5.7 17.695-12.782 36.905-18.812 54.782-2.234 1.728-8.994 1.19-9.86-3.015 1.862-17.858-.168-35.465 2.894-47.683 2.334-9.3 5.393-13.555 10.395-20.455 1.54-17.552 2.646-52.756 6.64-66.252z" class="p"/><path class="X" d="M104.084 366.266c-.688 3.102-2.734 8.848-3.544 12.968-2.55 6.243-7.918 14.79-11.542 21.97-1.086 8.705-.78 20.273-6.216 36.404l-4.92 37.293-12.12 34.88c-2.234 1.728-8.994 1.19-9.86-3.015 1.862-17.858-.168-35.465 2.894-47.683 2.334-9.3 5.393-13.555 10.395-20.455 1.54-17.552 2.646-52.756 6.64-66.252z" fill="#1e2353" opacity=".3"/><path d="M63.384 523.526c.17 1.65-.59 3.317-.78 4.96a57.629 57.629 0 0 0-.541 8.779 78.156 78.156 0 0 0 1.955 15.782c.503 2.196 1.48 3.137 2.14 6.145l12.945 2.113c-1.273-4.898-3.028-14.817-4.35-23.118l-2.473-15.52z" class="n"/><path d="M62.722 527.62c-.75 2.598-1.605 3.984-1.718 7.53s1.524 9.085 1.387 13.474l-.218 6.966c-.127 4.057.905 6.872 5.514 10.226 4.178 3.04 8.247 4.285 10.46 3.206 1.63-.795 2.932-3.667.434-11.244-2.08-6.31-2.617-12.478-3.84-19.326.43 6.73.59 8.98 2.215 15.57.454 1.842.723 4.925-1.464 5.237-9.045 1.293-9.5-1.14-10.246-3.93-1.992-7.454-3.45-20.718-2.524-27.708z" class="v"/><path d="M59.39 376.98c-10.05 12.582-10.303 19.557-8.124 34.674 1.457 10.1 4.424 22.374 5.163 40.14-.87 9.163-2.51 19.424-1.26 33.66.92 10.473 3.863 28.443 6.084 41.145 2.09 3.925 11.962 2.217 13.575.194-.466-18.204-.18-30.686.69-45.388.846-14.3 2.55-27.566 3.623-41.672.887-11.672 4.43-27.545 4.898-40.153 1.88-5.943 19.678-25.628 15.97-25.375z" class="p"/><path d="M60.61 348.67c4.513 10.443-3.16 16.223-.397 23.416l-.853 4.87c8.236 5.914 37.693 6.354 45.078-5.37l.154-5.847c1.272-2.8.435-9.875.062-11.74-1.185-5.936-.632-9.086-1.28-15.95-.164-1.735-.49-2.827-.65-4.586 6.558-4.902 6.146-14.385 2.258-20.064a49.928 49.928 0 0 1-5.101-9.008 40.838 40.838 0 0 0-1.135-5.159 8.551 8.551 0 0 0-1.374-2.818c-1.872-2.673-4.9-2.993-11.083-1.575-12.252 2.812-24.87 9.173-30.5 15.17-4.096 4.362-3.934 9.203-1.584 19.667a112.189 112.189 0 0 0 6.405 18.995z" class="w"/><path d="M60.524 348.61c4.513 10.443-2.974 16.41-.21 23.602l-.853 4.81c8.237 6.4 37.694 6.106 45.08-5.618l-.156-5.103c-.004-.203-14.463 12.828-30.926 5.582-3.576-1.574-6.814-9.4-2.184-24.343.44-1.422 5.688-1.52 13.12-6.993-5.486 2.326-15.83 5.513-16.34-8.445-.228-6.24-1.146-10.932-4.34-15.27-1.548-2.103-10.63 8.932-9.246 14.222a132.441 132.441 0 0 0 6.06 17.556z" fill="#d96c81" class="k"/><path d="M56.616 371.75c1.5.907 4.228 1.8 5.325 2.445l6.932 4.414c2.45 1.646 3.14 4.022 4.603 6.66a16.584 16.584 0 0 1 1.649 4.785c.156 1.113-2.67 3.252-3.872 2.987-2.728-.603-5.514-3.954-6.234-4.327-6.112-3.17-9.038-3.482-11.248-6.004-.944-1.076-1.52-4.225-3.467-7.056l3.748-3.392z" fill="url(#J)"/><path d="M55.872 309.238c-9.077 5.72-19.11 21.492-28.1 35.53a6.531 6.531 0 0 0-.38 6.972 17.205 17.205 0 0 0 1.768 3.179 87.181 87.181 0 0 0 17.574 19.642 6.839 6.839 0 0 0 2.659 1.103c.573.474 1.375 1.33 1.987 1.825-.76-.977 3.784-5.872 5.845-5.546-.53-.656-1.07-1.367-1.62-2.12a6.202 6.202 0 0 0-.365-2.32c-2.974-6.762-6.756-13.56-11.474-18.73 8.188-8.857 12.88-11.003 20.508-20.295 9.267-11.287-2.384-23.033-8.404-19.24z" class="w"/><path d="M74.798 286.137a32.15 32.15 0 0 1-1.224 15.74c4.417 4.09 12.272 2.352 14.097-1.354-.386-2.398-.835-4.6-1.094-7.06z" class="n"/><path d="M74.798 286.137a30.831 30.831 0 0 1 .395 7.616c1.296 5.237 11.093 8.773 12.113 4.608-.278-1.61-.55-3.19-.73-4.898z" fill="url(#K)"/><path d="M93.044 263.308a17.504 17.504 0 0 1 2.867 11.984 5.149 5.149 0 0 0 .411 2.864c2.06 4.648 1.875 6.1.855 9.815-.993 3.623-.925 5.515-2.16 6.76a7.205 7.205 0 0 1-4.775 1.673c-3.297.21-8.956-1.966-12.246-3.766-2.44-1.334-2.345-2.246-3.375-4.557-3.442-2.994-1.213-5.18-.06-5.405 3.308-.642 3.844 3.17 5.803 4.012-.325-6.697 12.437-18 12.68-23.378z" class="n"/><path d="M94.507 265.99a17.21 17.21 0 0 1 1.403 9.302 5.149 5.149 0 0 0 .411 2.864c2.06 4.648 1.875 6.1.855 9.815l-.908 3.927a3.09 3.09 0 0 1-3.849 1.112c-1.376-.61-2.73-2.24-3.07-4.953-.242-1.927-4.19-3.197-5.006-5.157-.675-1.624 1.148-3.437 2.253-4.372 3.868-3.275 6.28-7.72 7.912-12.537z" fill="url(#L)"/><path d="M93.044 263.308c-1.85 8.223-12.59 14.447-12.68 23.378 2.937-9.282 13.354-15.635 12.68-23.378z" fill="#ff8f7f"/></g></svg>