<svg id="Layer_1" enable-background="new 0 0 52 52" height="512" viewBox="0 0 52 52" width="512" xmlns="http://www.w3.org/2000/svg"><g id="_x31_59"><g><g><g><g><g><path d="m14.3191109 30.2167969 6.6396274-3.8585282.8497258.4905892-6.6396275 3.85853z" fill="#475675"/></g></g><g><g><path d="m26.4880123 33.4281693v.9799805l-6.6400146 3.8600464-4.080018-2.3600464c-.8099976-.4699707-1.4599609-1.5999756-1.4599609-2.5199585l.0099487-3.1700459.8500366.4900513 6.6400156-3.8600464-.0100098 3.1700439c0 .3800049.2699585.8599854.6099854 1.0499878z" fill="#1d2943"/></g></g><g><g><path d="m19.8526535 37.2870598 6.6396275-3.858532-.0027714.9776535-6.6396275 3.858532z" fill="#1d2943"/></g></g><g><path d="m22.4099026 31.0715694c-.3379173-.1951008-.6115074-.6689854-.6104107-1.0560284l.0089703-3.1666794-6.6396208 3.85853-.0089808 3.1666775c-.0010977.387043.2724934.8609276.6104202 1.0560303l4.0823784 2.3569565 6.6396198-3.8585281z" fill="#4c5c75"/></g><g><g><path d="m15.1688366 30.7073879-.0089769 3.1666889c-.0010977.3870392.2724962.8609238.6104174 1.0560188l4.0823765 2.3569641-.0027714.9776535-4.0823774-2.3569641c-.8070669-.4659576-1.4599972-1.5981331-1.4573717-2.5242653l.0089779-3.166687z" fill="#111d33"/></g></g><g><g><g><g><path d="m28.9967842 2.0930724c-.2501526-.1500491-.6003284-.120066-.9905777.1001041l-22.8536496 13.1878479c-.760407.4502811-1.3907869 1.5308809-1.3907869 2.4114084l.0399773 16.637743 1.9598036 1.1324158v-.3455009l.0674086-16.4772053c0-.8805332.3490314-1.8019543 1.1194391-2.2422276l22.8208733-13.1747051c.3802338-.2301242.5595093-.4478962.7996407-.3178158z" fill="#4c5c75"/></g><g><path d="m3.8017743 34.442379.010021 1.5809555c0 .4402657.1500492.7504463.4102101.9105148l1.1441464.6504021.4101095.2323303c-.2501531-.1400948-.0046892-.5682526-.0147104-1.0085182v-1.245472l-1.9598036-1.1324158z" fill="#b0b8cf"/></g></g><g><g><g><path d="m30.9832306 20.534811-25.6195846 14.8044491-.0455036-16.639822c0-.8797989.6295047-1.9567471 1.3955202-2.404192l22.8588643-13.1890039c.766016-.4550822 1.3955193-.0910072 1.3955193.7887442z" fill="#1d2943"/></g><g><path d="m6.076705 18.6973534c0-.6017761.4858656-1.4353752 1.0195026-1.7471886l22.85567-13.1868749c.1255398-.0748055.2021961-.0910997.233675-.0944326-.000742.0196271.0240707.090359.0240707.2262681l.0148125 16.2024231-24.1062541 13.9297457z" fill="#fff"/></g><g><path d="m6.076705 18.6973534c0-.6017761.4858656-1.4353752 1.0195026-1.7471886l22.85567-13.1868749c.1255398-.0748055.2021961-.0910997.233675-.0944326-.000742.0196271.0240707.090359.0240707.2262681l.0018234 1.994729-24.1347417 13.9462071z" fill="#f45170"/></g></g><g><g><path d="m30.9863777 20.5377407.0044994 1.5873241c.0025177.8877277-.621048 1.9677544-1.3936062 2.4137917l-22.8235826 13.1772003c-.7767515.4484596-1.4043927.0908165-1.4069095-.7969131l-.0045004-1.5873222z" fill="#e3e7f0"/></g></g><g><g><path d="m18.9378185 29.088274c0 .5189857-.3648376 1.1287575-.8050385 1.3891125-.4419174.2586422-.8050385.051384-.8050385-.4556122 0-.5189953.3494263-1.1407585.8050385-1.4011135.4402009-.2466507.8050385-.0393925.8050385.4676132z" fill="#b0b8cf"/></g></g></g></g></g></g><g><g><g><path d="m7.4099903 17.5168953c.2369781-.1368198.4336982-.0341091.4344702.2381821.000772.2723541-.1947236.601511-.4317021.7383308-.2288041.1320992-.4255381.0293961-.4263101-.2429581-.000772-.2722892.1947379-.6014557.423542-.7335548z" fill="#fff"/></g></g><g><g><path d="m8.913558 16.6488094c.2288179-.1321087.433712-.0341148.4344845.2381744.0007715.2723541-.202898.6062298-.431716.7383385-.2288046.1321011-.4336987.0341072-.4344702-.238245-.0007724-.2722912.2028981-.6061668.4317017-.7382679z" fill="#fff"/></g></g><g><g><path d="m10.41714 15.7807159c.2288036-.1321001.4255381-.0293961.4263096.2428932.0007725.2723541-.1947374.6015205-.4235411.7336197-.2369785.1368198-.433712.0341167-.4344845-.2382374-.0007715-.2722911.1947375-.6014556.431716-.7382755z" fill="#fff"/></g></g><g><g><path d="m28.7706776 5.2313037c.2206306-.1273808.3927898-.0292411.3934822.2148395.0007172.2535686-.1703224.5497909-.3909531.6771717l-7.3708038 4.2555361c-.2206306.1273804-.3927879.0293045-.393507-.2242641-.0006924-.2440805.1703491-.5403671.3909779-.6677475z" fill="#fff"/></g></g></g></g><g><g><g><g><g><g><path d="m11.7143154 44.8531418 22.3677197-12.9556141c-.1266975.0733891-.2055359.2289677-.2061653.4495068-.0012627.4439392.3148651.9896774.7024956 1.2127342.1950645.1122475.3725471.122242.5009079.0478935l-22.3677388 12.9556274c-.1283503.074337-.3058329.0643425-.5009003-.0479088-.3876295-.223053-.7037554-.7687912-.7024927-1.2127304.0006275-.220539.0794649-.3761177.2061739-.4495086z" fill="#f3f1fc"/></g></g><g><g><path d="m35.2518692 33.9037437-22.3677387 12.9556199c.1698732-.0983925.2750092-.3079376.275857-.6061821l22.3677225-12.9556084c-.0008431.2982368-.1059761.507782-.2758408.6061706z" fill="#e9e7fc"/></g></g><g><g><path d="m12.9177189 46.1137733 22.3677311-12.955616.2422676.1394082-22.3677302 12.955616z" fill="#dedffb"/></g></g><g><g><path d="m21.1512394 49.722538 22.3677273-12.955616-.0007897.277462-22.3677272 12.955616z" fill="#e9e7fc"/></g></g><g><g><path d="m43.5222626 36.7693596-22.3742028 12.9550819-8.933692-5.097702c-.2621746-.1581841-.5036306-.1719093-.6692476-.0687866l22.3673401-12.9550438c.1724815-.1031628.407032-.0893955.6692047.0618629z" fill="#f3f1fc"/></g></g><g><g><path d="m21.1512394 49.722538-.0007896.277462-8.9352236-5.0989609c-.3876295-.2230568-.705822-.0423393-.7070847.4016113-.0012627.4439392.3148632.9896774.7024927 1.2127304.3876295.2230568.705822.0423317.7070847-.4016075l.2422686.1394081c-.0017071.6003342-.4259644.8412933-.9501419.5396614-.5241938-.3016396-.9456806-1.0292702-.9439726-1.6296043.0017071-.6003304.4259491-.841301.9501429-.5396614z" fill="#cacdea"/></g></g><g><g><g><path d="m19.0772209 42.271698c-.0414619.0239372-.0416985.0625648-.0005054.0865021l.9835644.5715866c.0412102.0239487.1078949.0239372.1493587 0l.9899979-.5715752c.041481-.0239487.0416985-.0625648.0004864-.0865135l-.9835644-.5715866c-.0411911-.0239372-.1078587-.0239372-.1493397.0000114z" fill="#4c5c75"/></g></g><g><g><path d="m18.0617485 41.6815681c-.0414619.023941-.0416794.0625763-.0004864.0865135l.2233067.1297722c.041193.023941.1078777.0239296.1493397-.0000076l.9899979-.5715752c.041481-.0239525.0416985-.0625648.0005054-.0865059l-.2233067-.1297722c-.041193-.0239372-.1078777-.0239487-.1493587 0z" fill="#4c5c75"/></g></g><g><g><path d="m20.5113468 43.1051216c-.0414619.0239372-.0416985.062561-.0004864.0865135l.9835625.5715828c.041193.023941.1078777.0239296.1493416-.0000076l.9899979-.571579c.0414791-.0239487.0416965-.0625648.0005035-.0865021l-.9835625-.5715828c-.0412121-.0239525-.1078777-.0239525-.1493587-.0000038z" fill="#4c5c75"/></g></g><g enable-background="new"><g><g><path d="m35.636837 34.3724136c-.0414772.0239487-.0416946.0625648-.0004845.0865135l.9835625.5715828c.0411949.023941.1078606.023941.1493416-.0000076l.9899979-.5715752c.0414619-.023941.0416794-.0625572.0004845-.0864944l-.9835625-.5715828c-.0412102-.0239525-.1078758-.0239525-.1493378-.0000114z" fill="#4c5c75"/></g></g><g><g><path d="m32.6896362 34.4125671c-.041481.0239487-.0416985.0625648-.0005035.0865021l.9835625.5715828c.0412102.0239525.1078758.0239525.1493568.0000038l2.5030746-1.4451523c.0414658-.0239372.0416794-.0625534.0004692-.0865021l-.9835625-.5715866c-.0411949-.0239372-.1078606-.0239372-.1493225 0z" fill="#4c5c75"/></g></g><g><g><path d="m34.1237602 35.2459869c-.041481.0239487-.0416985.0625648-.0004845.0865135l.9835625.5715866c.0411911.0239372.1078606.0239372.1493416-.0000114l.9913216-.5723381c.041481-.0239487.0416985-.0625648.0005035-.0865059l-.9835625-.5715828c-.0412102-.0239487-.1078758-.0239487-.1493568 0z" fill="#4c5c75"/></g></g></g><g><g><path d="m20.588974 41.3988876c-.0401382.0231705-.0416985.0625648-.0005054.0865021l.9835644.5715866c.0412102.0239487.1092205.0231705.1493568 0l.9913235-.5723419c.041481-.0239487.0416985-.0625648.0004864-.0865135l-.9835625-.5715866c-.041193-.0239372-.1078606-.0239372-.1493416.0000114z" fill="#4c5c75"/></g></g><g><g><path d="m37.0709839 35.2058449c-.041481.0239487-.0416985.0625648-.0005074.0865059l.9835663.5715828c.0412102.0239487.1078758.0239487.1493568 0l.9899979-.5715752c.0414619-.0239372.0416794-.0625534.0004692-.0865021l-.9835625-.5715866c-.0411949-.0239372-.1078606-.0239372-.1493225 0z" fill="#4c5c75"/></g></g><g><g><path d="m35.5579033 36.079422c-.0414772.0239487-.0416946.0625648-.0005035.0865021l.9835625.5715866c.041214.0239487.1078796.0239487.1493607 0l.9913216-.5723419c.041481-.0239487.0416985-.0625648.0004883-.0865135l-.9835663-.5715828c-.0411911-.023941-.1078568-.023941-.1493378.0000076z" fill="#4c5c75"/></g></g><g enable-background="new"><g><g><path d="m30.1624107 34.6952477c-.041481.0239487-.0416794.0625763-.0004864.0865135l.2233067.1297722c.041193.023941.1078587.023941.1493397-.0000076l.9899979-.571579c.0414619-.0239372.0416794-.0625534.0004883-.0864906l-.2233086-.1297722c-.041193-.0239372-.1078777-.0239487-.1493397-.0000114z" fill="#4c5c75"/></g></g><g><g><path d="m28.649334 35.5688248c-.041481.0239487-.0416794.0625725-.0004883.0865135l.2233086.1297722c.041193.0239372.1078587.0239372.1493397-.0000114l.9913235-.5723381c.0414791-.0239487.0416965-.0625648.0005035-.0865059l-.2233067-.1297722c-.041193-.0239372-.1078777-.0239487-.1493587 0z" fill="#4c5c75"/></g></g><g><g><path d="m31.1778831 35.2853775c-.041481.0239487-.0416985.0625648-.0005054.0865021l.9835644.5715866c.0412102.0239487.1078758.0239487.1493568 0l.9899979-.5715752c.0414658-.023941.0416794-.0625572.0004692-.0865059l-.9835625-.5715828c-.0411949-.023941-.1078606-.023941-.1493225 0z" fill="#4c5c75"/></g></g><g><g><path d="m27.1375809 36.4416351c-.041481.0239487-.0430222.0633507-.0018291.0872879l.2233067.1297722c.041193.0239372.1092014.0231628.1506824-.0007858l.9899979-.5715752c.0414619-.0239372.0416794-.0625534.0004883-.0864906l-.2233086-.1297722c-.041193-.023941-.1078777-.0239525-.1493397-.0000114z" fill="#4c5c75"/></g></g><g><g><path d="m29.6648064 36.1589508c-.041481.0239487-.0416985.0625648-.0005054.0865059l.9835644.5715828c.0412102.0239487.1078777.0239487.1493568 0l.9913235-.5723381c.041481-.0239487.0416985-.0625648.0004864-.0865135l-.9835625-.5715866c-.041193-.0239372-.1078606-.0239372-.1493416.0000114z" fill="#4c5c75"/></g></g><g><g><path d="m34.046154 36.9522324c-.041481.0239487-.0416985.0625648-.0005074.0865021l.9835663.5715866c.0412102.0239487.1078758.0239487.1493568 0l.9899979-.5715752c.0414619-.0239372.0416794-.0625534.0004692-.0865021l-.9835625-.5715866c-.0411949-.0239372-.1078606-.0239372-.1493225 0z" fill="#4c5c75"/></g></g><g><g><path d="m31.0989323 36.9923744c-.041481.0239487-.0416985.0625648-.0004883.0865135l.9835644.5715866c.0411911.0239372.1078606.0239372.1493416-.0000114l.9913216-.5723419c.041481-.0239487.0416985-.062561.0005035-.0865021l-.9835625-.5715828c-.0412102-.0239525-.1078758-.0239525-.1493568-.0000038z" fill="#4c5c75"/></g></g><g><g><path d="m28.1530533 37.0317612c-.041481.0239487-.0430412.063343-.0018482.0872803l.9835644.5715828c.0412102.0239525.1092205.0231743.1507015-.0007744l.9899979-.5715752c.0414619-.0239372.0416794-.0625534.0004692-.0865021l-.9835644-.5715866c-.041193-.0239372-.1078606-.0239372-.1493225 0z" fill="#4c5c75"/></g></g><g><g><path d="m35.480278 37.785656c-.041481.0239487-.0416985.0625648-.0004883.0865135l.9835663.5715828c.0411911.023941.1078606.023941.1493378-.0000076l4.0148277-2.3179626c.0414658-.0239372.0416832-.0625534.0004883-.0864944l-.9835625-.5715828c-.0412102-.0239487-.1078796-.0239487-.1493416-.0000114z" fill="#4c5c75"/></g></g><g><g><path d="m32.5330772 37.8258095c-.041481.0239487-.0416985.0625648-.0005074.0865021l.9835625.5715828c.041214.0239525.1078796.0239525.1493607.0000038l.9913216-.5723419c.041481-.0239487.0416985-.0625648.0004883-.0865135l-.9835663-.5715866c-.0411911-.0239372-.1078568-.0239372-.1493378.0000114z" fill="#4c5c75"/></g></g><g><g><path d="m29.5871792 37.8651848c-.041481.0239487-.0430412.0633392-.0018291.0872879l.9835625.5715866c.041193.0239372.1092033.0231628.1506844-.0007858l.9899979-.5715752c.0414619-.0239372.0416794-.0625534.0004864-.0864944l-.9835644-.5715828c-.0412102-.0239487-.1078777-.0239487-.1493397-.0000114z" fill="#4c5c75"/></g></g><g><g><path d="m33.9672012 38.6592293c-.041481.0239487-.0416985.0625648-.0004883.0865135l.9835663.5715866c.0411911.0239372.1078568.0239372.1493378-.0000114l.9913254-.5723381c.0414772-.0239487.0416946-.0625648.0005035-.0865059l-.9835625-.5715828c-.041214-.0239487-.1078796-.0239487-.1493607 0z" fill="#4c5c75"/></g></g><g><g><path d="m31.0213223 38.6986198c-.0414791.0239487-.0430393.0633392-.0018482.0872765l.9835663.5715866c.0412102.0239487.1092186.0231743.1506996-.0007744l.9899979-.5715752c.0414619-.023941.0416794-.0625572.0004692-.0865059l-.9835625-.5715828c-.0411949-.023941-.1078606-.023941-.1493225 0z" fill="#4c5c75"/></g></g><g><g><path d="m28.0741024 38.7387619c-.041481.0239487-.0416985.0625648-.0004883.0865135l.9835644.5715828c.041193.023941.1078606.023941.1493397-.0000076l.9899807-.5715675c.041481-.0239487.0416985-.0625648.0005054-.0865021l-.9835644-.5715828c-.0412102-.0239525-.1078777-.0239525-.1493587-.0000038z" fill="#4c5c75"/></g></g><g><g><path d="m32.4554482 39.5320396c-.041481.0239525-.0430412.063343-.0018311.0872917l.9835663.5715828c.0411911.023941.1092033.0231667.1506805-.000782l.9899979-.571579c.0414658-.0239372.0416832-.0625534.0004883-.0864906l-.9835625-.5715866c-.0412102-.0239487-.1078796-.0239487-.1493416-.0000114z" fill="#4c5c75"/></g></g><g><g><path d="m26.5610065 39.6123466c-.0414619.0239372-.0416985.0625648-.0004864.0865135l.9835625.5715866c.041193.0239372.1078777.0239258.1493416-.0000114l.9913406-.5723495c.0414619-.0239372.0416794-.0625534.0004864-.0864944l-.9835644-.5715828c-.0412102-.0239487-.1078777-.0239525-.1493397-.0000114z" fill="#4c5c75"/></g></g><g><g><path d="m25.0492725 40.4851456c-.041481.0239525-.0416985.0625648-.0004883.0865173l.9835644.5715828c.041193.0239372.1078606.023941.1493397-.0000076l.9899807-.5715675c.041481-.0239487.0416985-.0625648.0005054-.0865021l-.9835644-.5715866c-.0412102-.0239487-.1078777-.0239487-.1493587 0z" fill="#4c5c75"/></g></g><g><g><path d="m26.4834156 41.3185806c-.041481.0239487-.0416985.0625648-.0005054.0865021l.9835644.5715866c.0412102.0239487.1078777.0239487.1493587 0l.9899788-.5715637c.041481-.0239487.0416985-.0625648.0004883-.0865135l-.9835644-.5715866c-.041193-.0239372-.1078606-.0239372-.1493397.0000114z" fill="#4c5c75"/></g></g><g><g><path d="m23.5361767 41.3587341c-.0414619.0239372-.0416985.0625648-.0004864.0865135l.9835625.5715828c.041193.023941.1078777.0239296.1493416-.0000076l.9899979-.5715752c.0414791-.0239487.0430222-.0633316.0018291-.0872688l-.9835644-.5715866c-.0412102-.0239487-.1092014-.0231819-.1506824.0007668z" fill="#4c5c75"/></g></g><g><g><path d="m24.9703197 42.1921654c-.0414619.023941-.0416965.0625648-.0005035.0865059l.9835625.5715828c.0412121.0239487.1078968.023941.1493587 0l.9899979-.5715752c.041481-.0239487.0430222-.0633278.001812-.0872765l-.9835644-.5715866c-.041193-.0239372-.1091843-.0231743-.1506653.0007744z" fill="#4c5c75"/></g></g><g><g><path d="m22.0230999 42.2323074c-.0401382.0231743-.0416985.0625648-.0004883.0865173l.9835644.5715828c.041193.0239372.1092033.0231628.1493397-.0000114l.9913235-.5723381c.041481-.0239487.0416985-.0625648.0005054-.0865021l-.9835644-.5715866c-.0412102-.0239487-.1078777-.0239487-.1493587 0z" fill="#4c5c75"/></g></g><g><g><path d="m23.457243 43.0657425c-.0401382.0231743-.0416985.0625648-.0005054.0865021l.9835644.5715866c.0412102.0239487.1092205.0231743.1493587 0l.9913216-.5723419c.041481-.0239487.0416985-.0625648.0004883-.0865135l-.9835644-.5715828c-.041193-.023941-.1078606-.023941-.1493397.0000076z" fill="#4c5c75"/></g></g><g><g><path d="m24.8913689 43.8991661c-.0401382.0231743-.0416985.0625648-.0004864.0865135l.9835625.5715828c.041193.023941.1092033.0231667.1493416-.0000076l.9913216-.5723419c.041481-.0239487.0416985-.0625648.0005054-.0865021l-.9835644-.5715866c-.0412102-.0239487-.1078777-.0239487-.1493587 0z" fill="#4c5c75"/></g></g><g><g><path d="m21.9454899 43.9385529c-.0414619.0239372-.0416965.0625648-.0005035.0865021l.9835625.5715866c.0412121.0239487.1078968.0239372.1493587 0l.9899979-.5715752c.041481-.0239487.0416985-.0625648.0004864-.0865135l-.9835625-.5715866c-.041193-.0239372-.1078606-.0239372-.1493416.0000114z" fill="#4c5c75"/></g></g><g><g><path d="m23.3796158 44.7719765c-.0414619.0239372-.0416985.0625648-.0004864.0865135l.9835644.5715828c.0411911.023941.1078777.0239296.1493397-.0000076l.9899979-.5715752c.041481-.0239487.0416985-.0625648.0005054-.0865059l-.9835644-.5715828c-.0412102-.0239487-.1078777-.0239487-.1493587 0z" fill="#4c5c75"/></g></g><g><g><path d="m24.8137589 45.6054077c-.0414619.023941-.0416965.0625648-.0005035.0865059l.9835625.5715828c.0412121.0239487.1078968.023941.1493587 0l11.5789089-6.6850853c.041481-.0239487.0416985-.0625648.0004845-.0865135l-.9835625-.5715828c-.0411911-.023941-.1078606-.023941-.1493416.0000076z" fill="#4c5c75"/></g></g></g><g><g><path d="m23.3006821 46.4789848c-.041481.0239487-.0416965.0625648-.0005054.0865021l.9835644.5715866c.0412121.0239487.1078777.0239487.1493587 0l.9913216-.5723419c.041481-.0239487.0416985-.0625648.0004883-.0865135l-.9835644-.5715828c-.041193-.023941-.1078587-.023941-.1493397.0000076z" fill="#4c5c75"/></g></g><g><g><path d="m21.866539 45.6455498c-.041481.0239487-.0416985.0625648-.0004864.0865173l.9835625.5715828c.041193.0239372.1078606.023941.1493416-.0000114l.9913216-.5723381c.041481-.0239487.0416985-.0625648.0005054-.0865021l-.9835644-.5715866c-.0412102-.0239487-.1078777-.0239487-.1493568 0z" fill="#4c5c75"/></g></g><g enable-background="new"><g><g><path d="m18.99827 43.9786949c-.041481.0239487-.0416985.0625648-.0004883.0865135l.9835644.5715866c.041193.0239372.1078606.0239372.1493397-.0000114l.9913235-.5723381c.041481-.0239487.0416985-.0625648.0005054-.0865059l-.9835644-.5715828c-.0412102-.0239487-.1078777-.0239525-.1493587 0z" fill="#4c5c75"/></g></g><g><g><path d="m16.0523911 44.0180817c-.0414619.023941-.0416985.0625648-.0005054.0865059l.9835644.5715828c.0412102.0239487.1078949.023941.1493587.0000038l.9899979-.571579c.041481-.0239487.0416985-.0625648.0004864-.0865135l-.9835644-.5715828c-.0411911-.023941-.1078587-.023941-.1493397.0000076z" fill="#4c5c75"/></g></g><g><g><path d="m15.9734392 45.7250824c-.0414801.0239487-.0416975.0625648-.0004864.0865135l.9835634.5715828c.041193.023941.1078606.023941.1493397-.0000076l2.5030766-1.4451523c.0414791-.0239487.0416965-.0625648.0005035-.0865021l-.9835625-.5715866c-.0412121-.0239487-.1078777-.0239487-.1493587 0z" fill="#4c5c75"/></g></g><g><g><path d="m17.4075832 46.5585136c-.041481.0239487-.0416985.0625648-.0005054.0865059l.9835644.5715828c.0412102.0239487.1078777.0239487.1493587 0l4.0161514-2.3187256c.041481-.0239487.0416985-.0625648.0004883-.0865135l-.9835644-.5715866c-.041193-.0239372-.1078606-.0239372-.1493397.0000114z" fill="#4c5c75"/></g></g><g><g><path d="m21.788929 47.3517952c-.0414619.0239372-.0416965.0625648-.0005035.0865021l.9835625.5715866c.0412121.0239487.1078968.0239372.1493587 0l.9899979-.5715752c.041481-.0239487.0416985-.0625648.0004883-.0865135l-.9835644-.5715866c-.041193-.0239372-.1078606-.0239372-.1493397.0000114z" fill="#4c5c75"/></g></g><g><g><path d="m18.8417091 47.3919373c-.041481.0239487-.0416985.0625648-.0004864.0865135l.9835625.5715866c.041193.0239372.1078606.0239372.1493416-.0000114l2.5030746-1.4451523c.041481-.0239487.0416985-.062561.0005054-.0865021l-.9835644-.5715828c-.0412102-.0239525-.1078777-.0239525-.1493587-.0000038z" fill="#4c5c75"/></g></g><g><g><path d="m20.2758522 48.2253723c-.041481.0239487-.0416965.0625648-.0005054.0865021l.9835644.5715866c.0412121.0239487.1078777.0239487.1493587 0l.9899979-.5715752c.0414619-.023941.0430222-.0633316.001812-.0872803l-.9835644-.5715828c-.041193-.023941-.1092014-.0231667-.1506653.0007744z" fill="#4c5c75"/></g></g></g><g><g><path d="m17.5641441 43.1452713c-.041481.0239487-.0416985.0625648-.0005054.0865059l.9835644.5715828c.0412102.0239487.1078777.0239487.1493568 0l.9913235-.5723381c.041481-.0239487.0416985-.0625648.0004864-.0865135l-.9835625-.5715866c-.041193-.0239372-.1078606-.0239372-.1493416.0000114z" fill="#4c5c75"/></g></g><g><g><path d="m16.5486717 42.5551453c-.041481.0239487-.0416794.0625763-.0004883.0865135l.2233086.1297722c.041193.0239372.1078587.0239372.1493397-.0000114l.9913235-.5723381c.0414791-.0239487.0416965-.0625648.0005035-.0865059l-.2233067-.1297722c-.041193-.0239372-.1078777-.0239487-.1493587 0z" fill="#4c5c75"/></g></g><g><g><path d="m13.5238419 44.3015327c-.041481.0239487-.0416803.0625725-.0004873.0865135l.2233067.1297722c.041193.0239372.1078596.0239372.1493406-.0000114l.9899979-.5715752c.0414629-.0239372.0430222-.0633316.0018301-.0872688l-.2233076-.1297722c-.041193-.0239372-.1092205-.0231743-.1506824.0007629z" fill="#4c5c75"/></g></g><g><g><path d="m15.0369186 43.4279556c-.0414619.0239372-.0416794.0625763-.0004873.0865135l.2233076.1297722c.041193.0239372.1078777.0239296.1493397-.0000114l.9899979-.5715752c.041481-.0239487.0416985-.0625648.0005054-.0865021l-.2233067-.1297722c-.041193-.0239372-.1078777-.0239487-.1493587 0z" fill="#4c5c75"/></g></g><g><g><path d="m21.0865784 39.9351845c-.0414619.0239372-.0416794.0625725-.0004864.0865135l.2233067.1297684c.041193.023941.1078777.0239296.1493397-.0000076l.9899979-.5715752c.041481-.0239487.0430222-.0633316.0018311-.0872688l-.2233086-.1297722c-.041193-.0239372-.1092014-.0231857-.1506824.0007629z" fill="#4c5c75"/></g></g><g><g><path d="m19.5735016 40.8087578c-.0401382.0231743-.0416794.0625763-.0004883.0865135l.2233086.1297722c.041193.0239372.1092014.0231628.1493397-.0000076l.9913235-.5723419c.0414791-.0239487.0416965-.0625648.0005035-.0865021l-.2233067-.1297722c-.041193-.023941-.1078777-.0239525-.1493587-.0000038z" fill="#4c5c75"/></g></g><g enable-background="new"><g><g><path d="m25.6245041 37.3152084c-.041481.0239487-.0416794.0625763-.0004883.0865173l.2233086.1297684c.041193.023941.1078587.023941.1493397-.0000076l.9899807-.5715675c.0414791-.0239487.0416965-.062561.0005035-.0865021l-.2233067-.1297722c-.041193-.0239372-.1078777-.0239487-.1493587 0z" fill="#4c5c75"/></g></g><g><g><path d="m24.1114082 38.188797c-.0414619.0239372-.0416794.0625725-.0004864.0865135l.2233067.1297722c.041193.0239372.1078777.0239296.1493397-.0000114l.9913406-.5723495c.0414639-.0239372.0416794-.0625534.0004883-.0864944l-.2233086-.1297722c-.041193-.0239372-.1078777-.0239487-.1493397-.0000114z" fill="#4c5c75"/></g></g><g><g><path d="m26.6399765 37.9053383c-.041481.0239487-.0416985.0625648-.0005054.0865021l.9835644.5715866c.0412102.0239487.1078777.0239487.1493568 0l.9899807-.5715637c.041481-.0239487.0416985-.0625648.0004864-.0865135l-.9835625-.5715866c-.041193-.0239372-.1078606-.0239372-.1493416.0000114z" fill="#4c5c75"/></g></g><g><g><path d="m25.1268806 38.778923c-.0414619.023941-.0416985.0625648-.0005054.0865059l.9835644.5715828c.0412102.0239487.1078949.023941.1493587 0l.9913406-.5723495c.0414619-.0239372.0416794-.0625534.0004692-.0865021l-.9835644-.5715866c-.041193-.0239372-.1078606-.0239372-.1493225 0z" fill="#4c5c75"/></g></g></g><g><g><path d="m22.5996742 39.0615959c-.041481.0239487-.0416794.0625763-.0004883.0865135l.2233086.1297722c.041193.023941.1078587.023941.1493397-.0000076l.9899807-.5715675c.0414791-.0239487.0416965-.0625648.0005035-.0865021l-.2233067-.1297722c-.041193-.0239372-.1078777-.0239487-.1493587 0z" fill="#4c5c75"/></g></g><g><g><path d="m31.6741638 33.8224373c-.041481.0239487-.0416794.0625763-.0004883.0865135l.2233086.1297722c.041193.0239372.1078606.0239372.1493378-.0000114l.9913254-.5723381c.041481-.0239487.0416985-.0625648.0005035-.0865059l-.2233047-.1297684c-.0411949-.023941-.1078796-.0239525-.1493607-.0000038z" fill="#4c5c75"/></g></g><g><g><path d="m33.1872406 32.9488602c-.041481.0239487-.0416794.0625763-.0004883.0865173l.2233086.1297684c.0411911.023941.1078606.023941.1493416-.0000076l.9899979-.5715752c.0414619-.023941.0416794-.0625572.0004845-.0864944l-.2233049-.1297723c-.0411949-.0239372-.1078796-.0239487-.1493416-.0000114z" fill="#4c5c75"/></g></g><g><g><path d="m14.5393143 44.8916588c-.041481.0239487-.0416985.0625648-.0005054.0865021l.9835634.5715866c.0412111.0239487.1078777.0239487.1493587 0l.9899988-.5715752c.0414619-.0239372.0430222-.0633278.0018101-.0872803l-.9835634-.5715828c-.0411921-.0239372-.1092024-.0231628-.1506643.0007744z" fill="#4c5c75"/></g></g><g><g><path d="m23.6151466 39.6517258c-.041481.0239487-.0416985.0625648-.0005054.0865021l.9835644.5715866c.0412102.0239487.1078777.0239487.1493568 0l.9899807-.5715675c.041481-.0239487.0416985-.0625648.0004864-.0865135l-.9835625-.5715828c-.041193-.023941-.1078606-.023941-.1493416.0000076z" fill="#4c5c75"/></g></g><g><g><path d="m22.1020508 40.5253105c-.0414619.0239372-.0416985.0625648-.0005054.0865021l.9835644.5715866c.0412102.0239487.1078949.0239372.1493587 0l.9899979-.5715752c.041481-.0239487.0430222-.0633278.001812-.0872803l-.9835644-.5715828c-.041193-.023941-.1091843-.0231743-.1506653.0007744z" fill="#4c5c75"/></g></g><g><g><path d="m32.6120071 36.1187973c-.0414772.0239487-.0416946.0625648-.0004845.0865173l.9835625.5715828c.0411949.0239372.1078606.023941.1493416-.0000114l.9899979-.5715752c.0414619-.0239372.0416794-.0625534.0004845-.0864906l-.9835625-.5715866c-.0412102-.0239487-.1078758-.0239487-.1493378-.0000114z" fill="#4c5c75"/></g></g><g><g><path d="m27.9951496 40.4457817c-.0414619.0239372-.0416965.0625648-.0005054.0865021l.9835644.5715828c.0412121.0239525.1078968.023941.1493587.0000038l.9913406-.5723534c.0414619-.0239372.0416794-.0625534.0004692-.0865021l-.9835644-.5715866c-.041193-.0239372-.1078587-.0239372-.1493225 0z" fill="#4c5c75"/></g></g><g><g><path d="m27.9175415 42.1520042c-.041481.0239487-.0416985.0625648-.0004864.0865135l.9835625.5715828c.041193.023941.1078606.023941.1493416-.0000076l.9899788-.5715675c.041481-.0239487.0416985-.0625648.0005054-.0865021l-.9835644-.5715828c-.0412102-.0239525-.1078777-.0239525-.1493587-.0000038z" fill="#4c5c75"/></g></g><g enable-background="new"><g><g><path d="m30.9423714 40.4056168c-.041481.0239487-.0416985.0625648-.0004864.0865135l.9835625.5715866c.041193.0239372.1078587.0239372.1493397-.0000114l.9899826-.5715637c.0414772-.0239487.0416946-.0625648.0005035-.0865059l-.9835625-.5715828c-.041214-.0239487-.1078796-.0239487-.1493607 0z" fill="#4c5c75"/></g></g><g><g><path d="m29.4292755 41.2792015c-.0414619.023941-.0416985.0625648-.0004864.0865173l.9835625.5715828c.041193.0239372.1078796.0239296.1493416-.0000114l.9913406-.5723495c.0414619-.0239372.0416794-.0625534.0004864-.0864944l-.9835644-.5715828c-.0412102-.0239487-.1078777-.0239487-.1493397-.0000114z" fill="#4c5c75"/></g></g></g><g><g><path d="m29.5082455 39.5721931c-.041481.0239487-.0416985.0625648-.0005054.0865059l.9835644.5715828c.0412102.0239487.1078777.0239487.1493587 0l.9899788-.5715637c.041481-.0239487.0416985-.0625648.0004883-.0865135l-.9835644-.5715866c-.041193-.0239372-.1078606-.0239372-.1493397.0000114z" fill="#4c5c75"/></g></g><g><g><path d="m26.4044456 43.025589c-.0414619.0239372-.0416985.0625648-.0004864.0865135l.9835625.5715866c.041193.0239372.1078796.0239258.1493416-.0000114l.9899979-.5715752c.041481-.0239487.0430222-.0633278.0018291-.0872688l-.9835644-.5715828c-.0412102-.0239487-.1092014-.0231857-.1506824.0007629z" fill="#4c5c75"/></g></g><g><g><path d="m36.9144211 38.6190872c-.041481.0239487-.0416985.0625648-.0005035.0865059l.9835625.5715828c.0412102.0239487.1078796.0239487.1493607 0l.9899979-.5715752c.0414619-.0239372.0416794-.0625534.0004692-.0865021l-.9835663-.5715866c-.0411911-.0239372-.1078606-.0239372-.1493225 0z" fill="#4c5c75"/></g></g><g><g><path d="m38.4261742 37.7462769c-.041481.0239487-.0416985.0625648-.0005035.0865059l.9835625.5715828c.0412102.0239487.1078796.0239487.1493568 0l.9913254-.5723381c.041481-.0239487.0416985-.0625648.0004845-.0865135l-.9835625-.5715866c-.0411911-.0239372-.1078606-.0239372-.1493416.0000114z" fill="#4c5c75"/></g></g><g><g><path d="m39.9392509 36.8727036c-.041481.0239487-.0416985.0625648-.0005035.0865021l.9835625.5715828c.0412102.0239525.1078796.0239525.1493607.0000038l.9899979-.571579c.0414619-.0239372.0416794-.0625534.0004692-.0865021l-.9835663-.5715828c-.0411911-.023941-.1078606-.023941-.1493225-.0000038z" fill="#4c5c75"/></g></g></g></g></g></g></g></g><g><g><g><g><path d="m8.3727207 23.3130264.0013704.4836254-1.6478405.9513817-.0013709-.4836254z" fill="#dedffb"/></g></g><g><g><path d="m8.3692636 22.0936852.0013714.4836254-1.6478409.9513816-.0013714-.4836254z" fill="#dedffb"/></g></g><g><g><path d="m8.3658152 20.8772869.0013628.4807034-1.647841.9513816-.0013628-.4807052z" fill="#dedffb"/></g></g><g><g><path d="m8.3623581 19.6579456.0013714.4836254-1.647841.9513817-.0013709-.4836273z" fill="#dedffb"/></g></g><g><g><path d="m28.6368008 18.9356613.0013713.4836254-6.9918155 4.0367279-.0013714-.4836273z" fill="#dedffb"/></g></g><g enable-background="new"><g><g><path d="m29.427042 16.0396748-6.2482948 3.6074791.0014114.4835681 6.2468834-3.6066074z" fill="#dedffb"/></g></g><g><g><path d="m26.3044376 19.0638618.0013619.4807053-7.1754589 4.1427536-.0013638-.4807033z" fill="#dedffb"/></g></g><g><g><path d="m27.7974243 15.7592325.0013714.4836245-8.2697887 4.7745647-.0013714-.4836254z" fill="#78e75a"/></g></g><g><g><path d="m20.9970722 23.3464603.0013714.4836255-6.4025621 3.6965217-.0013714-.4836254z" fill="#dedffb"/></g></g><g><g><path d="m24.9106331 14.9861946.0013637.4806833-5.2878742 3.0529566-.0013637-.4806843z" fill="#dedffb"/></g></g><g><g><path d="m22.2885361 20.161108.0013714.4836254-6.6678591 3.8496895-.0013705-.4836254z" fill="#dedffb"/></g></g><g><g><path d="m21.3888531 18.2408123.0013618.4807034-4.7215767 2.7260055-.0013637-.4807033z" fill="#dedffb"/></g></g><g><g><path d="m29.427042 11.1573019-11.9147339 6.8789873.0014096.4836369 11.9133243-6.8781824z" fill="#dedffb"/></g></g><g><g><path d="m18.4810638 23.5806885.0013638.4807052-6.4229765 3.7083054-.0013628-.4807034z" fill="#dba660"/></g></g><g><g><path d="m29.427042 8.7176275-10.056982 5.8063784.0013446.4806795 10.0556374-5.8056393z" fill="#8fabfe"/></g></g><g><g><path d="m18.8389149 20.9314308.0013714.4836254-5.5327406 3.1943283-.0013705-.4836254z" fill="#dedffb"/></g></g><g><g><path d="m19.1151581 18.3322144.0013618.4806842-4.3568124 2.5154057-.0013628-.4806824z" fill="#dedffb"/></g></g><g><g><path d="m13.6609058 27.5819988.0013714.4836254-4.2547836 2.456501-.0013714-.4836254z" fill="#dedffb"/></g></g><g><g><path d="m14.6079998 24.5954666.0013714.4836254-5.2087832 3.0072937-.0013713-.4836254z" fill="#dedffb"/></g></g><g><g><path d="m22.8171444 13.7521973.0013714.4836254-9.01717 5.2060661-.0013714-.4836254z" fill="#dedffb"/></g></g><g><g><path d="m12.535821 24.5705242.0013704.4836254-3.1400604 1.8129139-.0013714-.4836254z" fill="#dedffb"/></g></g><g><g><path d="m16.1800518 21.2481155.0013619.4807034-6.7877398 3.9189033-.0013628-.4807033z" fill="#dedffb"/></g></g><g><g><path d="m20.5195885 12.6389647.0013714.4836254-7.0708886 4.0823793-.0013713-.4836254z" fill="#dedffb"/></g></g><g><g><path d="m16.8822708 18.400034.0013714.4836273-7.4968729 4.3283214-.0013714-.4836254z" fill="#dedffb"/></g></g><g><g><path d="m18.2145596 15.1911106.0013637.4807034-8.8360681 5.1015072-.0013628-.4807053z" fill="#dedffb"/></g></g></g><g><g><path d="m13.5033445 21.5721951.0013628.4806842-4.1144895 2.3755017-.0013628-.4806824z" fill="#dedffb"/></g></g><g><g><path d="m12.9071789 19.4737186.0013714.4836255-3.5252381 2.0352973-.0013714-.4836254z" fill="#f45170"/></g></g><g><g><path d="m12.637538 17.1896687.0013713.4836254-3.2625026 1.8836078-.0013714-.4836273z" fill="#dedffb"/></g></g><g><g><path d="m8.3761778 24.5323677.0013618.4806843-1.6478405.9513798-.0013628-.4806824z" fill="#dedffb"/></g></g><g><g><path d="m29.427042 12.3785839-3.9067726 2.2555981.0013447.4807472 3.9054279-2.2547932z" fill="#dedffb"/></g></g><g><g><path d="m8.3796339 25.751688.0013628.4807053-1.6478405.9513797-.0013628-.4807033z" fill="#dedffb"/></g></g><g><g><path d="m8.3830824 26.9681072.0013714.4836254-1.647841.9513817-.0013709-.4836254z" fill="#dedffb"/></g></g><g><g><path d="m8.3865395 28.1874294.0013713.4836254-1.6478409.9513817-.0013714-.4836254z" fill="#dedffb"/></g></g><g><g><path d="m8.393445 30.6231689.0013704.4836255-1.6478405.9513835-.0013709-.4836273z" fill="#dedffb"/></g></g><g><g><path d="m8.3899965 29.4067707.0013628.4807034-1.6478409.9513816-.0013628-.4807033z" fill="#dedffb"/></g></g><g><g><path d="m11.366807 27.6881065.0013628.4807053-1.9641333 1.1339931-.0013628-.4807052z" fill="#dedffb"/></g></g></g></g><g><g><g enable-background="new"><g><path d="m29.7209778 31.2282219-.0584373-14.3534775-1.2763939-.7417698.0584373 14.3535519c.0007362.2452431.0862179.4156151.22365.4955692l1.2764683.7416954c-.1375065-.0798816-.2229882-.2502537-.2237244-.4955692z" fill="#dedffb"/></g><g><g><path d="m29.6625214 16.8747578-1.2763977-.7417603 18.5157814-10.6900911 1.2763977.7417612z" fill="#f3f1fc"/></g></g><g><g><path d="m48.2382317 20.5362263c0 .4953251-.3412132 1.0786552-.7594147 1.3317928l-16.9837341 9.7961845c-.4292183.2531376-.7704296.0550213-.7704296-.4403038l-.06604-14.3529968 18.5245952-10.6877417z" fill="#f3f1fc"/></g><g><path d="m30.210907 17.1881313 17.4251137-10.0540242.0515938 13.4044685c0 .2918339-.2354012.7024441-.4933739.8588409l-16.9091644 9.7525177z" fill="#fff"/></g></g></g><g><g><g><path d="m48.1780128 4.87818v1.3099976l-18.5200176 10.690002-1.2700195-.75-.0099487-1.2999868c0-.4900513.3499756-1.0800171.7799683-1.3300171l16.9700298-9.7999878c.2099609-.1199951.4099731-.1400146.5499878-.0599976l1.2299805.7299802c.0200195.0100098.0300293.0100098.039978.0200195.1400146.0700071.2300414.23999.2300414.48999z" fill="#497bfe"/></g></g></g><g enable-background="new"><g><path d="m46.6755371 3.6425836c-.1394196-.0810595-.3334465-.0677953-.5506859.0575523l-16.9663544 9.7955294c-.4316788.2492952-.7774334.8392611-.7760334 1.3352718l.0036831 1.3020372 1.2763939.7417698-.003685-1.3020382c-.0014-.4960108.3443565-1.08605.7760353-1.3352718l16.9663506-9.7955303c.2172394-.1254215.4112663-.1386118.5506897-.0575523z" fill="#497bfe"/></g><g><g><path d="m47.4012566 4.441915c.4316711-.2492266.771946-.0553145.7733536.4406815l.0036926 1.3020711-18.5157814 10.6900902-.0036907-1.3020706c-.0014057-.4959955.3443699-1.0859995.7760429-1.335227z" fill="#57b3fe"/></g></g></g></g><g><g><g><path d="m30.9813766 14.7114058c.223547-.1290646.4091187-.0321741.4098454.2246838.0007286.256918-.1836872.567421-.4072342.6964855-.2158375.1246138-.4014206.0277309-.4021492-.229187-.0007286-.2568589.1837006-.5673686.399538-.6919823z" fill="#fff"/></g></g><g><g><path d="m32.3997307 13.892519c.215847-.1246204.4091301-.0321817.4098587.2246761.0007286.256918-.1913986.5718727-.4072495.6964931-.2158356.1246138-.4091167.0321751-.4098454-.2247429-.0007285-.2568578.1913968-.5718125.4072362-.6964263z" fill="#fff"/></g></g><g><g><path d="m33.8180962 13.0736256c.2158356-.1246138.4014206-.0277309.4021492.2291269.0007286.256918-.1837006.5674286-.3995361.6920414-.2235489.1290655-.4091339.0321827-.4098625-.2247353-.0007287-.2568578.1837005-.5673685.4072494-.696433z" fill="#fff"/></g></g><g><g><path d="m46.8841095 5.5743027c.2081261-.1201615.3705254-.0275836.3711815.2026634.0006752.2391977-.1606712.5186315-.3687973.638793l-6.953064 4.0143538c-.2081261.1201611-.3705254.0276442-.3712044-.2115536-.0006523-.2302475.1606941-.5097418.3688202-.6299028z" fill="#fff"/></g></g></g></g><g><g><g><g><path d="m32.601696 20.6216488.0013733.4836254-1.6478424.9513817-.0013695-.4836254z" fill="#dedffb"/></g></g><g><g><path d="m32.5982399 19.4023075.0013733.4836254-1.6478424.9513817-.0013714-.4836254z" fill="#dedffb"/></g></g><g><g><path d="m32.5947914 18.1859093.0013619.4807033-1.6478386.9513817-.0013638-.4807033z" fill="#dedffb"/></g></g><g><g><path d="m32.5913353 16.966568.0013695.4836254-1.6478386.9513817-.0013714-.4836254z" fill="#dedffb"/></g></g><g enable-background="new"><g><g><path d="m46.9550285 18.4384956-3.5970649 2.0767632.0013427.4806785 3.5957222-2.076025z" fill="#dedffb"/></g></g><g><g><path d="m45.2260513 20.6550846.0013695.4836254-6.4025612 3.6965218-.0013733-.4836273z" fill="#dedffb"/></g></g><g><g><path d="m46.5175133 17.4697304.0013695.4836254-6.6678582 3.8496895-.0013694-.4836254z" fill="#dedffb"/></g></g><g><g><path d="m45.6178284 15.5494356.0013618.4807043-4.7215767 2.7260037-.0013618-.4807034z" fill="#dedffb"/></g></g><g><g><path d="m46.9550285 12.3347073-5.2137756 3.0101747.0014114.483635 5.2123642-3.009368z" fill="#dedffb"/></g></g><g><g><path d="m42.710041 20.8893127.0013619.4807034-6.4229736 3.7083073-.0013657-.4807053z" fill="#dba660"/></g></g><g><g><path d="m46.9550285 9.8950329-3.3560218 1.9375639.0013427.4806795 3.3546791-1.9368248z" fill="#8fabfe"/></g></g><g><g><path d="m43.0678902 18.2400532.0013733.4836254-5.5327416 3.1943283-.0013695-.4836254z" fill="#dedffb"/></g></g><g><g><path d="m43.3441353 15.6408367.0013618.4806843-4.3568115 2.5154076-.0013657-.4806843z" fill="#dedffb"/></g></g><g><g><path d="m37.8898811 24.8906212.0013733.4836273-4.2547836 2.4564991-.0013733-.4836254z" fill="#dedffb"/></g></g><g><g><path d="m38.8369789 21.904089.0013695.4836273-5.2087822 3.0072918-.0013733-.4836254z" fill="#dedffb"/></g></g><g><g><path d="m46.9550285 11.1134253-8.9260559 5.1534471.0013428.483635 8.9247131-5.1527071z" fill="#dedffb"/></g></g><g><g><path d="m36.7647972 21.8791466.0013695.4836254-3.1400604 1.8129158-.0013695-.4836273z" fill="#dedffb"/></g></g><g><g><path d="m40.4090271 18.5567379.0013657.4807034-6.7877427 3.9189052-.0013618-.4807052z" fill="#dedffb"/></g></g><g><g><path d="m44.7485657 9.947587.0013695.4836264-7.0708886 4.0823793-.0013694-.4836263z" fill="#dedffb"/></g></g><g><g><path d="m41.111248 15.7086573.0013695.4836263-7.496872 4.3283215-.0013694-.4836254z" fill="#dedffb"/></g></g><g><g><path d="m42.4435387 12.499733.0013618.4807043-8.8360672 5.1015062-.0013656-.4807033z" fill="#dedffb"/></g></g></g><g><g><path d="m37.7323227 18.8808193.0013618.4806824-4.1144905 2.3755035-.0013618-.4806842z" fill="#dedffb"/></g></g><g><g><path d="m37.1361542 16.782341.0013733.4836254-3.5252381 2.0352974-.0013733-.4836254z" fill="#f45170"/></g></g><g><g><path d="m36.8665161 14.498292.0013695.4836254-3.2625008 1.8836069-.0013733-.4836254z" fill="#dedffb"/></g></g><g><g><path d="m32.6051559 21.8409901.0013619.4806842-1.6478424.9513817-.0013619-.4806843z" fill="#dedffb"/></g></g><g><g><path d="m32.6086121 23.0603123.0013618.4807033-1.6478405.9513817-.0013637-.4807053z" fill="#dedffb"/></g></g><g><g><path d="m32.6120605 24.2767315.0013695.4836254-1.6478405.9513817-.0013714-.4836273z" fill="#dedffb"/></g></g><g><g><path d="m32.6155167 25.4960518.0013694.4836254-1.6478405.9513817-.0013694-.4836254z" fill="#dedffb"/></g></g><g><g><path d="m32.6224213 27.9317913.0013733.4836273-1.6478425.9513798-.0013713-.4836254z" fill="#dedffb"/></g></g><g><g><path d="m32.6189728 26.7153931.0013618.4807033-1.6478386.9513817-.0013637-.4807034z" fill="#dedffb"/></g></g><g><g><path d="m35.5957832 24.9967308.0013619.4807034-1.9641304 1.1339931-.0013657-.4807033z" fill="#dedffb"/></g></g></g></g></g></svg>