<svg id="Layer_1" enable-background="new 0 0 52 52" height="512" viewBox="0 0 52 52" width="512" xmlns="http://www.w3.org/2000/svg"><g id="_x34_0"><g><g><g><g><g><g enable-background="new"><g><g><g><path d="m33.6233864 33.1979408-11.7608071 6.7905503-4.170845-2.4217987v-1.8202973l11.7528343-6.7905521 4.1708947 2.4217987z" fill="#1d2943"/></g></g></g></g></g><g><g><g><g><g><g><g><g><g><g enable-background="new"><g><g><g><path d="m17.6887608 35.745945.003498 1.8199196 4.1694966 2.4230461-.0034981-1.8199196z" fill="#111d33"/></g></g></g><g><g><g><path d="m33.624649 33.1996422-11.7600097 6.790039-.0099487-1.8200073-4.170044-2.4200439 11.7600098-6.7899761 4.1699829 2.4199829z" fill="#1d2943"/></g></g></g><g><g><g><path d="m21.8582573 38.1689911.0034981 1.8199196 11.7590446-6.7890892-.0034981-1.8199177z" fill="#1d2943"/></g></g></g><g><g><g><path d="m17.6887608 35.745945 4.1694965 2.4230461 11.7590446-6.7890873-4.1694965-2.423048z" fill="#4c5c75"/></g></g></g></g></g><g><g enable-background="new"><g><g><g><path d="m22.6775913 35.8787498-1.3120461-.7624702-.0158501-5.5909748 1.3120518.7624683c.8702718 2.0214653 1.6091061 4.0189514.0158444 5.5909767z" fill="#dedffb"/></g></g></g><g><g><g><path d="m22.6617241 30.2877731-1.3120289-.7624683 6.4232178-3.7084484 1.3120308.7624702z" fill="#767676"/></g></g></g><g><g><g><path d="m29.0849438 26.5793266.01585 5.5909767-6.4232177 3.7084465-.015852-5.5909767z" fill="#f3f1fc"/></g></g></g></g></g><g><g><g><g enable-background="new"><g><g><g><path d="m38.3798866 3.6456707c-.3323898-.1899858-.7835159-.1582973-1.2821236.1266088l-24.0992507 33.3353674c0 .5698586.1978598.96558.5302496 1.1555176l-2.6275797-1.5274696c-.3165951-.1820641-.5223284-.5857048-.5223284-1.1475983l-.0554066-17.3245888c0-1.1475945.8072348-2.5405331 1.8044538-3.1103458l22.342329-12.9083519c.506485-.284906.9576073-.3165945 1.2900009-.1187351z" fill="#4c5c75"/></g></g></g><g><g><g><path d="m37.0933533 3.7731173c.9962006-.5751576 1.8064499-.113847 1.8096962 1.0312936l.0490952 17.317997c.0032463 1.1447124-.8017426 2.5385799-1.7979431 3.1137371l-22.3480168 12.9026337c-.9961967.5751572-1.8064537.1138496-1.8096991-1.0308647l-.0490971-17.3179951c-.0032463-1.1451416.8017521-2.5390129 1.7979488-3.1141682z" fill="#1d2943"/></g></g><g><g><path d="m37.7220154 22.1320515c.0104904.6917801-.5659485 1.6874199-1.1738625 2.0438004l-22.3244467 12.8915767-.052393-17.2831039c0-.6917152.5764408-1.6874199 1.1842909-2.0438004l21.223959-12.2522535c.4926376-.2829428 1.1005516.0733743 1.1005516.6393237z" fill="#fff"/></g></g></g></g></g></g></g></g></g></g></g></g></g></g></g></g></g><g><g><g><g><g><path d="m47.0975189 38.3605003c0 .1675262-.1155167.3408356-.3408318.4679489l-19.0010681 10.9765931c-.4448509.2599449-1.166996.2599449-1.6118126 0l-6.4473228-3.743618c-.2079697-.1328659-.3119545-.2888603-.3119545-.4563828l-.0173473-1.9584656 27.7188053-7.2156601z" fill="#9ea9c9"/></g></g><g><g><path d="m46.7583084 36.8734131-18.9998112 10.9698601c-.4500084.2600098-1.1699715.2600098-1.6199799.0100098l-6.4399395-3.7499619c-.4399967-.260006-.429987-.679985.0100098-.929985l19.0097619-10.9698601c.4399986-.2600079 1.1600227-.2600079 1.6000214 0l6.4498863 3.7399521c.4399986.2600059.4300498.6699752-.0099488.929985z" fill="#c9cee2"/></g></g></g><g><g><g><path d="m31.2446136 37.2418633c-.0781078.0450974-.0751076.1137123-.0008812.1568489l1.4575272.847023c.0641136.0372581.1825638.0392189.2606735-.0058746l1.463665-.8450508c.0679169-.0392113.0683289-.1097946.0042152-.1470528l-1.457531-.847023c-.0742226-.0431366-.1960831-.043129-.2639999-.0039177z" fill="#f3f1fc"/></g></g><g><g><path d="m28.707819 38.7064819c-.0747108.0431366-.071722.1117592.0025024.1548958l1.4575291.847023c.0641136.0372581.1825752.0392113.2572861-.0039215l1.4670639-.8470116c.0679169-.0392113.06493-.1078339.0008183-.145092l-1.4575291-.847023c-.0742264-.0431366-.1926899-.0450897-.2606068-.0058784z" fill="#f3f1fc"/></g></g><g><g><path d="m26.1744213 40.1691399c-.0747223.0431442-.075119.1137199-.0008945.1568565l1.4575291.847023c.0641117.0372581.1859608.0372581.2606831-.0058823l1.4670639-.8470078c.0679169-.0392151.0649166-.10783.0008049-.1450882l-1.4575291-.847023c-.0742245-.0431366-.1926765-.0450974-.2605934-.0058861z" fill="#f3f1fc"/></g></g><g><g><path d="m23.6410122 41.6318054c-.0781097.0450974-.0751095.1137161-.0008831.1568489l1.4575291.847023c.0641117.0372581.1825638.0392189.2606716-.0058746l1.4636669-.8450508c.0679283-.0392151.068325-.1097946.0042133-.1470528l-1.4575291-.847023c-.0742264-.0431366-.1960735-.0431366-.2640018-.0039177z" fill="#f3f1fc"/></g></g><g><g><path d="m21.1042156 43.0964241c-.0747108.0431366-.071722.1117592.0025024.1548958l1.4575291.847023c.0641136.0372581.1825752.0392151.2572861-.0039215l1.4670639-.8470078c.0679169-.0392151.06493-.1078377.0008183-.1450958l-1.4575291-.847023c-.0742264-.0431366-.1926899-.0450897-.2606068-.0058784z" fill="#f3f1fc"/></g></g><g><g><path d="m37.4932213 33.6342278c-.0747108.0431366-.0717125.1117554.0025139.1548882l1.4575272.847023c.0641136.0372581.1825638.0392227.2572746-.0039139l1.4670639-.8470078c.0679169-.0392151.06493-.1078377.0008163-.1450958l-1.4575272-.847023c-.0742264-.0431366-.192688-.0450897-.2606049-.0058784z" fill="#f3f1fc"/></g></g><g><g><path d="m34.9598198 35.0968895c-.0747108.0431328-.075119.1137199-.0008926.1568527l1.457531.847023c.0641098.0372581.1859703.0372543.2606812-.0058823l1.4670639-.8470078c.0679169-.0392113.06493-.1078377.0008163-.1450958l-1.4575272-.847023c-.0742264-.0431366-.192688-.0450897-.2606049-.0058784z" fill="#f3f1fc"/></g></g><g><g><path d="m33.5894852 38.6045532c-.0781097.0450935-.0751114.1137123-.000885.1568489l1.457531.847023c.0640984.0372505.1825638.0392189.2606697-.0058746l1.4636688-.8450508c.0679169-.0392113.0683136-.1098022.0042114-.1470566l-1.4575272-.847023c-.0742264-.0431328-.1960869-.043129-.2640038-.0039177z" fill="#f3f1fc"/></g></g><g><g><path d="m31.0526886 40.0691719c-.0747108.0431366-.071722.1117592.0025024.1548958l1.457531.847023c.0640984.0372505.1825752.0392113.2572861-.0039215l1.4670639-.8470116c.0679169-.0392113.0649147-.1078415.0008163-.145092l-1.457531-.847023c-.0742264-.0431366-.192688-.0450935-.2606049-.0058784z" fill="#f3f1fc"/></g></g><g><g><path d="m28.5192909 41.5318298c-.0747223.0431404-.0751209.1137199-.0008945.1568565l1.4575291.847023c.0641003.0372505.1859608.0372581.2606831-.0058823l1.4670639-.8470116c.0679169-.0392113.0649052-.1078339.0008049-.1450882l-1.4575291-.847023c-.0742245-.0431328-.1926765-.0450974-.2605934-.0058823z" fill="#f3f1fc"/></g></g><g><g><path d="m25.9858799 42.9944954c-.0781078.0450974-.0751076.1137123-.0008831.1568489l1.457531.847023c.0641003.0372505.1825619.0392189.2606697-.0058746l1.4636688-.8450508c.0679283-.0392189.0683136-.1098022.0042133-.1470528l-1.4575291-.8470268c-.0742264-.0431328-.1960735-.0431328-.2640038-.0039139z" fill="#f3f1fc"/></g></g><g><g><path d="m23.4490852 44.4591141c-.0747108.0431366-.071722.1117592.0025024.1548958l1.4575291.847023c.0641003.0372505.1825752.0392113.2572861-.0039215l1.4670639-.8470116c.0679169-.0392113.0649185-.1078415.0008163-.145092l-1.4575291-.847023c-.0742245-.0431366-.192688-.0450935-.2606049-.0058784z" fill="#f3f1fc"/></g></g><g><g><path d="m39.838089 34.9969177c-.0747108.0431366-.0717125.1117516.0025139.1548882l1.457531.847023c.0640984.0372505.1825638.0392189.2572746-.0039139l1.4670639-.8470116c.0679169-.0392113.0649147-.1078415.0008163-.145092l-1.457531-.847023c-.0742226-.0431366-.192688-.0450897-.2606049-.0058784z" fill="#f3f1fc"/></g></g><g><g><path d="m37.3046913 36.4595757c-.0747108.0431366-.075119.1137199-.0008965.1568565l1.457531.847023c.0641022.0372505.1859703.0372505.2606812-.0058823l1.4670677-.8470116c.0679169-.0392113.0649147-.1078415.0008163-.145092l-1.457531-.847023c-.0742264-.0431366-.192688-.0450897-.2606049-.0058784z" fill="#f3f1fc"/></g></g><g><g><path d="m35.9343529 39.9672432c-.0781059.0450935-.0751076.1137123-.0008812.1568489l1.4575272.847023c.0641022.0372505.1825638.0392189.2606735-.0058784l1.463665-.845047c.0679169-.0392113.0683136-.1098061.0042152-.1470566l-1.457531-.847023c-.0742226-.0431366-.1960831-.043129-.2639999-.0039177z" fill="#f3f1fc"/></g></g><g><g><path d="m28.3307495 44.3571854c-.0815048.0470543-.0751076.1137123-.0042572.1548882l1.4575291.847023c.0641003.0372505.1825409.0431404.2640457-.0039177l6.5304775-3.7703705c.071312-.041172.0615387-.1098022-.0025597-.1470566l-1.457531-.847023c-.0708504-.041172-.1859169-.0450897-.2572289-.0039177z" fill="#f3f1fc"/></g></g><g><g><path d="m25.7939548 45.821804c-.0747108.0431328-.0717239.1117592.0025024.1548958l1.4575291.847023c.0641003.0372505.1825752.0392113.2572861-.0039215l1.4670639-.8470116c.0679169-.0392113.0649166-.1078415.0008163-.1450958l-1.4575291-.847023c-.0742245-.0431328-.192688-.0450897-.2606049-.0058784z" fill="#f3f1fc"/></g></g><g><g><path d="m42.1829567 36.3596077c-.0747108.0431328-.0717087.1117516.0025177.1548882l1.4575272.847023c.0641022.0372505.1825638.0392189.2572746-.0039139l1.4670639-.8470116c.0679169-.0392113.0649185-.1078415.0008163-.145092l-1.4575272-.8470268c-.0742264-.0431328-.192688-.0450897-.2606049-.0058784z" fill="#f3f1fc"/></g></g><g><g><path d="m42.189064 36.9454956 1.4574242.8510208c.0638237.0372391.1808281.0372391.2552986-.005291l1.4680443-.8457298c.0319099-.0212631.0478516-.0478516.0478516-.0744743v-.4308357c0 .0265884-.0159416.0532112-.0478516.069149l-1.4680443.8457298c-.0744705.0478554-.1967964.0425301-.2606239.0053253l-1.4573936-.8457298c-.0372353-.0212631-.0532074-.0531769-.0532074-.0797997v.436161c-.0000001.0266228.0159721.0532113.0585021.0744744z" fill="#9ea9c9"/></g><g><path d="m43.024147 35.5838394c.0319099-.0212631.0478821-.0478859.0478821-.0744743v-.4361572c0 .026619-.0159721.0532074-.0478821.0744705l-1.4680443.8457336c-.07444.0425262-.1914749.0425262-.2606239.0053215l-1.4573936-.8457298c-.0372353-.0212631-.0531769-.0531769-.0531769-.0797958v.4308357c0 .0319099.0212669.0585327.0585022.0797958l1.4573936.8510208c.0638237.0372391.1808586.0372391.2552986-.005291z" fill="#9ea9c9"/></g><g><path d="m28.3278236 44.9452171 1.4574261.8457298c.0638256.0372391.1808262.0425606.2659473 0l6.5263557-3.7711639c.0372391-.0212631.0532112-.0478516.0532112-.07444v-.4308357c0 .0265884-.0159721.0531769-.0532112.069149l-6.5316792 3.7711334c-.0797977.0478821-.1967983.0425606-.2606239.0053215l-1.4574261-.8457298c-.0372047-.0212631-.0585003-.0478516-.0585003-.0797653l.0053234.436161c.0000002.0265885.0159723.0531769.053177.07444z" fill="#9ea9c9"/></g><g><path d="m39.5934334 37.9029045v.4308357c0 .0319099.0212669.0585327.0585022.0797958l1.4573936.8456993c.0638237.0372353.1861496.0372353.2606239-.005291l1.4627151-.8457336c.0372391-.0212631.0531769-.0478516.0531769-.0744705v-.4308357c0 .0265884-.0159378.0532074-.0531769.069149l-1.4680405.8457298c-.0744743.0478516-.1968002.0478516-.2606239.0106163l-1.4573936-.8510246c-.0372352-.0212631-.0531768-.047882-.0531768-.0744705z" fill="#9ea9c9"/></g><g><path d="m38.146656 35.2487411-1.4680405.8457298c-.0744743.0425301-.1968002.0425301-.2606239.0053253l-1.4573936-.8457298c-.0372353-.0212631-.0585022-.0478859-.0585022-.0797997l.0052948.436161c0 .0265884.0159721.0532074.0532074.0744743l1.4573936.8510208c.0638237.0372391.1861496.0372391.2606239-.005291l1.4680405-.8510551c.0319138-.0159416.0478859-.0425606.0478859-.069149v-.436161c0 .0266229-.0159721.0532113-.0478859.0744744z" fill="#9ea9c9"/></g><g><path d="m29.359705 40.3177376-1.468008.8510208c-.0744743.0425606-.1968327.0425606-.2606564.0053253l-1.4573936-.8457298c-.0372372-.0212631-.0531769-.0531769-.0531769-.0797653v.4308357c0 .0319099.0159397.0584984.0531769.0797653l1.4573936.8457298c.0638237.0372353.186182.0372353.2606564-.0053253l1.468008-.8456955c.0319138-.0212975.0478859-.0478859.0478859-.0744743v-.4308357c0 .0265884-.0159722.0531768-.0478859.069149z" fill="#9ea9c9"/></g><g><path d="m29.2214394 43.5037956-.0053234-.4308357c0 .0265884-.0159721.0531769-.0478859.0744743l-1.4627171.8456993c-.0797653.0425606-.1967983.0425606-.2606239.0053215l-1.4573936-.8457298c-.0372372-.0212631-.0585003-.0531769-.0585003-.0797653v.436161c0 .0265884.0212631.0531769.0585003.07444l1.4573936.8457298c.0638256.0425606.1808586.0425606.2606239-.0053215l1.4627171-.8404083c.0319137-.0212631.0532093-.0531768.0532093-.0797653z" fill="#9ea9c9"/></g><g><path d="m33.588295 39.1954079 1.4573936.8457336c.0638237.0372353.1861839.0425606.2606239-.0053253l1.4627151-.8456993c.0372391-.0212975.0532112-.0478821.0532112-.0744705v-.436161c0 .0319138-.0159721.0585022-.0532112.0797958l-1.4627151.8456993c-.0797653.0425606-.1968002.0425606-.2606239.0053253l-1.4573936-.8510246c-.0372353-.0212936-.0585022-.0478821-.0585022-.0744705l.0053253.4308357c0 .0319099.0159416.0584983.0531769.0797615z" fill="#9ea9c9"/></g><g><path d="m35.933979 40.5570641 1.4573936.8457336c.0638237.0372353.1808281.0425606.2606239-.0053253l1.462719-.8456993c.0372353-.0159721.0531769-.0478859.0531769-.0744743v-.4308358c0 .0265884-.0159416.0531769-.0531769.0744743l-1.462719.8456993c-.0797958.0425606-.1968002.0425606-.2606239.0053253l-1.4573936-.8457336c-.0372353-.0212631-.0585327-.0531769-.0585327-.0797653v.4308357c0 .0319138.0212975.0585022.0585327.0797654z" fill="#9ea9c9"/></g><g><path d="m31.8915405 38.8550186-1.4680405.8510246c-.0744419.0425606-.1914749.0372353-.2553005 0l-1.4573936-.8457298c-.0372353-.0212669-.0585003-.0478554-.0585003-.0797653v.4361572c0 .0265884.021265.0585022.0585003.0797653l1.4573936.8457298c.0638256.0372391.1808586.0372391.2606239-.0053215l1.4627171-.8456993c.0372372-.0212975.0532093-.0478859.0532093-.0744743v-.4308357c0 .0265884-.0212955.0531769-.0532093.069149z" fill="#9ea9c9"/></g><g><path d="m34.4286995 37.8284607c.0319138-.0212936.0478554-.0478821.0478554-.0744705v-.436161c0 .0265884-.0159416.0585022-.0531769.0744743l-1.462719.8456993c-.0744743.0478821-.1968002.0425606-.2606239.0053215l-1.4573936-.8457298c-.0372353-.0212631-.0532074-.0478516-.0532074-.07444v.4308357c0 .0265884.0159721.0584984.0532074.0797653l1.4573936.8457298c.069149.0372353.1861496.0372353.2606239-.0053253z" fill="#9ea9c9"/></g><g><path d="m37.3062515 36.6157227c-.0372391-.0212669-.0585022-.0478859-.0585022-.0797997v.436161c0 .0265884.0212631.0585327.0585022.0797958l1.4573936.8456993c.0638542.0372353.1861801.0372353.2606544-.005291l1.4680099-.8457298c.0319443-.0212669.0478859-.0478859.0478859-.0744743v-.436161c0 .0266228-.0159416.0532112-.0531769.0744743l-1.462719.8457298c-.0744743.0425301-.1968002.0425301-.2606544.0053253z" fill="#9ea9c9"/></g><g><path d="m34.2904015 40.5783615-.0053215-.4308357c0 .0265884-.0159416.0531769-.0478554.0744743l-1.4680405.8456993c-.0744743.0425606-.1914749.0425606-.2553329.0053215l-1.4573917-.8510208c-.0372372-.0212975-.0585022-.0478859-.0585022-.0744743v.4308357c0 .0265884.021265.0585022.0585022.0797653l1.4573917.8457298c.063858.0372391.1808586.0425606.2553329-.0053215l1.4680405-.8456993c.0372391-.0159721.0531769-.0478858.0531769-.0744743z" fill="#9ea9c9"/></g><g><path d="m31.7053909 42.115551c.0319118-.0212936.0478516-.0478821.0478516-.0744705v-.4308357c0 .0265884-.0159397.0531769-.0478516.0744705l-1.4680424.8456993c-.0744724.0425606-.1967983.0425606-.2606239.0053253l-1.4573936-.8457298c-.0372353-.0212669-.0585327-.0531769-.0585327-.0797653l.0053234.4361572c0 .0265884.015974.0531769.0532093.0744438l1.4573936.8510513c.0638256.0372391.1861515.0372391.2606239-.0106468z" fill="#9ea9c9"/></g><g><path d="m40.6784935 34.2168617c.0319138-.0159416.0478516-.0425644.0478516-.0691528v-.4361572c0 .026619-.0159378.0532074-.0478516.0744743l-1.4680405.8457298c-.0744743.0425262-.1914749.0425262-.2553024.0053253l-1.4573936-.8457336c-.0372353-.0265884-.0585327-.0531769-.0585327-.0797958v.4308357c0 .0319099.0212975.0585327.0585327.0797958l1.4573936.8457298c.0638275.0372047.1808281.0425301.2553024 0z" fill="#9ea9c9"/></g><g><path d="m26.8225784 41.7857475-1.4627171.8457298c-.0797977.0425606-.1968002.0425606-.2606239.0053253l-1.4574261-.8457336c-.0372372-.0265884-.0585003-.0531769-.0585003-.0797653v.4308357c0 .0319138.0212631.0585022.0585003.0797653l1.4574261.8457336c.0638237.0372353.1808262.0425606.2606239-.0053253l1.4627171-.8456993c.0372372-.0159721.0531769-.0478859.0531769-.0744743v-.4308357c0 .0265885-.021265.0531769-.0531769.0744438z" fill="#9ea9c9"/></g><g><path d="m25.7374878 45.8973351.0053234.4361572c0 .0265884.0159721.0531769.0532093.07444l1.4573936.8510551c.0638237.0372391.1861496.0372391.2606239-.0053215l1.4680405-.8457336c.0319138-.0212631.0478535-.0478516.0478535-.07444v-.4361572c0 .0265884-.0159397.0584984-.0531769.0744705l-1.4680405.8456993c-.0744743.0478859-.1914768.0425606-.2553005.0053253l-1.4573936-.8457298c-.0372372-.021267-.0585327-.0531769-.0585327-.0797653z" fill="#9ea9c9"/></g><g><path d="m23.3918343 44.5356789.0053253.4308357c0 .0319099.0159397.0584984.0531769.0797653l1.4573917.8457298c.0691509.0372353.1861839.0425606.2606258 0l1.4680405-.8457298c.0319118-.0212669.0478859-.0478554.0478859-.0744438v-.4361572c0 .0265884-.015974.0531769-.0532093.0744743l-1.4627171.8456955c-.0744419.0425606-.1968002.0425606-.2606258.0053253l-1.4573917-.8457298c-.0372372-.021267-.0531769-.0531769-.0585022-.0797653z" fill="#9ea9c9"/></g><g><path d="m21.0514736 43.1740227v.4308357c0 .0319138.0212975.0585022.0585346.0797653l1.4573918.8457298c.0638256.0372353.1808281.0425606.2553005 0l1.4680424-.8510208c.0319118-.0159721.0478516-.0425606.0478516-.069149v-.436161c0 .0265884-.0159397.0531769-.0478516.07444l-1.4680424.8457298c-.0744724.0425644-.1967983.0425644-.2606239.0053253l-1.4573936-.8457298c-.0372353-.0265884-.0532094-.0531769-.0532094-.0797653z" fill="#9ea9c9"/></g></g><g><g><path d="m39.649559 37.8222656c-.0747108.0431366-.075119.1137199-.0008926.1568565l1.4575272.847023c.0641022.0372505.1859741.0372505.260685-.0058823l1.4670639-.8470116c.0679169-.0392113.0649185-.1078415.0008163-.145092l-1.457531-.847023c-.0742226-.0431366-.192688-.0450935-.2606049-.0058784z" fill="#f3f1fc"/></g></g></g></g></g></g></g><g><g><g><g><path d="m16.3903465 18.3685436.0017567.6192894-1.3414965.7745133-.0017557-.6192894z" fill="#dedffb"/></g></g><g><g><path d="m30.4119148 13.4069023.0017777.6273222-4.8224564 2.7842455-.0017776-.6273212z" fill="#dedffb"/></g></g><g enable-background="new"><g><g><path d="m31.2129211 23.9325619.0017567.6192779-5.2424412 3.0267239-.0017547-.619278z" fill="#4c5c75"/></g></g><g><g><path d="m27.211937 24.6716442.0017776.6273232-2.1208038 1.2244472-.0017777-.6273231z" fill="#dedffb"/></g></g><g><g><path d="m29.2022934 21.9596825.0017567.6192779-2.806696 1.6204453-.0017547-.6192761z" fill="#dedffb"/></g></g><g><g><path d="m26.2345924 23.6730862.0017548.6192779-2.8556805 1.6487274-.0017547-.6192779z" fill="#dedffb"/></g></g></g><g><g><path d="m27.2030678 21.5430508.0017547.6192913-1.4558448.8405323-.0017567-.6192913z" fill="#dedffb"/></g></g><g><g><path d="m25.4252567 22.5694695.0017548.6192913-3.6675949 2.1174869-.0017567-.6192913z" fill="#dedffb"/></g></g><g enable-background="new"><g><g><path d="m29.1889553 17.2547379.0017567.619276-2.7857151 1.6083336-.0017567-.6192761z" fill="#dedffb"/></g></g><g><g><path d="m31.9455204 17.234087-8.9604931 5.1733265.0017758.6192741 8.9587173-5.1723118z" fill="#dedffb"/></g></g><g><g><path d="m27.1897278 16.8381042.0017567.6192914-6.3343125 3.6571178-.0017547-.6192913z" fill="#78e75a"/></g></g><g><g><path d="m27.1808586 13.7095242.0017567.619277-5.5083943 3.180274-.0017566-.619278z" fill="#ffd06c"/></g></g><g><g><path d="m27.1764126 12.1412048.0017567.6192904-4.5565014 2.6306972-.0017567-.6192913z" fill="#dedffb"/></g></g><g><g><path d="m25.134491 16.4538231.0017795.6273231-5.2914257 3.0550061-.0017776-.6273232z" fill="#dedffb"/></g></g><g><g><path d="m22.1789474 15.0264921.0017567.6192913-3.1356392 1.8103609-.0017547-.6192913z" fill="#dedffb"/></g></g></g><g><g><path d="m22.5791321 22.6418076.0017547.6192779-2.0927982 1.2082768-.0017548-.6192761z" fill="#f45170"/></g></g><g><g><path d="m20.5754585 20.6568546.0017567.6192913-3.3176251 1.915432-.0017566-.6192913z" fill="#dedffb"/></g></g><g><g><path d="m19.3181343 19.8118992.0017777.6273231-2.064745 1.1920815-.0017795-.6273232z" fill="#dedffb"/></g></g><g><g><path d="m21.1614876 17.1848106.0017547.6192761-3.9125213 2.2588978-.0017567-.619278z" fill="#dedffb"/></g></g><g><g><path d="m18.6863136 17.0429649.0017567.6192913-1.4417954.8324204-.0017566-.6192894z" fill="#dedffb"/></g></g><g><g><path d="m16.3947926 19.9368629.0017566.6192761-1.3414964.7745132-.0017558-.619276z" fill="#f45170"/></g></g><g><g><path d="m16.3992157 21.4971371.0017796.6273231-1.3414965.7745133-.0017786-.6273232z" fill="#dedffb"/></g></g><g><g><path d="m16.4036636 23.065443.0017548.6192913-1.3414965.7745133-.0017557-.6192913z" fill="#dedffb"/></g></g><g><g><path d="m16.4081097 24.6337624.0017547.6192779-1.3414964.7745133-.0017548-.619278z" fill="#dedffb"/></g></g><g><g><path d="m25.8024979 27.0562706.0017547.619278-3.0936298 1.786108-.0017548-.6192761z" fill="#dedffb"/></g></g><g><g><path d="m24.7691669 26.0819778.0017796.6273232-3.1776466 1.8346138-.0017777-.6273212z" fill="#dedffb"/></g></g><g><g><path d="m22.9869804 25.5480957.0017548.619278-2.9536972 1.7053184-.0017567-.6192779z" fill="#dba660"/></g></g><g><g><path d="m20.2693634 23.9753532.0017567.619278-3.0026379 1.733572-.0017548-.619276z" fill="#dedffb"/></g></g><g><g><path d="m19.0820522 23.0899601.0017548.619278-1.8197708 1.0506458-.0017548-.619278z" fill="#57b3fe"/></g></g><g><g><path d="m21.5737591 21.6513729.0017566.619278-1.9317455 1.1152935-.0017567-.619278z" fill="#dedffb"/></g></g><g><g><path d="m26.1372852 19.0166206.0017567.6192761-4.3395329 2.5054302-.0017547-.6192779z" fill="#dedffb"/></g></g><g><g><path d="m16.4125557 26.2020817.0017548.6192779-1.3414956.7745133-.0017557-.619278z" fill="#dedffb"/></g></g><g><g><path d="m16.4170017 27.7703876.0017548.6192914-1.3414955.7745132-.0017557-.6192913z" fill="#dedffb"/></g></g><g><g><path d="m22.4218845 29.00807.0017567.619276-2.8416786 1.6406441-.0017567-.6192779z" fill="#dedffb"/></g></g><g><g><path d="m21.2975616 28.0863113.0017777.6273213-2.8416786 1.6406441-.0017777-.6273213z" fill="#dedffb"/></g></g><g><g><path d="m19.5783615 27.5160618.0017567.6192779-2.3027439 1.3294888-.0017548-.6192761z" fill="#dedffb"/></g></g><g><g><path d="m18.6570053 26.4771214.0017567.6192913-1.3858338.8001098-.0017547-.6192894z" fill="#dedffb"/></g></g><g><g><path d="m21.4566765 24.8607311.0017547.6192913-2.4567241 1.4183903-.0017567-.6192913z" fill="#dedffb"/></g></g><g><g><path d="m16.4214478 29.3387089.0017547.619276-1.3414955.7745133-.0017557-.6192761z" fill="#dba660"/></g></g><g><g><path d="m16.4258709 30.898983.0017776.6273232-1.3414955.7745132-.0017786-.6273232z" fill="#dedffb"/></g></g><g><g><path d="m18.1479206 29.9047565.0017777.6273232-.867878.50107-.0017777-.6273231z" fill="#dedffb"/></g></g><g><g><path d="m16.4303169 32.4673042.0017567.6192742-1.3414974.7745132-.0017557-.6192741z" fill="#dedffb"/></g></g><g><g><path d="m19.1672478 30.8871346.0017566.6192779-1.882761 1.0870094-.0017547-.619276z" fill="#dedffb"/></g></g></g><g><g><g><path d="m16.4303169 33.962925.0017567.6192932-1.3414974.7745132-.0017557-.6192932z" fill="#dedffb"/></g></g><g enable-background="new"><g><g><path d="m27.216383 27.7355881.0017566.6192913-4.5565013 2.6306972-.0017567-.6192913z" fill="#dedffb"/></g></g><g><g><path d="m22.2189178 30.6208763.0017567.6192913-3.1356392 1.8103619-.0017547-.6192932z" fill="#dedffb"/></g></g></g><g><g><path d="m18.726284 32.6373482.0017567.6192932-1.4417973.8324203-.0017547-.6192932z" fill="#dedffb"/></g></g></g></g><g><g enable-background="new"><g><g><path d="m43.4446564 10.3996563c0 .4899902-.3399658 1.0700073-.7600098 1.3099976l-7.6699829 4.4299927c-.2700195.1600342-.5100098.1300049-.6400146-.039978.0300293.039978.0599976.0700073.1000366.0899658l-.8400269-.4899902c-.1400146-.0799561-.2199707-.2399902-.2199707-.4799805l-.0100098-4.5700073c0-.4799805.3299561-1.0599976.75-1.2999878l7.6699829-4.4299932c.210022-.1199951.4000244-.1300049.539978-.0499878l.7800293.4599609c.0100098 0 .0100098 0 .0200195.0100098.0099487.0100098.0299683.0100098.039978.0200195.1300049.0700073.2199707.2399902.2199707.4799805z" fill="#497bfe"/></g></g></g></g><g><g enable-background="new"><g><path d="m42.3664436 4.8684931c-.1380005-.0802221-.3288269-.0686369-.5369263.0514407l-7.6752129 4.4313655c-.4192505.2419767-.7534714.8209438-.7520866 1.302639l.0128937 4.5630283c.0006561.2393541.0840874.4070835.2192459.48563l.8413467.4889088c-.1351624-.0785465-.2185173-.2462759-.2191734-.4855576l-.01297-4.5630274c-.0013809-.4816952.3329124-1.0606632.7520905-1.3027124l7.6752853-4.4312925c.2080231-.1201506.3988533-.1316628.5369263-.0514407z" fill="#497bfe"/></g><g><g><path d="m42.6709023 5.408936c.411602-.2376385.755703-.0503211.7570686.4313722l.0129356 4.5630159c.0013657.4816933-.3405495 1.0650845-.7521515 1.3027229l-7.6752396 4.4313011c-.4192009.2420254-.7556534.0502911-.757019-.4314013l-.0129356-4.5630168c-.0013657-.4816923.332901-1.060667.7521019-1.3026924z" fill="#57b3fe"/></g></g></g></g><g><g><g><path d="m39.7028389 10.5474834c.0806999.0638752.1210365.1848936.1210365.3664227.0033684.218523-.073967.4504871-.2252502.6790857-.1479225.2319632-.36306.4269514-.632019.5849457-.2891045.1647234-.5580444.2454033-.7967377.2319632-.0605087-.0134392-.0907555-.0605097-.0907555-.1445541 0-.0571442.0201721-.1243839.0537796-.1916237.0369759-.0672398.08741-.1210184.1445541-.1512842.0269012-.0168047.0571671-.0302439.08741-.0302439.0907745-.0067301.18153-.0235348.2723045-.0504351s.1916237-.0706043.3025665-.1344795c.3025475-.174798.4471016-.3630571.4471016-.574851 0-.0638742-.0302429-.0941391-.0907516-.0907745-.0739708.0033655-.1916275.0269003-.3563499.0739698-.168087.050415-.3126411.0840445-.4235878.0974846-.1143074.0168047-.2151566-.0033655-.2958374-.0638742-.0840454-.0571451-.1277504-.1714544-.1277504-.3462524 0-.2420588.0739708-.4840975.225235-.7194252.1512833-.2386942.3664436-.4403925.6421127-.5984068.2218666-.1277485.437027-.2117929.6353798-.2386732.0436821-.0134602.080677-.0033646.1075592.0235147.0235329.0269003.0369949.0638742.0369949.1109447 0 .0605097-.0201721.1277485-.0571671.1949883-.0403404.0706053-.0873871.1210194-.1445541.1546497-.0168037.0100746-.0403366.0201693-.0638733.0235138-.1647224.0369959-.3260841.1008701-.4840965.1916237-.1479187.08741-.262207.1849146-.3462524.2924728-.0806808.1042147-.1176758.1983547-.1176758.2891293 0 .0840445.0336304.1277485.1042137.1243839.0773354 0 .2017212-.0269003.3698082-.0806799.1714554-.0470695.3092804-.0773344.4168587-.0941391.1109428-.0134402.2084274.0100946.2857437.0706042z" fill="#fff"/></g><g><path d="m41.8913574 9.720479c0 .218524-.0739479.4504871-.2252312.6790857-.1512871.2319632-.3630791.4269314-.632019.5849457-.2891045.1647243-.561409.2454033-.8001022.2319632-.0605087-.0134602-.08741-.0605087-.08741-.1445532 0-.0571651.0168266-.1243849.0537987-.1916237.0369759-.0672398.08741-.1210194.1411896-.1512842.0302658-.0168047.0605087-.0269003.0907745-.0302649.0907555-.0067101.18153-.0235147.2723045-.050415.08741-.0235348.1916237-.0706043.3025475-.1344786.299202-.174799.4471207-.3630571.4471207-.574851 0-.0638752-.0302429-.0941401-.09412-.0907745-.0706024.0033646-.1916237.0268993-.3563461.0739489-.168087.0504351-.3092995.08741-.4235878.1008701-.1143074.0134392-.211792-.0067301-.2924728-.0672398-.0840454-.0571442-.1277504-.1714544-.1277504-.3462734-.0033646-.2420378.0739517-.4840965.225235-.7194042.1479187-.2386932.3630791-.437047.6420898-.5984058.2218895-.1277494.4370499-.2117939.6353798-.2386942.0403404-.0100746.0773163-.0033445.1042175.0235348.0268973.0269002.0403365.0638751.0403365.1109446 0 .0605097-.0201683.1277494-.0571442.1949892-.0403366.0705843-.0907745.1210184-.1445541.1546278-.0168037.0100956-.0403366.0201702-.0638733.0269003-.1647224.0336094-.3261032.0974846-.4840965.1882591-.1479187.087409-.2655716.1882582-.3462715.2924728-.0806808.1042137-.1176567.1983538-.1176567.2924728 0 .0806789.0336113.1243839.1042137.1243839.0773163-.0033445.2016983-.0268793.3664436-.0840445.1714325-.043705.312645-.0773144.4202232-.0907536.1109238-.0168257.2050629.0067091.2823792.0705843.0840416.060509.124382.1815493.124382.3630774z" fill="#fff"/></g><g><path d="m37.7362061 12.2821512c.0403404.0235357.0605087.0672398.0605087.1243849 0 .0840445-.0336075.1714535-.1008492.2588634-.0974846.1277485-.2016983.2487679-.3126411.3563471-.1143112.1109447-.2487679.2117939-.4034195.3025684-.211792.1210184-.4101257.1815281-.5883102.174798-.1781616-.0033646-.3227386-.0773144-.4302979-.218503-.1075783-.1412096-.1647415-.3462725-.168087-.6219406 0-.2723036.0571442-.5446072.1613579-.8101797.1075783-.262228.2521324-.5042667.4302979-.7126951.1781845-.2117939.3765182-.3798828.5849648-.5009012.1546288-.0907745.2924728-.1479197.406765-.1647444.1109428-.0201702.2151566-.0235348.3126411-.0100746.0672379.0134392.1008492.0605097.1008492.1445541 0 .0605087-.0201683.1210184-.0571442.1949883-.0403404.0705843-.08741.1243839-.137825.1512632-.036972.0201912-.0706024.0302658-.1075783.0302658-.0907745-.0033655-.1748199.0033646-.2386932.0168047-.0638733.0134602-.1445541.0470695-.2420387.1042137-.2386932.137845-.4235878.3227386-.5580673.5580664-.1344566.2353287-.2016983.480732-.2016983.7362309 0 .2588425.0672417.4302959.2050629.5076313.131115.0773144.3227386.0470495.5614128-.0907745.0941391-.0571442.1781845-.1109447.2420578-.174819.0638733-.0605097.1445541-.1479187.2353287-.2554989.0369759-.043704.0739479-.0739489.1075783-.0941191.0504148-.0302649.1008489-.0336294.1378248-.0067301z" fill="#fff"/></g></g></g><g><g enable-background="new"><g><g><path d="m46.3246613 22.7496319c0 .5700073-.4099731 1.2700195-.9000244 1.5599976l-9.1900024 5.3000488c-.2699585.1599731-.5199585.1599731-.6799927.039978l-.9699707-.5599976c-.1600342-.0900269-.2600098-.289978-.2600098-.5800171l-.0100098-5.4599609c-.0100098-.5800171.3900146-1.2700195.9000244-1.5599976l9.1799927-5.3000488c.25-.1499634.4799805-.1599731.6400146-.0699463l.9699707.5699463c.1799927.0900269.2999878.2900391.2999878.6000366z" fill="#5ec363"/></g></g></g></g><g><g enable-background="new"><g><path d="m45.0387039 16.1240788c-.1651497-.0960045-.3935242-.08214-.6425591.0615616l-9.1852417 5.303196c-.5017357.2895832-.9017105.9824562-.9000549 1.5589218l.0154343 5.460762c.0007858.2864437.1006241.4871731.2623787.5811729l1.0068703.5850964c-.1617508-.093998-.2615051-.2947273-.262291-.5810852l-.0155182-5.460762c-.0016594-.5764637.398407-1.2693386.9000549-1.5590096l9.1853256-5.3031082c.248951-.1437893.4773216-.1575661.6425629-.0615616z" fill="#5ec363"/></g><g><g><path d="m45.4030609 16.7708492c.4925804-.2843914.9043808-.0602207.9060173.5162411l.01548 5.4607468c.0016365.5764618-.4075508 1.2746315-.9001312 1.5590229l-9.1852722 5.3031197c-.5016747.2896404-.9043198.0601845-.9059563-.5162773l-.01548-5.4607487c-.0016327-.5764618.3983955-1.2693443.9000702-1.5589848z" fill="#78e75a"/></g></g></g></g><g><g><g><path d="m45.0070381 20.9229832c0 .0785122-.0247917.1570263-.0661049.2355385-.0454445.0785122-.103302.1363678-.1735687.177681l-.8264351.4793453v.9545326c0 .0743771-.0206566.1570263-.0661049.2355385-.0454483.0826473-.103302.14048-.173542.1818161-.0661316.0413113-.1239624.0454483-.1735725.0165195-.0454483-.0247917-.07024-.0785122-.07024-.1528873l-.0041351-.9545326-.8305473.4793205c-.0661278.0372009-.1239853.041338-.1694336.0165462-.0454483-.0247936-.0661049-.0785141-.07024-.1528893 0-.0826492.0247917-.1611614.07024-.2396736s.1033058-.1405048.1694336-.177681l.8305473-.4793472-.0041122-.9545326c0-.0826225.0247917-.1611347.07024-.243784.0495872-.0785122.1074409-.1363697.1735458-.1735439.07024-.041338.1280975-.0537205.1735458-.0247936.0454712.028904.0702629.0784874.0702629.1611366v.9545326l.8264389-.4751854c.07024-.041338.1280937-.0495834.173542-.0206566.0454483.0247918.07024.0784875.07024.1569997z" fill="#fff"/></g><g><path d="m41.9657593 22.4808235c.0454483.0247917.0661049.0785122.07024.1611614 0 .0743752-.0247917.1570244-.07024.2314014-.0454483.0785122-.103302.14048-.173542.1818161l-.8264389.4751854.0041389.9545574c0 .0784874-.0248184.1569996-.0702667.2396488-.0413132.0785122-.1033058.1405048-.1735458.181818-.0661011.037199-.1239586.0413361-.1694069.0165443-.0496101-.0289288-.0744019-.0785122-.0744019-.1570244v-.9545326l-.8305473.4793207c-.0661278.0372009-.1239853.0454483-.1694336.0206566-.0495834-.0289288-.07024-.0785122-.07024-.1570244s.0206566-.1611366.0661049-.2396488c.045475-.0744019.1033058-.1363697.1694336-.1735706l.830574-.4793205v-.9586697c0-.0785122.0206528-.1611614.0702362-.2438087.0454483-.0785122.1033058-.1363449.1694107-.1735458.0702629-.0413113.1280975-.0495834.1735687-.0206547.0454483.0247917.07024.0785122.07024.1611614l.0041351.9545326.8264389-.4793472c.0702401-.0413133.1280938-.0454484.1735421-.0206567z" fill="#fff"/></g><g><path d="m39.0195122 25.2699146c.0495872.0330658.07024.0867863.074379.1570263 0 .1033039-.0454483.2107449-.1239624.3181858-.1157112.1528873-.247921.3016415-.3842888.4380093-.1405067.1322327-.3057785.2603302-.4958649.3718815-.2603302.148777-.5041161.2231541-.7231331.2148819-.2189941-.0082722-.396698-.0991688-.5330429-.2686024-.1322327-.1735439-.1983604-.4297371-.1983604-.7644424 0-.3347073.0661278-.6694126.1942253-.9958458.1322327-.3223209.3099136-.6198254.528904-.8801556.2190208-.2561932.4628029-.466938.7190208-.6157169.1900673-.1074142.3595009-.1776791.495842-.1983356.1405067-.0289288.2727394-.0289288.3884277-.0123825.0826492.0123825.1239586.0743752.1239586.1776791 0 .0743771-.0247917.1528893-.07024.2396488-.0454483.0867844-.1074409.148777-.1694069.1859531-.0413361.0247917-.0867844.0372009-.1322327.0330639-.1115761 0-.2107468.004137-.293396.0247936-.0785103.0165195-.177681.0578556-.2975044.1280956-.289257.1652966-.5206566.396698-.685955.6859303-.1652718.2851219-.247921.5909252-.247921.9049492 0 .3140488.0867844.5247955.2520561.6198273.1652985.0991936.396698.0619926.6859589-.1033039.1198235-.07024.2231255-.1446171.3016396-.2189941.0785141-.0785122.177681-.1818161.289257-.3140488.0454483-.0537205.0908966-.0950317.1322327-.1198235.0619696-.0330659.1239623-.0413381.1694068-.0082742z" fill="#fff"/></g></g></g><g><g><g><g><g><g><path d="m17.2846832 42.3996544v1.5499878c0 .1000366-.0700073.2000122-.2000122.2800293l-5.4899902 3.1900024c-.2700195.1599731-.7000122.1599731-.9700317 0l-5.5199585-3.1900024c-.1300049-.0800171-.2000122-.1900024-.2000122-.2900391v-1.539978c0-.0999756.0599976-.2000122.2000122-.2799683l5.4799805-3.1900024c.2700195-.1600342.710022-.1600342.9799805 0l5.5100098 3.1900024c.1400145.0799561.2100218.1799927.2100218.2799683z" fill="#dedffb"/></g></g></g></g></g></g><g><g><g><g><g><path d="m17.2844887 42.3991508v1.5463905c0 .1016846-.0677662.2033005-.2004738.2795486l-5.4893122 3.1943359c-.2682571.1553192-.7031212.1553192-.9741879 0l-5.5119075-3.1943358c-.1355329-.0762482-.2061262-.1806908-.2032995-.2823753l-.0028267-1.5463905c0 .1016846.0677667.2033348.2061262.2823715l5.5175438 3.1879921c.2710829.1553192.7059298.1553192.9741869 0l5.4808502-3.1879921c.1355343-.0762444.2004738-.1778603.2033005-.2795449z" fill="#dedffb"/></g></g></g></g><g><g><g><g><path d="m17.0793915 42.115345c.2704277.1561317.2718487.4080276.0031834.5641556l-5.4826689 3.1861801c-.2686644.1561317-.7035341.1561317-.9739618 0l-5.5185204-3.1861191c-.2704268-.1561317-.2718468-.4080238-.003182-.5641556l5.4826684-3.1861801c.2686644-.1561279.7035341-.1561279.9739618 0z" fill="#f3f1fc"/></g></g></g></g><g><g><g><g><g><path d="m13.7346344 40.9296837v.4899902c0 .1699829-.1099854.3299561-.3199463.4500122-.4200439.25-1.1100464.25-1.5300293 0-.210022-.1200562-.3200073-.2800293-.3200073-.4400024v-.4900513c0-.1699829.1099854-.3299561.3200073-.4499512.4199829-.25 1.1099854-.25 1.5300293 0 .2699585.1499634.3599854.3699951.289978.5699463.0100098-.039978.0299683-.079956.0299683-.1299438z" fill="#5ec363"/></g></g></g></g><g><g><g><g><path d="m11.5646458 40.9345055.0017681.4946556c.000452.159668.1051884.3190002.3142986.4405251.4221468.2453232 1.10952.245327 1.5344238.0000076.2132044-.1230927.3197498-.2849884.3192911-.4467278l-.0017662-.4946556c.0004568.1617393-.1060877.3236351-.319293.4467278-.4249039.2453194-1.112277.2453156-1.5344238-.0000114-.2091103-.1215211-.3138456-.2808534-.3142986-.4405213z" fill="#5ec363"/></g></g></g></g><g><g><g><g><path d="m11.8849163 40.4867973c-.4249039.2453194-.4271441.6434708-.0059719.8882294.4221468.245327 1.10952.2453308 1.5344238.0000114.4239273-.2447548.4261684-.6429062.0040216-.8882332-.4211721-.2447585-1.1085462-.2447624-1.5324735-.0000076z" fill="#78e75a"/></g></g></g></g><g><g><g><g><path d="m10.5927258 44.3545532c-.017107 0-.0345325-.0040398-.050683-.0126457-.0531273-.0280495-.0735273-.0938225-.0453701-.1469498l1.2729216-2.4086685-4.2827774.7506828c-.060246.0096703-.1154981-.0293236-.1260171-.0884018-.0103064-.059185.0292201-.1156044.0884032-.1260185l4.501554-.7889328c.0405893-.0070152.0823469.0095596.1067858.0432434.0244379.033577.027626.0780983.0081816.1147537l-1.3767328 2.6049232c-.0194445.036976-.0571642.058014-.0962658.058014z" fill="#484848"/></g></g></g></g><g><g><g><g><path d="m9.0646515 41.9296837v.4899902c0 .1599731-.0999756.3200073-.3200073.4500122-.4199829.2399902-1.1099854.2399902-1.5299683 0-.210022-.1300049-.3200073-.2900391-.3200073-.4500122v-.4899902c0 .0499878.0200195.0899658.0299683.1399536-.0699463-.1999512.0200195-.4299927.2900391-.5899658.4299927-.2399902 1.1099854-.2399902 1.539978 0 .2100219.1199951.3099975.289978.3099975.4500122z" fill="#df3260"/></g></g></g></g><g><g><g><g><path d="m6.897367 41.9300117.0017686.4946594c.0004525.1598549.1054316.3195572.315269.4415016.4211726.2447586 1.1095071.2453194 1.5334344.0005684.2137003-.1233826.3202457-.2855606.319787-.4474411l-.0017662-.4946556c.0004578.1618805-.1060886.3240585-.3197889.4474373-.4239273.2447548-1.1122613.244194-1.5334339-.0005646-.2098375-.1219443-.314817-.2816505-.31527-.4415054z" fill="#df3260"/></g></g></g></g><g><g><g><g><path d="m7.2166581 41.483284c-.4239268.2447548-.426168.64291-.0040212.8882332.4211726.2447586 1.1095066.2453194 1.5334339.0005646.4249039-.2453156.4261837-.6440277.0050116-.8887863-.4221468-.2453232-1.1095199-.2453271-1.5344243-.0000115z" fill="#f45170"/></g></g></g></g><g><g><g><g><path d="m11.9346466 43.7696495v.4899902c0 .1600342-.0999756.3200073-.3200073.4500122-.4199829.2399902-1.1099854.2399902-1.5299683 0-.210022-.1199951-.3099976-.2799683-.3200073-.4400024v-.5c0-.1599731.1099854-.3300171.3200073-.4500122.4299927-.2399902 1.1099854-.2399902 1.539978 0 .210022.1199951.3099976.2900391.3099976.4500122z" fill="#febc1f"/></g></g></g></g><g><g><g><g><path d="m9.7675819 43.7713089.00177.4946594c.0004511.1598511.1054306.3195572.3152676.4415016.4211597.244751 1.1085329.2447548 1.5324602 0 .2139425-.1235199.3207312-.2857857.3202724-.4477081l-.0017672-.4946556c.0004587.1619225-.1063309.3241882-.3202734.4477081-.4239273.2447548-1.1113005.244751-1.5324602 0-.2098368-.1219444-.3148164-.2816505-.3152694-.4415054z" fill="#febc1f"/></g></g></g></g><g><g><g><g><path d="m10.0868731 43.3245811c-.4239273.2447548-.4261675.6429062-.0040216.8882332.4211597.244751 1.1085329.2447548 1.5324602 0 .4249039-.2453194.427145-.6434708.0059853-.8882217-.422146-.245327-1.1095201-.2453308-1.5344239-.0000115z" fill="#ffd06c"/></g></g></g></g></g></g></g></svg>