<svg width="400" height="400" viewBox="0 0 400 400" fill="none" xmlns="http://www.w3.org/2000/svg">
<path fill-rule="evenodd" clip-rule="evenodd" d="M187.289 318.267L121.467 324.491L227.28 326.358L274.896 320.445L187.289 318.267Z" fill="url(#paint0_radial_492_1747)"/>
<path fill-rule="evenodd" clip-rule="evenodd" d="M121.466 324.492L118.665 328.226L226.812 331.183L277.073 323.869L274.895 320.446L227.279 326.359L121.466 324.492Z" fill="url(#paint1_radial_492_1747)"/>
<path fill-rule="evenodd" clip-rule="evenodd" d="M227.278 326.359L226.812 331.183L277.073 323.869L274.894 320.446L227.278 326.359Z" fill="#23052C"/>
<path fill-rule="evenodd" clip-rule="evenodd" d="M190.245 288.391L195.38 320.913H226.035L216.387 288.391H190.245Z" fill="url(#paint2_radial_492_1747)"/>
<path fill-rule="evenodd" clip-rule="evenodd" d="M216.387 288.391H222.455L229.613 320.913H226.034L216.387 288.391Z" fill="#23052C"/>
<path opacity="0.76" fill-rule="evenodd" clip-rule="evenodd" d="M191.957 299.128L221.211 304.729L216.387 288.391H190.245L191.957 299.128Z" fill="#23052C"/>
<path opacity="0.76" fill-rule="evenodd" clip-rule="evenodd" d="M195.381 320.913V325.425L227.28 326.359H229.615V320.913H195.381Z" fill="#23052C"/>
<path opacity="0.39" fill-rule="evenodd" clip-rule="evenodd" d="M194.914 318.267L195.38 320.912V325.425L121.467 324.491L187.289 318.267H194.914Z" fill="#AB8FBC"/>
<path fill-rule="evenodd" clip-rule="evenodd" d="M39.4609 293.059L68.2483 113.332L371.06 89.0574L339.472 293.059H39.4609Z" fill="url(#paint3_radial_492_1747)"/>
<path fill-rule="evenodd" clip-rule="evenodd" d="M371.059 89.0574L377.128 93.7256L346.784 296.171L339.471 293.059L371.059 89.0574Z" fill="url(#paint4_radial_492_1747)"/>
<path fill-rule="evenodd" clip-rule="evenodd" d="M39.4609 293.059L46.7745 294.926L346.786 296.171L339.472 293.059H39.4609Z" fill="#16001D"/>
<path fill-rule="evenodd" clip-rule="evenodd" d="M50.1982 281.077H329.669L358.301 96.5264L76.6515 118.934L50.1982 281.077Z" fill="url(#paint5_radial_492_1747)"/>
<path fill-rule="evenodd" clip-rule="evenodd" d="M52.2217 281.077L77.7413 119.868L357.99 98.3938L329.67 281.077H52.2217Z" fill="url(#paint6_radial_492_1747)"/>
<path fill-rule="evenodd" clip-rule="evenodd" d="M128.002 290.414L128.936 285.279H210.163L211.408 286.057L210.474 291.347L129.247 291.192L128.002 290.414Z" fill="url(#paint7_radial_492_1747)"/>
<path fill-rule="evenodd" clip-rule="evenodd" d="M210.163 285.279L209.696 290.414H128.002L128.936 285.279H210.163Z" fill="url(#paint8_radial_492_1747)"/>
<path d="M143.252 290.414H142.94L144.03 285.279L144.341 285.434L143.252 290.414Z" fill="url(#paint9_radial_492_1747)"/>
<path d="M167.37 290.414H167.059L167.992 285.279L168.303 285.434L167.37 290.414Z" fill="url(#paint10_radial_492_1747)"/>
<path d="M190.089 290.414H189.777L190.555 285.279L190.867 285.434L190.089 290.414Z" fill="url(#paint11_radial_492_1747)"/>
<path opacity="0.39" fill-rule="evenodd" clip-rule="evenodd" d="M196.469 103.062L199.581 109.131L358.301 96.5265L343.673 190.98L353.477 202.651L371.06 89.0574L196.469 103.062Z" fill="#AB8FBC"/>
<path opacity="0.39" fill-rule="evenodd" clip-rule="evenodd" d="M175.151 104.774L180.908 110.687L152.121 112.866L146.675 107.108L175.151 104.774Z" fill="#AB8FBC"/>
<path fill-rule="evenodd" clip-rule="evenodd" d="M325.312 287.613C325.312 288.546 324.534 289.48 323.756 289.636C323.6 289.636 323.444 289.636 323.289 289.636C322.044 289.636 321.11 288.702 321.11 287.457C321.11 286.212 322.044 285.279 323.289 285.279C323.756 285.279 324.378 285.434 324.689 285.745C325.156 286.368 325.312 286.99 325.312 287.613Z" fill="url(#paint12_radial_492_1747)"/>
<path fill-rule="evenodd" clip-rule="evenodd" d="M325.312 287.613C325.312 288.546 324.534 289.48 323.756 289.636C323.134 289.324 322.667 288.702 322.667 287.924C322.667 286.835 323.601 286.057 324.534 286.057H324.69C325.157 286.368 325.312 286.99 325.312 287.613Z" fill="#00F0FF"/>
<path opacity="0.3" fill-rule="evenodd" clip-rule="evenodd" d="M64.0481 140.096L59.3799 168.728L66.5378 169.039L72.9177 139.63L64.0481 140.096Z" fill="#943345"/>
<path opacity="0.61" fill-rule="evenodd" clip-rule="evenodd" d="M93.9254 158.925L76.3418 273.763H233.505L249.533 150.522L93.9254 158.925Z" fill="url(#paint13_radial_492_1747)"/>
<path fill-rule="evenodd" clip-rule="evenodd" d="M93.9252 158.925L92.3691 169.04L248.443 158.925L249.533 150.522L93.9252 158.925Z" fill="url(#paint14_radial_492_1747)"/>
<path fill-rule="evenodd" clip-rule="evenodd" d="M115.553 133.25L93.9238 269.717H264.003L288.589 119.712L115.553 133.25Z" fill="url(#paint15_radial_492_1747)"/>
<path fill-rule="evenodd" clip-rule="evenodd" d="M115.553 133.25L114.309 141.03L286.877 129.671L288.589 119.712L115.553 133.25Z" fill="#9BCC37"/>
<path fill-rule="evenodd" clip-rule="evenodd" d="M273.028 123.913L274.896 122.512L280.342 127.336L279.719 128.426L273.028 123.913Z" fill="white"/>
<path fill-rule="evenodd" clip-rule="evenodd" d="M279.719 122.512L280.964 123.29L272.561 128.426L271.938 127.492L279.719 122.512Z" fill="white"/>
<path fill-rule="evenodd" clip-rule="evenodd" d="M118.354 134.805L117.887 139.318L122.399 139.007L123.177 134.339L118.354 134.805Z" fill="white"/>
<g opacity="0.27">
<path fill-rule="evenodd" clip-rule="evenodd" d="M213.277 148.655L122.402 154.257L122.869 150.833L213.9 145.076L213.277 148.655Z" fill="#3D3181"/>
<path fill-rule="evenodd" clip-rule="evenodd" d="M190.091 180.088L117.889 183.355L118.355 180.088L190.557 176.664L190.091 180.088Z" fill="#7A72A8"/>
<path fill-rule="evenodd" clip-rule="evenodd" d="M181.531 156.902L136.561 159.548L137.183 156.124L182.154 153.479L181.531 156.902Z" fill="#7A72A8"/>
<path fill-rule="evenodd" clip-rule="evenodd" d="M191.647 156.28L185.267 156.747L185.733 153.168L192.113 152.856L191.647 156.28Z" fill="#7A72A8"/>
<path fill-rule="evenodd" clip-rule="evenodd" d="M217.788 160.325L211.253 160.792L211.875 157.213L218.411 156.902L217.788 160.325Z" fill="#7A72A8"/>
<path fill-rule="evenodd" clip-rule="evenodd" d="M216.856 165.928L210.32 166.394L210.943 162.815L217.478 162.504L216.856 165.928Z" fill="#7A72A8"/>
<path fill-rule="evenodd" clip-rule="evenodd" d="M207.829 160.948L135.783 164.838L136.25 161.415L208.296 157.369L207.829 160.948Z" fill="#7A72A8"/>
<path fill-rule="evenodd" clip-rule="evenodd" d="M206.896 166.549L134.85 170.284L135.472 166.861L207.518 162.97L206.896 166.549Z" fill="#7A72A8"/>
<path fill-rule="evenodd" clip-rule="evenodd" d="M197.093 173.085L190.713 173.397L191.335 169.818L197.715 169.506L197.093 173.085Z" fill="#7A72A8"/>
<path fill-rule="evenodd" clip-rule="evenodd" d="M223.079 148.033L216.544 148.499L217.166 144.92L223.702 144.454L223.079 148.033Z" fill="#7A72A8"/>
<path fill-rule="evenodd" clip-rule="evenodd" d="M249.375 212.765L112.752 216.344L113.219 213.076L249.842 209.186L249.375 212.765Z" fill="#7A72A8"/>
<path fill-rule="evenodd" clip-rule="evenodd" d="M259.491 212.61L252.645 212.765L253.267 209.186L260.114 208.875L259.491 212.61Z" fill="#7A72A8"/>
<path fill-rule="evenodd" clip-rule="evenodd" d="M199.583 179.776L193.203 180.088L193.826 176.509L200.205 176.198L199.583 179.776Z" fill="#7A72A8"/>
<path fill-rule="evenodd" clip-rule="evenodd" d="M207.363 184.6L117.11 188.335L117.577 184.912L207.985 181.021L207.363 184.6Z" fill="#7A72A8"/>
<path fill-rule="evenodd" clip-rule="evenodd" d="M217.165 184.133L210.63 184.445L211.252 180.866L217.788 180.554L217.165 184.133Z" fill="#7A72A8"/>
<path fill-rule="evenodd" clip-rule="evenodd" d="M188.844 173.397L133.915 176.042L134.537 172.774L189.311 169.973L188.844 173.397Z" fill="#3D3181"/>
<path fill-rule="evenodd" clip-rule="evenodd" d="M175.93 191.914L131.271 193.626L131.737 190.358L176.552 188.491L175.93 191.914Z" fill="#7A72A8"/>
<path fill-rule="evenodd" clip-rule="evenodd" d="M185.889 191.603L179.509 191.758L180.131 188.335L186.511 188.024L185.889 191.603Z" fill="#7A72A8"/>
<path fill-rule="evenodd" clip-rule="evenodd" d="M211.875 196.115L205.495 196.271L205.962 192.847L212.497 192.536L211.875 196.115Z" fill="#7A72A8"/>
<path fill-rule="evenodd" clip-rule="evenodd" d="M211.096 201.717L204.561 201.873L205.183 198.45L211.563 198.138L211.096 201.717Z" fill="#7A72A8"/>
<path fill-rule="evenodd" clip-rule="evenodd" d="M201.915 196.426L130.336 199.072L130.958 195.648L202.538 193.003L201.915 196.426Z" fill="#3D3181"/>
<path fill-rule="evenodd" clip-rule="evenodd" d="M201.137 202.028L129.558 204.363L130.024 200.939L201.604 198.449L201.137 202.028Z" fill="#7A72A8"/>
<path fill-rule="evenodd" clip-rule="evenodd" d="M191.335 208.253L185.11 208.564L185.577 204.985L191.957 204.829L191.335 208.253Z" fill="#7A72A8"/>
<path fill-rule="evenodd" clip-rule="evenodd" d="M183.089 208.564L128.626 210.12L129.093 206.852L183.711 205.141L183.089 208.564Z" fill="#7A72A8"/>
<path fill-rule="evenodd" clip-rule="evenodd" d="M182.465 227.237L110.886 228.637L111.353 225.369L182.932 223.813L182.465 227.237Z" fill="#7A72A8"/>
<path fill-rule="evenodd" clip-rule="evenodd" d="M189.468 220.39L183.088 220.546L183.71 217.123L189.935 216.967L189.468 220.39Z" fill="#7A72A8"/>
<path fill-rule="evenodd" clip-rule="evenodd" d="M241.13 261.315H105.751L106.218 258.047L241.752 257.736L241.13 261.315Z" fill="#7A72A8"/>
<path fill-rule="evenodd" clip-rule="evenodd" d="M251.244 261.315H244.553L245.175 257.736H251.866L251.244 261.315Z" fill="#7A72A8"/>
<path fill-rule="evenodd" clip-rule="evenodd" d="M191.958 227.081L185.578 227.236L186.201 223.813L192.425 223.657L191.958 227.081Z" fill="#3D3181"/>
<path fill-rule="evenodd" clip-rule="evenodd" d="M199.582 232.061L110.107 233.461L110.574 230.194L200.204 228.637L199.582 232.061Z" fill="#7A72A8"/>
<path fill-rule="evenodd" clip-rule="evenodd" d="M209.23 231.905L202.85 232.061L203.316 228.482H209.852L209.23 231.905Z" fill="#7A72A8"/>
<path fill-rule="evenodd" clip-rule="evenodd" d="M181.221 220.545L126.759 221.79L127.381 218.367L181.688 217.122L181.221 220.545Z" fill="#3D3181"/>
<path fill-rule="evenodd" clip-rule="evenodd" d="M168.46 238.596L124.112 239.219L124.579 235.795L168.927 235.173L168.46 238.596Z" fill="#7A72A8"/>
<path fill-rule="evenodd" clip-rule="evenodd" d="M178.264 238.596H172.04L172.507 235.173L178.887 235.017L178.264 238.596Z" fill="#7A72A8"/>
<path fill-rule="evenodd" clip-rule="evenodd" d="M204.095 243.731H197.715L198.182 240.308L204.717 240.152L204.095 243.731Z" fill="#7A72A8"/>
<path fill-rule="evenodd" clip-rule="evenodd" d="M203.161 249.178L196.781 249.333L197.404 245.754H203.784L203.161 249.178Z" fill="#7A72A8"/>
<path fill-rule="evenodd" clip-rule="evenodd" d="M194.292 243.887L123.18 244.51L123.802 241.086L194.759 240.308L194.292 243.887Z" fill="#7A72A8"/>
<path fill-rule="evenodd" clip-rule="evenodd" d="M193.359 249.333L122.402 249.8L122.869 246.376L193.826 245.909L193.359 249.333Z" fill="#3D3181"/>
<path fill-rule="evenodd" clip-rule="evenodd" d="M183.71 255.402H177.485L177.952 251.979H184.332L183.71 255.402Z" fill="#7A72A8"/>
<path fill-rule="evenodd" clip-rule="evenodd" d="M175.464 255.402L121.468 255.557L122.09 252.29L176.086 251.979L175.464 255.402Z" fill="#7A72A8"/>
</g>
<path opacity="0.57" fill-rule="evenodd" clip-rule="evenodd" d="M253.58 186.623L349.434 181.488L337.919 266.139H240.042L253.58 186.623Z" fill="#230548"/>
<path fill-rule="evenodd" clip-rule="evenodd" d="M229.616 176.198L325.315 171.062L314.111 254.001L216.078 255.713L229.616 176.198Z" fill="url(#paint16_radial_492_1747)"/>
<path fill-rule="evenodd" clip-rule="evenodd" d="M229.616 176.198L228.216 184.445L324.226 179.31L325.315 171.062L229.616 176.198Z" fill="#00ADEE"/>
<path fill-rule="evenodd" clip-rule="evenodd" d="M313.955 174.019L315.511 172.619L320.179 177.442L319.557 178.532L313.955 174.019Z" fill="white"/>
<path fill-rule="evenodd" clip-rule="evenodd" d="M319.557 172.619L320.646 173.397L313.488 178.532L313.021 177.598L319.557 172.619Z" fill="white"/>
<path fill-rule="evenodd" clip-rule="evenodd" d="M325.315 171.062L326.404 172.619L314.733 254.779L216.545 256.18L216.078 255.713L314.111 254.001L325.315 171.062Z" fill="#754597"/>
<path opacity="0.57" fill-rule="evenodd" clip-rule="evenodd" d="M180.754 89.5242L269.295 82.3662L263.226 120.334L174.686 125.158L180.754 89.5242Z" fill="#230548"/>
<path fill-rule="evenodd" clip-rule="evenodd" d="M163.326 59.025L251.866 49.9998L242.219 110.998L153.522 117.222L163.326 59.025Z" fill="url(#paint17_linear_492_1747)"/>
<path fill-rule="evenodd" clip-rule="evenodd" d="M251.866 49.9998L252.8 51.2446L242.686 111.62L153.989 117.689L153.522 117.222L242.219 110.998L251.866 49.9998Z" fill="#754597"/>
<path fill-rule="evenodd" clip-rule="evenodd" d="M176.707 63.849L171.105 98.8607L228.213 95.1261L233.971 58.5583L176.707 63.849Z" fill="#00ADEE"/>
<path fill-rule="evenodd" clip-rule="evenodd" d="M199.893 72.7188L197.715 86.5678L206.896 77.5426L199.893 72.7188Z" fill="white"/>
<path opacity="0.57" fill-rule="evenodd" clip-rule="evenodd" d="M170.173 104.929L169.395 107.264L226.658 103.218L227.436 100.728L170.173 104.929Z" fill="#230548"/>
<path fill-rule="evenodd" clip-rule="evenodd" d="M170.484 105.24L170.173 106.641L193.67 105.24L193.981 103.529L170.484 105.24Z" fill="white"/>
<path fill-rule="evenodd" clip-rule="evenodd" d="M196.002 104.618C195.846 106.019 194.913 107.108 193.979 106.952C193.045 106.797 192.423 105.552 192.579 104.151C192.734 102.751 193.668 101.662 194.601 101.817C195.535 101.973 196.158 103.218 196.002 104.618Z" fill="white"/>
<g opacity="0.27">
<path fill-rule="evenodd" clip-rule="evenodd" d="M308.353 190.513L230.082 194.403L230.549 191.447L308.819 187.401L308.353 190.513Z" fill="#3D3181"/>
<path fill-rule="evenodd" clip-rule="evenodd" d="M287.967 217.433L225.88 219.456L226.347 216.5L288.59 214.321L287.967 217.433Z" fill="#7A72A8"/>
<path fill-rule="evenodd" clip-rule="evenodd" d="M280.966 197.204L242.22 199.071L242.687 196.115L281.433 194.247L280.966 197.204Z" fill="#7A72A8"/>
<path fill-rule="evenodd" clip-rule="evenodd" d="M289.525 196.893L284.079 197.204L284.702 194.092L290.148 193.936L289.525 196.893Z" fill="#7A72A8"/>
<path fill-rule="evenodd" clip-rule="evenodd" d="M312.087 200.628L306.485 200.939L307.108 197.827L312.71 197.516L312.087 200.628Z" fill="#7A72A8"/>
<path fill-rule="evenodd" clip-rule="evenodd" d="M311.31 205.451L305.708 205.607L306.175 202.65L311.777 202.339L311.31 205.451Z" fill="#7A72A8"/>
<path fill-rule="evenodd" clip-rule="evenodd" d="M303.53 200.939L241.442 203.74L241.909 200.783L303.997 197.982L303.53 200.939Z" fill="#7A72A8"/>
<path fill-rule="evenodd" clip-rule="evenodd" d="M302.595 205.762L240.663 208.252L241.13 205.296L303.217 202.806L302.595 205.762Z" fill="#7A72A8"/>
<path fill-rule="evenodd" clip-rule="evenodd" d="M294.193 211.365L288.747 211.52L289.214 208.564L294.66 208.252L294.193 211.365Z" fill="#7A72A8"/>
<path fill-rule="evenodd" clip-rule="evenodd" d="M316.755 190.046L311.153 190.357L311.776 187.245L317.378 186.934L316.755 190.046Z" fill="#7A72A8"/>
<path fill-rule="evenodd" clip-rule="evenodd" d="M296.371 217.122L290.77 217.278L291.236 214.321L296.838 214.01L296.371 217.122Z" fill="#7A72A8"/>
<path fill-rule="evenodd" clip-rule="evenodd" d="M302.906 221.323L225.103 223.658L225.569 220.701L303.373 218.367L302.906 221.323Z" fill="#3D3181"/>
<path fill-rule="evenodd" clip-rule="evenodd" d="M311.31 221.012L305.708 221.323L306.175 218.211L311.932 218.056L311.31 221.012Z" fill="#7A72A8"/>
<path fill-rule="evenodd" clip-rule="evenodd" d="M287.034 211.52L239.729 213.387L240.196 210.431L287.501 208.563L287.034 211.52Z" fill="#3D3181"/>
<path fill-rule="evenodd" clip-rule="evenodd" d="M275.675 227.392L237.24 228.481L237.707 225.525L276.298 224.436L275.675 227.392Z" fill="#7A72A8"/>
<path fill-rule="evenodd" clip-rule="evenodd" d="M284.389 227.081L278.942 227.236L279.409 224.28L284.855 224.124L284.389 227.081Z" fill="#7A72A8"/>
<path fill-rule="evenodd" clip-rule="evenodd" d="M306.641 231.282L301.194 231.438L301.661 228.482L307.263 228.326L306.641 231.282Z" fill="#7A72A8"/>
<path fill-rule="evenodd" clip-rule="evenodd" d="M305.862 236.106L300.26 236.262L300.882 233.149H306.328L305.862 236.106Z" fill="#7A72A8"/>
<path fill-rule="evenodd" clip-rule="evenodd" d="M298.082 231.593L236.462 232.994L236.929 230.037L298.705 228.481L298.082 231.593Z" fill="#7A72A8"/>
<path fill-rule="evenodd" clip-rule="evenodd" d="M297.305 236.262L235.685 237.507L236.151 234.706L297.772 233.305L297.305 236.262Z" fill="#7A72A8"/>
<path fill-rule="evenodd" clip-rule="evenodd" d="M288.902 241.708H283.456L283.923 238.751L289.369 238.596L288.902 241.708Z" fill="#7A72A8"/>
<path fill-rule="evenodd" clip-rule="evenodd" d="M281.743 241.708L234.75 242.642L235.372 239.685L282.21 238.751L281.743 241.708Z" fill="#7A72A8"/>
</g>
<path fill-rule="evenodd" clip-rule="evenodd" d="M46.465 216.344C46.465 216.344 40.8632 224.903 51.9113 227.081L61.7146 217.589C61.7146 217.589 55.4903 217.589 57.8244 210.742L46.465 216.344Z" fill="url(#paint18_radial_492_1747)"/>
<path fill-rule="evenodd" clip-rule="evenodd" d="M70.8954 216.5C70.8954 216.5 65.6048 214.788 62.0258 217.433C58.4468 220.234 22.8127 255.868 17.2108 256.18C11.9202 256.491 7.87438 251.822 7.25195 251.2C7.87438 251.822 11.1421 255.868 26.7029 243.887C43.0417 231.127 56.2683 213.387 55.3347 212.454C54.401 211.52 40.3964 219.456 40.3964 219.456C48.7992 215.099 55.8015 211.676 57.202 210.742C60.9365 208.408 61.0922 202.806 61.0922 202.806L65.1379 210.12L70.8954 216.5Z" fill="url(#paint19_linear_492_1747)"/>
<path fill-rule="evenodd" clip-rule="evenodd" d="M119.601 130.448C118.823 130.137 118.045 129.982 117.267 129.826C99.0608 125.469 79.6098 135.583 69.0285 153.945C69.0285 153.945 69.0285 153.945 69.0285 154.101C67.0056 157.68 65.1383 161.726 63.8935 165.927C62.9598 168.883 62.3374 171.84 61.8706 174.797C58.4472 197.36 68.8729 218.833 87.3902 225.991C88.1683 226.303 88.9463 226.614 89.7243 226.769C112.287 233.772 137.185 217.9 145.432 191.447C153.679 164.682 142.008 137.451 119.601 130.448ZM65.1383 165.927C71.8295 144.609 90.8136 131.226 109.02 134.183L109.486 134.339C110.42 134.494 111.354 134.805 112.132 135.117C131.738 141.185 141.697 164.838 134.539 187.868C127.848 209.186 108.864 222.568 90.658 219.612H90.5024C89.5687 219.456 88.4795 219.145 87.5458 218.833C67.9393 212.609 57.8248 188.957 65.1383 165.927Z" fill="url(#paint20_radial_492_1747)"/>
<path fill-rule="evenodd" clip-rule="evenodd" d="M117.267 129.826C116.489 129.515 115.711 129.204 114.933 129.048C92.3695 122.046 67.4723 137.918 59.2251 164.527C50.9779 191.136 62.4929 218.211 85.056 225.214C85.834 225.525 86.612 225.681 87.5457 225.836C109.331 230.971 132.827 215.411 140.763 189.735C148.544 164.216 138.118 138.074 117.267 129.826ZM90.5022 219.456C89.5686 219.301 88.4793 218.99 87.5457 218.678C67.9391 212.61 57.9802 188.957 65.1382 165.927C71.8293 144.609 90.8134 131.227 109.019 134.183L109.486 134.339C110.42 134.495 111.354 134.806 112.132 135.117C131.738 141.186 141.697 164.838 134.539 187.868C127.848 209.186 108.864 222.568 90.6578 219.612C90.6578 219.456 90.5022 219.456 90.5022 219.456Z" fill="url(#paint21_linear_492_1747)"/>
<path fill-rule="evenodd" clip-rule="evenodd" d="M87.5457 218.678C88.4794 218.99 89.5686 219.301 90.5023 219.456C89.1018 219.301 87.7013 218.834 86.3009 218.523C69.3397 213.232 59.5364 194.715 61.8705 174.797C62.1817 171.84 62.8041 168.728 63.8934 165.616C65.1383 161.415 67.0056 157.525 69.1841 154.101C69.1841 154.101 69.1841 154.101 69.1841 153.946C78.3649 139.163 94.0813 131.071 109.175 134.028C90.8135 131.071 71.8294 144.454 65.2939 165.772C57.8247 188.957 67.9392 212.61 87.5457 218.678Z" fill="url(#paint22_linear_492_1747)"/>
<path opacity="0.75" fill-rule="evenodd" clip-rule="evenodd" d="M134.539 187.713C127.848 209.031 108.863 222.413 90.6574 219.456H90.5018C89.5681 219.301 88.4789 218.99 87.5452 218.678C67.9387 212.61 57.9798 188.957 65.1378 165.928C71.8289 144.609 90.813 131.227 109.019 134.184L109.486 134.339C110.42 134.495 111.353 134.806 112.131 135.117C131.738 140.875 141.852 164.527 134.539 187.713Z" fill="url(#paint23_radial_492_1747)" fill-opacity="0.5"/>
<path fill-rule="evenodd" clip-rule="evenodd" d="M135.94 187.868C129.093 209.653 109.331 223.191 90.6582 219.456C109.02 222.413 128.004 209.031 134.54 187.712C141.697 164.682 131.739 141.03 112.132 134.961C111.198 134.65 110.265 134.495 109.487 134.183C110.887 134.339 112.132 134.806 113.532 135.117C133.139 141.186 143.098 164.838 135.94 187.868Z" fill="url(#paint24_linear_492_1747)"/>
<path opacity="0.39" fill-rule="evenodd" clip-rule="evenodd" d="M19.7012 254.312C19.7012 254.312 35.5731 234.239 47.0881 230.193C47.0881 230.038 29.1932 249.177 19.7012 254.312Z" fill="#FFD7C8"/>
<path fill-rule="evenodd" clip-rule="evenodd" d="M64.2041 186.156C64.2041 186.156 66.6938 199.694 73.6962 206.696L77.2751 204.362C77.2751 204.362 70.7396 195.337 69.0279 183.822L64.2041 186.156Z" fill="white"/>
<path fill-rule="evenodd" clip-rule="evenodd" d="M75.0977 207.786L78.0542 206.074L81.322 209.186L78.8322 211.987C78.8322 211.987 77.1206 211.053 75.0977 207.786Z" fill="white"/>
<path fill-rule="evenodd" clip-rule="evenodd" d="M101.55 135.584C101.55 135.584 95.7921 172.619 131.893 191.136C136.717 177.131 135.628 168.573 135.628 168.573C135.628 168.573 135.161 149.433 119.289 139.785C119.289 139.785 109.952 134.028 101.55 135.584Z" fill="white" fill-opacity="0.2"/>
<path fill-rule="evenodd" clip-rule="evenodd" d="M370.838 346.142C370.838 345.364 370.683 344.742 370.527 343.963L374.262 338.362L371.928 334.16L369.594 329.959L363.992 332.293C363.525 331.826 363.058 331.515 362.591 331.204L362.28 324.201L358.079 323.423L353.877 322.645L350.921 329.025C350.298 329.181 349.676 329.336 349.209 329.492L344.852 325.291L341.273 328.403L337.694 331.515L332.403 341.007L331.47 346.142L330.536 351.277L333.181 352.833L332.403 354.078C332.403 354.856 333.648 357.346 333.804 357.968L334.271 358.435L331.937 361.858L334.271 366.06L336.605 370.261L342.207 367.927C342.674 368.394 343.14 368.705 343.607 369.016L343.918 376.019L348.12 376.797L352.321 377.575L355.278 371.195C355.9 371.039 356.523 370.884 356.989 370.728L361.346 374.929L364.925 371.817L368.504 368.705L367.104 362.014C367.415 361.392 367.882 360.769 368.193 360.147L373.951 359.213L374.884 354.078L375.818 348.943L370.838 346.142ZM351.076 361.08C346.252 360.147 343.296 354.545 344.385 348.632C345.474 342.719 350.298 338.673 355.122 339.606C359.946 340.54 362.903 346.142 361.813 352.055C360.568 357.813 355.9 362.014 351.076 361.08Z" fill="#34146D"/>
<path fill-rule="evenodd" clip-rule="evenodd" d="M365.858 344.275C365.858 343.496 365.703 342.718 365.547 342.096L369.437 336.183L367.103 331.826L364.769 327.469L359.012 329.959C358.545 329.492 358.078 329.181 357.456 328.714L357.144 321.556L352.787 320.778L348.43 320L345.474 326.535C344.851 326.691 344.229 326.846 343.607 327.158L339.094 322.801L335.359 326.068L331.625 329.336L333.181 336.183C332.87 336.805 332.403 337.428 332.092 338.206L326.178 339.295L325.089 344.741L324 350.188L329.135 353.3C329.135 354.078 329.291 354.856 329.446 355.478L325.556 361.391L327.89 365.748L330.224 370.105L335.982 367.616C336.449 368.082 336.915 368.394 337.538 368.861L337.849 376.018L342.206 376.796L346.563 377.575L349.52 371.039C350.142 370.883 350.764 370.728 351.387 370.417L355.9 374.774L359.634 371.506L363.369 368.238L361.813 361.391C362.124 360.769 362.591 360.146 362.902 359.368L368.815 358.279L369.904 352.833L370.993 347.387L365.858 344.275ZM345.474 360.146C340.339 359.213 337.227 353.144 338.472 346.764C339.716 340.384 344.851 336.027 349.986 336.961C355.122 337.895 358.234 343.963 356.989 350.343C355.744 356.723 350.609 361.08 345.474 360.146Z" fill="url(#paint25_radial_492_1747)"/>
<path fill-rule="evenodd" clip-rule="evenodd" d="M364.925 327.469L369.749 329.959L374.261 338.362L369.437 336.183L364.925 327.469Z" fill="#664E97"/>
<path fill-rule="evenodd" clip-rule="evenodd" d="M365.548 342.096L370.527 344.119L374.262 338.362L369.438 336.183L365.548 342.096Z" fill="#3E207C"/>
<path fill-rule="evenodd" clip-rule="evenodd" d="M373.795 359.524L368.971 358.123L363.058 359.213L361.969 361.235L366.948 362.48L368.037 360.613L373.795 359.524Z" fill="#3E207C"/>
<path fill-rule="evenodd" clip-rule="evenodd" d="M365.548 342.096L365.859 344.274L370.838 346.142L370.527 344.119L365.548 342.096Z" fill="#3E207C"/>
<path fill-rule="evenodd" clip-rule="evenodd" d="M368.504 369.172L363.525 368.082L361.969 361.236L366.948 362.48L368.504 369.172Z" fill="#664E97"/>
<path fill-rule="evenodd" clip-rule="evenodd" d="M361.19 375.396L355.899 374.618L363.524 368.083L368.504 369.172L361.19 375.396Z" fill="#3E207C"/>
<path fill-rule="evenodd" clip-rule="evenodd" d="M352.165 378.041L346.563 377.263L349.676 370.728L354.344 373.062L352.165 378.041Z" fill="#3E207C"/>
<path fill-rule="evenodd" clip-rule="evenodd" d="M337.694 370.106L336.45 370.573L330.381 369.639L336.138 367.305L337.694 368.394V370.106Z" fill="#3E207C"/>
<path fill-rule="evenodd" clip-rule="evenodd" d="M339.405 322.645L346.408 324.824L345.63 326.38L343.762 327.002L339.405 322.645Z" fill="#664E97"/>
<path fill-rule="evenodd" clip-rule="evenodd" d="M357.3 321.4L362.435 324.201L362.59 328.403L359.167 329.959L357.611 328.714L357.3 321.4Z" fill="#3E207C"/>
<path d="M339.318 121.579C330.604 114.266 319.712 113.954 319.712 113.954L316.911 116.755L329.204 127.648C330.137 133.25 327.492 137.295 327.492 137.295C327.492 137.295 323.291 139.785 317.844 138.852L307.108 126.403L304.307 129.204C304.307 129.204 304.618 140.096 311.931 148.81C311.931 148.81 314.577 151.611 314.888 151.767C316.755 152.856 320.801 153.323 327.337 150.522L365.772 185.845C364.994 189.735 366.238 193.937 369.195 197.049C374.174 202.028 382.11 202.028 387.09 197.049C392.069 192.069 392.069 184.133 387.09 179.154C384.133 176.042 379.776 174.952 375.886 175.575L341.03 136.984C343.831 130.604 343.364 126.559 342.275 124.691C341.964 124.069 339.318 121.579 339.318 121.579ZM385.067 189.891L380.088 194.87L373.241 193.003L371.373 186.156L376.353 181.177L383.2 183.044L385.067 189.891Z" fill="url(#paint26_linear_492_1747)"/>
<path d="M342.274 124.536C333.56 117.222 322.668 116.911 322.668 116.911L319.867 119.712L332.16 130.604C333.094 136.206 330.448 140.252 330.448 140.252C330.448 140.252 326.247 142.742 320.801 141.808L310.064 129.359L307.263 132.16C307.263 132.16 307.574 143.053 314.887 151.767C314.887 151.767 322.512 156.902 330.137 153.479L368.572 188.802C367.794 192.692 369.039 196.893 371.995 200.005C376.975 204.985 384.911 204.985 389.89 200.005C394.87 195.026 394.87 187.09 389.89 182.11C386.934 178.998 382.577 177.909 378.687 178.531L343.675 139.941C347.254 132.16 342.274 124.536 342.274 124.536ZM388.023 192.847L383.044 197.827L376.197 195.96L374.33 189.113L379.309 184.133L386.156 186.001L388.023 192.847Z" fill="url(#paint27_linear_492_1747)"/>
<path d="M307.26 126.341L304.5 129.083L307.461 132.063L310.221 129.321L307.26 126.341Z" fill="#F9F8FF"/>
<path d="M319.761 113.984L317.001 116.726L319.962 119.706L322.722 116.964L319.761 113.984Z" fill="#F9F8FF"/>
<path d="M385.026 189.836L379.948 194.881L382.909 197.862L387.987 192.817L385.026 189.836Z" fill="#F9F8FF"/>
<path d="M336.206 154.879L367.328 183.667C372.307 182.111 373.552 177.598 373.552 177.598L345.231 145.854C338.54 148.033 336.206 154.879 336.206 154.879ZM372.307 178.376C371.996 178.998 371.373 179.932 370.44 180.866C369.817 181.488 369.039 182.111 368.106 182.577L337.14 154.568C337.762 153.479 338.851 151.767 340.563 150.055C341.808 148.811 343.208 147.877 344.609 147.099L372.307 178.376Z" fill="url(#paint28_linear_492_1747)"/>
<path d="M372.307 178.376L373.551 177.598C373.551 177.598 372.773 182.111 367.327 183.667L368.105 182.422C368.261 182.422 370.75 181.177 372.307 178.376Z" fill="#F9F8FF"/>
<path opacity="0.62" d="M336.206 154.879L337.14 154.413C337.14 154.413 339.163 150.056 344.609 146.943L345.231 146.01C345.231 146.01 342.742 146.477 339.629 149.433C336.673 152.39 336.206 154.879 336.206 154.879Z" fill="url(#paint29_linear_492_1747)"/>
<path opacity="0.62" d="M330.293 153.479C330.293 153.479 338.54 148.655 343.986 139.941L348.343 144.765C348.343 144.765 344.609 143.053 339.629 147.566C333.716 152.856 336.05 158.458 336.05 158.458L330.293 153.479Z" fill="url(#paint30_linear_492_1747)"/>
<path opacity="0.5" d="M348.345 144.765C346.166 144.142 344.299 144.765 344.299 144.765L377.599 181.488L378.999 178.532L348.345 144.765Z" fill="url(#paint31_linear_492_1747)"/>
<path d="M348.344 144.765C348.344 144.765 348.499 151.145 354.879 151.923L348.344 144.765Z" fill="white"/>
<path fill-rule="evenodd" clip-rule="evenodd" d="M32.3953 44.6047L89.1861 38.7209L83.0465 77.8605L26 81.9535L32.3953 44.6047Z" fill="url(#paint32_linear_492_1747)"/>
<path fill-rule="evenodd" clip-rule="evenodd" d="M89.1861 38.7209L92 42.3023L86.3721 80.6744L30.6046 84L26 81.9535L83.0465 77.8605L89.1861 38.7209Z" fill="#754597"/>
<path fill-rule="evenodd" clip-rule="evenodd" d="M50.3025 47.9299L37.7676 63.0229L48.7676 74.7904L49.535 68.3951L41.349 63.0229L49.535 54.8369L50.3025 47.9299Z" fill="#7A72A8"/>
<path fill-rule="evenodd" clip-rule="evenodd" d="M64.6292 46.1394L73.8385 57.9068L60.5361 72.9999L61.0478 66.6045L70.5129 58.6743L64.1175 52.7906L64.6292 46.1394Z" fill="#7A72A8"/>
<path fill-rule="evenodd" clip-rule="evenodd" d="M49.5352 74.7906L61.5584 46.3952L64.1166 46.1394L51.5817 74.5348L49.5352 74.7906Z" fill="#7A72A8"/>
<path fill-rule="evenodd" clip-rule="evenodd" d="M48.6422 270.962L43.3516 302.862L139.361 304.107L144.185 270.807L48.6422 270.962Z" fill="url(#paint33_linear_492_1747)"/>
<path fill-rule="evenodd" clip-rule="evenodd" d="M144.185 270.807L144.963 271.896L140.295 305.352L44.5964 304.107L43.3516 302.862L139.361 304.107L144.185 270.807Z" fill="#754597"/>
<path fill-rule="evenodd" clip-rule="evenodd" d="M51.9106 279.832L50.3545 292.436L130.026 293.992L132.36 278.431L51.9106 279.832Z" fill="url(#paint34_radial_492_1747)"/>
<path fill-rule="evenodd" clip-rule="evenodd" d="M134.227 284.655L132.36 278.431L130.026 293.992L50.3545 292.436L55.3339 294.614L131.27 295.859L134.227 284.655Z" fill="url(#paint35_radial_492_1747)"/>
<path fill-rule="evenodd" clip-rule="evenodd" d="M102.639 295.393L100.771 293.37L102.639 278.898L51.9106 279.832L50.3545 292.436L55.3339 294.615L102.639 295.393Z" fill="#9BCC37"/>
<path fill-rule="evenodd" clip-rule="evenodd" d="M102.638 278.898L104.505 281.388L102.638 295.393L100.771 293.37L102.638 278.898Z" fill="#23754A"/>
<path opacity="0.5" fill-rule="evenodd" clip-rule="evenodd" d="M50.3545 292.436L59.3797 279.676H64.5148L53.9335 292.436H50.3545Z" fill="white"/>
<path opacity="0.5" fill-rule="evenodd" clip-rule="evenodd" d="M65.4482 292.436L75.0959 279.521L81.787 279.365L68.4048 292.747L65.4482 292.436Z" fill="white"/>
<path opacity="0.5" fill-rule="evenodd" clip-rule="evenodd" d="M80.8535 292.903L93.7689 278.898L97.6591 279.054L84.4325 292.748L80.8535 292.903Z" fill="white"/>
<path opacity="0.5" fill-rule="evenodd" clip-rule="evenodd" d="M101.705 286.212L95.0137 293.214H98.7483L101.238 290.724L101.705 286.212Z" fill="white"/>
<path fill-rule="evenodd" clip-rule="evenodd" d="M97.9697 272.674L102.016 281.699L108.24 272.674H97.9697Z" fill="url(#paint36_linear_492_1747)"/>
<path fill-rule="evenodd" clip-rule="evenodd" d="M108.241 272.674L109.797 274.386L104.04 282.321L102.017 281.699L108.241 272.674Z" fill="#991743"/>
<path opacity="0.57" fill-rule="evenodd" clip-rule="evenodd" d="M144.341 276.097L156.634 277.498L154.3 295.393H141.695L144.341 276.097Z" fill="#230548"/>
<path d="M69.42 214.632C69.42 214.632 64.1293 212.921 60.5503 215.566C56.9714 218.367 21.3372 254.001 15.7354 254.312C10.4447 254.624 6.39892 249.955 5.77649 249.333C5.77649 249.333 2.19752 243.42 4.37603 238.285C5.77649 235.017 24.4494 225.058 39.0765 217.589C47.4793 213.232 54.4816 209.809 55.8821 208.875C59.6167 206.541 59.7723 200.939 59.7723 200.939L63.6625 208.253L69.42 214.632Z" fill="#D53C34"/>
<defs>
<radialGradient id="paint0_radial_492_1747" cx="0" cy="0" r="1" gradientUnits="userSpaceOnUse" gradientTransform="translate(198.19 322.255) scale(54.3852 49.1329)">
<stop stop-color="#59397F"/>
<stop offset="0.9944" stop-color="#522970"/>
</radialGradient>
<radialGradient id="paint1_radial_492_1747" cx="0" cy="0" r="1" gradientUnits="userSpaceOnUse" gradientTransform="translate(197.873 325.796) scale(56.1812 56.1812)">
<stop stop-color="#4F1D77"/>
<stop offset="0.9944" stop-color="#3B1C5E"/>
</radialGradient>
<radialGradient id="paint2_radial_492_1747" cx="0" cy="0" r="1" gradientUnits="userSpaceOnUse" gradientTransform="translate(208.15 304.673) scale(15.7853 19.2692)">
<stop stop-color="#4F1D77"/>
<stop offset="0.9944" stop-color="#3B1C5E"/>
</radialGradient>
<radialGradient id="paint3_radial_492_1747" cx="0" cy="0" r="1" gradientUnits="userSpaceOnUse" gradientTransform="translate(205.269 191.052) scale(137.656 137.656)">
<stop stop-color="#4F1D77"/>
<stop offset="0.9944" stop-color="#3B1C5E"/>
</radialGradient>
<radialGradient id="paint4_radial_492_1747" cx="0" cy="0" r="1" gradientUnits="userSpaceOnUse" gradientTransform="translate(358.31 192.57) scale(74.4045 74.4045)">
<stop stop-color="#33135B"/>
<stop offset="0.9944" stop-color="#20003B"/>
</radialGradient>
<radialGradient id="paint5_radial_492_1747" cx="0" cy="0" r="1" gradientUnits="userSpaceOnUse" gradientTransform="translate(219.65 101.458) scale(164.431 164.431)">
<stop stop-color="#471371"/>
<stop offset="0.9944" stop-color="#20003B"/>
</radialGradient>
<radialGradient id="paint6_radial_492_1747" cx="0" cy="0" r="1" gradientUnits="userSpaceOnUse" gradientTransform="translate(215.124 259.999) scale(147.217 147.217)">
<stop stop-color="#24A2FD"/>
<stop offset="0.9944" stop-color="#3D47AA"/>
</radialGradient>
<radialGradient id="paint7_radial_492_1747" cx="0" cy="0" r="1" gradientUnits="userSpaceOnUse" gradientTransform="translate(169.67 288.352) scale(29.5542 29.5542)">
<stop stop-color="#33135B"/>
<stop offset="0.9944" stop-color="#20003B"/>
</radialGradient>
<radialGradient id="paint8_radial_492_1747" cx="0" cy="0" r="1" gradientUnits="userSpaceOnUse" gradientTransform="translate(169.078 287.89) scale(29.1146 29.1147)">
<stop stop-color="#59397F"/>
<stop offset="0.9944" stop-color="#522970"/>
</radialGradient>
<radialGradient id="paint9_radial_492_1747" cx="0" cy="0" r="1" gradientUnits="userSpaceOnUse" gradientTransform="translate(143.605 287.89) scale(1.88968 1.8897)">
<stop stop-color="#33135B"/>
<stop offset="0.9944" stop-color="#20003B"/>
</radialGradient>
<radialGradient id="paint10_radial_492_1747" cx="0" cy="0" r="1" gradientUnits="userSpaceOnUse" gradientTransform="translate(167.673 287.89) scale(1.87446 1.87445)">
<stop stop-color="#33135B"/>
<stop offset="0.9944" stop-color="#20003B"/>
</radialGradient>
<radialGradient id="paint11_radial_492_1747" cx="0" cy="0" r="1" gradientUnits="userSpaceOnUse" gradientTransform="translate(190.365 287.89) scale(1.86339 1.8634)">
<stop stop-color="#33135B"/>
<stop offset="0.9944" stop-color="#20003B"/>
</radialGradient>
<radialGradient id="paint12_radial_492_1747" cx="0" cy="0" r="1" gradientUnits="userSpaceOnUse" gradientTransform="translate(323.28 287.557) scale(2.1077 2.10771)">
<stop stop-color="#597FDF"/>
<stop offset="0.9944" stop-color="#5243B2"/>
</radialGradient>
<radialGradient id="paint13_radial_492_1747" cx="0" cy="0" r="1" gradientUnits="userSpaceOnUse" gradientTransform="translate(162.928 212.143) scale(75.1562 75.1562)">
<stop stop-color="#FBFBFC"/>
<stop offset="0.9829" stop-color="#AFA3D7"/>
</radialGradient>
<radialGradient id="paint14_radial_492_1747" cx="0" cy="0" r="1" gradientUnits="userSpaceOnUse" gradientTransform="translate(170.923 159.755) scale(55.9625 55.9625)">
<stop stop-color="#2478FD"/>
<stop offset="0.9944" stop-color="#804AD5"/>
</radialGradient>
<radialGradient id="paint15_radial_492_1747" cx="0" cy="0" r="1" gradientUnits="userSpaceOnUse" gradientTransform="translate(186.759 163.887) scale(136.286 88.1769)">
<stop stop-color="#FBFBFC"/>
<stop offset="0.9829" stop-color="#AFA3D7"/>
</radialGradient>
<radialGradient id="paint16_radial_492_1747" cx="0" cy="0" r="1" gradientUnits="userSpaceOnUse" gradientTransform="translate(272.943 196.918) scale(48.8989 37.6766)">
<stop stop-color="#FBFBFC"/>
<stop offset="0.9829" stop-color="#D3CCE8"/>
</radialGradient>
<linearGradient id="paint17_linear_492_1747" x1="151.728" y1="86.3804" x2="253.607" y2="80.5993" gradientUnits="userSpaceOnUse">
<stop stop-color="#F6F3FF"/>
<stop offset="1" stop-color="#F4EEFF"/>
</linearGradient>
<radialGradient id="paint18_radial_492_1747" cx="0" cy="0" r="1" gradientUnits="userSpaceOnUse" gradientTransform="translate(53.4322 218.506) rotate(10.5964) scale(8.26865 8.26865)">
<stop stop-color="#C4C0D3"/>
<stop offset="0.9829" stop-color="#A491C1"/>
</radialGradient>
<linearGradient id="paint19_linear_492_1747" x1="12.2604" y1="224.559" x2="67.4422" y2="234.882" gradientUnits="userSpaceOnUse">
<stop stop-color="white"/>
<stop offset="0.9829" stop-color="#A463C1"/>
</linearGradient>
<radialGradient id="paint20_radial_492_1747" cx="0" cy="0" r="1" gradientUnits="userSpaceOnUse" gradientTransform="translate(151.259 170.454) rotate(10.5964) scale(46.6838 46.6838)">
<stop stop-color="#FFFF99"/>
<stop offset="0.5447" stop-color="#ED903E"/>
<stop offset="0.998" stop-color="#DF3347"/>
</radialGradient>
<linearGradient id="paint21_linear_492_1747" x1="96.4282" y1="226.966" x2="103.248" y2="127.232" gradientUnits="userSpaceOnUse">
<stop stop-color="#991743"/>
<stop offset="1" stop-color="#C63E2C"/>
</linearGradient>
<linearGradient id="paint22_linear_492_1747" x1="80.9707" y1="218.785" x2="86.888" y2="132.249" gradientUnits="userSpaceOnUse">
<stop stop-color="#FF6E27"/>
<stop offset="0.998" stop-color="#DF3347"/>
</linearGradient>
<radialGradient id="paint23_radial_492_1747" cx="0" cy="0" r="1" gradientUnits="userSpaceOnUse" gradientTransform="translate(104.805 178.407) rotate(10.5964) scale(40.2672 45.1169)">
<stop offset="0.816"/>
<stop offset="1" stop-color="#FBFBFC"/>
</radialGradient>
<linearGradient id="paint24_linear_492_1747" x1="112.804" y1="221.265" x2="118.72" y2="134.754" gradientUnits="userSpaceOnUse">
<stop stop-color="white"/>
<stop offset="0.9829" stop-color="#A463C1"/>
</linearGradient>
<radialGradient id="paint25_radial_492_1747" cx="0" cy="0" r="1" gradientUnits="userSpaceOnUse" gradientTransform="translate(354.51 335.472) rotate(3.79578) scale(26.0731 26.0731)">
<stop stop-color="#2478FD"/>
<stop offset="0.9944" stop-color="#804AD5"/>
</radialGradient>
<linearGradient id="paint26_linear_492_1747" x1="387.128" y1="197.022" x2="312.09" y2="121.494" gradientUnits="userSpaceOnUse">
<stop stop-color="#F6F3FF"/>
<stop offset="1" stop-color="#F4EEFF"/>
</linearGradient>
<linearGradient id="paint27_linear_492_1747" x1="390.05" y1="199.973" x2="315.013" y2="124.446" gradientUnits="userSpaceOnUse">
<stop stop-color="#CECDE0"/>
<stop offset="1" stop-color="#9F99AB"/>
</linearGradient>
<linearGradient id="paint28_linear_492_1747" x1="371.395" y1="181.196" x2="339.766" y2="149.361" gradientUnits="userSpaceOnUse">
<stop stop-color="#DAD6E6"/>
<stop offset="1" stop-color="#ADA7BE"/>
</linearGradient>
<linearGradient id="paint29_linear_492_1747" x1="335.881" y1="154.486" x2="344.916" y2="145.509" gradientUnits="userSpaceOnUse">
<stop stop-color="#CBCBDF"/>
<stop offset="1" stop-color="#B1A7B6"/>
</linearGradient>
<linearGradient id="paint30_linear_492_1747" x1="342.482" y1="152.095" x2="337.048" y2="146.625" gradientUnits="userSpaceOnUse">
<stop stop-color="white"/>
<stop offset="1" stop-color="#B1A7B6"/>
</linearGradient>
<linearGradient id="paint31_linear_492_1747" x1="379.404" y1="179.699" x2="344.535" y2="144.603" gradientUnits="userSpaceOnUse">
<stop/>
<stop offset="1" stop-color="white"/>
</linearGradient>
<linearGradient id="paint32_linear_492_1747" x1="24.8489" y1="61.9757" x2="90.4036" y2="58.2558" gradientUnits="userSpaceOnUse">
<stop stop-color="#F6F3FF"/>
<stop offset="1" stop-color="#F4EEFF"/>
</linearGradient>
<linearGradient id="paint33_linear_492_1747" x1="43.3639" y1="287.404" x2="144.152" y2="287.404" gradientUnits="userSpaceOnUse">
<stop stop-color="#F6F3FF"/>
<stop offset="1" stop-color="#F4EEFF"/>
</linearGradient>
<radialGradient id="paint34_radial_492_1747" cx="0" cy="0" r="1" gradientUnits="userSpaceOnUse" gradientTransform="translate(89.5321 280.11) scale(41.0349 11.6375)">
<stop stop-color="#FBFBFC"/>
<stop offset="0.9829" stop-color="#AFA3D7"/>
</radialGradient>
<radialGradient id="paint35_radial_492_1747" cx="0" cy="0" r="1" gradientUnits="userSpaceOnUse" gradientTransform="translate(90.4183 283.757) scale(42.2341 27.3255)">
<stop stop-color="#BEBCD0"/>
<stop offset="0.9829" stop-color="#8A72AF"/>
</radialGradient>
<linearGradient id="paint36_linear_492_1747" x1="103.072" y1="281.65" x2="103.072" y2="272.599" gradientUnits="userSpaceOnUse">
<stop offset="0.00198414" stop-color="#DF3347"/>
<stop offset="1" stop-color="#FF6E27"/>
</linearGradient>
</defs>
</svg>
